<svg width="11.00cm" height="15.00cm" viewBox="0 0 1100 1500" version="1.1" xmlns="http://www.w3.org/2000/svg" desc="Created with imagetracer.js version 1.2.6" ><path fill="rgb(0,0,0)" stroke="rgb(0,0,0)" stroke-width="0" opacity="1" d="M 0 198 L 0.5 198 L 1099.5 198 Q 1100.3 197.8 1100 198.5 L 1100 218.5 L 1100 219 L 1099.5 219 L 1095.5 219 L 1094.5 218 L 1081.5 218 L 1080.5 217 L 1067.5 217 L 1066.5 216 L 1051.5 216 L 1050.5 215 L 1034.5 215 L 1033.5 214 L 1019.5 214 L 1018.5 213 L 1003.5 213 L 1002.5 212 L 984.5 212 L 983.5 211 L 965.5 211 L 964.5 210 L 946.5 210 L 945.5 209 L 927.5 209 L 926.5 208 L 906.5 208 L 905.5 207 L 884.5 207 L 883.5 206 L 858.5 206 L 857.5 205 L 831.5 205 L 830.5 204 L 806.5 204 L 805.5 203 L 775.5 203 L 774.5 202 L 740.5 202 L 739.5 201 L 693.5 201 L 692.5 200 L 450.5 200 L 449.5 201 L 401.5 201 L 400.5 202 L 365.5 202 L 364.5 203 L 336.5 203 L 335.5 204 L 311.5 204 L 310.5 205 L 284.5 205 L 283.5 206 L 259.5 206 L 258.5 207 L 236.5 207 L 235.5 208 L 215.5 208 L 214.5 209 L 197.5 209 L 196.5 210 L 179.5 210 L 178.5 211 L 157.5 211 L 156.5 212 L 138.5 212 L 137.5 213 L 124.5 213 L 123.5 214 L 109.5 214 L 108.5 215 L 90.5 215 L 89.5 216 L 74.5 216 L 73.5 217 L 61.5 217 L 60.5 218 L 46.5 218 L 45.5 219 L 30.5 219 L 29.5 220 L 16.5 220 L 15.5 221 L 3.5 221 L 2.5 222 Q 0.5 222 0 222 L 0 221.5 L 0 198.5 L 0 198 Z " /><path fill="rgb(0,0,0)" stroke="rgb(0,0,0)" stroke-width="0" opacity="1" d="M 32.5 387 L 55.5 387 L 56.5 388 L 58.5 388 L 59.5 389 Q 61.2 388.7 61.5 390 L 63.5 390 L 64.5 391 L 68.5 391 L 69.5 392 L 71.5 392 Q 72 393.5 74.5 393 L 76.5 395 Q 78.2 394.7 78.5 396 L 82.5 396 L 85.5 399 Q 88 398.5 88.5 400 L 91.5 400 Q 91.8 401.3 93.5 401 L 95 402.5 L 95 404 L 95.5 404 L 99.5 404 Q 100 405.5 102.5 405 L 105.5 408 Q 107.2 407.7 107.5 409 L 109.5 409 L 112.5 411 L 114.5 411 Q 114.7 412.2 116.5 412 L 118.5 414 Q 121 413.5 121.5 415 L 125.5 415 Q 126 416.5 128.5 416 L 130 417.5 Q 129.5 419.4 130.5 419 L 135.5 419 L 136.5 420 L 139.5 420 Q 140.3 421.8 143.5 421 L 146.5 424 Q 149.8 423.2 150.5 425 L 158.5 425 L 159.5 426 L 162.5 426 L 163.5 427 Q 166.8 426.3 167.5 428 L 171.5 428 L 172.5 429 L 179.5 429 L 180.5 430 L 189.5 430 L 190.5 429 L 194.5 429 L 195.5 428 L 200.5 428 L 201.5 427 L 203.5 427 L 206.5 425 L 208.5 425 Q 208.7 423.8 210.5 424 L 213.5 421 L 214.5 421 L 215.5 420 L 216.5 420 L 217.5 419 L 218.5 419 L 219.5 418 L 220.5 418 L 221.5 417 L 222.5 417 L 223.5 416 L 224.5 416 Q 224.7 414.8 226.5 415 L 228.5 413 L 229.5 413 L 231.5 411 L 232.5 411 L 236.5 407 L 237.5 407 L 239.5 405 L 240.5 405 L 243.5 403 Q 246 403.5 246.5 402 L 250.5 402 L 251.5 401 L 266.5 401 Q 266.7 402.2 268.5 402 L 270.5 404 L 274.5 404 L 275.5 405 L 279.5 405 L 280.5 406 L 282.5 406 L 283.5 407 L 284.5 407 L 287.5 409 L 290.5 409 L 291.5 410 L 295.5 410 Q 296.3 411.8 299.5 411 L 301.5 413 Q 303.2 412.7 303.5 414 L 309.5 414 L 310.5 415 L 315.5 415 L 316.5 416 L 320.5 416 L 321.5 417 L 323.5 417 L 326.5 419 L 331.5 419 L 332.5 420 L 338.5 420 L 339.5 421 L 344.5 421 L 345.5 422 L 346.5 422 L 349.5 424 L 356.5 424 L 357.5 425 L 364.5 425 L 365.5 426 L 370.5 426 L 371.5 427 L 374.5 427 L 375.5 428 Q 378.8 427.3 379.5 429 L 384.5 429 L 385.5 430 L 394.5 430 L 395.5 431 L 404.5 431 L 405.5 432 L 409.5 432 L 410.5 433 L 414.5 433 L 415.5 434 Q 418.8 433.3 419.5 435 L 430.5 435 L 431.5 436 L 443.5 436 L 444.5 437 L 457.5 437 L 458.5 438 L 465.5 438 L 466.5 439 L 472.5 439 L 473.5 440 L 480.5 440 L 481.5 441 L 503.5 441 L 504.5 442 L 531.5 442 L 532.5 443 L 548.5 443 L 549.5 444 L 564.5 444 L 565.5 445 L 607.5 445 L 608.5 446 L 705.5 446 L 706.5 445 L 739.5 445 L 740.5 444 L 758.5 444 L 759.5 443 L 778.5 443 L 779.5 442 L 808.5 442 L 809.5 441 L 842.5 441 L 843.5 440 L 855.5 440 L 856.5 439 L 863.5 439 L 864.5 438 L 871.5 438 L 872.5 437 L 888.5 437 L 889.5 436 L 907.5 436 L 908.5 435 L 923.5 435 L 924.5 434 L 928.5 434 L 929.5 433 Q 932.8 433.8 933.5 432 L 939.5 432 L 940.5 431 L 951.5 431 L 952.5 430 L 965.5 430 L 966.5 429 L 972.5 429 L 973.5 428 L 977.5 428 L 978.5 427 Q 981.8 427.8 982.5 426 L 989.5 426 L 990.5 425 L 1005.5 425 L 1006.5 424 L 1014.5 424 L 1016.5 422 Q 1019 422.5 1019.5 421 L 1027.5 421 L 1028.5 420 L 1039.5 420 L 1040.5 419 L 1046.5 419 L 1047.5 418 L 1049.5 418 L 1050.5 417 Q 1053 417.5 1053.5 416 L 1057.5 416 L 1058.5 415 L 1068.5 415 L 1069.5 414 L 1076.5 414 L 1077.5 413 L 1079.5 413 L 1080.5 412 Q 1083 412.5 1083.5 411 L 1088.5 411 L 1089.5 410 L 1097.5 410 L 1098.5 409 L 1100 409 L 1100 409.5 L 1100 1499.5 L 1100 1500 L 1099.5 1500 L 0.5 1500 L 0 1500 L 0 1499.5 L 0 394.5 L 1.5 393 Q 4.8 393.8 5.5 392 L 11.5 392 L 12.5 391 Q 15.8 391.8 16.5 390 L 20.5 390 L 21.5 389 Q 24.8 389.8 25.5 388 L 31.5 388 L 32.5 387 Z " /><path fill="rgb(254,254,254)" stroke="rgb(254,254,254)" stroke-width="0" opacity="1" d="M 0 0 L 0.5 0 L 1099.5 0 Q 1100.3 -0.3 1100 0.5 L 1100 197.5 L 1100 198 L 1099.5 198 L 0.5 198 Q -0.3 198.3 0 197.5 L 0 0.5 L 0 0 Z " /><path fill="rgb(254,254,254)" stroke="rgb(254,254,254)" stroke-width="0" opacity="1" d="M 450.5 200 L 692.5 200 L 693.5 201 L 739.5 201 L 740.5 202 L 774.5 202 L 775.5 203 L 805.5 203 L 806.5 204 L 830.5 204 L 831.5 205 L 857.5 205 L 858.5 206 L 883.5 206 L 884.5 207 L 905.5 207 L 906.5 208 L 926.5 208 L 927.5 209 L 945.5 209 L 946.5 210 L 964.5 210 L 965.5 211 L 983.5 211 L 984.5 212 L 1002.5 212 L 1003.5 213 L 1018.5 213 L 1019.5 214 L 1033.5 214 L 1034.5 215 L 1050.5 215 L 1051.5 216 L 1066.5 216 L 1067.5 217 L 1080.5 217 L 1081.5 218 L 1094.5 218 L 1095.5 219 L 1099.5 219 L 1100 219 L 1100 219.5 L 1100 408.5 Q 1100.4 409.5 1098.5 409 L 1097.5 410 L 1089.5 410 L 1088.5 411 L 1083.5 411 L 1082.5 412 L 1080.5 412 L 1079.5 413 Q 1077 412.5 1076.5 414 L 1069.5 414 L 1068.5 415 L 1058.5 415 L 1057.5 416 L 1053.5 416 L 1052.5 417 L 1050.5 417 L 1049.5 418 Q 1047 417.5 1046.5 419 L 1040.5 419 L 1039.5 420 L 1028.5 420 L 1027.5 421 L 1019.5 421 Q 1019 422.5 1016.5 422 L 1014.5 424 L 1006.5 424 L 1005.5 425 L 990.5 425 L 989.5 426 L 982.5 426 L 981.5 427 Q 978.3 426.3 977.5 428 L 973.5 428 L 972.5 429 L 966.5 429 L 965.5 430 L 952.5 430 L 951.5 431 L 940.5 431 L 939.5 432 L 933.5 432 L 932.5 433 Q 929.3 432.3 928.5 434 L 924.5 434 L 923.5 435 L 908.5 435 L 907.5 436 L 889.5 436 L 888.5 437 L 872.5 437 L 871.5 438 L 864.5 438 L 863.5 439 L 856.5 439 L 855.5 440 L 843.5 440 L 842.5 441 L 809.5 441 L 808.5 442 L 779.5 442 L 778.5 443 L 759.5 443 L 758.5 444 L 740.5 444 L 739.5 445 L 706.5 445 L 705.5 446 L 608.5 446 L 607.5 445 L 565.5 445 L 564.5 444 L 549.5 444 L 548.5 443 L 532.5 443 L 531.5 442 L 504.5 442 L 503.5 441 L 481.5 441 L 480.5 440 L 473.5 440 L 472.5 439 L 466.5 439 L 465.5 438 L 458.5 438 L 457.5 437 L 444.5 437 L 443.5 436 L 431.5 436 L 430.5 435 L 419.5 435 L 418.5 434 Q 415.3 434.8 414.5 433 L 410.5 433 L 409.5 432 L 405.5 432 L 404.5 431 L 395.5 431 L 394.5 430 L 385.5 430 L 384.5 429 L 379.5 429 L 378.5 428 L 375.5 428 L 374.5 427 Q 371.3 427.8 370.5 426 L 365.5 426 L 364.5 425 L 357.5 425 L 356.5 424 L 349.5 424 L 348.5 423 L 347.5 423 L 344.5 421 L 339.5 421 L 338.5 420 L 332.5 420 L 331.5 419 L 326.5 419 L 325.5 418 Q 323.7 418.2 323.5 417 L 321.5 417 L 320.5 416 L 316.5 416 L 315.5 415 L 310.5 415 L 309.5 414 L 303.5 414 Q 303.2 412.8 301.5 413 L 299.5 411 L 296.5 411 L 295.5 410 L 291.5 410 Q 290.8 408.3 287.5 409 L 286.5 408 L 285.5 408 L 282.5 406 L 280.5 406 L 279.5 405 L 275.5 405 L 274.5 404 L 270.5 404 L 268.5 402 Q 266.7 402.2 266.5 401 L 251.5 401 L 250.5 402 L 246.5 402 L 245.5 403 L 243.5 403 L 242.5 404 L 241.5 404 Q 241.3 405.2 239.5 405 L 237.5 407 L 236.5 407 L 232.5 411 L 231.5 411 L 226.5 415 L 225.5 415 L 224.5 416 L 223.5 416 L 222.5 417 L 221.5 417 L 220.5 418 L 219.5 418 L 218.5 419 L 217.5 419 L 216.5 420 L 215.5 420 Q 215.2 421.2 213.5 421 L 210.5 424 Q 208.7 423.7 208.5 425 L 206.5 425 L 205.5 426 Q 203.7 425.7 203.5 427 L 201.5 427 L 200.5 428 L 195.5 428 L 194.5 429 L 190.5 429 L 189.5 430 L 180.5 430 L 179.5 429 L 172.5 429 L 171.5 428 L 167.5 428 L 166.5 427 L 163.5 427 L 162.5 426 Q 159.3 426.7 158.5 425 L 150.5 425 Q 149.8 423.2 146.5 424 L 143.5 421 L 140.5 421 L 139.5 420 Q 136.3 420.8 135.5 419 L 130.5 419 L 130 419 Q 130.5 416.9 128.5 416 L 126.5 416 L 125.5 415 L 121.5 415 Q 121 413.5 118.5 414 L 116.5 412 Q 114.7 412.2 114.5 411 L 112.5 411 L 109.5 409 L 107.5 409 Q 107.3 407.8 105.5 408 L 102.5 405 Q 100 405.5 99.5 404 L 95.5 404 L 95 404 Q 95.5 401.9 93.5 401 Q 91.7 401.2 91.5 400 L 88.5 400 Q 88 398.5 85.5 399 L 82.5 396 L 78.5 396 Q 78.3 394.8 76.5 395 L 74.5 393 L 72.5 393 L 71.5 392 Q 69 392.5 68.5 391 L 64.5 391 L 63.5 390 L 61.5 390 L 60.5 389 Q 58.7 389.2 58.5 388 L 56.5 388 L 55.5 387 L 32.5 387 L 31.5 388 L 25.5 388 L 24.5 389 Q 21.3 388.3 20.5 390 L 16.5 390 L 15.5 391 Q 12.3 390.3 11.5 392 L 5.5 392 L 4.5 393 Q 1.2 392.2 0.5 394 L 0 393.5 L 0 222.5 L 0 222 Q 0.5 222 2.5 222 L 3.5 221 L 15.5 221 L 16.5 220 L 29.5 220 L 30.5 219 L 45.5 219 L 46.5 218 L 60.5 218 L 61.5 217 L 73.5 217 L 74.5 216 L 89.5 216 L 90.5 215 L 108.5 215 L 109.5 214 L 123.5 214 L 124.5 213 L 137.5 213 L 138.5 212 L 156.5 212 L 157.5 211 L 178.5 211 L 179.5 210 L 196.5 210 L 197.5 209 L 214.5 209 L 215.5 208 L 235.5 208 L 236.5 207 L 258.5 207 L 259.5 206 L 283.5 206 L 284.5 205 L 310.5 205 L 311.5 204 L 335.5 204 L 336.5 203 L 364.5 203 L 365.5 202 L 400.5 202 L 401.5 201 L 449.5 201 L 450.5 200 Z " /></svg>