<svg width="11.00cm" height="13.00cm" viewBox="0 0 1100 1300" version="1.1" xmlns="http://www.w3.org/2000/svg" desc="Created with imagetracer.js version 1.2.6" ><path fill="rgb(0,0,0)" stroke="rgb(0,0,0)" stroke-width="0" opacity="1" d="M 0 214 L 0.5 214 L 1099.5 214 Q 1100.3 213.8 1100 214.5 L 1100 247.5 L 1100 248 L 1099.5 248 L 1092.5 248 L 1091.5 247 L 1081.5 247 L 1080.5 246 L 1073.5 246 L 1072.5 245 L 1062.5 245 L 1061.5 244 L 1053.5 244 L 1052.5 243 L 1042.5 243 L 1041.5 242 L 1032.5 242 L 1031.5 241 L 1021.5 241 L 1020.5 240 L 1010.5 240 L 1009.5 239 L 1000.5 239 L 999.5 238 L 987.5 238 L 986.5 237 L 978.5 237 L 977.5 236 L 965.5 236 L 964.5 235 L 955.5 235 L 954.5 234 L 941.5 234 L 940.5 233 L 928.5 233 L 927.5 232 L 916.5 232 L 915.5 231 L 901.5 231 L 900.5 230 L 890.5 230 L 889.5 229 L 874.5 229 L 873.5 228 L 858.5 228 L 857.5 227 L 844.5 227 L 843.5 226 L 828.5 226 L 827.5 225 L 811.5 225 L 810.5 224 L 796.5 224 L 795.5 223 L 773.5 223 L 772.5 222 L 756.5 222 L 755.5 221 L 731.5 221 L 730.5 220 L 705.5 220 L 704.5 219 L 681.5 219 L 680.5 218 L 645.5 218 L 644.5 217 L 430.5 217 L 429.5 218 L 390.5 218 L 389.5 219 L 366.5 219 L 365.5 220 L 340.5 220 L 339.5 221 L 317.5 221 L 316.5 222 L 299.5 222 L 298.5 223 L 277.5 223 L 276.5 224 L 260.5 224 L 259.5 225 L 244.5 225 L 243.5 226 L 227.5 226 L 226.5 227 L 212.5 227 L 211.5 228 L 196.5 228 L 195.5 229 L 181.5 229 L 180.5 230 L 170.5 230 L 169.5 231 L 153.5 231 L 152.5 232 L 141.5 232 L 140.5 233 L 128.5 233 L 127.5 234 L 114.5 234 L 113.5 235 L 104.5 235 L 103.5 236 L 90.5 236 L 89.5 237 L 80.5 237 L 79.5 238 L 68.5 238 L 67.5 239 L 57.5 239 L 56.5 240 L 46.5 240 L 45.5 241 L 34.5 241 L 33.5 242 L 25.5 242 L 24.5 243 L 12.5 243 L 11.5 244 L 4.5 244 L 3.5 245 Q 0.8 245 0 245 L 0 244.5 L 0 214.5 L 0 214 Z " /><path fill="rgb(0,0,0)" stroke="rgb(0,0,0)" stroke-width="0" opacity="1" d="M 143.5 526 L 152.5 526 Q 152.8 527.3 154.5 527 L 159.5 532 Q 161.2 531.7 161.5 533 L 163.5 533 L 164.5 534 L 165.5 534 L 166.5 535 L 167.5 535 Q 167.8 536.3 169.5 536 L 171.5 538 L 172.5 538 L 176.5 542 L 177.5 542 L 180.5 544 L 182.5 544 Q 182.7 545.3 184.5 545 L 187.5 548 L 188.5 548 L 190.5 550 L 192.5 550 L 193.5 551 L 194.5 551 L 197.5 553 L 200.5 553 Q 201 554.5 203.5 554 L 204.5 555 L 205.5 555 Q 205.7 556.3 207.5 556 L 210.5 559 Q 213 558.5 213.5 560 L 216.5 560 L 217.5 561 L 219.5 561 Q 220 562.5 222.5 562 L 225.5 564 L 228.5 564 Q 228.7 565.3 230.5 565 L 235.5 570 Q 238 569.5 238.5 571 L 242.5 571 L 243.5 572 L 247.5 572 L 248.5 573 Q 251.8 572.3 252.5 574 L 255.5 574 L 256.5 575 L 258.5 575 Q 259 576.5 261.5 576 L 262.5 577 L 263.5 577 L 264.5 578 L 265.5 578 L 266.5 579 L 267.5 579 L 270.5 581 Q 273.8 580.3 274.5 582 L 279.5 582 L 280.5 583 L 284.5 583 L 285.5 584 L 289.5 584 L 290.5 585 L 294.5 585 L 295.5 586 L 297.5 586 L 298.5 587 Q 301 586.5 301.5 588 L 304.5 588 L 305.5 589 L 308.5 589 L 309.5 590 L 312.5 590 L 313.5 591 L 316.5 591 L 317.5 592 Q 320.7 591.3 321.5 593 L 326.5 593 L 327.5 594 L 333.5 594 L 334.5 595 L 340.5 595 L 341.5 596 L 347.5 596 L 348.5 597 L 352.5 597 L 353.5 598 Q 356.8 597.3 357.5 599 L 361.5 599 L 362.5 600 L 367.5 600 L 368.5 601 L 374.5 601 L 375.5 602 L 381.5 602 L 382.5 603 L 388.5 603 L 389.5 604 L 395.5 604 L 396.5 605 L 405.5 605 L 406.5 606 L 420.5 606 L 421.5 607 L 434.5 607 L 435.5 608 L 445.5 608 L 446.5 609 L 454.5 609 L 455.5 610 L 461.5 610 L 462.5 611 L 468.5 611 L 469.5 612 L 479.5 612 L 480.5 613 L 513.5 613 L 514.5 614 L 548.5 614 L 549.5 615 L 593.5 615 L 594.5 614 L 647.5 614 L 648.5 613 L 676.5 613 L 677.5 612 L 686.5 612 L 687.5 611 L 695.5 611 L 696.5 610 L 704.5 610 L 705.5 609 L 714.5 609 L 715.5 608 L 728.5 608 L 729.5 607 L 745.5 607 L 746.5 606 L 758.5 606 L 759.5 605 L 769.5 605 L 770.5 604 L 784.5 604 L 785.5 603 L 796.5 603 L 797.5 602 L 807.5 602 L 808.5 601 L 816.5 601 L 817.5 600 L 825.5 600 L 826.5 599 Q 829.8 599.8 830.5 598 L 834.5 598 L 835.5 597 L 839.5 597 L 840.5 596 L 848.5 596 L 849.5 595 L 859.5 595 L 860.5 594 L 870.5 594 L 871.5 593 L 879.5 593 L 880.5 592 L 884.5 592 L 885.5 591 L 889.5 591 L 890.5 590 L 895.5 590 L 896.5 589 L 900.5 589 L 901.5 588 Q 904 588.5 904.5 587 L 907.5 587 L 908.5 586 Q 911 586.5 911.5 585 L 915.5 585 L 916.5 584 L 922.5 584 L 923.5 583 L 931.5 583 L 932.5 582 L 939.5 582 L 940.5 581 L 944.5 581 L 945.5 580 L 946.5 580 L 949.5 578 Q 952 578.5 952.5 577 L 955.5 577 L 956.5 576 Q 959 576.5 959.5 575 L 962.5 575 L 963.5 574 L 968.5 574 L 969.5 573 L 975.5 573 L 976.5 572 L 983.5 572 L 984.5 571 L 988.5 571 L 989.5 570 L 993.5 570 Q 993.8 568.8 995.5 569 L 997.5 567 L 998.5 567 L 1001.5 565 L 1004.5 565 L 1005.5 564 Q 1008.8 564.8 1009.5 563 L 1013.5 563 L 1014.5 562 L 1019.5 562 L 1020.5 561 L 1023.5 561 L 1024.5 560 Q 1027.8 560.8 1028.5 559 L 1031.5 559 L 1037.5 555 Q 1040 555.5 1040.5 554 L 1043.5 554 L 1044.5 553 L 1050.5 553 L 1051.5 552 Q 1054 552.5 1054.5 551 L 1057.5 551 L 1058.5 550 L 1060.5 550 L 1061.5 549 L 1063.5 549 Q 1064 547.5 1066.5 548 L 1068.5 546 L 1070.5 546 L 1071.5 545 Q 1074 545.5 1074.5 544 L 1078.5 544 L 1079.5 543 L 1082.5 543 Q 1083.3 541.3 1086.5 542 L 1087.5 541 L 1088.5 541 L 1089.5 540 L 1090.5 540 L 1093.5 538 L 1095.5 538 L 1098.5 536 L 1100 536 L 1100 536.5 L 1100 1299.5 L 1100 1300 L 1099.5 1300 L 0.5 1300 L 0 1300 L 0 1299.5 L 0 564.5 L 0.5 564 L 2 565.5 L 2 566.5 Q 3.2 566.8 3 568.5 L 4.5 570 Q 6.2 569.7 6.5 571 L 8.5 571 L 9.5 572 L 12.5 572 L 13.5 573 L 15.5 573 Q 16 574.5 18.5 574 L 21.5 576 L 23.5 576 L 24.5 577 L 25.5 577 L 26.5 578 L 27.5 578 Q 27.7 579.3 29.5 579 L 31.5 581 L 36.5 581 L 37.5 582 L 48.5 582 L 49.5 581 L 52.5 581 L 55.5 579 L 57.5 579 Q 58 577.5 60.5 578 L 61.5 577 L 62.5 577 L 65.5 575 L 67.5 575 L 68.5 574 L 69.5 574 L 70.5 573 L 71.5 573 L 72.5 572 L 73.5 572 L 74.5 571 L 75.5 571 Q 75.7 569.8 77.5 570 L 82.5 565 L 83.5 565 L 86.5 562 L 87.5 562 L 89.5 560 L 90.5 560 L 91.5 559 L 92.5 559 Q 92.7 557.7 94.5 558 L 98.5 554 L 99.5 554 L 104.5 549 L 105.5 549 L 111.5 543 L 112.5 543 L 117.5 538 L 118.5 538 L 122.5 534 L 123.5 534 L 125.5 532 L 126.5 532 Q 126.7 530.7 128.5 531 L 129.5 530 L 130.5 530 L 133.5 528 Q 136.8 528.7 137.5 527 L 142.5 527 L 143.5 526 Z " /></svg>