<svg width="17.00cm" height="13.00cm" viewBox="0 0 1700 1300" version="1.1" xmlns="http://www.w3.org/2000/svg" desc="Created with imagetracer.js version 1.2.6" ><path fill="rgb(0,0,0)" stroke="rgb(0,0,0)" stroke-width="0" opacity="1" d="M 1160.5 137 L 1395.5 137 L 1396.5 138 L 1399.5 138 L 1400.5 139 L 1403.5 139 L 1404.5 140 L 1407.5 140 L 1408.5 141 L 1411.5 141 L 1412.5 142 L 1415.5 142 L 1416.5 143 L 1419.5 143 L 1420.5 144 L 1423.5 144 L 1424.5 145 L 1427.5 145 L 1428.5 146 L 1431.5 146 L 1432.5 147 L 1435.5 147 L 1436.5 148 L 1439.5 148 L 1440.5 149 L 1443.5 149 L 1444.5 150 L 1447.5 150 L 1448.5 151 L 1451.5 151 L 1452.5 152 L 1455.5 152 L 1456.5 153 L 1459.5 153 L 1460.5 154 L 1463.5 154 L 1464.5 155 L 1467.5 155 L 1468.5 156 L 1471.5 156 L 1472.5 157 L 1475.5 157 Q 1476.3 158.8 1479.5 158 L 1480.5 159 Q 1483 158.5 1483.5 160 L 1487.5 160 L 1488.5 161 Q 1491 160.5 1491.5 162 L 1494.5 162 L 1495.5 163 L 1498.5 163 L 1499.5 164 L 1502.5 164 L 1503.5 165 L 1506.5 165 L 1507.5 166 L 1510.5 166 L 1511.5 167 L 1514.5 167 L 1515.5 168 L 1518.5 168 L 1519.5 169 L 1522.5 169 L 1523.5 170 L 1526.5 170 L 1527.5 171 L 1530.5 171 L 1531.5 172 L 1534.5 172 L 1535.5 173 L 1538.5 173 L 1539.5 174 L 1542.5 174 L 1543.5 175 L 1546.5 175 L 1547.5 176 L 1550.5 176 L 1551.5 177 L 1554.5 177 L 1555.5 178 L 1558.5 178 L 1559.5 179 L 1562.5 179 L 1563.5 180 L 1566.5 180 L 1567.5 181 L 1570.5 181 L 1571.5 182 L 1574.5 182 L 1575.5 183 L 1578.5 183 L 1579.5 184 L 1582.5 184 L 1583.5 185 L 1586.5 185 L 1587.5 186 L 1590.5 186 L 1591.5 187 L 1594.5 187 L 1595.5 188 L 1598.5 188 L 1599.5 189 L 1602.5 189 L 1603.5 190 L 1606.5 190 L 1607.5 191 L 1610.5 191 L 1611.5 192 L 1614.5 192 L 1615.5 193 L 1618.5 193 L 1619.5 194 L 1622.5 194 L 1623.5 195 L 1626.5 195 L 1627.5 196 L 1630.5 196 L 1631.5 197 L 1634.5 197 L 1635.5 198 L 1638.5 198 L 1639.5 199 L 1642.5 199 L 1643.5 200 L 1646.5 200 L 1647.5 201 L 1650.5 201 L 1651.5 202 L 1654.5 202 L 1655.5 203 L 1658.5 203 L 1659.5 204 L 1662.5 204 L 1663.5 205 L 1666.5 205 Q 1667.3 206.8 1670.5 206 L 1671.5 207 Q 1674 206.5 1674.5 208 L 1677.5 208 L 1678.5 209 L 1681.5 209 L 1682.5 210 L 1685.5 210 L 1686.5 211 Q 1689.8 210.3 1690.5 212 L 1694.5 212 Q 1695.3 213.8 1698.5 213 L 1700 214.5 L 1700 244.5 L 1699.5 245 L 1698.5 244 L 1695.5 244 L 1694.5 243 Q 1691.3 243.8 1690.5 242 L 1686.5 242 L 1685.5 241 Q 1682.2 241.8 1681.5 240 L 1677.5 240 L 1676.5 239 L 1672.5 239 L 1671.5 238 Q 1668.3 238.8 1667.5 237 L 1663.5 237 L 1662.5 236 Q 1659.3 236.8 1658.5 235 L 1654.5 235 L 1653.5 234 Q 1650.3 234.8 1649.5 233 L 1645.5 233 L 1644.5 232 L 1641.5 232 L 1640.5 231 Q 1637.2 231.8 1636.5 230 L 1632.5 230 L 1631.5 229 L 1627.5 229 L 1626.5 228 Q 1623.2 228.8 1622.5 227 L 1618.5 227 L 1617.5 226 L 1614.5 226 L 1613.5 225 Q 1610.3 225.7 1609.5 224 L 1604.5 224 L 1603.5 223 L 1599.5 223 L 1598.5 222 L 1595.5 222 L 1594.5 221 Q 1591.3 221.8 1590.5 220 L 1586.5 220 L 1585.5 219 L 1581.5 219 L 1580.5 218 L 1576.5 218 L 1575.5 217 Q 1572.3 217.8 1571.5 216 L 1567.5 216 L 1566.5 215 L 1562.5 215 L 1561.5 214 L 1557.5 214 L 1556.5 213 L 1553.5 213 L 1552.5 212 Q 1549.3 212.8 1548.5 211 L 1544.5 211 L 1543.5 210 L 1539.5 210 L 1538.5 209 L 1534.5 209 L 1533.5 208 Q 1530.3 208.7 1529.5 207 L 1525.5 207 L 1524.5 206 L 1520.5 206 L 1519.5 205 Q 1516.3 205.8 1515.5 204 L 1511.5 204 L 1510.5 203 L 1506.5 203 L 1505.5 202 L 1501.5 202 L 1500.5 201 Q 1497.3 201.8 1496.5 200 L 1492.5 200 L 1491.5 199 L 1487.5 199 L 1486.5 198 L 1482.5 198 L 1481.5 197 L 1477.5 197 L 1476.5 196 L 1472.5 196 L 1471.5 195 L 1467.5 195 L 1466.5 194 L 1462.5 194 L 1461.5 193 L 1457.5 193 L 1456.5 192 Q 1453.8 192 1453 192 Q 1453 192.5 1453 194.5 L 1456.5 198 L 1457.5 198 L 1462.5 202 L 1463.5 202 Q 1463.8 203.3 1465.5 203 L 1468.5 206 L 1469.5 206 L 1470.5 207 L 1471.5 207 L 1472.5 208 L 1473.5 208 Q 1473.8 209.2 1475.5 209 L 1477.5 211 Q 1479.2 210.7 1479.5 212 L 1481 212 L 1481 213.5 L 1483 215.5 L 1482.5 216 L 1481 216 L 1481 218 L 1480.5 218 L 1471.5 218 L 1470.5 219 L 1460.5 219 L 1459.5 220 L 1426.5 220 L 1425.5 221 L 1389.5 221 L 1388.5 222 L 1378.5 222 L 1377.5 223 L 1372.5 223 L 1371.5 224 L 1367.5 224 L 1366.5 225 L 1353.5 225 L 1352.5 226 Q 1349.3 225.3 1348.5 227 L 1344.5 227 L 1343.5 228 L 1339.5 228 L 1337.5 230 L 1336.5 230 L 1335.5 231 L 1334.5 231 L 1333.5 232 L 1332.5 232 Q 1332.3 233.3 1330.5 233 L 1328.5 235 L 1326.5 235 L 1322 239.5 Q 1323.5 240 1323 242.5 Q 1321 243.5 1323 244.5 L 1323 245.5 L 1321 247.5 Q 1321.2 249.2 1320 249.5 L 1320 252.5 L 1321 253.5 L 1321 258.5 L 1320 259.5 L 1323.5 263 L 1324.5 263 L 1325.5 264 L 1326.5 264 L 1327.5 265 L 1328.5 265 L 1329.5 266 L 1330.5 266 L 1333.5 268 L 1335.5 268 L 1336.5 269 L 1338.5 269 L 1339.5 270 L 1341.5 270 L 1342.5 271 L 1344.5 271 Q 1345 272.5 1347.5 272 L 1348.5 273 Q 1350.2 272.7 1350.5 274 L 1352.5 274 L 1355.5 276 Q 1358 275.5 1358.5 277 L 1361.5 277 L 1362.5 278 L 1364.5 278 L 1365.5 279 L 1367.5 279 Q 1368 280.5 1370.5 280 L 1373.5 282 L 1375.5 282 L 1376.5 283 Q 1379 282.5 1379.5 284 L 1382.5 284 L 1383.5 285 L 1385.5 285 Q 1386 286.5 1388.5 286 L 1391.5 288 L 1393.5 288 L 1394.5 289 L 1396.5 289 L 1397.5 290 L 1399.5 290 L 1400.5 291 L 1402.5 291 L 1403.5 292 L 1405.5 292 L 1406.5 293 L 1408.5 293 L 1409.5 294 L 1411.5 294 Q 1412 295.5 1414.5 295 L 1415.5 296 L 1416.5 296 L 1419.5 298 L 1421.5 298 L 1422.5 299 L 1424.5 299 Q 1425 300.5 1427.5 300 L 1430.5 302 L 1432.5 302 Q 1433 303.5 1435.5 303 L 1438.5 305 L 1440.5 305 L 1441.5 306 L 1442.5 306 L 1443.5 307 L 1444.5 307 L 1445.5 308 L 1446.5 308 L 1447.5 309 L 1448.5 309 L 1449.5 310 L 1450.5 310 Q 1450.8 311.2 1452.5 311 L 1454.5 313 L 1455.5 313 L 1459 316.5 L 1459 320.5 L 1460 321.5 L 1460 326.5 Q 1461.5 327 1461 329.5 L 1459 331.5 L 1461 333.5 Q 1459 334.5 1461 335.5 L 1461 339.5 Q 1459.8 339.8 1460 341.5 L 1461 342.5 L 1461 348.5 Q 1462.5 349 1462 351.5 Q 1460 352.5 1462 353.5 Q 1461.7 355.2 1463 355.5 L 1463 360.5 L 1465 362.5 L 1465 365.5 L 1466 366.5 L 1466 367.5 L 1467 368.5 L 1467 369.5 L 1468 370.5 L 1468 371.5 Q 1469.3 371.8 1469 373.5 L 1472 376.5 Q 1471.7 378.2 1473 378.5 L 1473 380 L 1474.5 380 L 1477 382.5 L 1477 383.5 L 1482.5 389 L 1483.5 389 L 1488.5 393 L 1489.5 393 L 1490.5 394 L 1491.5 394 L 1492.5 395 L 1493.5 395 L 1494.5 396 L 1495.5 396 L 1498.5 398 L 1500.5 398 L 1501.5 399 L 1502.5 399 L 1505.5 401 L 1507.5 401 L 1510.5 403 L 1512.5 403 L 1513.5 404 L 1514.5 404 L 1517.5 406 L 1519.5 406 L 1520.5 407 L 1521.5 407 L 1522.5 408 L 1523.5 408 L 1526.5 410 L 1528.5 410 L 1529.5 411 L 1531.5 411 L 1532.5 412 L 1534.5 412 Q 1535 413.5 1537.5 413 L 1540.5 415 L 1542.5 415 L 1545.5 417 L 1547.5 417 L 1548.5 418 L 1549.5 418 L 1552.5 420 Q 1555 419.5 1555.5 421 L 1558.5 421 L 1561.5 423 L 1563.5 423 L 1564.5 424 L 1566.5 424 L 1569.5 426 L 1571.5 426 L 1572.5 427 L 1573.5 427 L 1574.5 428 L 1575.5 428 L 1578.5 430 L 1580.5 430 L 1581.5 431 L 1582.5 431 L 1583.5 432 L 1584.5 432 Q 1584.7 433.3 1586.5 433 L 1591.5 437 L 1592.5 437 Q 1592.8 438.2 1594.5 438 L 1596.5 440 L 1597.5 440 L 1599.5 442 L 1600.5 442 L 1602.5 444 L 1603.5 444 L 1612 452.5 L 1612 453.5 Q 1613.3 453.8 1613 455.5 L 1614.5 457 L 1615.5 457 L 1623 464.5 L 1623 465.5 L 1626 468.5 L 1626 469.5 L 1628 471.5 L 1628 472.5 L 1634 478.5 Q 1633.7 480.2 1635 480.5 L 1635 482.5 L 1639.5 487 L 1640.5 487 L 1645 491.5 L 1645 492.5 L 1646 493.5 L 1646 494.5 Q 1647.2 494.8 1647 496.5 L 1646 497.5 L 1656 507.5 L 1656 508.5 L 1657 509.5 L 1657 510.5 Q 1658.2 510.7 1658 512.5 L 1660 514.5 L 1660 516.5 L 1667 523.5 L 1667 524.5 Q 1668.3 524.8 1668 526.5 L 1671 529.5 L 1671 530.5 L 1672 531.5 L 1672 532.5 Q 1673.2 532.8 1673 534.5 L 1674.5 536 L 1675.5 536 L 1683 543.5 Q 1682.7 545.2 1684 545.5 L 1684 547.5 L 1691.5 555 L 1692.5 555 L 1699 561.5 Q 1698.7 563.2 1700 563.5 L 1700 1299.5 L 1700 1300 L 1699.5 1300 L 0.5 1300 L 0 1300 L 0 1299.5 L 0 656.5 L 1.5 655 L 2.5 655 L 3.5 654 L 4.5 654 L 5.5 653 L 6.5 653 L 7.5 652 L 8.5 652 L 9.5 651 L 10.5 651 L 11.5 650 L 12.5 650 L 13.5 649 L 14.5 649 Q 14.7 647.7 16.5 648 L 18.5 646 L 19.5 646 Q 19.8 644.8 21.5 645 L 23.5 643 L 24.5 643 Q 24.8 641.8 26.5 642 L 28.5 640 L 29.5 640 Q 29.7 638.7 31.5 639 L 33.5 637 L 34.5 637 L 38.5 633 L 39.5 633 L 44.5 628 L 45.5 628 L 50 623.5 L 50 622.5 L 58 614.5 L 58 613.5 L 62 609.5 L 62 608.5 L 66 604.5 L 66 603.5 L 75.5 594 L 76.5 594 L 79.5 591 L 80.5 591 L 83.5 588 L 84.5 588 L 89.5 584 L 90.5 584 Q 90.8 582.8 92.5 583 L 97.5 579 L 98.5 579 Q 98.7 577.8 100.5 578 L 102.5 576 L 103.5 576 Q 103.8 574.8 105.5 575 L 107.5 573 L 108.5 573 Q 108.8 571.8 110.5 572 L 112.5 570 L 113.5 570 Q 113.8 568.8 115.5 569 L 117.5 567 L 118.5 567 L 119.5 566 L 120.5 566 Q 120.8 564.8 122.5 565 L 124.5 563 L 125.5 563 L 128.5 561 L 129.5 561 L 131.5 559 L 132.5 559 L 133.5 558 L 134.5 558 L 135.5 557 L 136.5 557 L 137.5 556 L 138.5 556 L 141.5 554 L 143.5 554 L 144.5 553 L 145.5 553 L 146.5 552 L 147.5 552 L 148.5 551 L 149.5 551 L 150.5 550 L 151.5 550 L 152.5 549 L 153.5 549 L 154.5 548 L 155.5 548 L 156.5 547 L 157.5 547 Q 157.8 545.7 159.5 546 L 161.5 544 L 162.5 544 L 163.5 543 L 164.5 543 L 165.5 542 L 166.5 542 Q 166.8 540.7 168.5 541 L 170.5 539 L 171.5 539 L 172.5 538 L 173.5 538 L 174.5 537 L 175.5 537 L 176.5 536 L 177.5 536 L 178.5 535 L 179.5 535 L 180.5 534 L 181.5 534 L 182.5 533 L 183.5 533 L 184.5 532 L 185.5 532 L 186.5 531 L 187.5 531 L 188.5 530 L 189.5 530 L 190.5 529 L 191.5 529 L 192.5 528 L 193.5 528 L 194.5 527 L 195.5 527 L 196.5 526 L 197.5 526 L 198.5 525 L 199.5 525 L 200.5 524 L 201.5 524 L 202.5 523 L 203.5 523 L 204.5 522 L 205.5 522 L 206.5 521 L 207.5 521 L 208.5 520 L 209.5 520 L 210.5 519 L 211.5 519 L 212.5 518 L 213.5 518 L 216.5 516 L 217.5 516 L 218.5 515 L 220.5 515 L 221.5 514 L 222.5 514 L 223.5 513 L 224.5 513 Q 224.7 511.8 226.5 512 L 227.5 511 L 228.5 511 L 229.5 510 L 230.5 510 L 231.5 509 L 232.5 509 L 233.5 508 L 234.5 508 L 235.5 507 L 236.5 507 L 237.5 506 L 238.5 506 L 239.5 505 L 240.5 505 L 241.5 504 L 242.5 504 L 243.5 503 L 244.5 503 Q 244.7 501.7 246.5 502 L 248.5 500 L 250.5 500 Q 250.8 498.8 252.5 499 L 254.5 497 L 255.5 497 L 256.5 496 L 257.5 496 L 258.5 495 L 259.5 495 L 260.5 494 L 261.5 494 L 262.5 493 L 263.5 493 Q 263.8 491.7 265.5 492 L 267.5 490 L 268.5 490 L 269.5 489 L 270.5 489 L 271.5 488 L 272.5 488 Q 272.8 486.7 274.5 487 L 277.5 484 L 278.5 484 L 290 472.5 Q 289.7 470.7 291 470.5 L 291 468.5 L 292 467.5 L 292 465.5 L 293 464.5 L 293 463.5 Q 294.2 463.3 294 461.5 L 296 459.5 L 296 458.5 Q 297.3 458.2 297 456.5 L 300.5 453 L 301.5 453 L 304.5 450 L 305.5 450 L 307.5 448 L 308.5 448 L 313.5 444 L 314.5 444 L 315.5 443 L 316.5 443 L 319.5 441 L 321.5 441 L 324.5 439 L 326.5 439 L 327.5 438 L 329.5 438 Q 330 436.5 332.5 437 L 333.5 436 L 334.5 436 L 337.5 434 L 339.5 434 L 342.5 432 L 344.5 432 L 345.5 431 Q 348 431.5 348.5 430 L 351.5 430 L 352.5 429 L 355.5 429 L 356.5 428 Q 359.7 428.8 360.5 427 L 366.5 427 L 369 429.5 L 369 430.5 L 371 432.5 L 371 437.5 Q 369.5 438 370 440.5 L 368 442.5 Q 368 444.5 368 445 L 369.5 445 L 372 447.5 L 372 451.5 L 372 452 L 373.5 452 L 382.5 443 L 383.5 443 L 385.5 441 L 386.5 441 L 389.5 438 L 390.5 438 L 395.5 434 L 396.5 434 L 397.5 433 L 398.5 433 L 401.5 431 L 403.5 431 L 406.5 429 L 408.5 429 Q 409 427.5 411.5 428 L 414.5 426 L 416.5 426 L 419.5 424 L 421.5 424 L 422.5 423 L 424.5 423 L 425.5 422 Q 428 422.5 428.5 421 L 431.5 421 L 432.5 420 Q 435 420.5 435.5 419 L 438.5 419 L 439.5 418 L 442.5 418 L 443.5 417 Q 446 417.5 446.5 416 Q 449.8 416.7 450.5 415 L 454.5 415 L 455.5 414 L 456.5 415 L 458.5 415 L 459.5 416 L 460.5 416 Q 460.7 417.3 462.5 417 L 466 420.5 L 466 424.5 L 469 427.5 L 469 428.5 L 471 430.5 L 471 432 L 472.5 432 L 474.5 434 L 478.5 434 Q 479.3 435.8 482.5 435 L 483.5 434 L 485.5 434 L 487.5 432 L 488.5 432 L 489.5 431 L 490.5 431 L 491.5 430 L 492.5 430 Q 492.7 428.7 494.5 429 L 496.5 427 L 497.5 427 L 499.5 425 L 500.5 425 L 504 421.5 L 504 420.5 L 507 417.5 L 507 416.5 L 508 415.5 L 508 414.5 L 509 413.5 L 509 412.5 L 510 411.5 L 510 410.5 L 511 409.5 L 511 408.5 Q 512.3 408.3 512 406.5 L 513 405.5 L 513 404.5 L 514 403.5 L 514 402.5 L 516 399.5 L 516 397.5 Q 517.3 397.2 517 395.5 L 519 393.5 L 519 392.5 L 524.5 387 L 525.5 387 L 527.5 385 L 528.5 385 L 530.5 383 L 531.5 383 L 534.5 381 L 536.5 381 L 537.5 380 L 539.5 380 L 542.5 378 Q 545 378.5 545.5 377 L 548.5 377 L 549.5 376 L 555.5 376 L 556.5 375 L 573.5 375 Q 574 376.5 576.5 376 L 580.5 380 L 581.5 380 L 586.5 385 L 587.5 385 Q 587.8 386.3 589.5 386 L 591.5 388 L 595.5 388 Q 596 389.5 598.5 389 L 599.5 388 L 604.5 388 L 605.5 387 L 606.5 387 Q 606.7 385.8 608.5 386 L 613.5 382 L 614.5 382 L 615.5 381 L 616.5 381 Q 616.8 379.7 618.5 380 L 621.5 377 L 622.5 377 L 627 372.5 L 627 371.5 L 630 368.5 L 630 367.5 L 633 364.5 L 633 363.5 L 636 360.5 L 636 359.5 L 638 357.5 L 638 356.5 L 639 355.5 L 639 354.5 L 640 353.5 L 640 352.5 L 641 351.5 L 641 350.5 Q 642.3 350.2 642 348.5 L 649.5 341 L 650.5 341 L 656 335.5 Q 656.8 332.3 655 331.5 L 656 330.5 L 656 328.5 L 657 327.5 L 657 326.5 L 658 325.5 L 658 324.5 Q 659.3 324.3 659 322.5 L 661 320.5 L 661 319.5 L 662 318.5 L 662 317.5 Q 663.3 317.3 663 315.5 L 665 313.5 L 665 312.5 Q 666.2 312.2 666 310.5 L 669 307.5 L 669 306.5 L 676 299.5 L 676 298.5 L 677 297.5 L 677 296.5 Q 678.3 296.2 678 294.5 L 681.5 291 L 682.5 291 L 684 289.5 Q 683.7 287.7 685 287.5 L 683.5 286 Q 681.7 286.2 681.5 285 L 668.5 285 L 667.5 286 Q 664.3 285.3 663.5 287 L 658.5 287 L 657.5 288 L 653.5 288 L 652.5 289 L 648.5 289 L 647.5 290 L 644.5 290 L 643.5 291 Q 640.3 290.3 639.5 292 L 633.5 292 L 632.5 293 L 630.5 293 L 629.5 294 Q 627 293.5 626.5 295 Q 623.3 294.2 622.5 296 L 618.5 296 L 617.5 297 L 614.5 297 L 613.5 298 L 611.5 298 L 610.5 299 Q 608 298.5 607.5 300 Q 604.3 299.3 603.5 301 L 599.5 301 L 598.5 302 L 596.5 302 L 595.5 303 Q 593 302.5 592.5 304 L 589.5 304 L 588.5 305 L 585.5 305 Q 584.7 306.8 581.5 306 L 580.5 307 L 578.5 307 L 577.5 308 Q 575 307.5 574.5 309 L 571.5 309 L 570.5 310 L 568.5 310 L 567.5 311 L 565.5 311 L 564.5 312 L 562.5 312 L 561.5 313 Q 559 312.5 558.5 314 L 555.5 314 Q 554.8 315.8 551.5 315 L 550.5 316 L 548.5 316 L 545.5 318 Q 542.3 317.3 541.5 319 L 537.5 319 L 536.5 320 L 534.5 320 L 533.5 321 Q 531.7 320.7 531.5 322 L 529.5 322 L 528.5 323 L 525.5 323 L 524.5 324 Q 522 323.5 521.5 325 L 518.5 325 L 517.5 326 L 515.5 326 L 514.5 327 L 512.5 327 L 511.5 328 Q 509 327.5 508.5 329 L 505.5 329 Q 504.7 330.8 501.5 330 L 500.5 331 L 498.5 331 L 495.5 333 Q 493 332.5 492.5 334 L 489.5 334 L 488.5 335 L 485.5 335 L 482.5 337 L 480.5 337 L 479.5 338 Q 477 337.5 476.5 339 L 473.5 339 L 472.5 340 L 469.5 340 L 468.5 341 L 466.5 341 L 465.5 342 L 463.5 342 L 462.5 343 L 460.5 343 L 459.5 344 L 457.5 344 L 456.5 345 Q 454 344.5 453.5 346 L 450.5 346 Q 449.8 347.8 446.5 347 L 445.5 348 L 443.5 348 L 440.5 350 L 437.5 350 L 436.5 351 Q 434 350.5 433.5 352 L 430.5 352 L 429.5 353 L 427.5 353 L 426.5 354 L 424.5 354 L 423.5 355 L 421.5 355 L 420.5 356 Q 418 355.5 417.5 357 L 414.5 357 L 413.5 358 L 411.5 358 L 410.5 359 L 408.5 359 L 407.5 360 L 405.5 360 L 404.5 361 Q 402 360.5 401.5 362 L 398.5 362 L 397.5 363 Q 395 362.5 394.5 364 L 391.5 364 L 390.5 365 L 388.5 365 L 387.5 366 L 385.5 366 L 384.5 367 L 382.5 367 L 381.5 368 Q 379 367.5 378.5 369 L 375.5 369 L 374.5 370 L 371.5 370 Q 370.7 371.8 367.5 371 L 366.5 372 L 364.5 372 L 361.5 374 L 359.5 374 L 358.5 375 L 356.5 375 L 355.5 376 Q 353 375.5 352.5 377 L 349.5 377 L 348.5 378 Q 346 377.5 345.5 379 L 342.5 379 L 339.5 381 L 337.5 381 L 336.5 382 Q 334 381.5 333.5 383 L 330.5 383 L 329.5 384 Q 327 383.5 326.5 385 L 323.5 385 L 322.5 386 Q 320 385.5 319.5 387 L 316.5 387 L 315.5 388 Q 313 387.5 312.5 389 L 309.5 389 L 308.5 390 Q 306 389.5 305.5 391 L 301.5 391 L 300.5 392 L 298.5 392 L 297.5 393 L 295.5 393 L 294.5 394 L 292.5 394 L 291.5 395 Q 289 394.5 288.5 396 L 285.5 396 L 284.5 397 L 281.5 397 Q 280.8 398.8 277.5 398 L 276.5 399 Q 274 398.5 273.5 400 L 270.5 400 L 267.5 402 L 265.5 402 L 264.5 403 Q 262 402.5 261.5 404 L 258.5 404 Q 258 405.5 255.5 405 L 254.5 406 L 251.5 406 L 250.5 407 L 247.5 407 L 246.5 408 L 243.5 408 Q 242.8 409.8 239.5 409 L 238.5 410 L 236.5 410 L 235.5 411 L 233.5 411 L 232.5 412 Q 230 411.5 229.5 413 L 226.5 413 L 225.5 414 L 222.5 414 Q 221.8 415.8 218.5 415 L 217.5 416 Q 215 415.5 214.5 417 L 211.5 417 L 210.5 418 L 207.5 418 L 206.5 419 L 203.5 419 L 202.5 420 Q 199.3 419.3 198.5 421 L 194.5 421 L 193.5 422 L 188.5 422 L 187.5 423 L 183.5 423 L 182.5 424 L 178.5 424 L 177.5 425 L 174.5 425 L 173.5 426 Q 170.3 425.3 169.5 427 L 164.5 427 L 163.5 428 L 159.5 428 L 158.5 429 L 152.5 429 L 151.5 430 L 145.5 430 L 144.5 431 L 138.5 431 L 137.5 432 L 131.5 432 L 130.5 433 L 124.5 433 L 123.5 434 L 120.5 434 L 119.5 435 L 116.5 435 L 115.5 436 Q 112.3 435.3 111.5 437 L 107.5 437 L 106.5 438 L 102.5 438 L 101.5 439 L 96.5 439 L 95.5 440 L 90.5 440 L 89.5 441 L 83.5 441 L 82.5 442 L 78.5 442 L 77.5 443 L 73.5 443 L 72.5 444 L 68.5 444 L 67.5 445 Q 65 444.5 64.5 446 L 61.5 446 L 60.5 447 Q 57.2 446.3 56.5 448 L 52.5 448 L 51.5 449 Q 48.3 448.2 47.5 450 L 43.5 450 L 42.5 451 Q 39.3 450.3 38.5 452 L 34.5 452 L 33.5 453 L 29.5 453 L 28.5 454 L 25.5 454 L 24.5 455 Q 22 454.5 21.5 456 L 18.5 456 Q 18 457.5 15.5 457 L 14.5 458 L 10.5 458 L 9.5 459 Q 6.3 458.3 5.5 460 L 1.5 460 L 0.5 461 L 0 460.5 L 0 397.5 L 0 397 Q 0.8 397 3.5 397 L 4.5 396 L 13.5 396 L 14.5 395 L 22.5 395 L 23.5 394 L 30.5 394 L 31.5 393 L 37.5 393 L 38.5 392 L 42.5 392 L 43.5 391 L 47.5 391 L 48.5 390 L 54.5 390 L 55.5 389 L 60.5 389 L 61.5 388 L 66.5 388 L 67.5 387 L 71.5 387 L 72.5 386 Q 75.8 386.8 76.5 385 L 80.5 385 L 81.5 384 L 85.5 384 L 86.5 383 L 90.5 383 L 91.5 382 Q 94.8 382.8 95.5 381 L 99.5 381 L 100.5 380 Q 103 380.5 103.5 379 L 106.5 379 L 107.5 378 L 110.5 378 L 111.5 377 Q 114 377.5 114.5 376 L 118.5 376 L 119.5 375 Q 122.8 375.8 123.5 374 L 127.5 374 L 128.5 373 L 132.5 373 L 133.5 372 Q 136 372.5 136.5 371 L 139.5 371 L 140.5 370 Q 143.8 370.7 144.5 369 L 148.5 369 L 149.5 368 L 152.5 368 L 153.5 367 L 156.5 367 L 157.5 366 L 160.5 366 Q 161.3 364.3 164.5 365 L 165.5 364 Q 168 364.5 168.5 363 L 171.5 363 L 172.5 362 L 175.5 362 L 176.5 361 L 179.5 361 Q 180.2 359.3 183.5 360 L 184.5 359 Q 187 359.5 187.5 358 L 190.5 358 L 191.5 357 Q 194 357.5 194.5 356 L 198.5 356 L 199.5 355 L 202.5 355 Q 203.3 353.3 206.5 354 L 207.5 353 Q 210 353.5 210.5 352 L 213.5 352 L 214.5 351 L 217.5 351 L 218.5 350 L 221.5 350 L 222.5 349 L 225.5 349 Q 226.3 347.2 229.5 348 L 230.5 347 Q 233 347.5 233.5 346 L 236.5 346 L 237.5 345 L 240.5 345 L 241.5 344 L 244.5 344 L 245.5 343 L 248.5 343 Q 249.2 341.3 252.5 342 L 253.5 341 Q 256 341.5 256.5 340 L 259.5 340 L 260.5 339 L 263.5 339 L 264.5 338 L 267.5 338 L 268.5 337 L 271.5 337 Q 272.3 335.3 275.5 336 L 276.5 335 Q 279 335.5 279.5 334 Q 282.8 334.8 283.5 333 L 287.5 333 L 288.5 332 L 292.5 332 L 293.5 331 Q 296 331.5 296.5 330 L 299.5 330 L 300.5 329 L 303.5 329 L 304.5 328 L 308.5 328 L 309.5 327 L 314.5 327 L 315.5 326 L 318.5 326 L 319.5 325 L 322.5 325 L 323.5 324 Q 326.8 324.8 327.5 323 L 332.5 323 L 333.5 322 L 338.5 322 L 339.5 321 L 344.5 321 L 345.5 320 L 348.5 320 L 349.5 319 Q 352.8 319.8 353.5 318 L 358.5 318 L 359.5 317 L 364.5 317 L 365.5 316 L 370.5 316 L 371.5 315 L 375.5 315 L 376.5 314 L 380.5 314 L 381.5 313 L 387.5 313 L 388.5 312 L 393.5 312 L 394.5 311 L 398.5 311 L 399.5 310 Q 402.8 310.8 403.5 309 L 407.5 309 L 408.5 308 L 413.5 308 L 414.5 307 L 420.5 307 L 421.5 306 Q 424.8 306.8 425.5 305 L 429.5 305 L 430.5 304 L 435.5 304 L 436.5 303 L 441.5 303 L 442.5 302 L 446.5 302 L 447.5 301 Q 450.8 301.7 451.5 300 L 455.5 300 L 456.5 299 L 461.5 299 L 462.5 298 L 467.5 298 L 468.5 297 L 472.5 297 L 473.5 296 Q 476.7 296.8 477.5 295 L 482.5 295 L 483.5 294 L 487.5 294 L 488.5 293 L 492.5 293 L 493.5 292 Q 496.8 292.8 497.5 291 L 502.5 291 L 503.5 290 L 507.5 290 L 508.5 289 L 512.5 289 L 513.5 288 Q 516.8 288.8 517.5 287 L 522.5 287 L 523.5 286 L 527.5 286 L 528.5 285 L 532.5 285 L 533.5 284 L 537.5 284 L 538.5 283 L 543.5 283 L 544.5 282 L 548.5 282 L 549.5 281 L 552.5 281 L 553.5 280 Q 556.8 280.8 557.5 279 L 561.5 279 L 562.5 278 L 566.5 278 L 567.5 277 Q 570 277.5 570.5 276 L 574.5 276 L 575.5 275 L 579.5 275 L 580.5 274 L 583.5 274 L 584.5 273 Q 587 273.5 587.5 272 L 591.5 272 L 592.5 271 L 594.5 271 L 595.5 270 L 597.5 270 L 598.5 269 Q 601 269.5 601.5 268 L 604.5 268 L 605.5 267 L 606.5 267 L 609.5 265 L 611.5 265 L 612.5 264 L 613.5 264 L 614.5 263 L 615.5 263 Q 615.7 261.7 617.5 262 L 619.5 260 L 620.5 260 L 627 253.5 L 627 252.5 Q 628.3 252.3 628 250.5 L 626.5 249 Q 624.7 249.2 624.5 248 Q 622 248.5 621.5 247 L 618.5 247 L 617.5 246 L 612.5 246 L 611.5 245 L 607.5 245 L 606.5 244 L 600.5 244 L 599.5 243 L 594.5 243 L 593.5 242 L 588.5 242 L 587.5 241 L 580.5 241 L 579.5 240 L 574.5 240 L 573.5 239 L 567.5 239 L 566.5 238 L 559.5 238 L 558.5 237 L 553.5 237 L 552.5 236 L 546.5 236 L 545.5 235 L 538.5 235 L 537.5 234 L 532.5 234 L 531.5 233 L 525.5 233 L 524.5 232 L 517.5 232 L 516.5 231 L 511.5 231 L 510.5 230 L 502.5 230 L 501.5 229 L 496.5 229 L 495.5 228 L 488.5 228 L 487.5 227 L 480.5 227 L 479.5 226 L 475.5 226 L 474.5 225 L 463.5 225 L 462.5 224 L 455.5 224 L 454.5 223 L 446.5 223 L 445.5 222 L 437.5 222 L 436.5 221 L 427.5 221 L 426.5 220 L 417.5 220 L 416.5 219 L 408.5 219 L 407.5 218 L 397.5 218 L 396.5 217 L 389.5 217 L 388.5 216 L 375.5 216 L 374.5 215 L 366.5 215 L 365.5 214 L 356.5 214 L 355.5 213 L 345.5 213 L 344.5 212 L 334.5 212 L 333.5 211 L 324.5 211 L 323.5 210 L 313.5 210 L 312.5 209 L 300.5 209 L 299.5 208 L 290.5 208 L 289.5 207 L 275.5 207 L 274.5 206 L 262.5 206 L 261.5 205 L 247.5 205 L 246.5 204 L 231.5 204 L 230.5 203 L 212.5 203 L 211.5 202 L 193.5 202 L 192.5 201 L 173.5 201 L 172.5 200 L 141.5 200 L 140.5 201 L 134.5 201 L 133.5 202 L 129.5 202 L 128.5 203 Q 126 202.5 125.5 204 L 122.5 204 L 121.5 205 Q 119 204.5 118.5 206 L 115.5 206 L 114.5 207 L 112.5 207 L 111.5 208 Q 109 207.5 108.5 209 L 105.5 209 L 104.5 210 L 102.5 210 L 101.5 211 Q 99 210.5 98.5 212 L 95.5 212 L 94.5 213 Q 92 212.5 91.5 214 L 88.5 214 L 87.5 215 Q 85 214.5 84.5 216 L 81.5 216 L 80.5 217 L 78.5 217 L 77.5 218 L 75.5 218 L 74.5 219 Q 72 218.5 71.5 220 L 68.5 220 L 67.5 221 Q 65 220.5 64.5 222 L 61.5 222 L 60.5 223 L 58.5 223 L 57.5 224 Q 55 223.5 54.5 225 L 51.5 225 L 50.5 226 Q 48 225.5 47.5 227 L 44.5 227 L 43.5 228 L 41.5 228 L 40.5 229 L 38.5 229 L 37.5 230 Q 35 229.5 34.5 231 L 31.5 231 L 30.5 232 Q 28 231.5 27.5 233 L 24.5 233 L 23.5 234 Q 21 233.5 20.5 235 L 17.5 235 Q 17 236.5 14.5 236 L 13.5 237 L 10.5 237 L 9.5 238 Q 7 237.5 6.5 239 L 3.5 239 L 2.5 240 Q 0.5 240 0 240 L 0 239.5 L 0 234.5 Q -0.4 233.5 1.5 234 Q 2 232.5 4.5 233 L 5.5 232 L 8.5 232 L 9.5 231 L 11.5 231 Q 12 229.5 14.5 230 L 15.5 229 L 18.5 229 L 19.5 228 Q 22 228.5 22.5 227 L 25.5 227 L 26.5 226 Q 29 226.5 29.5 225 L 32.5 225 L 33.5 224 Q 36 224.5 36.5 223 L 39.5 223 L 40.5 222 Q 43 222.5 43.5 221 L 46.5 221 L 47.5 220 L 49.5 220 L 50.5 219 Q 53 219.5 53.5 218 L 56.5 218 Q 57.2 216.2 60.5 217 L 61.5 216 L 63.5 216 Q 64 214.5 66.5 215 L 67.5 214 L 70.5 214 L 71.5 213 Q 74 213.5 74.5 212 L 77.5 212 L 78.5 211 Q 81 211.5 81.5 210 L 84.5 210 L 85.5 209 Q 88 209.5 88.5 208 L 91.5 208 L 92.5 207 L 94.5 207 L 95.5 206 Q 98 206.5 98.5 205 L 101.5 205 L 102.5 204 L 104.5 204 L 105.5 203 L 107.5 203 L 108.5 202 L 110.5 202 L 111.5 201 L 113.5 201 L 114.5 200 Q 115.8 200.3 116 199.5 L 114.5 198 L 65.5 198 L 64.5 197 L 11.5 197 L 10.5 198 L 0.5 198 L 0 198 L 0 195 L 0.5 195 L 4.5 195 L 5.5 194 L 17.5 194 L 18.5 193 L 37.5 193 L 38.5 192 L 81.5 192 L 82.5 191 L 144.5 191 L 145.5 190 L 150.5 190 L 151.5 189 L 156.5 189 L 157.5 188 L 160.5 188 L 161.5 187 L 164.5 187 Q 165.3 185.3 168.5 186 L 169.5 185 Q 172 185.5 172.5 184 L 175.5 184 L 176.5 183 Q 179 183.5 179.5 182 L 182.5 182 L 183.5 181 L 185.5 181 L 186.5 180 Q 189 180.5 189.5 179 L 192.5 179 L 193.5 178 Q 196 178.5 196.5 177 L 199.5 177 L 200.5 176 L 202.5 176 L 203.5 175 L 205.5 175 L 206.5 174 Q 209 174.5 209.5 173 L 212.5 173 L 213.5 172 Q 216 172.5 216.5 171 L 219.5 171 L 220.5 170 Q 223 170.5 223.5 169 L 226.5 169 L 227.5 168 L 229.5 168 L 230.5 167 Q 233 167.5 233.5 166 L 236.5 166 L 237.5 165 L 239.5 165 L 240.5 164 L 242.5 164 L 243.5 163 L 245.5 163 Q 246 161.5 248.5 162 L 249.5 161 L 252.5 161 L 253.5 160 L 255.5 160 L 256.5 159 Q 259 159.5 259.5 158 L 262.5 158 L 263.5 157 L 265.5 157 L 266.5 156 Q 269 156.5 269.5 155 L 272.5 155 L 273.5 154 L 275.5 154 L 276.5 153 L 278.5 153 L 279.5 152 Q 282 152.5 282.5 151 L 285.5 151 L 286.5 150 L 288.5 150 L 289.5 149 L 291.5 149 L 292.5 148 L 294.5 148 L 295.5 147 L 297.5 147 L 298.5 146 Q 301 146.5 301.5 145 L 304.5 145 L 305.5 144 L 307.5 144 L 308.5 143 L 311.5 143 Q 311.8 141.8 313.5 142 L 314 142.5 L 312.5 144 L 311.5 144 L 308.5 146 L 306.5 146 Q 306 147.5 303.5 147 L 302.5 148 L 301.5 148 L 298.5 150 L 296.5 150 L 295.5 151 L 293.5 151 L 292.5 152 L 290.5 152 L 289.5 153 L 287.5 153 L 286.5 154 L 284.5 154 Q 284 155.5 281.5 155 L 278.5 157 L 276.5 157 L 275.5 158 Q 273 157.5 272.5 159 L 269.5 159 L 268.5 160 L 266.5 160 L 265.5 161 L 263.5 161 L 262.5 162 Q 260 161.5 259.5 163 L 256.5 163 L 255.5 164 L 253.5 164 L 252.5 165 L 250.5 165 L 249.5 166 L 247.5 166 L 246.5 167 L 244.5 167 L 243.5 168 L 241.5 168 L 240.5 169 L 238.5 169 L 237.5 170 L 235.5 170 L 234.5 171 Q 232 170.5 231.5 172 L 228.5 172 L 227.5 173 L 225.5 173 L 224.5 174 Q 222 173.5 221.5 175 L 218.5 175 L 217.5 176 L 215.5 176 L 214.5 177 L 212.5 177 L 211.5 178 L 209.5 178 Q 209 179.5 206.5 179 L 205.5 180 L 202.5 180 L 201.5 181 L 199.5 181 L 198.5 182 Q 196 181.5 195.5 183 L 192.5 183 L 191.5 184 L 189.5 184 L 188.5 185 Q 186 184.5 185.5 186 L 182.5 186 L 181.5 187 L 179.5 187 L 178.5 188 L 176.5 188 L 175.5 189 L 173.5 189 Q 173 190.5 170.5 190 L 169 191.5 Q 169.3 192.3 170.5 192 L 171.5 193 L 194.5 193 L 195.5 194 L 211.5 194 L 212.5 195 L 237.5 195 L 238.5 196 L 252.5 196 L 253.5 197 L 271.5 197 L 272.5 198 L 283.5 198 L 284.5 199 L 299.5 199 L 300.5 200 L 311.5 200 L 312.5 201 L 326.5 201 L 327.5 202 L 338.5 202 L 339.5 203 L 351.5 203 L 352.5 204 L 363.5 204 L 364.5 205 L 375.5 205 L 376.5 206 L 387.5 206 L 388.5 207 L 397.5 207 L 398.5 208 L 407.5 208 L 408.5 209 L 420.5 209 L 421.5 210 L 428.5 210 L 429.5 211 L 441.5 211 L 442.5 212 L 449.5 212 L 450.5 213 L 463.5 213 L 464.5 214 L 472.5 214 L 473.5 215 L 482.5 215 L 483.5 216 L 490.5 216 L 491.5 217 L 501.5 217 L 502.5 218 L 510.5 218 L 511.5 219 L 516.5 219 L 517.5 220 L 526.5 220 L 527.5 221 L 531.5 221 L 532.5 222 L 541.5 222 L 542.5 223 L 548.5 223 L 549.5 224 L 555.5 224 L 556.5 225 L 563.5 225 L 564.5 226 L 570.5 226 L 571.5 227 L 578.5 227 L 579.5 228 Q 582.8 227.3 583.5 229 L 591.5 229 L 592.5 230 L 598.5 230 L 599.5 231 L 603.5 231 L 604.5 232 L 612.5 232 L 613.5 233 L 618.5 233 L 619.5 234 L 625.5 234 L 626.5 235 L 635.5 235 L 636.5 236 L 651.5 236 L 652.5 235 L 655.5 235 Q 656.3 233.3 659.5 234 L 662.5 232 L 665.5 232 L 668.5 230 Q 671 230.5 671.5 229 L 674.5 229 L 675.5 228 Q 678 228.5 678.5 227 L 682.5 227 L 683.5 226 L 688.5 226 Q 689.3 224.2 692.5 225 Q 693.3 226.8 696.5 226 L 698 227.5 Q 697.7 229.2 699 229.5 L 699 231.5 L 700 232.5 L 700 234.5 L 701.5 236 Q 703.2 235.7 703.5 237 L 706.5 237 L 707.5 238 L 716.5 238 L 717.5 239 L 722.5 239 L 723.5 240 L 743.5 240 L 744.5 239 L 745.5 239 L 746.5 238 L 747.5 238 L 748.5 237 L 749.5 237 Q 749.7 235.7 751.5 236 L 753.5 234 L 754.5 234 L 757.5 232 L 759.5 232 L 761.5 230 L 763.5 230 L 764.5 229 L 766.5 229 L 769.5 227 Q 772 227.5 772.5 226 L 775.5 226 L 776.5 225 L 782.5 225 L 784 226.5 L 784 231.5 L 784 232 L 782 232 L 782 233.5 L 778.5 237 L 777.5 237 L 769.5 245 L 768.5 245 L 767 246.5 L 767 247.5 L 769 249.5 L 769 251 Q 769.8 251 772.5 251 Q 772.7 252.3 774.5 252 L 776.5 254 Q 779 253.5 779.5 255 L 782.5 255 L 783.5 256 L 786.5 256 L 787.5 257 Q 790 256.5 790.5 258 L 799.5 258 L 800.5 259 L 806.5 259 L 807.5 260 L 814.5 260 L 815.5 261 L 824.5 261 L 825.5 262 L 839.5 262 L 840.5 263 L 846.5 263 L 847.5 262 L 860.5 262 Q 861.3 260.3 864.5 261 L 865.5 262 L 871.5 262 L 872.5 263 L 873.5 262 L 878.5 262 L 879.5 261 L 881.5 261 L 882.5 260 L 883.5 260 L 884.5 259 L 885.5 259 Q 885.8 257.8 887.5 258 L 889.5 256 L 890.5 256 L 891.5 255 L 892.5 255 Q 892.7 253.7 894.5 254 L 896.5 252 L 898.5 252 Q 898.8 250.8 900.5 251 L 902.5 249 L 903.5 249 Q 903.8 247.8 905.5 248 L 907.5 246 L 908.5 246 L 909.5 245 L 910.5 245 L 911.5 244 L 912.5 244 L 913.5 243 L 914.5 243 Q 914.7 241.8 916.5 242 L 918.5 240 L 920.5 240 L 922.5 238 L 923.5 238 L 924.5 237 L 925.5 237 Q 925.8 235.7 927.5 236 L 929.5 234 L 930.5 234 L 931.5 233 L 932.5 233 L 933.5 232 L 934.5 232 L 935.5 231 L 936.5 231 Q 936.8 229.8 938.5 230 L 940.5 228 L 941.5 228 L 942.5 227 L 943.5 227 L 944.5 226 L 945.5 226 Q 945.8 224.7 947.5 225 L 949.5 223 L 951.5 223 L 953.5 221 L 954.5 221 Q 954.8 219.8 956.5 220 L 958.5 218 L 959.5 218 Q 959.7 216.7 961.5 217 L 963.5 215 L 964.5 215 L 965.5 214 L 966.5 214 L 967.5 213 L 968.5 213 Q 968.7 211.8 970.5 212 L 972.5 210 L 973.5 210 Q 973.8 208.7 975.5 209 L 977.5 207 L 978.5 207 L 979.5 206 L 980.5 206 L 981.5 205 L 982.5 205 L 983.5 204 L 984.5 204 L 985.5 203 L 986.5 203 L 987.5 202 L 988.5 202 L 989.5 201 L 990.5 201 L 993.5 199 L 995.5 199 L 996.5 198 L 997.5 198 L 1000.5 196 L 1002.5 196 Q 1003 194.5 1005.5 195 L 1008.5 193 L 1010.5 193 L 1011.5 192 L 1013.5 192 L 1014.5 191 L 1016.5 191 L 1017.5 190 L 1019.5 190 L 1020.5 189 Q 1023 189.5 1023.5 188 L 1026.5 188 L 1027.5 187 Q 1030 187.5 1030.5 186 L 1033.5 186 L 1034.5 185 L 1038.5 185 L 1039.5 184 L 1043.5 184 L 1044.5 183 L 1079.5 183 L 1080.5 184 L 1089.5 184 L 1090.5 185 L 1099.5 185 L 1100.5 186 L 1110.5 186 L 1111.5 187 L 1134.5 187 L 1135.5 186 L 1142.5 186 L 1143.5 185 L 1147.5 185 L 1148.5 184 Q 1151.7 184.8 1152.5 183 L 1157.5 183 L 1158.5 182 L 1162.5 182 L 1163.5 181 L 1175.5 181 L 1176.5 182 Q 1179 181.5 1179.5 183 L 1182.5 183 L 1183.5 184 L 1185.5 184 Q 1186 185.5 1188.5 185 L 1191.5 187 L 1193.5 187 L 1196.5 189 L 1198.5 189 L 1199.5 190 L 1201.5 190 Q 1202 191.5 1204.5 191 L 1207.5 193 L 1210.5 193 L 1211.5 194 Q 1214.8 193.3 1215.5 195 L 1220.5 195 L 1221.5 196 L 1227.5 196 L 1228.5 197 L 1237.5 197 L 1238.5 198 L 1274.5 198 L 1275.5 197 L 1287.5 197 L 1288.5 196 L 1295.5 196 L 1296.5 195 L 1300.5 195 L 1303 192.5 L 1303 190.5 L 1304 189.5 L 1304 188 L 1305.5 188 L 1308 185.5 L 1308 184.5 L 1310 182.5 L 1310 180.5 L 1311 179.5 L 1311 178.5 L 1313 175.5 L 1313 171.5 L 1314 170.5 L 1314 168.5 L 1316 166.5 L 1316 165.5 L 1314.5 164 L 1310.5 164 L 1309.5 163 L 1305.5 163 L 1304.5 162 L 1300.5 162 L 1299.5 161 L 1294.5 161 L 1293.5 160 L 1289.5 160 L 1288.5 159 L 1283.5 159 L 1282.5 158 L 1277.5 158 L 1276.5 157 L 1272.5 157 L 1271.5 156 L 1266.5 156 L 1265.5 155 L 1260.5 155 L 1259.5 154 L 1255.5 154 L 1254.5 153 L 1249.5 153 L 1248.5 152 L 1244.5 152 L 1243.5 151 L 1238.5 151 L 1237.5 150 L 1232.5 150 L 1231.5 149 L 1227.5 149 L 1226.5 148 L 1221.5 148 L 1220.5 147 L 1215.5 147 L 1214.5 146 L 1209.5 146 L 1208.5 145 L 1202.5 145 L 1201.5 144 L 1196.5 144 L 1195.5 143 L 1190.5 143 L 1189.5 142 L 1184.5 142 L 1183.5 141 L 1178.5 141 L 1177.5 140 L 1171.5 140 L 1170.5 139 L 1165.5 139 L 1164.5 138 L 1160.5 138 Q 1159.5 137.5 1160.5 137 Z M 757 274 L 756 275 L 749 275 L 748 276 L 742 276 Q 741 278 739 277 L 738 278 L 736 278 L 735 279 L 733 279 L 732 280 L 729 280 Q 728 282 726 281 L 725 282 L 723 282 L 722 283 L 720 283 L 719 284 L 715 284 L 714 285 L 710 285 Q 709 287 707 286 L 704 288 Q 701 288 701 289 L 699 289 L 696 291 L 695 291 L 693 293 L 692 293 L 689 296 L 687 296 Q 686 297 685 297 L 682 300 L 680 300 L 680 302 L 678 304 Q 678 305 677 306 L 677 307 L 676 308 L 676 309 L 674 311 L 674 312 L 672 314 Q 672 315 671 316 L 671 317 L 669 319 Q 669 320 668 321 L 668 322 L 667 323 L 667 324 L 665 326 Q 665 327 664 328 L 664 329 L 662 331 L 662 332 L 660 334 L 658 334 L 658 336 L 657 337 L 657 341 L 659 342 L 671 342 Q 671 341 673 341 L 677 337 Q 678 337 679 336 L 680 336 L 681 335 L 682 335 L 683 334 L 684 334 L 685 333 L 686 333 L 689 330 L 690 330 L 692 328 Q 693 328 694 327 L 695 327 L 696 326 L 697 326 L 698 325 L 699 325 L 702 322 L 703 322 L 705 320 Q 706 320 707 319 L 708 319 L 709 318 L 711 318 L 716 314 Q 717 314 718 313 L 719 313 L 720 312 L 721 312 L 722 311 L 723 311 L 725 309 Q 726 309 727 308 L 729 308 L 732 306 L 733 306 L 735 304 Q 737 305 738 303 L 740 303 Q 740 302 742 302 L 744 300 Q 746 301 747 299 L 749 299 L 752 297 L 753 297 L 754 296 L 755 296 L 756 295 L 758 295 L 761 293 L 762 293 L 763 292 L 764 292 L 765 291 Q 767 292 768 290 L 770 290 L 772 288 Q 773 288 774 287 L 775 287 L 776 286 L 777 286 L 778 285 L 779 285 L 781 283 Q 782 283 783 282 L 784 282 L 786 280 L 786 279 L 785 277 Q 783 277 783 276 Q 779 277 779 275 L 771 275 L 770 274 L 757 274 Z M 825 289 Q 824 291 821 290 L 820 291 L 816 291 L 815 292 L 808 292 L 807 293 L 803 293 L 802 294 L 798 294 L 797 295 L 793 295 L 792 296 L 786 296 Q 785 298 782 297 L 781 298 L 777 298 L 776 299 L 772 299 Q 771 301 768 300 L 767 301 L 764 301 L 761 303 L 760 303 L 759 304 L 756 304 Q 755 306 753 305 L 750 307 L 749 307 L 748 308 L 746 308 L 743 310 L 742 310 L 741 311 L 740 311 L 739 312 L 738 312 L 737 313 L 735 313 L 732 315 L 731 315 L 729 317 Q 727 317 727 318 L 725 318 Q 724 319 723 319 L 718 323 Q 716 323 716 324 L 715 324 L 713 326 L 712 326 L 708 330 Q 706 330 706 331 L 705 331 L 704 332 L 703 332 L 701 334 L 700 334 L 694 340 Q 692 340 692 341 L 691 341 L 690 342 L 689 342 L 684 347 L 683 347 L 679 351 L 678 351 L 676 353 L 674 353 L 670 357 L 669 357 L 664 362 L 663 362 L 661 364 Q 659 364 659 365 L 658 365 L 656 367 L 655 367 L 646 376 L 645 376 L 639 382 L 639 383 L 629 393 Q 629 394 628 395 L 628 396 L 627 397 L 627 398 L 626 399 Q 626 400 626 401 L 628 401 L 629 402 L 634 402 L 635 403 Q 637 404 638 402 L 646 402 Q 646 400 650 401 L 652 399 Q 653 399 654 398 L 655 398 L 656 397 L 657 397 L 658 396 Q 660 397 661 395 L 663 395 L 666 393 L 667 393 L 668 392 L 669 392 L 671 390 Q 672 390 673 389 L 674 389 L 675 388 L 676 388 L 677 387 L 678 387 L 679 386 L 681 386 L 684 384 L 685 384 L 686 383 L 687 383 L 688 382 L 690 382 L 691 381 L 694 381 L 697 379 L 698 379 L 699 378 L 701 378 Q 701 377 703 377 L 704 376 Q 706 377 707 375 L 709 375 L 710 374 L 712 374 L 713 373 L 715 373 L 720 369 L 722 369 L 725 367 L 726 367 L 727 366 L 728 366 L 729 365 L 730 365 L 732 363 Q 733 363 734 362 L 735 362 L 736 361 L 737 361 L 739 359 Q 740 359 741 358 L 742 358 L 744 356 Q 745 356 746 355 L 747 355 L 749 353 L 750 353 L 753 350 L 754 350 L 756 348 L 757 348 L 759 346 Q 760 346 761 345 L 762 345 L 766 341 L 767 341 L 769 339 L 770 339 L 772 337 L 773 337 L 778 332 L 779 332 L 782 329 L 783 329 L 786 326 L 787 326 L 790 323 L 791 323 L 793 321 L 794 321 L 799 316 L 800 316 L 802 314 L 803 314 L 809 308 Q 810 308 811 307 L 812 307 L 816 303 L 817 303 L 820 300 L 821 300 L 826 295 L 827 295 L 829 293 L 829 291 Q 828 288 825 289 Z " /></svg>