<svg width="18.00cm" height="15.00cm" viewBox="0 0 1800 1500" version="1.1" xmlns="http://www.w3.org/2000/svg" desc="Created with imagetracer.js version 1.2.6" ><path fill="rgb(0,0,0)" stroke="rgb(0,0,0)" stroke-width="0" opacity="1" d="M 348.5 121 L 363.5 121 L 364 121.5 L 363.5 122 L 358.5 122 L 357.5 123 L 349.5 123 L 349 123.5 L 349.5 124 L 353.5 124 L 354 124.5 L 353.5 125 L 348.5 125 L 347.5 124 L 343.5 124 Q 342.5 124.5 343.5 125 Q 344.8 124.8 345 125.5 Q 344.8 126.3 343.5 126 Q 342.8 124.3 339.5 125 L 339 125.5 L 341 127.5 L 340.5 128 L 338.5 128 Q 338.3 129.3 336.5 129 L 336 128.5 L 337 127.5 L 336.5 127 L 334.5 127 L 333.5 128 Q 332.3 127.8 332 128.5 L 334 129.5 L 333.5 130 L 328.5 130 L 328 130 L 328 132 L 327.5 132 L 323.5 132 L 322.5 133 L 317.5 133 L 317 133.5 L 317.5 134 L 320.5 134 L 321 134.5 L 320.5 135 L 316.5 135 L 315.5 134 L 311.5 134 L 310.5 135 Q 309.3 134.8 309 135.5 L 309.5 136 L 312.5 136 Q 312.8 134.7 314.5 135 Q 315.5 135.5 314.5 136 Q 313.3 135.8 313 136.5 L 313.5 137 L 317.5 137 L 318.5 136 L 325.5 136 L 326.5 135 L 332.5 135 L 333 134.5 L 332.5 134 L 324.5 134 L 324 133.5 L 324.5 133 L 328.5 133 Q 328.8 131.8 330.5 132 L 331.5 133 Q 334 132.5 334.5 134 L 338.5 134 L 339.5 133 L 346.5 133 L 347.5 132 L 354.5 132 L 355 131.5 L 354.5 131 Q 352.5 131.5 352 130.5 L 352.5 130 L 357.5 130 Q 357.8 131.2 359.5 131 L 360 130.5 L 359 129.5 L 359.5 129 Q 361.2 128.7 361.5 130 L 367.5 130 L 368 129.5 L 367 128.5 L 367.5 128 L 372.5 128 L 373.5 127 L 377.5 127 L 378 126.5 L 377 125.5 L 377.5 125 L 384.5 125 L 385.5 124 L 391.5 124 L 392.5 123 L 404.5 123 L 405.5 122 Q 408 122.5 408.5 121 L 536.5 121 Q 537.5 121.5 536.5 122 L 531.5 122 L 530.5 123 L 524.5 123 L 523.5 124 L 517.5 124 L 516.5 125 L 510.5 125 L 509.5 126 L 504.5 126 L 503.5 127 L 497.5 127 L 496.5 128 L 491.5 128 L 490.5 129 L 485.5 129 L 484.5 130 L 479.5 130 L 478.5 131 L 473.5 131 L 472.5 132 L 466.5 132 L 465.5 133 L 460.5 133 L 459.5 134 L 454.5 134 L 453.5 135 L 447.5 135 L 446.5 136 L 441.5 136 L 440.5 137 L 435.5 137 L 434.5 138 L 429.5 138 L 428.5 139 L 423.5 139 L 422.5 140 L 417.5 140 L 416.5 141 L 411.5 141 L 410.5 142 L 405.5 142 L 404.5 143 L 399.5 143 L 398.5 144 L 394.5 144 L 393.5 145 L 387.5 145 L 386.5 146 L 382.5 146 L 381.5 147 Q 379.5 146.5 379 147.5 L 380 148.5 L 378.5 150 Q 376.3 149.3 377 151.5 L 370.5 158 L 369 158 L 369 159.5 L 366.5 162 L 365 162 L 365 164 L 363 164 L 363 165.5 L 361 167.5 L 361 168.5 Q 359.7 168.8 360 170.5 L 362.5 173 L 371.5 173 L 372.5 174 L 379.5 174 L 380.5 175 L 390.5 175 L 391.5 176 L 413.5 176 L 414.5 175 L 447.5 175 L 448.5 174 L 454.5 174 L 455.5 173 L 470.5 173 L 471.5 172 L 479.5 172 L 480.5 171 L 484.5 171 L 487.5 169 L 489.5 169 Q 489.8 167.8 491.5 168 L 493.5 166 L 494.5 166 L 495.5 165 L 496.5 165 L 497.5 164 L 498.5 164 Q 498.8 162.7 500.5 163 L 502.5 161 L 503.5 161 L 504.5 160 L 505.5 160 L 508.5 158 L 510.5 158 L 513.5 156 Q 516 156.5 516.5 155 L 519.5 155 L 520.5 154 L 523.5 154 Q 524.3 152.3 527.5 153 L 528.5 152 L 532.5 152 L 533.5 151 L 538.5 151 L 539.5 150 Q 542.8 150.8 543.5 149 L 547.5 149 L 548.5 148 L 553.5 148 L 554.5 147 L 558.5 147 L 559.5 146 L 563.5 146 L 564.5 145 L 569.5 145 L 570.5 144 L 574.5 144 L 575.5 143 L 579.5 143 L 580.5 142 L 585.5 142 L 586.5 141 L 591.5 141 L 592.5 140 L 597.5 140 L 598.5 139 L 603.5 139 L 604.5 138 L 609.5 138 L 610.5 137 L 616.5 137 L 617.5 136 L 623.5 136 L 624.5 135 L 630.5 135 L 631.5 134 L 639.5 134 L 640.5 133 L 654.5 133 L 655.5 132 L 661.5 132 L 662.5 133 L 667.5 133 Q 667.7 134.3 669.5 134 L 674 138.5 Q 674.5 141 673 141.5 L 674.5 143 Q 676.2 142.7 676.5 144 L 680.5 144 L 681.5 143 L 688.5 143 L 689.5 142 L 695.5 142 L 696.5 141 L 702.5 141 L 703.5 140 L 712.5 140 L 713.5 139 L 725.5 139 L 726.5 140 Q 727.8 139.8 728 140.5 Q 726.8 140.8 727 142.5 L 722.5 147 L 721.5 147 L 718.5 150 L 717.5 150 L 712.5 154 L 711.5 154 L 710.5 155 L 709.5 155 L 708.5 156 L 707.5 156 Q 707.2 157.2 705.5 157 L 703.5 159 L 702.5 159 L 700.5 161 L 699.5 161 L 698 162.5 L 698.5 163 L 703.5 163 L 704.5 162 L 708.5 162 L 709.5 161 L 711.5 161 L 712.5 160 L 714.5 160 Q 715 158.5 717.5 159 L 718.5 158 L 719.5 158 L 722.5 156 Q 725 156.5 725.5 155 L 728.5 155 L 729.5 154 L 735.5 154 L 736.5 153 L 747.5 153 L 748.5 152 L 756.5 152 Q 756.8 153.3 758.5 153 L 762 156.5 Q 761.3 158.8 763.5 158 L 764.5 159 Q 767.8 158.3 768.5 160 L 782.5 160 L 783.5 161 Q 786.8 160.2 787.5 162 L 801.5 162 Q 802.3 163.8 805.5 163 L 808 165.5 L 808 172.5 L 806 174.5 L 806 175.5 L 799.5 182 L 798.5 182 L 796.5 184 L 795.5 184 L 790.5 188 L 789.5 188 Q 789.2 189.3 787.5 189 L 785.5 191 L 784.5 191 L 783.5 192 L 782.5 192 L 781.5 193 L 780.5 193 L 779.5 194 L 778.5 194 L 777.5 195 L 776.5 195 L 775.5 196 L 774.5 196 L 773.5 197 L 772.5 197 L 769.5 199 L 767.5 199 Q 767.3 200.3 765.5 200 L 763.5 202 L 762.5 202 L 761.5 203 L 760.5 203 L 759.5 204 L 758.5 204 L 757.5 205 L 756.5 205 Q 756.2 206.2 754.5 206 L 752.5 208 L 751.5 208 Q 751.3 209.2 749.5 209 L 745.5 213 L 744.5 213 L 741 216.5 Q 741.3 217.3 742.5 217 L 743.5 218 L 757.5 218 L 758.5 217 L 766.5 217 L 767.5 216 L 772.5 216 L 773.5 215 L 780.5 215 L 781.5 214 L 784.5 214 L 785.5 213 Q 788.8 213.8 789.5 212 L 793.5 212 L 794.5 211 Q 797 211.5 797.5 210 L 800.5 210 L 803.5 208 L 805.5 208 L 806.5 207 L 807.5 207 L 810.5 205 L 813.5 205 L 816.5 203 L 819.5 203 L 820.5 202 Q 823 202.5 823.5 201 L 826.5 201 L 827.5 200 L 833.5 200 L 834.5 199 Q 837.7 199.8 838.5 198 L 845.5 198 L 846.5 197 Q 849.8 197.7 850.5 196 L 861.5 196 L 862.5 195 L 866.5 195 L 867.5 194 L 869.5 194 Q 870 192.5 872.5 193 L 875.5 190 Q 877.2 190.2 877.5 189 Q 880 189.5 880.5 188 L 883.5 188 L 884.5 187 L 889.5 187 L 890.5 188 L 894.5 188 L 897.5 190 L 899.5 190 L 902.5 192 L 904.5 192 L 907.5 194 L 909.5 194 L 910.5 195 Q 913 194.5 913.5 196 L 925.5 196 L 926.5 195 L 932.5 195 L 933.5 194 L 941.5 194 L 942.5 193 L 948.5 193 L 949.5 192 L 957.5 192 L 958.5 191 L 965.5 191 L 966.5 190 L 973.5 190 L 974.5 189 L 981.5 189 L 982.5 188 L 989.5 188 L 990.5 187 L 998.5 187 L 999.5 186 L 1006.5 186 L 1007.5 185 L 1014.5 185 L 1015.5 184 L 1023.5 184 L 1024.5 183 L 1031.5 183 L 1032.5 182 L 1041.5 182 L 1042.5 181 L 1048.5 181 L 1049.5 180 L 1059.5 180 L 1060.5 179 L 1065.5 179 L 1066.5 178 L 1078.5 178 L 1079.5 177 L 1084.5 177 L 1085.5 176 L 1095.5 176 L 1096.5 175 L 1103.5 175 L 1104.5 174 L 1113.5 174 L 1114.5 173 L 1127.5 173 L 1128.5 172 L 1134.5 172 L 1135.5 171 L 1147.5 171 L 1148.5 170 L 1157.5 170 L 1158.5 169 L 1167.5 169 L 1168.5 168 L 1182.5 168 L 1183.5 167 L 1190.5 167 L 1191.5 166 L 1203.5 166 L 1204.5 165 L 1217.5 165 L 1218.5 164 L 1229.5 164 L 1230.5 163 L 1246.5 163 L 1247.5 162 L 1266.5 162 L 1267.5 161 L 1280.5 161 L 1281.5 160 L 1304.5 160 L 1305.5 159 L 1339.5 159 L 1340.5 158 L 1425.5 158 L 1426.5 159 L 1428.5 159 L 1429.5 160 L 1432.5 160 L 1433 160.5 L 1432.5 161 L 1419.5 161 Q 1419 159.5 1416.5 160 L 1416 160.5 L 1417 161.5 L 1416.5 162 L 1409.5 162 Q 1409 160.5 1406.5 161 L 1405.5 162 L 1354.5 162 L 1353.5 163 L 1329.5 163 L 1328.5 164 L 1312.5 164 L 1311.5 165 L 1292.5 165 L 1291.5 166 L 1277.5 166 L 1276.5 167 L 1261.5 167 L 1260.5 168 L 1247.5 168 L 1246.5 169 L 1234.5 169 L 1233.5 170 L 1221.5 170 L 1220.5 171 L 1211.5 171 L 1210.5 172 L 1200.5 172 L 1199.5 173 L 1188.5 173 L 1187.5 174 L 1178.5 174 L 1177.5 175 L 1166.5 175 L 1165.5 176 L 1159.5 176 L 1158.5 177 L 1146.5 177 L 1145.5 178 L 1138.5 178 L 1137.5 179 L 1128.5 179 L 1127.5 180 L 1119.5 180 L 1118.5 181 L 1110.5 181 L 1109.5 182 L 1101.5 182 L 1100.5 183 L 1094.5 183 L 1093.5 184 L 1083.5 184 L 1082.5 185 L 1077.5 185 L 1076.5 186 L 1067.5 186 L 1066.5 187 L 1059.5 187 L 1058.5 188 L 1050.5 188 L 1049.5 189 L 1044.5 189 L 1043.5 190 L 1034.5 190 L 1033.5 191 L 1028.5 191 L 1027.5 192 L 1019.5 192 L 1018.5 193 L 1012.5 193 L 1011.5 194 L 1004.5 194 L 1003.5 195 L 997.5 195 L 996.5 196 L 989.5 196 L 988.5 197 L 981.5 197 L 980.5 198 L 975.5 198 L 974.5 199 L 966.5 199 L 965.5 200 L 961.5 200 L 960.5 201 L 952.5 201 L 951.5 202 L 947.5 202 L 946.5 203 L 939.5 203 L 938.5 204 L 933.5 204 L 932.5 205 L 929.5 205 Q 928.7 206.8 925.5 206 L 924 207.5 L 924 209.5 Q 925.2 209.7 925 211.5 L 927 213.5 Q 926.7 215.2 928 215.5 L 928 217.5 L 930.5 220 L 931.5 220 L 932.5 221 L 933.5 221 L 936.5 223 L 939.5 223 L 940.5 224 L 942.5 224 L 943.5 225 Q 946 224.5 946.5 226 L 950.5 226 L 951.5 227 Q 954.8 226.3 955.5 228 L 959.5 228 L 960.5 229 L 964.5 229 L 965.5 230 L 969.5 230 L 970.5 231 Q 973 230.5 973.5 232 L 978.5 232 L 979.5 233 L 983.5 233 L 984.5 234 Q 987.7 233.3 988.5 235 L 993.5 235 L 994.5 236 L 997.5 236 L 998.5 237 Q 1001.8 236.3 1002.5 238 L 1008.5 238 L 1009.5 239 L 1013.5 239 L 1014.5 240 Q 1017.8 239.3 1018.5 241 L 1023.5 241 L 1024.5 242 L 1028.5 242 L 1029.5 243 L 1033.5 243 L 1034.5 244 Q 1037.7 243.3 1038.5 245 L 1044.5 245 L 1045.5 246 L 1049.5 246 L 1050.5 247 Q 1053 246.5 1053.5 248 L 1059.5 248 L 1060.5 249 L 1064.5 249 L 1065.5 250 Q 1068.8 249.2 1069.5 251 L 1073.5 251 L 1074.5 252 L 1079.5 252 L 1080.5 253 L 1084.5 253 L 1085.5 254 Q 1088 253.5 1088.5 255 L 1093.5 255 L 1094.5 256 L 1100.5 256 L 1101.5 257 L 1104.5 257 L 1105.5 258 Q 1108.8 257.3 1109.5 259 L 1114.5 259 L 1115.5 260 L 1120.5 260 L 1121.5 261 L 1125.5 261 L 1126.5 262 Q 1129.8 261.3 1130.5 263 L 1134.5 263 L 1135.5 264 L 1140.5 264 L 1141.5 265 Q 1144 264.5 1144.5 266 L 1148.5 266 L 1149.5 267 L 1153.5 267 L 1154.5 268 L 1158.5 268 L 1159.5 269 L 1162.5 269 L 1163.5 270 L 1166.5 270 L 1167.5 271 Q 1170.7 270.3 1171.5 272 L 1175.5 272 L 1178.5 274 L 1181.5 274 L 1182.5 275 L 1185.5 275 Q 1186.3 276.7 1189.5 276 L 1190.5 277 L 1192.5 277 L 1193.5 278 L 1195.5 278 L 1196.5 279 Q 1199 278.5 1199.5 280 L 1202.5 280 L 1203.5 281 Q 1206 280.5 1206.5 282 L 1209.5 282 L 1210.5 283 Q 1213 282.5 1213.5 284 L 1217.5 284 L 1218.5 285 L 1221.5 285 Q 1222.3 286.8 1225.5 286 L 1226.5 287 Q 1229 286.5 1229.5 288 L 1232.5 288 L 1233.5 289 L 1236.5 289 Q 1237.3 290.8 1240.5 290 L 1241.5 291 L 1243.5 291 L 1244.5 292 Q 1247 291.5 1247.5 293 Q 1250.8 292.3 1251.5 294 L 1255.5 294 L 1256.5 295 L 1260.5 295 L 1261.5 296 L 1263.5 296 L 1264.5 297 Q 1267 296.5 1267.5 298 L 1271.5 298 L 1272.5 299 L 1277.5 299 L 1278.5 300 L 1281.5 300 L 1282.5 301 L 1285.5 301 L 1286.5 302 L 1289.5 302 L 1290.5 303 Q 1293.8 302.3 1294.5 304 L 1300.5 304 L 1301.5 305 L 1305.5 305 L 1306.5 306 L 1309.5 306 L 1310.5 307 Q 1313.8 306.3 1314.5 308 L 1318.5 308 L 1319.5 309 L 1323.5 309 L 1324.5 310 L 1330.5 310 L 1331.5 311 L 1335.5 311 L 1336.5 312 Q 1339 311.5 1339.5 313 L 1342.5 313 L 1343.5 314 L 1347.5 314 L 1348.5 315 L 1354.5 315 L 1355.5 316 L 1360.5 316 L 1361.5 317 L 1365.5 317 L 1366.5 318 L 1369.5 318 L 1370.5 319 Q 1373.8 318.3 1374.5 320 L 1378.5 320 L 1379.5 321 L 1384.5 321 L 1385.5 322 L 1390.5 322 L 1391.5 323 L 1395.5 323 L 1396.5 324 L 1399.5 324 L 1400.5 325 Q 1403.8 324.3 1404.5 326 L 1408.5 326 L 1409.5 327 L 1413.5 327 L 1414.5 328 L 1419.5 328 L 1420.5 329 L 1423.5 329 L 1424.5 330 L 1427.5 330 L 1428.5 331 Q 1431.8 330.3 1432.5 332 L 1436.5 332 L 1437.5 333 L 1441.5 333 L 1442.5 334 L 1447.5 334 L 1448.5 335 L 1451.5 335 L 1452.5 336 Q 1455.8 335.3 1456.5 337 L 1460.5 337 L 1461.5 338 L 1465.5 338 L 1466.5 339 L 1470.5 339 L 1471.5 340 L 1475.5 340 L 1476.5 341 L 1480.5 341 L 1481.5 342 Q 1484.8 341.3 1485.5 343 L 1489.5 343 L 1490.5 344 Q 1493.8 343.3 1494.5 345 L 1500.5 345 L 1501.5 346 L 1507.5 346 L 1508.5 347 L 1512.5 347 L 1513.5 348 L 1517.5 348 L 1518.5 349 L 1522.5 349 L 1523.5 350 L 1527.5 350 L 1528.5 351 L 1532.5 351 L 1533.5 352 L 1538.5 352 L 1539.5 353 L 1545.5 353 L 1546.5 354 L 1551.5 354 L 1552.5 355 L 1557.5 355 L 1558.5 356 Q 1561.8 355.3 1562.5 357 L 1566.5 357 L 1567.5 358 Q 1570.8 357.3 1571.5 359 L 1576.5 359 L 1577.5 360 L 1581.5 360 L 1582.5 361 L 1587.5 361 L 1588.5 362 L 1592.5 362 L 1593.5 363 L 1598.5 363 L 1599.5 364 L 1603.5 364 L 1604.5 365 Q 1607.8 364.3 1608.5 366 L 1612.5 366 L 1613.5 367 L 1621.5 367 L 1622.5 368 L 1631.5 368 L 1632.5 369 L 1639.5 369 L 1640.5 370 L 1647.5 370 L 1648.5 371 L 1655.5 371 L 1656.5 372 L 1662.5 372 L 1663.5 373 L 1668.5 373 L 1669.5 374 L 1676.5 374 L 1677.5 375 L 1686.5 375 L 1687.5 376 L 1693.5 376 L 1694.5 377 L 1699.5 377 L 1700.5 378 L 1705.5 378 L 1706.5 379 L 1710.5 379 L 1711.5 380 L 1714.5 380 L 1715.5 381 L 1718.5 381 L 1719.5 382 Q 1722.8 381.3 1723.5 383 L 1727.5 383 L 1728.5 384 L 1732.5 384 L 1733.5 385 L 1737.5 385 L 1738.5 386 Q 1741.8 385.3 1742.5 387 L 1746.5 387 Q 1747.3 388.8 1750.5 388 L 1751.5 389 Q 1754 388.5 1754.5 390 L 1757.5 390 L 1758.5 391 L 1761.5 391 L 1762.5 392 L 1765.5 392 L 1766.5 393 L 1769.5 393 Q 1770.3 394.8 1773.5 394 L 1774.5 395 L 1776.5 395 L 1777.5 396 L 1779.5 396 L 1780.5 397 Q 1783 396.5 1783.5 398 L 1786.5 398 L 1787.5 399 Q 1790 398.5 1790.5 400 L 1793.5 400 L 1794.5 401 Q 1797 400.5 1797.5 402 Q 1799.5 402 1800 402 L 1800 402.5 L 1800 1499.5 L 1800 1500 L 1799.5 1500 L 0.5 1500 L 0 1500 L 0 1499.5 L 0 409.5 Q -0.4 408.5 1.5 409 Q 1.8 407.8 3.5 408 L 5.5 406 L 6.5 406 Q 6.7 404.7 8.5 405 L 11.5 402 L 12.5 402 L 17.5 398 L 18.5 398 L 19.5 397 L 20.5 397 Q 20.7 395.7 22.5 396 L 23.5 395 L 24.5 395 L 25.5 394 L 26.5 394 Q 26.8 392.7 28.5 393 L 29.5 392 L 30.5 392 Q 30.8 390.7 32.5 391 L 35.5 389 L 36.5 389 L 38.5 387 L 39.5 387 L 40.5 386 L 41.5 386 L 42.5 385 L 43.5 385 L 44.5 384 L 45.5 384 Q 45.7 382.8 47.5 383 L 49.5 381 L 50.5 381 L 53.5 378 L 54.5 378 L 55.5 377 L 56.5 377 Q 56.7 375.8 58.5 376 L 60.5 374 L 61.5 374 L 62.5 373 L 63.5 373 L 64.5 372 L 65.5 372 L 66.5 371 L 67.5 371 Q 67.8 369.8 69.5 370 L 71.5 368 L 72.5 368 L 73.5 367 L 74.5 367 L 75.5 366 L 76.5 366 L 77.5 365 L 78.5 365 Q 78.8 363.7 80.5 364 L 82.5 362 L 83.5 362 L 88.5 358 L 89.5 358 L 90.5 357 L 91.5 357 L 92.5 356 L 93.5 356 L 94.5 355 L 95.5 355 L 96.5 354 L 97.5 354 L 98.5 353 L 99.5 353 L 100.5 352 L 101.5 352 L 102.5 351 L 103.5 351 Q 103.8 349.8 105.5 350 L 106.5 349 L 107.5 349 L 108.5 348 L 109.5 348 L 112.5 346 L 114.5 346 L 115.5 345 L 116.5 345 L 117.5 344 L 118.5 344 L 119.5 343 L 120.5 343 L 121.5 342 L 122.5 342 L 123.5 341 L 124.5 341 L 125.5 340 L 126.5 340 Q 126.7 338.7 128.5 339 L 129.5 338 L 130.5 338 L 131.5 337 L 132.5 337 L 135.5 335 L 137.5 335 L 138.5 334 L 139.5 334 L 140.5 333 L 141.5 333 L 142.5 332 L 143.5 332 L 144.5 331 L 145.5 331 L 146.5 330 L 147.5 330 L 148.5 329 L 149.5 329 L 152.5 327 L 154.5 327 L 155.5 326 L 156.5 326 L 157.5 325 L 158.5 325 L 159.5 324 L 160.5 324 L 161.5 323 L 162.5 323 L 163.5 322 L 164.5 322 L 165.5 321 L 166.5 321 L 167.5 320 L 168.5 320 L 171.5 318 L 173.5 318 L 174.5 317 L 175.5 317 L 176.5 316 L 177.5 316 L 178.5 315 L 179.5 315 L 180.5 314 L 181.5 314 L 184.5 312 L 186.5 312 L 187.5 311 L 188.5 311 L 189.5 310 L 190.5 310 L 191.5 309 L 192.5 309 L 193.5 308 L 194.5 308 L 195.5 307 L 196.5 307 L 197.5 306 L 198.5 306 L 199.5 305 L 200.5 305 L 203.5 303 L 205.5 303 L 206.5 302 L 207.5 302 L 208.5 301 L 209.5 301 L 210.5 300 L 211.5 300 L 212.5 299 L 213.5 299 L 214.5 298 L 215.5 298 L 216.5 297 L 217.5 297 L 218.5 296 L 219.5 296 L 220.5 295 L 221.5 295 L 222.5 294 L 223.5 294 Q 223.7 292.7 225.5 293 L 228.5 290 L 229.5 290 L 231.5 288 L 232.5 288 L 233.5 287 L 234.5 287 L 235.5 286 L 236.5 286 L 237.5 285 L 238.5 285 L 239.5 284 L 240.5 284 L 241.5 283 L 242.5 283 Q 242.7 281.8 244.5 282 L 246.5 280 L 247.5 280 L 250.5 277 L 251.5 277 Q 251.7 275.8 253.5 276 L 255.5 274 L 256.5 274 L 261.5 269 L 262.5 269 L 264.5 267 L 265.5 267 L 267 265.5 L 267 264.5 L 268.5 263 L 269.5 263 L 271 261.5 L 270 260.5 L 273 257.5 L 272 256.5 Q 271.7 254.7 273 254.5 L 269 251.5 L 270 250.5 L 269.5 250 L 268.5 250 L 267 248.5 L 268 247.5 L 268 246 L 266.5 246 L 266 245.5 L 268 243.5 L 267 242.5 L 269 240.5 L 269 239.5 L 270.5 238 L 271.5 238 L 274.5 235 Q 276.2 235.2 276.5 234 L 278.5 234 L 279.5 233 L 280.5 233 L 281.5 232 L 282.5 232 L 285.5 230 L 287.5 230 L 288.5 229 L 290.5 229 L 291.5 228 L 293.5 228 L 294.5 227 L 296.5 227 L 297.5 226 Q 300 226.5 300.5 225 L 303.5 225 L 304.5 224 Q 307.8 224.8 308.5 223 L 312.5 223 L 313.5 222 Q 316.8 222.7 317.5 221 L 321.5 221 L 322.5 220 L 326.5 220 L 327.5 219 L 330.5 219 L 331.5 218 Q 334 218.5 334.5 217 L 338.5 217 L 339.5 216 Q 342 216.5 342.5 215 Q 344.5 215 345 215 L 345 213 L 344.5 213 L 339.5 213 L 338.5 212 Q 335.3 212.8 334.5 211 L 324.5 211 L 323.5 210 L 320.5 210 L 319.5 209 L 317.5 209 L 316.5 208 Q 314.5 208.5 314 207.5 Q 316 206.5 314 205.5 L 314 204.5 L 312.5 203 L 306.5 203 L 305.5 202 L 291.5 202 Q 290.8 200.3 287.5 201 L 286.5 202 L 180.5 202 L 179.5 201 L 166.5 201 L 166 201 L 166 199.5 L 165 198.5 Q 165.3 197.8 166.5 198 L 168.5 196 L 170.5 196 L 172.5 194 L 174.5 194 L 175.5 193 L 177.5 193 Q 178 191.5 180.5 192 L 183.5 190 L 185.5 190 L 186.5 189 L 188.5 189 L 189.5 188 L 191.5 188 L 192.5 187 L 194.5 187 Q 195 185.5 197.5 186 L 200.5 184 L 202.5 184 L 203.5 183 L 205.5 183 Q 206 181.5 208.5 182 L 210.5 180 L 212.5 180 L 213.5 179 L 215.5 179 L 216.5 178 Q 217.8 178.3 218 177.5 L 217.5 177 L 212.5 177 L 211.5 178 Q 208.3 177.3 207.5 179 L 201.5 179 L 200.5 180 Q 197.3 179.3 196.5 181 L 192.5 181 L 191.5 182 L 185.5 182 L 184.5 183 Q 181.2 182.3 180.5 184 L 176.5 184 L 175.5 185 L 171.5 185 L 170.5 186 L 165.5 186 L 164.5 187 L 160.5 187 L 159.5 188 L 155.5 188 L 154.5 189 L 150.5 189 L 149.5 190 L 144.5 190 L 143.5 191 L 139.5 191 L 138.5 192 L 134.5 192 L 133.5 193 L 129.5 193 L 128.5 194 L 123.5 194 L 122.5 195 L 118.5 195 L 117.5 196 L 113.5 196 L 112.5 197 L 108.5 197 L 107.5 198 L 103.5 198 L 102.5 199 L 97.5 199 L 96.5 200 Q 93.3 199.2 92.5 201 L 88.5 201 L 87.5 202 L 83.5 202 L 82.5 203 L 77.5 203 L 76.5 204 L 72.5 204 L 71.5 205 L 67.5 205 L 66.5 206 L 62.5 206 L 61.5 207 Q 58.3 206.3 57.5 208 L 52.5 208 L 51.5 209 L 47.5 209 L 46.5 210 L 42.5 210 L 41.5 211 L 37.5 211 L 36.5 212 L 32.5 212 L 31.5 213 L 27.5 213 L 26.5 214 L 22.5 214 L 21.5 215 L 17.5 215 L 16.5 216 L 11.5 216 L 10.5 217 Q 7.2 216.2 6.5 218 L 2.5 218 L 1.5 219 L 0 219 L 0 218.5 L 0 198.5 Q -0.4 197.5 1.5 198 L 2.5 197 Q 5.8 197.7 6.5 196 L 10.5 196 L 11.5 195 Q 14.8 195.8 15.5 194 L 19.5 194 L 20.5 193 L 24.5 193 L 25.5 192 Q 28.8 192.8 29.5 191 L 33.5 191 L 34.5 190 Q 37.7 190.8 38.5 189 L 42.5 189 L 43.5 188 Q 46.8 188.8 47.5 187 L 51.5 187 L 52.5 186 Q 55.8 186.8 56.5 185 L 60.5 185 L 61.5 184 L 65.5 184 L 66.5 183 Q 69.8 183.8 70.5 182 L 74.5 182 L 75.5 181 Q 78.8 181.8 79.5 180 L 83.5 180 L 84.5 179 Q 87.8 179.8 88.5 178 L 92.5 178 L 93.5 177 L 97.5 177 L 98.5 176 Q 101.8 176.8 102.5 175 L 106.5 175 L 107.5 174 Q 110.8 174.8 111.5 173 L 115.5 173 L 116.5 172 Q 119.8 172.8 120.5 171 L 124.5 171 L 125.5 170 Q 128.8 170.8 129.5 169 L 133.5 169 L 134.5 168 L 138.5 168 L 139.5 167 Q 142.8 167.8 143.5 166 L 147.5 166 L 148.5 165 Q 151.8 165.8 152.5 164 L 156.5 164 L 157.5 163 Q 160.8 163.8 161.5 162 L 165.5 162 L 166.5 161 L 170.5 161 L 171.5 160 Q 174.8 160.8 175.5 159 L 179.5 159 L 180.5 158 Q 183.7 158.8 184.5 157 L 188.5 157 L 189.5 156 Q 192.8 156.8 193.5 155 L 197.5 155 L 198.5 154 Q 201.8 154.8 202.5 153 L 206.5 153 L 207.5 152 L 211.5 152 L 212.5 151 Q 215.8 151.8 216.5 150 L 220.5 150 L 221.5 149 Q 224.8 149.8 225.5 148 L 229.5 148 L 230.5 147 Q 233.7 147.8 234.5 146 L 238.5 146 L 239.5 145 L 243.5 145 L 244.5 144 Q 247.8 144.7 248.5 143 L 252.5 143 Q 253.3 141.3 256.5 142 L 257.5 141 L 261.5 141 Q 262.3 139.3 265.5 140 L 266.5 139 L 270.5 139 L 271.5 138 Q 274.8 138.8 275.5 137 L 279.5 137 L 280.5 136 L 284.5 136 L 285.5 135 Q 288.8 135.8 289.5 134 L 293.5 134 L 294.5 133 Q 297.8 133.8 298.5 132 L 302.5 132 L 303.5 131 Q 306.7 131.8 307.5 130 L 311.5 130 L 312.5 129 L 316.5 129 L 317.5 128 Q 320.7 128.8 321.5 127 L 325.5 127 L 326.5 126 Q 329.8 126.8 330.5 125 L 334.5 125 L 335.5 124 Q 338.8 124.8 339.5 123 L 343.5 123 L 344.5 122 Q 347.8 122.8 348.5 121 Z M 314 132 Q 313 133 314 133 Q 315 133 316 133 Q 316 132 314 132 Z M 307 133 Q 306 134 305 134 Q 304 135 305 135 L 307 135 L 308 134 L 311 134 L 311 134 L 311 133 L 307 133 Z M 302 135 L 301 136 L 303 137 L 303 137 L 300 137 L 299 138 L 296 138 L 294 140 Q 291 141 291 139 L 289 139 L 286 141 L 285 141 L 283 143 L 284 143 Q 286 144 287 142 L 289 142 L 290 141 L 296 141 Q 296 140 299 140 L 301 138 L 304 138 Q 305 136 306 138 L 311 138 L 311 138 Q 311 137 309 137 L 308 136 L 305 136 Q 304 135 302 135 Z M 1413 159 Q 1412 160 1413 160 Q 1414 160 1415 160 Q 1415 158 1413 159 Z M 794 225 L 793 226 L 787 226 L 786 227 L 777 227 L 776 228 L 772 228 L 771 229 L 766 229 L 765 230 L 758 230 L 757 231 L 753 231 L 750 233 L 749 233 L 748 234 L 746 234 L 746 236 L 745 237 L 745 241 L 753 248 Q 754 248 755 249 L 756 249 L 757 250 L 758 250 L 759 251 Q 762 250 763 252 L 775 252 L 776 253 L 781 253 Q 781 255 785 254 L 786 255 L 789 255 L 790 256 L 794 256 Q 794 258 797 257 L 798 258 L 800 258 L 801 259 L 804 259 L 805 260 L 809 260 Q 809 262 812 261 L 815 263 Q 818 262 819 264 L 822 264 L 825 266 L 826 266 L 827 267 L 830 267 L 833 269 L 834 269 L 835 270 L 836 270 L 837 271 L 838 271 L 843 277 Q 843 278 844 279 L 844 282 Q 846 282 845 285 L 846 286 Q 845 289 847 290 L 847 294 Q 848 294 848 296 L 851 298 L 852 298 L 856 302 Q 857 302 858 303 L 860 303 L 861 304 L 865 304 Q 865 306 868 305 Q 868 306 870 306 L 872 308 L 873 308 L 878 314 L 878 315 L 880 317 L 880 318 L 888 325 Q 889 325 890 326 L 892 326 L 894 328 Q 896 328 897 329 L 899 329 L 902 331 Q 904 331 905 332 L 907 332 L 908 333 L 912 333 Q 912 335 916 334 L 917 335 L 920 335 L 923 337 Q 925 337 926 338 L 928 338 L 929 339 L 932 339 L 935 341 L 936 341 L 937 342 L 938 342 L 941 345 L 942 345 L 944 348 L 944 349 L 946 351 Q 946 352 947 353 L 947 354 L 948 355 L 948 356 L 949 357 L 949 359 L 951 361 Q 951 362 952 363 L 952 364 L 953 365 L 953 366 L 954 367 L 954 368 L 955 369 L 955 370 L 956 371 L 956 372 L 957 373 L 957 374 L 965 381 L 966 381 L 968 383 Q 969 383 970 384 L 971 384 L 973 386 Q 974 386 975 387 L 976 387 L 978 389 Q 979 389 980 390 L 981 390 L 982 391 L 984 391 L 985 392 L 987 392 L 988 393 L 991 393 Q 991 395 994 394 L 997 396 L 998 396 L 999 397 L 1000 397 L 1001 398 L 1002 398 L 1004 400 Q 1005 400 1006 401 L 1007 401 L 1009 403 L 1010 403 L 1013 406 L 1014 406 L 1018 410 L 1019 410 L 1027 418 L 1028 418 L 1034 425 L 1034 426 L 1040 431 Q 1041 431 1042 432 L 1043 432 L 1044 433 L 1045 433 L 1050 437 L 1051 437 L 1053 439 Q 1054 439 1055 440 L 1056 440 L 1057 441 L 1062 441 L 1063 442 L 1070 442 L 1071 443 L 1088 443 L 1089 442 L 1105 442 L 1106 441 L 1119 441 L 1120 440 L 1131 440 L 1132 439 L 1141 439 L 1142 440 L 1148 440 Q 1148 442 1151 441 L 1152 442 L 1154 442 L 1157 444 L 1158 444 L 1159 445 L 1160 445 L 1161 446 L 1162 446 L 1167 450 L 1168 450 L 1171 453 L 1172 453 L 1180 461 L 1181 461 L 1186 466 L 1187 466 L 1192 471 L 1193 471 L 1199 477 L 1200 477 L 1214 491 L 1215 491 L 1217 493 L 1218 493 L 1221 496 L 1222 496 L 1226 500 L 1227 500 L 1233 506 L 1234 506 L 1241 513 L 1242 513 L 1245 516 L 1246 516 L 1248 518 L 1249 518 L 1251 520 L 1252 520 L 1254 522 L 1255 522 L 1259 526 L 1260 526 L 1265 530 L 1266 530 L 1268 532 Q 1269 532 1270 533 L 1271 533 L 1272 534 L 1274 534 L 1277 536 L 1280 536 Q 1280 538 1283 537 L 1284 538 L 1286 538 L 1287 539 Q 1290 538 1291 540 L 1294 540 L 1295 541 L 1298 541 L 1299 542 L 1302 542 L 1303 543 L 1306 543 L 1307 544 L 1310 544 L 1311 545 L 1314 545 L 1315 546 L 1319 546 Q 1319 548 1322 547 L 1323 548 L 1327 548 L 1328 549 L 1332 549 Q 1332 551 1336 550 L 1337 551 L 1341 551 L 1342 552 L 1346 552 Q 1346 554 1350 553 Q 1350 555 1353 554 L 1354 555 L 1358 555 L 1359 556 L 1363 556 L 1364 557 L 1370 557 L 1371 558 L 1388 558 L 1389 557 L 1393 557 L 1394 556 L 1401 556 L 1402 555 L 1419 555 L 1420 556 L 1424 556 L 1425 557 L 1429 557 L 1430 558 L 1433 558 Q 1433 560 1436 559 L 1437 560 L 1439 560 L 1440 561 L 1442 561 L 1445 563 L 1447 563 L 1450 565 L 1452 565 L 1455 567 Q 1457 567 1458 568 L 1460 568 L 1461 569 L 1465 569 Q 1465 571 1469 570 L 1470 571 L 1473 571 L 1474 572 L 1479 572 Q 1479 574 1483 573 L 1484 574 L 1487 574 Q 1487 576 1490 575 L 1491 576 L 1493 576 L 1494 577 L 1496 577 L 1497 578 L 1499 578 L 1502 580 Q 1504 580 1505 581 L 1507 581 L 1510 583 L 1512 583 L 1515 585 L 1516 585 L 1517 586 L 1518 586 L 1519 587 Q 1521 587 1522 588 L 1524 588 L 1525 589 L 1527 589 L 1528 590 L 1530 590 L 1531 591 L 1533 591 L 1536 593 L 1538 593 L 1539 594 L 1541 594 L 1544 596 L 1545 596 L 1546 597 L 1547 597 L 1548 598 L 1550 598 L 1553 600 L 1554 600 L 1555 601 L 1556 601 L 1557 602 L 1558 602 L 1559 603 L 1560 603 L 1561 604 L 1563 604 L 1566 606 L 1567 606 L 1568 607 Q 1570 607 1571 608 L 1573 608 L 1574 609 L 1577 609 L 1578 610 L 1581 610 L 1582 611 L 1587 611 L 1588 612 L 1593 612 L 1594 613 L 1616 613 L 1617 612 L 1627 612 L 1628 611 L 1639 611 L 1640 610 L 1651 610 L 1652 609 L 1660 609 L 1661 608 L 1666 608 Q 1666 607 1669 607 L 1672 605 L 1673 605 L 1674 604 L 1675 604 L 1676 603 L 1677 603 L 1677 602 L 1679 599 L 1679 598 L 1681 596 Q 1682 596 1683 595 L 1684 595 L 1685 594 L 1686 594 L 1687 593 L 1688 593 L 1689 592 Q 1691 593 1692 591 L 1694 591 L 1697 589 L 1698 589 L 1699 588 L 1700 588 L 1702 586 Q 1702 584 1701 584 L 1701 581 L 1700 580 L 1700 576 L 1703 573 Q 1704 573 1705 572 L 1707 572 L 1710 570 L 1711 570 L 1713 568 L 1713 564 L 1712 563 L 1712 558 L 1711 557 Q 1712 556 1712 555 L 1716 551 L 1717 551 L 1719 549 L 1718 548 L 1718 543 Q 1717 542 1717 540 L 1720 537 L 1721 537 L 1721 536 L 1722 535 L 1722 533 L 1723 532 L 1721 529 L 1721 522 L 1724 519 Q 1724 517 1725 517 L 1725 516 L 1709 499 Q 1707 499 1707 498 L 1706 498 L 1705 497 L 1704 497 L 1703 496 L 1701 496 L 1698 494 L 1697 494 L 1696 493 L 1695 493 L 1694 492 L 1692 492 L 1689 490 L 1688 490 L 1687 489 Q 1684 490 1684 488 L 1682 488 L 1681 487 L 1679 487 L 1678 486 L 1675 486 Q 1674 485 1672 485 L 1671 484 L 1668 484 L 1667 483 L 1663 483 L 1662 482 L 1658 482 L 1657 481 L 1653 481 Q 1652 479 1649 480 Q 1648 479 1646 479 L 1645 478 L 1643 478 L 1642 477 L 1640 477 L 1639 476 L 1637 476 L 1634 474 L 1631 474 Q 1630 473 1628 473 L 1627 472 Q 1623 473 1623 471 L 1619 471 L 1618 470 L 1614 470 Q 1613 468 1610 469 L 1609 468 L 1605 468 Q 1604 466 1601 467 L 1600 466 L 1597 466 Q 1596 465 1594 465 L 1593 464 L 1591 464 L 1590 463 L 1588 463 L 1585 461 L 1583 461 L 1582 460 Q 1578 461 1578 459 L 1575 459 L 1574 458 L 1570 458 L 1569 457 L 1565 457 Q 1564 456 1562 456 L 1561 455 L 1558 455 Q 1557 454 1555 454 L 1554 453 L 1552 453 L 1549 451 L 1547 451 L 1544 449 Q 1541 450 1541 448 L 1539 448 L 1538 447 L 1535 447 Q 1534 446 1532 446 L 1531 445 L 1527 445 Q 1526 444 1524 444 L 1523 443 L 1521 443 L 1518 441 L 1517 441 L 1516 440 L 1515 440 L 1514 439 Q 1511 440 1511 438 L 1508 438 Q 1507 437 1505 437 L 1504 436 L 1502 436 L 1501 435 L 1499 435 L 1496 433 Q 1493 434 1493 432 L 1491 432 L 1490 431 L 1488 431 L 1487 430 L 1485 430 L 1482 428 L 1480 428 Q 1479 427 1478 427 L 1477 426 Q 1474 427 1474 425 L 1472 425 L 1471 424 L 1468 424 Q 1467 423 1465 423 L 1464 422 L 1462 422 L 1459 420 L 1457 420 L 1455 418 L 1453 418 Q 1452 417 1451 417 L 1450 416 Q 1447 417 1447 415 L 1445 415 L 1444 414 L 1441 414 L 1438 412 L 1436 412 L 1433 410 L 1432 410 L 1431 409 L 1430 409 L 1429 408 L 1428 408 L 1427 407 Q 1424 408 1424 406 L 1422 406 L 1421 405 L 1418 405 L 1417 404 L 1415 404 L 1412 402 L 1411 402 L 1410 401 L 1408 401 Q 1407 400 1406 400 L 1405 399 Q 1402 400 1402 398 L 1400 398 L 1399 397 L 1397 397 L 1394 395 L 1393 395 L 1392 394 L 1390 394 L 1389 393 L 1387 393 L 1384 391 L 1383 391 L 1382 390 L 1381 390 L 1380 389 Q 1377 390 1377 388 L 1375 388 L 1374 387 L 1372 387 L 1369 385 Q 1366 386 1366 384 L 1364 384 L 1361 382 L 1360 382 L 1359 381 L 1357 381 L 1354 379 Q 1351 380 1351 378 L 1349 378 L 1348 377 L 1346 377 L 1343 375 L 1341 375 L 1338 373 L 1337 373 L 1336 372 L 1335 372 L 1334 371 Q 1331 372 1331 370 L 1329 370 L 1328 369 L 1326 369 L 1325 368 L 1323 368 L 1320 366 L 1319 366 L 1318 365 L 1317 365 L 1316 364 L 1314 364 L 1313 363 L 1309 363 Q 1308 361 1305 362 L 1302 360 L 1300 360 Q 1299 359 1298 359 L 1297 358 Q 1293 359 1293 357 L 1290 357 L 1289 356 L 1285 356 L 1284 355 L 1279 355 L 1278 354 L 1274 354 Q 1273 352 1270 353 L 1269 352 L 1266 352 L 1265 351 L 1262 351 L 1261 350 L 1257 350 L 1256 349 L 1248 349 L 1247 348 L 1239 348 L 1238 347 L 1233 347 L 1232 346 L 1228 346 L 1227 345 L 1223 345 Q 1222 343 1219 344 L 1218 343 L 1213 343 L 1212 342 L 1205 342 L 1204 341 L 1197 341 L 1196 340 L 1192 340 Q 1191 339 1189 339 L 1188 338 L 1185 338 L 1184 337 L 1181 337 L 1180 336 L 1177 336 L 1176 335 L 1171 335 L 1170 334 L 1166 334 L 1165 333 L 1163 333 Q 1162 332 1161 332 L 1160 331 L 1158 331 L 1157 330 L 1153 330 L 1152 329 L 1148 329 L 1147 328 L 1145 328 Q 1144 327 1143 327 L 1142 326 L 1140 326 L 1137 324 L 1135 324 L 1134 323 Q 1130 324 1130 322 L 1127 322 L 1124 320 L 1123 320 L 1122 319 L 1121 319 L 1120 318 L 1116 318 Q 1115 317 1113 317 L 1112 316 L 1109 316 L 1106 314 L 1104 314 Q 1103 313 1102 313 L 1101 312 L 1098 312 Q 1097 311 1095 311 L 1094 310 L 1092 310 L 1090 308 Q 1088 308 1088 307 Q 1084 308 1084 306 L 1081 306 L 1080 305 L 1078 305 L 1075 303 L 1074 303 L 1073 302 Q 1070 303 1070 301 L 1067 301 L 1066 300 L 1064 300 L 1062 298 Q 1060 298 1060 297 L 1057 297 Q 1056 296 1054 296 L 1053 295 L 1050 295 L 1047 293 L 1046 293 L 1045 292 L 1044 292 L 1043 291 L 1040 291 Q 1039 290 1037 290 L 1034 288 L 1033 288 L 1032 287 Q 1029 288 1029 286 L 1026 286 L 1023 284 L 1022 284 L 1021 283 Q 1018 284 1018 282 L 1016 282 L 1015 281 L 1012 281 Q 1011 280 1010 280 L 1008 278 Q 1005 279 1005 277 L 1002 277 L 999 275 L 998 275 L 997 274 Q 994 275 994 273 L 992 273 L 991 272 L 988 272 L 985 270 L 984 270 L 983 269 L 980 269 Q 979 268 977 268 Q 976 267 975 267 L 973 265 L 969 265 Q 968 263 965 264 L 963 262 L 961 262 L 958 260 L 955 260 L 952 258 L 951 258 L 950 257 L 946 257 Q 945 256 943 256 L 941 254 Q 938 255 938 253 L 935 253 L 932 251 L 931 251 L 930 250 L 927 250 Q 926 249 924 249 L 921 247 L 919 247 L 918 246 L 914 246 L 911 244 L 910 244 L 909 243 L 906 243 L 905 242 L 903 242 Q 902 241 901 241 L 900 240 L 897 240 L 896 239 L 893 239 L 890 237 L 888 237 L 887 236 L 884 236 Q 883 235 881 235 L 878 233 L 872 233 Q 871 232 869 232 L 868 231 L 835 231 L 834 230 L 829 230 L 826 228 L 824 228 L 823 227 L 819 227 L 816 225 L 794 225 Z " /><path fill="rgb(0,0,0)" stroke="rgb(0,0,0)" stroke-width="0" opacity="1" d="M 346.5 126 L 351.5 126 L 352 126.5 L 351.5 127 L 346.5 127 Q 345.5 126.5 346.5 126 Z " /><path fill="rgb(0,0,0)" stroke="rgb(0,0,0)" stroke-width="0" opacity="1" d="M 353.5 127 L 357.5 127 L 358 127.5 L 357.5 128 L 353.5 128 Q 352.5 127.5 353.5 127 Z " /><path fill="rgb(0,0,0)" stroke="rgb(0,0,0)" stroke-width="0" opacity="1" d="M 348.5 129 Q 350.5 128.5 351 129.5 Q 350.5 130.5 348.5 130 Q 347.5 129.5 348.5 129 Z " /><path fill="rgb(0,0,0)" stroke="rgb(0,0,0)" stroke-width="0" opacity="1" d="M 1434.5 159 L 1442.5 159 L 1443.5 160 L 1447.5 160 L 1448 160.5 L 1447.5 161 L 1437.5 161 Q 1437 159.5 1434.5 160 Q 1433.5 159.5 1434.5 159 Z " /><path fill="rgb(0,0,0)" stroke="rgb(0,0,0)" stroke-width="0" opacity="1" d="M 1452.5 160 L 1455.5 160 L 1456 160.5 L 1455.5 161 L 1452.5 161 Q 1451.5 160.5 1452.5 160 Z " /><path fill="rgb(0,0,0)" stroke="rgb(0,0,0)" stroke-width="0" opacity="1" d="M 1462.5 161 L 1471.5 161 L 1472 161.5 L 1471.5 162 L 1462.5 162 Q 1461.5 161.5 1462.5 161 Z " /><path fill="rgb(253,253,253)" stroke="rgb(253,253,253)" stroke-width="0" opacity="1" d="M 0 0 L 0.5 0 L 1799.5 0 Q 1800.3 -0.3 1800 0.5 L 1800 401.5 L 1800 402 Q 1799.5 402 1797.5 402 L 1796.5 401 Q 1794 401.5 1793.5 400 L 1790.5 400 L 1789.5 399 Q 1787 399.5 1786.5 398 L 1783.5 398 L 1782.5 397 L 1780.5 397 L 1779.5 396 L 1777.5 396 L 1776.5 395 Q 1774 395.5 1773.5 394 L 1770.5 394 L 1769.5 393 L 1766.5 393 L 1765.5 392 L 1762.5 392 L 1761.5 391 L 1758.5 391 Q 1757.8 389.3 1754.5 390 L 1753.5 389 Q 1751 389.5 1750.5 388 Q 1747.3 388.8 1746.5 387 L 1742.5 387 L 1741.5 386 Q 1738.2 386.8 1737.5 385 L 1733.5 385 L 1732.5 384 L 1728.5 384 L 1727.5 383 L 1723.5 383 L 1722.5 382 L 1719.5 382 L 1718.5 381 L 1715.5 381 L 1714.5 380 Q 1711.3 380.8 1710.5 379 L 1706.5 379 L 1705.5 378 L 1700.5 378 L 1699.5 377 L 1694.5 377 L 1693.5 376 L 1687.5 376 L 1686.5 375 L 1677.5 375 L 1676.5 374 L 1669.5 374 L 1668.5 373 L 1663.5 373 L 1662.5 372 L 1656.5 372 L 1655.5 371 L 1648.5 371 L 1647.5 370 L 1640.5 370 L 1639.5 369 L 1632.5 369 L 1631.5 368 L 1622.5 368 L 1621.5 367 L 1613.5 367 L 1612.5 366 L 1608.5 366 L 1607.5 365 Q 1604.3 365.8 1603.5 364 L 1599.5 364 L 1598.5 363 L 1593.5 363 L 1592.5 362 L 1588.5 362 L 1587.5 361 L 1582.5 361 L 1581.5 360 L 1577.5 360 L 1576.5 359 L 1571.5 359 L 1570.5 358 Q 1567.3 358.8 1566.5 357 L 1562.5 357 L 1561.5 356 Q 1558.3 356.8 1557.5 355 L 1552.5 355 L 1551.5 354 L 1546.5 354 L 1545.5 353 L 1539.5 353 L 1538.5 352 L 1533.5 352 L 1532.5 351 L 1528.5 351 L 1527.5 350 L 1523.5 350 L 1522.5 349 L 1518.5 349 L 1517.5 348 L 1513.5 348 L 1512.5 347 L 1508.5 347 L 1507.5 346 L 1501.5 346 L 1500.5 345 L 1494.5 345 L 1493.5 344 Q 1490.3 344.8 1489.5 343 L 1485.5 343 L 1484.5 342 Q 1481.3 342.8 1480.5 341 L 1476.5 341 L 1475.5 340 L 1471.5 340 L 1470.5 339 L 1466.5 339 L 1465.5 338 L 1461.5 338 L 1460.5 337 L 1456.5 337 L 1455.5 336 L 1452.5 336 L 1451.5 335 Q 1448.3 335.8 1447.5 334 L 1442.5 334 L 1441.5 333 L 1437.5 333 L 1436.5 332 L 1432.5 332 L 1431.5 331 L 1428.5 331 L 1427.5 330 L 1424.5 330 L 1423.5 329 Q 1420.3 329.8 1419.5 328 L 1414.5 328 L 1413.5 327 L 1409.5 327 L 1408.5 326 L 1404.5 326 L 1403.5 325 L 1400.5 325 L 1399.5 324 Q 1396.3 324.8 1395.5 323 L 1391.5 323 L 1390.5 322 L 1385.5 322 L 1384.5 321 L 1379.5 321 L 1378.5 320 L 1374.5 320 L 1373.5 319 L 1370.5 319 L 1369.5 318 Q 1366.3 318.8 1365.5 317 L 1361.5 317 L 1360.5 316 L 1355.5 316 L 1354.5 315 L 1348.5 315 L 1347.5 314 L 1343.5 314 Q 1342.8 312.3 1339.5 313 L 1338.5 312 Q 1336 312.5 1335.5 311 L 1331.5 311 L 1330.5 310 L 1324.5 310 L 1323.5 309 L 1319.5 309 L 1318.5 308 L 1314.5 308 L 1313.5 307 L 1310.5 307 L 1309.5 306 Q 1306.3 306.8 1305.5 305 L 1301.5 305 L 1300.5 304 L 1294.5 304 L 1293.5 303 L 1290.5 303 L 1289.5 302 L 1286.5 302 L 1285.5 301 L 1282.5 301 L 1281.5 300 Q 1278.3 300.8 1277.5 299 L 1272.5 299 L 1271.5 298 L 1267.5 298 L 1266.5 297 L 1264.5 297 L 1263.5 296 Q 1261 296.5 1260.5 295 L 1256.5 295 L 1255.5 294 L 1251.5 294 Q 1250.8 292.3 1247.5 293 L 1246.5 292 L 1244.5 292 L 1243.5 291 Q 1241 291.5 1240.5 290 L 1237.5 290 L 1236.5 289 L 1233.5 289 Q 1232.8 287.3 1229.5 288 L 1228.5 287 Q 1226 287.5 1225.5 286 L 1222.5 286 L 1221.5 285 L 1218.5 285 L 1217.5 284 L 1213.5 284 L 1212.5 283 Q 1210 283.5 1209.5 282 L 1206.5 282 L 1205.5 281 Q 1203 281.5 1202.5 280 L 1199.5 280 L 1198.5 279 L 1196.5 279 L 1195.5 278 L 1193.5 278 L 1192.5 277 Q 1190 277.5 1189.5 276 L 1186.5 276 L 1185.5 275 L 1182.5 275 Q 1181.8 273.3 1178.5 274 L 1175.5 272 L 1171.5 272 L 1170.5 271 L 1167.5 271 L 1166.5 270 L 1163.5 270 L 1162.5 269 Q 1159.3 269.8 1158.5 268 L 1154.5 268 L 1153.5 267 L 1149.5 267 L 1148.5 266 L 1144.5 266 L 1143.5 265 Q 1141 265.5 1140.5 264 L 1135.5 264 L 1134.5 263 L 1130.5 263 L 1129.5 262 Q 1126.2 262.8 1125.5 261 L 1121.5 261 L 1120.5 260 L 1115.5 260 L 1114.5 259 L 1109.5 259 L 1108.5 258 L 1105.5 258 L 1104.5 257 Q 1101.2 257.8 1100.5 256 L 1094.5 256 L 1093.5 255 L 1088.5 255 L 1087.5 254 Q 1085 254.5 1084.5 253 L 1080.5 253 L 1079.5 252 L 1074.5 252 L 1073.5 251 L 1069.5 251 L 1068.5 250 Q 1065.3 250.7 1064.5 249 L 1060.5 249 L 1059.5 248 L 1053.5 248 L 1052.5 247 Q 1050 247.5 1049.5 246 L 1045.5 246 L 1044.5 245 L 1038.5 245 L 1037.5 244 Q 1034.3 244.8 1033.5 243 L 1029.5 243 L 1028.5 242 L 1024.5 242 L 1023.5 241 L 1018.5 241 L 1017.5 240 Q 1014.2 240.8 1013.5 239 L 1009.5 239 L 1008.5 238 L 1002.5 238 L 1001.5 237 L 998.5 237 L 997.5 236 Q 994.3 236.8 993.5 235 L 988.5 235 L 987.5 234 Q 984.2 234.8 983.5 233 L 979.5 233 L 978.5 232 L 973.5 232 L 972.5 231 Q 970 231.5 969.5 230 L 965.5 230 L 964.5 229 L 960.5 229 L 959.5 228 L 955.5 228 L 954.5 227 Q 951.3 227.8 950.5 226 L 946.5 226 L 945.5 225 L 943.5 225 L 942.5 224 Q 940 224.5 939.5 223 L 936.5 223 L 935.5 222 L 934.5 222 L 933.5 221 L 932.5 221 Q 932.3 219.8 930.5 220 L 928 217.5 L 928 215.5 Q 926.8 215.2 927 213.5 L 925 211.5 Q 925.2 209.7 924 209.5 L 924 207.5 L 925.5 206 L 928.5 206 L 929.5 205 Q 932.8 205.8 933.5 204 L 938.5 204 L 939.5 203 L 946.5 203 L 947.5 202 L 951.5 202 L 952.5 201 L 960.5 201 L 961.5 200 L 965.5 200 L 966.5 199 L 974.5 199 L 975.5 198 L 980.5 198 L 981.5 197 L 988.5 197 L 989.5 196 L 996.5 196 L 997.5 195 L 1003.5 195 L 1004.5 194 L 1011.5 194 L 1012.5 193 L 1018.5 193 L 1019.5 192 L 1027.5 192 L 1028.5 191 L 1033.5 191 L 1034.5 190 L 1043.5 190 L 1044.5 189 L 1049.5 189 L 1050.5 188 L 1058.5 188 L 1059.5 187 L 1066.5 187 L 1067.5 186 L 1076.5 186 L 1077.5 185 L 1082.5 185 L 1083.5 184 L 1093.5 184 L 1094.5 183 L 1100.5 183 L 1101.5 182 L 1109.5 182 L 1110.5 181 L 1118.5 181 L 1119.5 180 L 1127.5 180 L 1128.5 179 L 1137.5 179 L 1138.5 178 L 1145.5 178 L 1146.5 177 L 1158.5 177 L 1159.5 176 L 1165.5 176 L 1166.5 175 L 1177.5 175 L 1178.5 174 L 1187.5 174 L 1188.5 173 L 1199.5 173 L 1200.5 172 L 1210.5 172 L 1211.5 171 L 1220.5 171 L 1221.5 170 L 1233.5 170 L 1234.5 169 L 1246.5 169 L 1247.5 168 L 1260.5 168 L 1261.5 167 L 1276.5 167 L 1277.5 166 L 1291.5 166 L 1292.5 165 L 1311.5 165 L 1312.5 164 L 1328.5 164 L 1329.5 163 L 1353.5 163 L 1354.5 162 L 1405.5 162 Q 1406 160.5 1408.5 161 L 1409.5 162 L 1416.5 162 L 1417 161.5 L 1416 160.5 L 1416.5 160 Q 1419 159.5 1419.5 161 L 1432.5 161 Q 1433.5 160.5 1432.5 160 L 1429.5 160 L 1428.5 159 Q 1426 159.5 1425.5 158 L 1340.5 158 L 1339.5 159 L 1305.5 159 L 1304.5 160 L 1281.5 160 L 1280.5 161 L 1267.5 161 L 1266.5 162 L 1247.5 162 L 1246.5 163 L 1230.5 163 L 1229.5 164 L 1218.5 164 L 1217.5 165 L 1204.5 165 L 1203.5 166 L 1191.5 166 L 1190.5 167 L 1183.5 167 L 1182.5 168 L 1168.5 168 L 1167.5 169 L 1158.5 169 L 1157.5 170 L 1148.5 170 L 1147.5 171 L 1135.5 171 L 1134.5 172 L 1128.5 172 L 1127.5 173 L 1114.5 173 L 1113.5 174 L 1104.5 174 L 1103.5 175 L 1096.5 175 L 1095.5 176 L 1085.5 176 L 1084.5 177 L 1079.5 177 L 1078.5 178 L 1066.5 178 L 1065.5 179 L 1060.5 179 L 1059.5 180 L 1049.5 180 L 1048.5 181 L 1042.5 181 L 1041.5 182 L 1032.5 182 L 1031.5 183 L 1024.5 183 L 1023.5 184 L 1015.5 184 L 1014.5 185 L 1007.5 185 L 1006.5 186 L 999.5 186 L 998.5 187 L 990.5 187 L 989.5 188 L 982.5 188 L 981.5 189 L 974.5 189 L 973.5 190 L 966.5 190 L 965.5 191 L 958.5 191 L 957.5 192 L 949.5 192 L 948.5 193 L 942.5 193 L 941.5 194 L 933.5 194 L 932.5 195 L 926.5 195 L 925.5 196 L 913.5 196 L 912.5 195 L 910.5 195 Q 910 193.5 907.5 194 L 904.5 192 L 902.5 192 L 899.5 190 L 897.5 190 L 894.5 188 L 890.5 188 L 889.5 187 L 884.5 187 L 883.5 188 L 880.5 188 Q 880 189.5 877.5 189 Q 877.3 190.3 875.5 190 L 872.5 193 L 870.5 193 L 869.5 194 Q 867 193.5 866.5 195 L 862.5 195 L 861.5 196 L 850.5 196 L 849.5 197 Q 846.3 196.2 845.5 198 L 838.5 198 L 837.5 199 Q 834.2 198.3 833.5 200 L 827.5 200 L 826.5 201 L 823.5 201 L 822.5 202 Q 820 201.5 819.5 203 L 816.5 203 L 813.5 205 L 810.5 205 L 809.5 206 L 808.5 206 L 805.5 208 L 803.5 208 L 800.5 210 L 797.5 210 L 796.5 211 Q 794 210.5 793.5 212 L 789.5 212 L 788.5 213 L 785.5 213 L 784.5 214 Q 781.3 213.3 780.5 215 L 773.5 215 L 772.5 216 L 767.5 216 L 766.5 217 L 758.5 217 L 757.5 218 L 743.5 218 L 742.5 217 Q 741.3 217.3 741 216.5 L 744.5 213 L 745.5 213 L 749.5 209 L 750.5 209 Q 750.8 207.7 752.5 208 L 754.5 206 L 755.5 206 L 756.5 205 L 757.5 205 L 758.5 204 L 759.5 204 L 760.5 203 L 761.5 203 Q 761.7 201.8 763.5 202 L 765.5 200 Q 767.2 200.2 767.5 199 L 769.5 199 L 770.5 198 L 771.5 198 L 772.5 197 L 773.5 197 L 774.5 196 L 775.5 196 L 776.5 195 L 777.5 195 L 778.5 194 L 779.5 194 L 780.5 193 L 781.5 193 L 782.5 192 L 783.5 192 Q 783.8 190.7 785.5 191 L 787.5 189 L 788.5 189 Q 788.7 187.7 790.5 188 L 792.5 186 L 793.5 186 L 795.5 184 L 796.5 184 L 798.5 182 L 799.5 182 L 806 175.5 L 806 174.5 L 808 172.5 L 808 165.5 L 805.5 163 Q 802.3 163.8 801.5 162 L 787.5 162 L 786.5 161 Q 783.3 161.8 782.5 160 L 768.5 160 L 767.5 159 L 764.5 159 L 763.5 158 L 762 158 L 762 156.5 L 758.5 153 Q 756.7 153.2 756.5 152 L 748.5 152 L 747.5 153 L 736.5 153 L 735.5 154 L 729.5 154 L 728.5 155 L 725.5 155 Q 725 156.5 722.5 156 L 721.5 157 L 720.5 157 L 717.5 159 L 715.5 159 L 714.5 160 L 712.5 160 L 711.5 161 Q 709 160.5 708.5 162 L 704.5 162 L 703.5 163 L 698.5 163 L 698 162.5 L 699.5 161 L 700.5 161 L 705.5 157 L 706.5 157 L 707.5 156 L 708.5 156 L 709.5 155 L 710.5 155 Q 710.8 153.7 712.5 154 L 714.5 152 L 715.5 152 L 717.5 150 L 718.5 150 L 721.5 147 L 722.5 147 L 727 142.5 Q 726.7 140.7 728 140.5 Q 727.8 139.8 726.5 140 L 725.5 139 L 713.5 139 L 712.5 140 L 703.5 140 L 702.5 141 L 696.5 141 L 695.5 142 L 689.5 142 L 688.5 143 L 681.5 143 L 680.5 144 L 676.5 144 Q 676.2 142.8 674.5 143 L 673 141.5 Q 674.5 141 674 138.5 L 669.5 134 Q 667.7 134.2 667.5 133 L 662.5 133 L 661.5 132 L 655.5 132 L 654.5 133 L 640.5 133 L 639.5 134 L 631.5 134 L 630.5 135 L 624.5 135 L 623.5 136 L 617.5 136 L 616.5 137 L 610.5 137 L 609.5 138 L 604.5 138 L 603.5 139 L 598.5 139 L 597.5 140 L 592.5 140 L 591.5 141 L 586.5 141 L 585.5 142 L 580.5 142 L 579.5 143 L 575.5 143 L 574.5 144 L 570.5 144 L 569.5 145 L 564.5 145 L 563.5 146 L 559.5 146 L 558.5 147 L 554.5 147 L 553.5 148 L 548.5 148 L 547.5 149 L 543.5 149 L 542.5 150 Q 539.3 149.3 538.5 151 L 533.5 151 L 532.5 152 L 528.5 152 L 527.5 153 L 524.5 153 L 523.5 154 L 520.5 154 Q 519.8 155.8 516.5 155 L 515.5 156 L 513.5 156 L 510.5 158 L 508.5 158 L 507.5 159 L 506.5 159 L 505.5 160 L 504.5 160 Q 504.3 161.2 502.5 161 L 500.5 163 L 499.5 163 L 498.5 164 L 497.5 164 L 496.5 165 L 495.5 165 Q 495.3 166.2 493.5 166 L 491.5 168 Q 489.7 167.7 489.5 169 L 487.5 169 L 484.5 171 L 480.5 171 L 479.5 172 L 471.5 172 L 470.5 173 L 455.5 173 L 454.5 174 L 448.5 174 L 447.5 175 L 414.5 175 L 413.5 176 L 391.5 176 L 390.5 175 L 380.5 175 L 379.5 174 L 372.5 174 L 371.5 173 L 362.5 173 L 360 170.5 L 360 169.5 Q 361.3 169.3 361 167.5 L 363 165.5 L 363 164 L 365 164 L 365 162 L 366.5 162 L 369 159.5 L 369 158 L 370.5 158 L 377 151.5 Q 376.3 149.3 378.5 150 L 380 148.5 L 379 147.5 L 379.5 147 Q 382 147.5 382.5 146 L 386.5 146 L 387.5 145 L 393.5 145 L 394.5 144 L 398.5 144 L 399.5 143 L 404.5 143 L 405.5 142 L 410.5 142 L 411.5 141 L 416.5 141 L 417.5 140 L 422.5 140 L 423.5 139 L 428.5 139 L 429.5 138 L 434.5 138 L 435.5 137 L 440.5 137 L 441.5 136 L 446.5 136 L 447.5 135 L 453.5 135 L 454.5 134 L 459.5 134 L 460.5 133 L 465.5 133 L 466.5 132 L 472.5 132 L 473.5 131 L 478.5 131 L 479.5 130 L 484.5 130 L 485.5 129 L 490.5 129 L 491.5 128 L 496.5 128 L 497.5 127 L 503.5 127 L 504.5 126 L 509.5 126 L 510.5 125 L 516.5 125 L 517.5 124 L 523.5 124 L 524.5 123 L 530.5 123 L 531.5 122 L 536.5 122 L 537 121.5 L 536.5 121 L 408.5 121 L 407.5 122 Q 405 121.5 404.5 123 L 392.5 123 L 391.5 124 L 385.5 124 L 384.5 125 L 377.5 125 L 377 125.5 L 378 126.5 L 377.5 127 L 373.5 127 L 372.5 128 L 367.5 128 L 367 128.5 L 368 129.5 L 367.5 130 L 361.5 130 Q 361.2 128.8 359.5 129 L 359 129.5 L 360 130.5 L 359.5 131 Q 357.7 131.2 357.5 130 L 352.5 130 Q 351.5 130.5 352.5 131 Q 354.5 130.5 355 131.5 L 354.5 132 L 347.5 132 L 346.5 133 L 339.5 133 L 338.5 134 L 334.5 134 L 333.5 133 L 331.5 133 Q 331.3 131.8 329.5 132 L 328.5 133 L 324.5 133 L 324 133.5 L 324.5 134 L 332.5 134 L 333 134.5 L 332.5 135 L 326.5 135 L 325.5 136 L 318.5 136 L 318 136.5 L 320 137.5 Q 319.8 138.3 318.5 138 L 317.5 137 L 313.5 137 L 312.5 136 L 309.5 136 L 309 135.5 L 311 134.5 L 310.5 134 L 307.5 134 L 306.5 135 Q 304.5 134.5 304 135.5 L 304.5 136 L 307.5 136 L 308.5 137 Q 310.5 136.5 311 137.5 L 310.5 138 L 305.5 138 Q 304.5 136 303.5 138 L 300.5 138 L 298.5 140 Q 296 139.5 295.5 141 L 289.5 141 L 288.5 142 L 286.5 142 Q 286 143.5 283.5 143 L 283 142.5 L 284.5 141 L 285.5 141 L 288.5 139 L 290.5 139 Q 291 140.5 293.5 140 L 295.5 138 L 298.5 138 L 299.5 137 L 302.5 137 L 303 136.5 L 301 135.5 Q 301.5 134.5 303.5 135 L 306.5 133 L 310.5 133 L 311.5 134 L 315.5 134 L 316.5 135 L 320.5 135 Q 321.5 134.5 320.5 134 L 317.5 134 L 317 133.5 L 317.5 133 L 322.5 133 L 323.5 132 L 327.5 132 L 328 132 L 328 130 L 328.5 130 L 333.5 130 Q 334.5 129.5 333.5 129 Q 332.3 129.3 332 128.5 Q 332.3 127.8 333.5 128 L 334.5 127 L 336.5 127 L 337 127.5 L 336 128.5 L 336.5 129 L 337.5 129 L 338.5 128 Q 340.5 128.5 341 127.5 L 339 125.5 L 339.5 125 Q 342.8 125.8 343.5 124 L 347.5 124 L 348.5 125 L 353.5 125 Q 354.5 124.5 353.5 124 L 349.5 124 L 349 123.5 L 349.5 123 L 357.5 123 L 358.5 122 L 363.5 122 L 364 121.5 L 363.5 121 L 348.5 121 L 347.5 122 Q 344.3 121.3 343.5 123 L 339.5 123 L 338.5 124 Q 335.3 123.3 334.5 125 L 330.5 125 L 329.5 126 Q 326.3 125.3 325.5 127 L 321.5 127 L 320.5 128 Q 317.3 127.3 316.5 129 L 312.5 129 L 311.5 130 L 307.5 130 L 306.5 131 Q 303.3 130.3 302.5 132 L 298.5 132 L 297.5 133 Q 294.3 132.3 293.5 134 L 289.5 134 L 288.5 135 Q 285.3 134.3 284.5 136 L 280.5 136 L 279.5 137 L 275.5 137 L 274.5 138 Q 271.3 137.3 270.5 139 L 266.5 139 L 265.5 140 Q 262.3 139.3 261.5 141 L 257.5 141 L 256.5 142 Q 253.3 141.3 252.5 143 L 248.5 143 L 247.5 144 Q 244.3 143.3 243.5 145 L 239.5 145 L 238.5 146 L 234.5 146 L 233.5 147 Q 230.3 146.2 229.5 148 L 225.5 148 L 224.5 149 Q 221.2 148.3 220.5 150 L 216.5 150 L 215.5 151 Q 212.3 150.3 211.5 152 L 207.5 152 L 206.5 153 L 202.5 153 L 201.5 154 Q 198.3 153.3 197.5 155 L 193.5 155 L 192.5 156 Q 189.3 155.3 188.5 157 L 184.5 157 L 183.5 158 Q 180.2 157.3 179.5 159 L 175.5 159 L 174.5 160 Q 171.3 159.3 170.5 161 L 166.5 161 L 165.5 162 L 161.5 162 L 160.5 163 Q 157.3 162.3 156.5 164 L 152.5 164 L 151.5 165 Q 148.3 164.3 147.5 166 L 143.5 166 L 142.5 167 Q 139.3 166.3 138.5 168 L 134.5 168 L 133.5 169 L 129.5 169 Q 128.8 170.8 125.5 170 L 124.5 171 L 120.5 171 L 119.5 172 Q 116.3 171.2 115.5 173 L 111.5 173 L 110.5 174 Q 107.3 173.3 106.5 175 L 102.5 175 L 101.5 176 Q 98.3 175.3 97.5 177 L 93.5 177 L 92.5 178 L 88.5 178 L 87.5 179 Q 84.3 178.3 83.5 180 L 79.5 180 L 78.5 181 Q 75.3 180.3 74.5 182 L 70.5 182 L 69.5 183 Q 66.3 182.3 65.5 184 L 61.5 184 L 60.5 185 L 56.5 185 L 55.5 186 Q 52.3 185.3 51.5 187 L 47.5 187 L 46.5 188 Q 43.3 187.3 42.5 189 L 38.5 189 L 37.5 190 Q 34.3 189.3 33.5 191 L 29.5 191 L 28.5 192 Q 25.3 191.2 24.5 193 L 20.5 193 L 19.5 194 L 15.5 194 L 14.5 195 Q 11.3 194.3 10.5 196 L 6.5 196 L 5.5 197 L 2.5 197 L 1.5 198 L 0 198 L 0 197.5 L 0 0.5 L 0 0 Z M 347 126 Q 346 127 347 127 L 352 127 L 352 127 L 352 126 L 347 126 Z M 354 127 Q 353 128 354 128 L 358 128 L 358 128 L 358 127 L 354 127 Z M 349 129 Q 348 130 349 130 Q 350 131 351 130 Q 350 129 349 129 Z M 1435 159 Q 1434 160 1435 160 Q 1437 160 1438 161 L 1448 161 L 1448 161 L 1448 160 L 1444 160 L 1443 159 L 1435 159 Z M 1453 160 Q 1452 161 1453 161 L 1456 161 L 1456 161 L 1456 160 L 1453 160 Z M 1463 161 Q 1462 162 1463 162 L 1472 162 L 1472 162 L 1472 161 L 1463 161 Z " /><path fill="rgb(253,253,253)" stroke="rgb(253,253,253)" stroke-width="0" opacity="1" d="M 313.5 132 Q 315.5 131.5 316 132.5 Q 315.5 133.5 313.5 133 Q 312.5 132.5 313.5 132 Z " /><path fill="rgb(253,253,253)" stroke="rgb(253,253,253)" stroke-width="0" opacity="1" d="M 1412.5 159 Q 1414.5 158.5 1415 159.5 Q 1414.5 160.5 1412.5 160 Q 1411.5 159.5 1412.5 159 Z " /><path fill="rgb(253,253,253)" stroke="rgb(253,253,253)" stroke-width="0" opacity="1" d="M 218.5 176 L 219 176.5 L 217.5 178 Q 215.7 177.7 215.5 179 L 213.5 179 L 212.5 180 L 210.5 180 L 208.5 182 L 206.5 182 L 205.5 183 L 203.5 183 Q 203 184.5 200.5 184 L 197.5 186 L 195.5 186 L 194.5 187 L 192.5 187 L 191.5 188 L 189.5 188 L 188.5 189 L 186.5 189 Q 186 190.5 183.5 190 L 180.5 192 L 178.5 192 L 177.5 193 L 175.5 193 Q 175 194.5 172.5 194 L 170.5 196 L 168.5 196 L 166.5 198 Q 165.3 197.8 165 198.5 L 166 199.5 L 166 201 L 166.5 201 L 179.5 201 L 180.5 202 L 286.5 202 Q 287.3 200.3 290.5 201 L 291.5 202 L 305.5 202 L 306.5 203 L 312.5 203 L 314 204.5 Q 313.7 206.2 315 206.5 L 314 207.5 L 314.5 208 L 316.5 208 L 317.5 209 Q 320 208.5 320.5 210 L 323.5 210 L 324.5 211 L 334.5 211 L 335.5 212 Q 338.8 211.3 339.5 213 L 344.5 213 L 345 213 L 345 215 Q 344.5 215 342.5 215 L 341.5 216 Q 339 215.5 338.5 217 L 334.5 217 L 333.5 218 Q 331 217.5 330.5 219 L 327.5 219 L 326.5 220 L 322.5 220 L 321.5 221 L 317.5 221 L 316.5 222 Q 313.3 221.2 312.5 223 L 308.5 223 L 307.5 224 L 304.5 224 Q 303.8 225.7 300.5 225 L 299.5 226 L 297.5 226 L 296.5 227 L 294.5 227 L 293.5 228 L 291.5 228 L 290.5 229 L 288.5 229 Q 288 230.5 285.5 230 L 284.5 231 L 283.5 231 L 282.5 232 L 281.5 232 L 278.5 234 L 276.5 234 Q 276.2 235.2 274.5 235 L 271.5 238 L 270.5 238 L 269 239.5 L 269 240.5 L 267 242.5 L 268 243.5 L 266 245.5 L 266.5 246 Q 268.8 245.3 268 247.5 L 267 248.5 L 268.5 250 Q 269.8 249.8 270 250.5 L 269 251.5 L 270.5 253 L 271.5 253 L 273 254.5 Q 271.7 254.8 272 256.5 L 273 257.5 L 270 260.5 L 271 261.5 L 269.5 263 L 268.5 263 L 267 264.5 L 267 265.5 L 265.5 267 L 264.5 267 L 262.5 269 L 261.5 269 L 256.5 274 L 255.5 274 L 253.5 276 L 252.5 276 Q 252.3 277.3 250.5 277 L 247.5 280 L 246.5 280 L 244.5 282 L 243.5 282 L 242.5 283 L 241.5 283 L 240.5 284 L 239.5 284 L 238.5 285 L 237.5 285 L 236.5 286 L 235.5 286 L 234.5 287 L 233.5 287 Q 233.2 288.3 231.5 288 L 229.5 290 L 228.5 290 L 225.5 293 L 224.5 293 L 223.5 294 L 222.5 294 L 221.5 295 L 220.5 295 L 219.5 296 L 218.5 296 L 217.5 297 L 216.5 297 L 215.5 298 L 214.5 298 L 213.5 299 L 212.5 299 L 211.5 300 L 210.5 300 L 209.5 301 L 208.5 301 L 205.5 303 L 203.5 303 L 202.5 304 L 201.5 304 L 200.5 305 L 199.5 305 L 198.5 306 L 197.5 306 L 196.5 307 L 195.5 307 L 194.5 308 L 193.5 308 L 192.5 309 L 191.5 309 L 190.5 310 L 189.5 310 L 186.5 312 L 184.5 312 L 183.5 313 L 182.5 313 L 181.5 314 L 180.5 314 L 179.5 315 L 178.5 315 L 177.5 316 L 176.5 316 L 173.5 318 L 171.5 318 L 170.5 319 L 169.5 319 L 168.5 320 L 167.5 320 L 166.5 321 L 165.5 321 L 164.5 322 L 163.5 322 L 162.5 323 L 161.5 323 L 160.5 324 L 159.5 324 L 158.5 325 L 157.5 325 L 154.5 327 L 152.5 327 L 151.5 328 L 150.5 328 L 149.5 329 L 148.5 329 L 147.5 330 L 146.5 330 L 145.5 331 L 144.5 331 L 143.5 332 L 142.5 332 L 141.5 333 L 140.5 333 L 137.5 335 L 135.5 335 L 134.5 336 L 133.5 336 L 132.5 337 L 131.5 337 L 130.5 338 L 129.5 338 L 128.5 339 L 127.5 339 L 126.5 340 L 125.5 340 L 124.5 341 L 123.5 341 L 122.5 342 L 121.5 342 L 120.5 343 L 119.5 343 L 118.5 344 L 117.5 344 L 114.5 346 L 112.5 346 L 111.5 347 L 110.5 347 L 109.5 348 L 108.5 348 L 107.5 349 L 106.5 349 L 105.5 350 L 104.5 350 L 103.5 351 L 102.5 351 L 101.5 352 L 100.5 352 L 99.5 353 L 98.5 353 L 97.5 354 L 96.5 354 L 95.5 355 L 94.5 355 L 93.5 356 L 92.5 356 L 91.5 357 L 90.5 357 Q 90.3 358.3 88.5 358 L 86.5 360 L 85.5 360 L 80.5 364 L 79.5 364 L 78.5 365 L 77.5 365 L 76.5 366 L 75.5 366 L 74.5 367 L 73.5 367 Q 73.3 368.3 71.5 368 L 69.5 370 L 68.5 370 L 67.5 371 L 66.5 371 L 63.5 373 L 62.5 373 Q 62.3 374.3 60.5 374 L 58.5 376 L 57.5 376 L 56.5 377 L 55.5 377 Q 55.3 378.2 53.5 378 L 50.5 381 L 49.5 381 L 47.5 383 L 46.5 383 L 45.5 384 L 44.5 384 L 43.5 385 L 42.5 385 L 41.5 386 L 40.5 386 Q 40.3 387.2 38.5 387 L 36.5 389 L 35.5 389 L 34.5 390 L 33.5 390 L 32.5 391 L 31.5 391 L 30.5 392 L 29.5 392 Q 29.2 393.2 27.5 393 L 26.5 394 L 25.5 394 L 24.5 395 L 23.5 395 Q 23.2 396.2 21.5 396 L 20.5 397 L 19.5 397 L 18.5 398 L 17.5 398 L 15.5 400 L 14.5 400 L 12.5 402 L 11.5 402 L 8.5 405 L 7.5 405 Q 7.3 406.3 5.5 406 L 3.5 408 Q 1.7 407.7 1.5 409 L 0 409 L 0 408.5 L 0 219.5 Q -0.4 218.5 1.5 219 L 2.5 218 L 6.5 218 L 7.5 217 Q 10.8 217.8 11.5 216 L 16.5 216 L 17.5 215 L 21.5 215 L 22.5 214 L 26.5 214 L 27.5 213 L 31.5 213 L 32.5 212 L 36.5 212 L 37.5 211 L 41.5 211 L 42.5 210 L 46.5 210 L 47.5 209 L 51.5 209 L 52.5 208 L 57.5 208 L 58.5 207 Q 61.8 207.8 62.5 206 L 66.5 206 L 67.5 205 L 71.5 205 L 72.5 204 L 76.5 204 L 77.5 203 L 82.5 203 L 83.5 202 L 87.5 202 L 88.5 201 L 92.5 201 L 93.5 200 Q 96.8 200.7 97.5 199 L 102.5 199 L 103.5 198 L 107.5 198 L 108.5 197 L 112.5 197 L 113.5 196 L 117.5 196 L 118.5 195 L 122.5 195 L 123.5 194 L 128.5 194 L 129.5 193 L 133.5 193 L 134.5 192 L 138.5 192 L 139.5 191 L 143.5 191 L 144.5 190 L 149.5 190 L 150.5 189 L 154.5 189 L 155.5 188 L 159.5 188 L 160.5 187 L 164.5 187 L 165.5 186 L 170.5 186 L 171.5 185 L 175.5 185 L 176.5 184 L 180.5 184 L 181.5 183 Q 184.8 183.8 185.5 182 L 191.5 182 L 192.5 181 L 196.5 181 L 197.5 180 Q 200.8 180.8 201.5 179 L 207.5 179 L 208.5 178 Q 211.7 178.8 212.5 177 L 217.5 177 L 218.5 176 Z " /><path fill="rgb(253,253,253)" stroke="rgb(253,253,253)" stroke-width="0" opacity="1" d="M 793.5 225 L 815.5 225 L 818.5 227 L 822.5 227 L 823.5 228 L 825.5 228 L 828.5 230 L 833.5 230 L 834.5 231 L 867.5 231 L 868.5 232 Q 871 231.5 871.5 233 L 877.5 233 L 880.5 235 Q 883 234.5 883.5 236 L 886.5 236 L 887.5 237 L 889.5 237 L 892.5 239 L 895.5 239 L 896.5 240 L 899.5 240 L 900.5 241 Q 902.2 240.7 902.5 242 L 904.5 242 L 905.5 243 L 908.5 243 L 909.5 244 L 910.5 244 L 913.5 246 L 917.5 246 L 918.5 247 L 920.5 247 L 923.5 249 Q 926 248.5 926.5 250 L 929.5 250 L 930.5 251 L 931.5 251 L 934.5 253 L 937.5 253 Q 938 254.5 940.5 254 L 942.5 256 Q 945 255.5 945.5 257 L 949.5 257 L 950.5 258 L 951.5 258 L 954.5 260 L 957.5 260 L 960.5 262 L 962.5 262 L 964.5 264 Q 967.8 263.3 968.5 265 L 972.5 265 L 974.5 267 Q 976.2 266.7 976.5 268 Q 979 267.5 979.5 269 L 982.5 269 L 983.5 270 L 984.5 270 L 987.5 272 L 990.5 272 L 991.5 273 L 993.5 273 Q 994 274.5 996.5 274 L 997.5 275 L 998.5 275 L 1001.5 277 L 1004.5 277 Q 1005 278.5 1007.5 278 L 1009.5 280 Q 1011.2 279.7 1011.5 281 L 1014.5 281 L 1015.5 282 L 1017.5 282 Q 1018 283.5 1020.5 283 L 1021.5 284 L 1022.5 284 L 1025.5 286 L 1028.5 286 Q 1029 287.5 1031.5 287 L 1032.5 288 L 1033.5 288 L 1036.5 290 Q 1039 289.5 1039.5 291 L 1042.5 291 L 1043.5 292 L 1044.5 292 L 1045.5 293 L 1046.5 293 L 1049.5 295 L 1052.5 295 L 1053.5 296 Q 1056 295.5 1056.5 297 L 1059.5 297 Q 1059.8 298.3 1061.5 298 L 1063.5 300 L 1065.5 300 L 1066.5 301 L 1069.5 301 Q 1070 302.5 1072.5 302 L 1073.5 303 L 1074.5 303 L 1077.5 305 L 1079.5 305 L 1080.5 306 L 1083.5 306 Q 1084.3 307.8 1087.5 307 Q 1087.8 308.3 1089.5 308 L 1091.5 310 L 1093.5 310 L 1094.5 311 Q 1097 310.5 1097.5 312 L 1100.5 312 L 1101.5 313 Q 1103.2 312.7 1103.5 314 L 1105.5 314 L 1108.5 316 L 1111.5 316 L 1112.5 317 Q 1115 316.5 1115.5 318 L 1119.5 318 L 1120.5 319 L 1121.5 319 L 1122.5 320 L 1123.5 320 L 1126.5 322 L 1129.5 322 Q 1130.3 323.7 1133.5 323 L 1134.5 324 L 1136.5 324 L 1139.5 326 L 1141.5 326 L 1142.5 327 Q 1144.2 326.7 1144.5 328 L 1146.5 328 L 1147.5 329 L 1151.5 329 L 1152.5 330 L 1156.5 330 L 1157.5 331 L 1159.5 331 L 1160.5 332 Q 1162.3 331.7 1162.5 333 L 1164.5 333 L 1165.5 334 L 1169.5 334 L 1170.5 335 L 1175.5 335 L 1176.5 336 L 1179.5 336 L 1180.5 337 L 1183.5 337 L 1184.5 338 L 1187.5 338 L 1188.5 339 Q 1191 338.5 1191.5 340 L 1195.5 340 L 1196.5 341 L 1203.5 341 L 1204.5 342 L 1211.5 342 L 1212.5 343 L 1217.5 343 L 1218.5 344 Q 1221.8 343.3 1222.5 345 L 1226.5 345 L 1227.5 346 L 1231.5 346 L 1232.5 347 L 1237.5 347 L 1238.5 348 L 1246.5 348 L 1247.5 349 L 1255.5 349 L 1256.5 350 L 1260.5 350 L 1261.5 351 L 1264.5 351 L 1265.5 352 L 1268.5 352 L 1269.5 353 Q 1272.8 352.3 1273.5 354 L 1277.5 354 L 1278.5 355 L 1283.5 355 L 1284.5 356 L 1288.5 356 L 1289.5 357 L 1292.5 357 Q 1293.3 358.8 1296.5 358 L 1297.5 359 Q 1299.2 358.7 1299.5 360 L 1301.5 360 L 1304.5 362 Q 1307.8 361.2 1308.5 363 L 1312.5 363 L 1313.5 364 L 1315.5 364 L 1316.5 365 L 1317.5 365 L 1318.5 366 L 1319.5 366 L 1322.5 368 L 1324.5 368 L 1325.5 369 L 1327.5 369 L 1328.5 370 L 1330.5 370 Q 1331 371.5 1333.5 371 L 1334.5 372 L 1335.5 372 L 1336.5 373 L 1337.5 373 L 1340.5 375 L 1342.5 375 L 1345.5 377 L 1347.5 377 L 1348.5 378 L 1350.5 378 Q 1351 379.5 1353.5 379 L 1356.5 381 L 1358.5 381 L 1359.5 382 L 1360.5 382 L 1363.5 384 L 1365.5 384 Q 1366 385.5 1368.5 385 L 1371.5 387 L 1373.5 387 L 1374.5 388 L 1376.5 388 Q 1377 389.5 1379.5 389 L 1380.5 390 L 1381.5 390 L 1382.5 391 L 1383.5 391 L 1386.5 393 L 1388.5 393 L 1389.5 394 L 1391.5 394 L 1392.5 395 L 1393.5 395 L 1396.5 397 L 1398.5 397 L 1399.5 398 L 1401.5 398 Q 1402 399.5 1404.5 399 L 1405.5 400 Q 1407.2 399.7 1407.5 401 L 1409.5 401 L 1410.5 402 L 1411.5 402 L 1414.5 404 L 1416.5 404 L 1417.5 405 L 1420.5 405 L 1421.5 406 L 1423.5 406 Q 1424 407.5 1426.5 407 L 1427.5 408 L 1428.5 408 L 1429.5 409 L 1430.5 409 L 1431.5 410 L 1432.5 410 L 1435.5 412 L 1437.5 412 L 1440.5 414 L 1443.5 414 L 1444.5 415 L 1446.5 415 Q 1447 416.5 1449.5 416 L 1450.5 417 Q 1452.2 416.7 1452.5 418 L 1454.5 418 L 1456.5 420 L 1458.5 420 L 1461.5 422 L 1463.5 422 L 1464.5 423 Q 1467 422.5 1467.5 424 L 1470.5 424 L 1471.5 425 L 1473.5 425 Q 1474 426.5 1476.5 426 L 1477.5 427 Q 1479.2 426.7 1479.5 428 L 1481.5 428 L 1484.5 430 L 1486.5 430 L 1487.5 431 L 1489.5 431 L 1490.5 432 L 1492.5 432 Q 1493 433.5 1495.5 433 L 1498.5 435 L 1500.5 435 L 1501.5 436 L 1503.5 436 L 1504.5 437 Q 1507 436.5 1507.5 438 L 1510.5 438 Q 1511 439.5 1513.5 439 L 1514.5 440 L 1515.5 440 L 1516.5 441 L 1517.5 441 L 1520.5 443 L 1522.5 443 L 1523.5 444 Q 1526 443.5 1526.5 445 L 1530.5 445 L 1531.5 446 Q 1534 445.5 1534.5 447 L 1537.5 447 L 1538.5 448 L 1540.5 448 Q 1541 449.5 1543.5 449 L 1546.5 451 L 1548.5 451 L 1551.5 453 L 1553.5 453 L 1554.5 454 Q 1557 453.5 1557.5 455 L 1560.5 455 L 1561.5 456 Q 1564 455.5 1564.5 457 L 1568.5 457 L 1569.5 458 L 1573.5 458 L 1574.5 459 L 1577.5 459 Q 1578.3 460.8 1581.5 460 L 1582.5 461 L 1584.5 461 L 1587.5 463 L 1589.5 463 L 1590.5 464 L 1592.5 464 L 1593.5 465 Q 1596 464.5 1596.5 466 L 1599.5 466 L 1600.5 467 Q 1603.8 466.3 1604.5 468 L 1608.5 468 L 1609.5 469 Q 1612.7 468.3 1613.5 470 L 1617.5 470 L 1618.5 471 L 1622.5 471 Q 1623.2 472.8 1626.5 472 L 1627.5 473 Q 1630 472.5 1630.5 474 L 1633.5 474 L 1636.5 476 L 1638.5 476 L 1639.5 477 L 1641.5 477 L 1642.5 478 L 1644.5 478 L 1645.5 479 Q 1648 478.5 1648.5 480 Q 1651.8 479.3 1652.5 481 L 1656.5 481 L 1657.5 482 L 1661.5 482 L 1662.5 483 L 1666.5 483 L 1667.5 484 L 1670.5 484 L 1671.5 485 Q 1674 484.5 1674.5 486 L 1677.5 486 L 1678.5 487 L 1680.5 487 L 1681.5 488 L 1683.5 488 Q 1684 489.5 1686.5 489 L 1687.5 490 L 1688.5 490 L 1691.5 492 L 1693.5 492 L 1694.5 493 L 1695.5 493 L 1696.5 494 L 1697.5 494 L 1700.5 496 L 1702.5 496 L 1703.5 497 L 1704.5 497 L 1705.5 498 L 1706.5 498 Q 1706.8 499.3 1708.5 499 L 1725 515.5 L 1725 516.5 Q 1723.7 516.8 1724 518.5 L 1721 521.5 L 1721 528.5 L 1723 531.5 L 1722 532.5 L 1722 534.5 L 1721 535.5 L 1721 537 L 1719.5 537 L 1717 539.5 Q 1716.5 542 1718 542.5 L 1718 547.5 L 1719 548.5 L 1716.5 551 L 1715.5 551 L 1712 554.5 Q 1712.2 556.2 1711 556.5 L 1712 557.5 L 1712 562.5 L 1713 563.5 L 1713 567.5 L 1710.5 570 L 1709.5 570 L 1706.5 572 L 1704.5 572 Q 1704.3 573.3 1702.5 573 L 1700 575.5 L 1700 579.5 L 1701 580.5 L 1701 583.5 Q 1702.2 583.8 1702 585.5 L 1699.5 588 L 1698.5 588 L 1697.5 589 L 1696.5 589 L 1693.5 591 L 1691.5 591 Q 1691 592.5 1688.5 592 L 1687.5 593 L 1686.5 593 L 1685.5 594 L 1684.5 594 L 1683.5 595 L 1682.5 595 Q 1682.3 596.3 1680.5 596 L 1679 597.5 L 1679 598.5 L 1677 601.5 L 1677 603 L 1675.5 603 L 1674.5 604 L 1673.5 604 L 1672.5 605 L 1671.5 605 L 1668.5 607 Q 1666 606.5 1665.5 608 L 1660.5 608 L 1659.5 609 L 1651.5 609 L 1650.5 610 L 1639.5 610 L 1638.5 611 L 1627.5 611 L 1626.5 612 L 1616.5 612 L 1615.5 613 L 1593.5 613 L 1592.5 612 L 1587.5 612 L 1586.5 611 L 1581.5 611 L 1580.5 610 L 1577.5 610 L 1576.5 609 L 1573.5 609 L 1572.5 608 L 1570.5 608 Q 1570 606.5 1567.5 607 L 1566.5 606 L 1565.5 606 L 1562.5 604 L 1560.5 604 L 1559.5 603 L 1558.5 603 L 1557.5 602 L 1556.5 602 L 1555.5 601 L 1554.5 601 L 1553.5 600 L 1552.5 600 L 1549.5 598 L 1547.5 598 L 1546.5 597 L 1545.5 597 L 1544.5 596 L 1543.5 596 L 1540.5 594 L 1538.5 594 L 1537.5 593 L 1535.5 593 L 1532.5 591 L 1530.5 591 L 1529.5 590 L 1527.5 590 L 1526.5 589 L 1524.5 589 L 1523.5 588 L 1521.5 588 Q 1521 586.5 1518.5 587 L 1517.5 586 L 1516.5 586 L 1515.5 585 L 1514.5 585 L 1511.5 583 L 1509.5 583 L 1506.5 581 L 1504.5 581 Q 1504 579.5 1501.5 580 L 1498.5 578 L 1496.5 578 L 1495.5 577 L 1493.5 577 L 1492.5 576 L 1490.5 576 L 1489.5 575 Q 1487 575.5 1486.5 574 L 1483.5 574 L 1482.5 573 Q 1479.3 573.8 1478.5 572 L 1473.5 572 L 1472.5 571 L 1469.5 571 L 1468.5 570 Q 1465.3 570.8 1464.5 569 L 1460.5 569 L 1459.5 568 L 1457.5 568 Q 1457 566.5 1454.5 567 L 1451.5 565 L 1449.5 565 L 1446.5 563 L 1444.5 563 L 1441.5 561 L 1439.5 561 L 1438.5 560 L 1436.5 560 L 1435.5 559 Q 1433 559.5 1432.5 558 L 1429.5 558 L 1428.5 557 L 1424.5 557 L 1423.5 556 L 1419.5 556 L 1418.5 555 L 1401.5 555 L 1400.5 556 L 1393.5 556 L 1392.5 557 L 1388.5 557 L 1387.5 558 L 1370.5 558 L 1369.5 557 L 1363.5 557 L 1362.5 556 L 1358.5 556 L 1357.5 555 L 1353.5 555 L 1352.5 554 Q 1350 554.5 1349.5 553 Q 1346.3 553.7 1345.5 552 L 1341.5 552 L 1340.5 551 L 1336.5 551 L 1335.5 550 Q 1332.3 550.8 1331.5 549 L 1327.5 549 L 1326.5 548 L 1322.5 548 L 1321.5 547 Q 1319 547.5 1318.5 546 L 1314.5 546 L 1313.5 545 L 1310.5 545 L 1309.5 544 L 1306.5 544 L 1305.5 543 L 1302.5 543 L 1301.5 542 L 1298.5 542 L 1297.5 541 L 1294.5 541 L 1293.5 540 L 1290.5 540 Q 1289.8 538.2 1286.5 539 L 1285.5 538 L 1283.5 538 L 1282.5 537 Q 1280 537.5 1279.5 536 L 1276.5 536 L 1273.5 534 L 1271.5 534 L 1270.5 533 L 1269.5 533 Q 1269.3 531.7 1267.5 532 L 1265.5 530 L 1264.5 530 L 1259.5 526 L 1258.5 526 L 1254.5 522 L 1253.5 522 L 1251.5 520 L 1250.5 520 L 1248.5 518 L 1247.5 518 L 1245.5 516 L 1244.5 516 L 1241.5 513 L 1240.5 513 L 1233.5 506 L 1232.5 506 L 1226.5 500 L 1225.5 500 L 1221.5 496 L 1220.5 496 L 1217.5 493 L 1216.5 493 L 1214.5 491 L 1213.5 491 L 1199.5 477 L 1198.5 477 L 1192.5 471 L 1191.5 471 L 1186.5 466 L 1185.5 466 L 1180.5 461 L 1179.5 461 L 1171.5 453 L 1170.5 453 L 1167.5 450 L 1166.5 450 L 1161.5 446 L 1160.5 446 L 1159.5 445 L 1158.5 445 L 1157.5 444 L 1156.5 444 L 1153.5 442 L 1151.5 442 L 1150.5 441 Q 1148 441.5 1147.5 440 L 1141.5 440 L 1140.5 439 L 1131.5 439 L 1130.5 440 L 1119.5 440 L 1118.5 441 L 1105.5 441 L 1104.5 442 L 1088.5 442 L 1087.5 443 L 1070.5 443 L 1069.5 442 L 1062.5 442 L 1061.5 441 L 1056.5 441 L 1055.5 440 L 1054.5 440 Q 1054.3 438.7 1052.5 439 L 1050.5 437 L 1049.5 437 L 1044.5 433 L 1043.5 433 L 1042.5 432 L 1041.5 432 Q 1041.2 430.8 1039.5 431 L 1034 425.5 L 1034 424.5 L 1027.5 418 L 1026.5 418 L 1018.5 410 L 1017.5 410 L 1013.5 406 L 1012.5 406 L 1009.5 403 L 1008.5 403 L 1006.5 401 L 1005.5 401 Q 1005.2 399.7 1003.5 400 L 1001.5 398 L 1000.5 398 L 999.5 397 L 998.5 397 L 997.5 396 L 996.5 396 L 993.5 394 Q 991 394.5 990.5 393 L 987.5 393 L 986.5 392 L 984.5 392 L 983.5 391 L 981.5 391 L 980.5 390 L 979.5 390 Q 979.3 388.7 977.5 389 L 975.5 387 L 974.5 387 Q 974.2 385.8 972.5 386 L 970.5 384 L 969.5 384 Q 969.2 382.8 967.5 383 L 965.5 381 L 964.5 381 L 957 373.5 L 957 372.5 L 956 371.5 L 956 370.5 L 955 369.5 L 955 368.5 L 954 367.5 L 954 366.5 L 953 365.5 L 953 364.5 L 952 363.5 L 952 362.5 Q 950.7 362.3 951 360.5 L 949 358.5 L 949 356.5 L 948 355.5 L 948 354.5 L 947 353.5 L 947 352.5 Q 945.8 352.2 946 350.5 L 944 348.5 L 944 347.5 L 941.5 345 L 940.5 345 L 937.5 342 L 936.5 342 L 935.5 341 L 934.5 341 L 931.5 339 L 928.5 339 L 927.5 338 L 925.5 338 Q 925 336.5 922.5 337 L 919.5 335 L 916.5 335 L 915.5 334 Q 912.3 334.8 911.5 333 L 907.5 333 L 906.5 332 L 904.5 332 Q 904 330.5 901.5 331 L 898.5 329 L 896.5 329 Q 896 327.5 893.5 328 L 891.5 326 L 889.5 326 Q 889.3 324.8 887.5 325 L 880 317.5 L 880 316.5 L 878 314.5 L 878 313.5 L 872.5 308 L 871.5 308 L 869.5 306 Q 867.7 306.2 867.5 305 Q 865 305.5 864.5 304 L 860.5 304 L 859.5 303 L 857.5 303 Q 857.2 301.7 855.5 302 L 851.5 298 L 850.5 298 L 848 295.5 Q 848.2 293.7 847 293.5 L 847 289.5 Q 845.3 288.8 846 285.5 L 845 284.5 Q 845.5 282 844 281.5 L 844 278.5 Q 842.7 278.2 843 276.5 L 837.5 271 L 836.5 271 L 835.5 270 L 834.5 270 L 833.5 269 L 832.5 269 L 829.5 267 L 826.5 267 L 825.5 266 L 824.5 266 L 821.5 264 L 818.5 264 Q 817.8 262.3 814.5 263 L 811.5 261 Q 809 261.5 808.5 260 L 804.5 260 L 803.5 259 L 800.5 259 L 799.5 258 L 797.5 258 L 796.5 257 Q 794 257.5 793.5 256 L 789.5 256 L 788.5 255 L 785.5 255 L 784.5 254 Q 781.3 254.8 780.5 253 L 775.5 253 L 774.5 252 L 762.5 252 Q 761.8 250.3 758.5 251 L 757.5 250 L 756.5 250 L 755.5 249 L 754.5 249 Q 754.3 247.8 752.5 248 L 745 240.5 L 745 236.5 L 746 235.5 L 746 234 L 747.5 234 L 748.5 233 L 749.5 233 L 752.5 231 L 756.5 231 L 757.5 230 L 764.5 230 L 765.5 229 L 770.5 229 L 771.5 228 L 775.5 228 L 776.5 227 L 785.5 227 L 786.5 226 L 792.5 226 L 793.5 225 Z " /></svg>