<svg width="17.00cm" height="13.00cm" viewBox="0 0 1700 1300" version="1.1" xmlns="http://www.w3.org/2000/svg" desc="Created with imagetracer.js version 1.2.6" ><path fill="rgb(0,0,0)" stroke="rgb(0,0,0)" stroke-width="0" opacity="1" d="M 351.5 148 L 496.5 148 L 497 148.5 L 496.5 149 L 492.5 149 L 491.5 150 L 486.5 150 L 485.5 151 L 481.5 151 L 480.5 152 L 475.5 152 L 474.5 153 L 469.5 153 L 468.5 154 L 463.5 154 L 462.5 155 L 457.5 155 L 456.5 156 L 451.5 156 L 450.5 157 L 446.5 157 L 445.5 158 L 440.5 158 L 439.5 159 L 434.5 159 L 433.5 160 L 429.5 160 L 428.5 161 L 423.5 161 L 422.5 162 L 417.5 162 L 416.5 163 L 412.5 163 L 411.5 164 L 407.5 164 L 406.5 165 L 401.5 165 L 400.5 166 L 395.5 166 L 394.5 167 L 390.5 167 L 389.5 168 L 384.5 168 L 383.5 169 L 379.5 169 L 378.5 170 L 374.5 170 L 373.5 171 L 369.5 171 L 368.5 172 L 363.5 172 L 362.5 173 L 357.5 173 L 356.5 174 L 352.5 174 L 351.5 175 L 347.5 175 L 346.5 176 L 342.5 176 L 341.5 177 L 336.5 177 L 335.5 178 L 331.5 178 L 330.5 179 L 326.5 179 L 325.5 180 L 321.5 180 Q 320.7 181.8 317.5 181 L 316 182.5 L 316 185.5 L 315 186.5 L 315 188.5 Q 313.5 189 314 191.5 L 313 192.5 L 313 193.5 Q 311.7 193.8 312 195.5 L 310 197.5 L 310 198.5 L 309 199.5 L 309 200.5 Q 307.7 200.7 308 202.5 L 306 204.5 Q 308 205.5 306 206.5 Q 306.8 209.8 305 210.5 Q 306.3 210.7 306 212.5 L 307.5 214 Q 309.2 213.7 309.5 215 L 312.5 215 L 313.5 216 L 322.5 216 L 323.5 217 L 329.5 217 L 330.5 218 L 344.5 218 L 345.5 219 L 353.5 219 L 354.5 220 L 373.5 220 L 374.5 219 L 384.5 219 L 385.5 218 L 423.5 218 L 424.5 217 L 428.5 217 L 429.5 216 L 437.5 216 L 438.5 215 L 456.5 215 L 457.5 214 L 460.5 214 Q 461.2 212.3 464.5 213 L 465.5 212 L 466.5 212 Q 466.8 210.8 468.5 211 L 470.5 209 L 471.5 209 L 475.5 205 L 476.5 205 L 482.5 199 L 483.5 199 L 485.5 197 L 486.5 197 L 487.5 196 L 488.5 196 L 489.5 195 L 490.5 195 L 491.5 194 L 492.5 194 L 495.5 192 Q 498 192.5 498.5 191 L 501.5 191 L 502.5 190 Q 505 190.5 505.5 189 L 508.5 189 L 509.5 188 L 512.5 188 L 513.5 187 L 516.5 187 L 517.5 186 L 521.5 186 L 522.5 185 Q 525.8 185.8 526.5 184 L 530.5 184 L 531.5 183 Q 534.7 183.8 535.5 182 L 539.5 182 L 540.5 181 Q 543.8 181.8 544.5 180 L 548.5 180 L 549.5 179 L 553.5 179 L 554.5 178 Q 557.8 178.8 558.5 177 L 562.5 177 L 563.5 176 L 567.5 176 L 568.5 175 L 572.5 175 L 573.5 174 L 577.5 174 L 578.5 173 L 582.5 173 L 583.5 172 L 587.5 172 L 588.5 171 L 592.5 171 L 593.5 170 L 598.5 170 L 599.5 169 L 604.5 169 L 605.5 168 L 610.5 168 L 611.5 167 L 617.5 167 L 618.5 166 L 623.5 166 L 624.5 165 L 631.5 165 L 632.5 164 L 641.5 164 L 642.5 163 L 665.5 163 L 666.5 164 L 668.5 164 L 671.5 166 L 673.5 166 L 675.5 168 L 676.5 168 L 678.5 170 L 679.5 170 L 681 171.5 L 681 172.5 Q 682.3 172.7 682 174.5 L 684.5 177 L 688.5 177 L 689.5 178 L 690.5 177 L 699.5 177 L 700.5 176 L 705.5 176 L 706.5 175 L 710.5 175 L 711.5 174 L 717.5 174 L 718.5 173 L 724.5 173 L 725.5 172 L 736.5 172 L 737.5 171 L 742.5 171 L 743.5 172 L 747.5 172 L 748.5 173 L 750 173 Q 750 173.8 750 176.5 Q 748.5 177 749 179.5 L 747 181.5 L 747 182.5 Q 745.8 182.7 746 184.5 L 743 187.5 L 743 188.5 L 739.5 192 L 738.5 192 L 730 200.5 Q 730 202.5 730 203 L 730.5 203 L 734.5 203 L 735.5 202 L 738.5 202 Q 739.3 200.3 742.5 201 L 745.5 199 L 747.5 199 Q 748 197.5 750.5 198 L 755.5 194 L 756.5 194 L 759.5 192 L 762.5 192 L 763.5 191 L 767.5 191 L 768.5 190 L 780.5 190 L 781.5 189 L 797.5 189 L 798.5 190 L 799.5 190 Q 799.7 191.3 801.5 191 L 803.5 193 L 804.5 193 L 807.5 196 L 809.5 196 L 810.5 197 Q 813 196.5 813.5 198 L 818.5 198 L 819.5 199 L 835.5 199 L 836.5 200 L 840.5 200 L 841.5 201 L 847.5 201 L 848.5 202 L 863.5 202 L 864.5 203 L 867.5 203 Q 867.8 204.3 869.5 204 L 874 208.5 L 874 209.5 L 875 210.5 L 875 211.5 L 877 214.5 L 877 223.5 L 876 224.5 L 876 225.5 Q 874.7 225.8 875 227.5 L 870 232.5 L 870 233.5 L 862.5 241 L 861.5 241 L 857.5 245 L 856.5 245 L 852.5 249 L 851.5 249 L 849.5 251 L 848.5 251 L 843.5 256 L 842.5 256 L 832 266.5 L 832 267.5 L 831 268.5 L 831 269.5 L 829 272.5 Q 829 274.5 829 275 Q 829.5 275 831.5 275 L 832.5 276 L 853.5 276 L 854.5 275 L 861.5 275 L 862.5 274 Q 865.7 274.8 866.5 273 L 871.5 273 L 872.5 272 L 878.5 272 L 879.5 271 L 883.5 271 L 886.5 269 L 889.5 269 L 890.5 268 L 892.5 268 L 895.5 266 L 897.5 266 Q 898 264.5 900.5 265 L 902.5 263 L 903.5 263 L 904.5 262 L 905.5 262 Q 905.7 260.8 907.5 261 L 909.5 259 L 911.5 259 Q 911.7 257.8 913.5 258 L 915.5 256 L 918.5 256 L 919.5 255 Q 921.2 255.2 921.5 254 L 923.5 254 L 924.5 253 Q 927.8 253.7 928.5 252 L 932.5 252 L 933.5 251 L 937.5 251 L 938.5 250 L 942.5 250 L 943.5 249 L 949.5 249 L 950.5 248 Q 953 248.5 953.5 247 L 957.5 247 L 958.5 246 L 969.5 246 L 970.5 245 L 972.5 245 L 973.5 244 L 974.5 244 Q 974.7 242.7 976.5 243 L 979 240.5 L 979 239.5 L 980.5 238 L 981.5 238 L 982.5 237 L 983.5 237 L 986.5 235 L 997.5 235 L 998.5 236 L 1002.5 236 L 1003.5 237 L 1005.5 237 L 1006.5 238 L 1008.5 238 Q 1009 239.5 1011.5 239 L 1014.5 241 L 1017.5 241 L 1018.5 242 Q 1020.2 241.7 1020.5 243 L 1022.5 243 L 1023.5 244 L 1027.5 244 L 1030.5 246 L 1052.5 246 L 1053.5 245 L 1057.5 245 L 1058.5 244 L 1064.5 244 L 1065.5 243 L 1072.5 243 L 1073.5 242 L 1077.5 242 L 1078.5 241 L 1086.5 241 L 1087.5 240 L 1093.5 240 L 1094.5 239 L 1099.5 239 L 1100.5 238 L 1108.5 238 L 1109.5 237 L 1114.5 237 L 1115.5 236 L 1119.5 236 L 1120.5 235 L 1130.5 235 L 1131.5 234 Q 1134.8 234.8 1135.5 233 L 1142.5 233 L 1143.5 232 L 1151.5 232 L 1152.5 231 L 1156.5 231 L 1157.5 230 L 1164.5 230 L 1165.5 229 L 1172.5 229 L 1173.5 228 L 1179.5 228 L 1180.5 227 L 1188.5 227 L 1189.5 226 L 1194.5 226 L 1195.5 225 L 1205.5 225 L 1206.5 224 L 1210.5 224 L 1211.5 223 L 1219.5 223 L 1220.5 222 L 1228.5 222 L 1229.5 221 L 1234.5 221 L 1235.5 220 L 1244.5 220 L 1245.5 219 L 1250.5 219 L 1251.5 218 L 1261.5 218 L 1262.5 217 L 1269.5 217 L 1270.5 216 L 1278.5 216 L 1279.5 215 L 1287.5 215 L 1288.5 214 L 1297.5 214 L 1298.5 213 L 1308.5 213 L 1309.5 212 L 1317.5 212 L 1318.5 211 L 1328.5 211 L 1329.5 210 L 1335.5 210 L 1336.5 209 L 1348.5 209 L 1349.5 208 L 1356.5 208 L 1357.5 207 L 1371.5 207 L 1372.5 206 L 1379.5 206 L 1380.5 205 L 1395.5 205 L 1396.5 204 L 1405.5 204 L 1406.5 203 L 1421.5 203 L 1422.5 202 L 1434.5 202 L 1435.5 201 L 1454.5 201 L 1455.5 200 L 1468.5 200 L 1469.5 199 L 1493.5 199 L 1494.5 198 L 1517.5 198 L 1518.5 197 L 1553.5 197 L 1554.5 196 L 1609.5 196 Q 1610 197.5 1612.5 197 L 1613.5 196 L 1625.5 196 Q 1626.3 197.7 1629.5 197 L 1630.5 196 L 1643.5 196 L 1644.5 197 L 1649.5 197 L 1650.5 198 L 1654.5 198 L 1655.5 199 Q 1657.5 198.5 1658 199.5 L 1657.5 200 L 1645.5 200 L 1644.5 199 L 1639.5 199 L 1638.5 198 L 1634.5 198 Q 1633.5 198.5 1634.5 199 L 1637.5 199 L 1638.5 200 Q 1639.8 199.8 1640 200.5 L 1639.5 201 L 1633.5 201 L 1632.5 200 L 1625.5 200 Q 1625 198.5 1622.5 199 L 1622 199.5 L 1623 200.5 L 1622.5 201 L 1571.5 201 L 1570.5 202 L 1549.5 202 L 1548.5 203 L 1526.5 203 L 1525.5 204 L 1511.5 204 L 1510.5 205 L 1493.5 205 L 1492.5 206 L 1477.5 206 L 1476.5 207 L 1460.5 207 L 1459.5 208 L 1447.5 208 L 1446.5 209 L 1436.5 209 L 1435.5 210 L 1423.5 210 L 1422.5 211 L 1412.5 211 L 1411.5 212 L 1400.5 212 L 1399.5 213 L 1391.5 213 L 1390.5 214 L 1381.5 214 L 1380.5 215 L 1372.5 215 L 1371.5 216 L 1361.5 216 L 1360.5 217 L 1353.5 217 L 1352.5 218 L 1344.5 218 L 1343.5 219 L 1334.5 219 L 1333.5 220 L 1326.5 220 L 1325.5 221 L 1314.5 221 L 1313.5 222 L 1308.5 222 L 1307.5 223 L 1299.5 223 L 1298.5 224 L 1291.5 224 L 1290.5 225 L 1284.5 225 L 1283.5 226 L 1275.5 226 L 1274.5 227 L 1268.5 227 L 1267.5 228 L 1259.5 228 L 1258.5 229 L 1253.5 229 L 1252.5 230 L 1245.5 230 L 1244.5 231 L 1236.5 231 L 1235.5 232 L 1231.5 232 L 1230.5 233 L 1223.5 233 L 1222.5 234 L 1214.5 234 L 1213.5 235 L 1209.5 235 L 1208.5 236 L 1201.5 236 L 1200.5 237 L 1194.5 237 L 1193.5 238 L 1189.5 238 L 1188.5 239 L 1181.5 239 L 1180.5 240 L 1175.5 240 L 1174.5 241 L 1168.5 241 L 1167.5 242 L 1160.5 242 L 1159.5 243 Q 1156.3 242.2 1155.5 244 L 1147.5 244 L 1146.5 245 L 1140.5 245 L 1139.5 246 Q 1136.3 245.3 1135.5 247 L 1128.5 247 L 1127.5 248 L 1121.5 248 L 1120.5 249 Q 1117.3 248.3 1116.5 250 L 1109.5 250 L 1108.5 251 L 1103.5 251 L 1102.5 252 L 1098.5 252 L 1097.5 253 L 1090.5 253 L 1089.5 254 Q 1086.3 253.3 1085.5 255 L 1081.5 255 L 1080.5 256 L 1074.5 256 L 1073.5 257 L 1067.5 257 L 1064.5 259 L 1061.5 259 Q 1061 260.5 1058.5 260 L 1057 261.5 Q 1058.3 261.8 1058 263.5 L 1060.5 266 L 1061.5 266 L 1065.5 270 L 1066.5 270 L 1072.5 276 L 1073.5 276 L 1075.5 278 Q 1077.2 277.7 1077.5 279 L 1079.5 279 L 1082.5 281 L 1084.5 281 L 1085.5 282 L 1087.5 282 L 1088.5 283 Q 1091 282.5 1091.5 284 L 1095.5 284 L 1096.5 285 Q 1099 284.5 1099.5 286 L 1102.5 286 L 1103.5 287 L 1107.5 287 L 1108.5 288 L 1113.5 288 L 1114.5 289 Q 1117 288.5 1117.5 290 L 1121.5 290 L 1122.5 291 L 1126.5 291 L 1127.5 292 L 1132.5 292 L 1133.5 293 L 1137.5 293 L 1138.5 294 Q 1141.8 293.3 1142.5 295 L 1147.5 295 L 1148.5 296 L 1153.5 296 L 1154.5 297 L 1158.5 297 L 1159.5 298 L 1163.5 298 L 1164.5 299 Q 1167.8 298.3 1168.5 300 L 1174.5 300 L 1175.5 301 L 1179.5 301 L 1180.5 302 L 1184.5 302 L 1185.5 303 L 1189.5 303 L 1190.5 304 L 1195.5 304 L 1196.5 305 L 1201.5 305 L 1202.5 306 L 1206.5 306 L 1207.5 307 L 1211.5 307 L 1212.5 308 L 1217.5 308 L 1218.5 309 L 1223.5 309 L 1224.5 310 L 1229.5 310 L 1230.5 311 Q 1233.8 310.3 1234.5 312 L 1238.5 312 L 1239.5 313 L 1245.5 313 L 1246.5 314 L 1251.5 314 L 1252.5 315 L 1256.5 315 L 1257.5 316 L 1261.5 316 L 1262.5 317 L 1266.5 317 L 1267.5 318 L 1272.5 318 L 1273.5 319 L 1278.5 319 L 1279.5 320 L 1283.5 320 L 1284.5 321 L 1288.5 321 L 1289.5 322 L 1294.5 322 L 1295.5 323 L 1300.5 323 L 1301.5 324 L 1306.5 324 L 1307.5 325 Q 1310.8 324.3 1311.5 326 L 1315.5 326 L 1316.5 327 L 1320.5 327 L 1321.5 328 L 1327.5 328 L 1328.5 329 L 1333.5 329 L 1334.5 330 L 1338.5 330 L 1339.5 331 Q 1342.8 330.3 1343.5 332 L 1347.5 332 L 1348.5 333 L 1353.5 333 L 1354.5 334 L 1360.5 334 L 1361.5 335 L 1366.5 335 L 1367.5 336 L 1372.5 336 L 1373.5 337 L 1377.5 337 L 1378.5 338 L 1382.5 338 L 1383.5 339 L 1388.5 339 L 1389.5 340 L 1394.5 340 L 1395.5 341 L 1399.5 341 L 1400.5 342 L 1404.5 342 L 1405.5 343 L 1409.5 343 L 1410.5 344 L 1414.5 344 L 1415.5 345 L 1419.5 345 L 1420.5 346 L 1424.5 346 L 1425.5 347 L 1428.5 347 L 1429.5 348 Q 1432.8 347.2 1433.5 349 L 1437.5 349 L 1438.5 350 L 1442.5 350 L 1443.5 351 L 1447.5 351 L 1448.5 352 L 1451.5 352 Q 1452.3 353.8 1455.5 353 L 1456.5 354 Q 1459 353.5 1459.5 355 L 1463.5 355 L 1464.5 356 L 1468.5 356 L 1469.5 357 L 1472.5 357 L 1473.5 358 L 1476.5 358 Q 1477.3 359.8 1480.5 359 L 1481.5 360 Q 1484 359.5 1484.5 361 L 1487.5 361 L 1488.5 362 L 1491.5 362 L 1492.5 363 L 1495.5 363 L 1496.5 364 L 1499.5 364 L 1500.5 365 L 1503.5 365 L 1504.5 366 L 1507.5 366 L 1508.5 367 L 1511.5 367 L 1512.5 368 Q 1515.8 367.2 1516.5 369 L 1520.5 369 L 1521.5 370 L 1525.5 370 L 1526.5 371 L 1530.5 371 L 1531.5 372 L 1534.5 372 L 1535.5 373 L 1538.5 373 L 1539.5 374 Q 1542.8 373.3 1543.5 375 L 1547.5 375 L 1548.5 376 Q 1551.8 375.3 1552.5 377 L 1556.5 377 Q 1557.2 378.8 1560.5 378 L 1561.5 379 Q 1564 378.5 1564.5 380 L 1567.5 380 L 1568.5 381 L 1571.5 381 L 1572.5 382 L 1576.5 382 L 1577.5 383 L 1581.5 383 L 1582.5 384 L 1586.5 384 L 1587.5 385 L 1590.5 385 L 1591.5 386 L 1594.5 386 L 1595.5 387 L 1598.5 387 L 1599.5 388 Q 1602.8 387.3 1603.5 389 L 1608.5 389 L 1609.5 390 L 1613.5 390 L 1614.5 391 L 1619.5 391 L 1620.5 392 Q 1623.8 391.3 1624.5 393 L 1628.5 393 L 1629.5 394 Q 1632.8 393.3 1633.5 395 L 1637.5 395 L 1638.5 396 L 1642.5 396 L 1643.5 397 L 1648.5 397 L 1649.5 398 L 1654.5 398 L 1655.5 399 L 1660.5 399 L 1661.5 400 L 1665.5 400 L 1666.5 401 L 1670.5 401 L 1671.5 402 Q 1674.8 401.3 1675.5 403 L 1680.5 403 L 1681.5 404 L 1685.5 404 L 1686.5 405 L 1691.5 405 L 1692.5 406 L 1698.5 406 L 1700 407.5 L 1700 474.5 Q 1700.3 475.3 1697.5 475 L 1696.5 474 Q 1693.3 474.8 1692.5 473 L 1687.5 473 L 1686.5 472 L 1681.5 472 L 1680.5 471 L 1676.5 471 L 1675.5 470 Q 1672.3 470.8 1671.5 469 L 1667.5 469 L 1666.5 468 L 1663.5 468 L 1662.5 467 Q 1659.3 467.8 1658.5 466 L 1654.5 466 L 1653.5 465 L 1648.5 465 L 1647.5 464 L 1641.5 464 L 1640.5 463 L 1632.5 463 L 1631.5 462 L 1625.5 462 L 1624.5 461 L 1618.5 461 L 1617.5 460 L 1611.5 460 L 1610.5 459 L 1605.5 459 L 1604.5 458 L 1599.5 458 L 1598.5 457 Q 1595.3 457.7 1594.5 456 L 1590.5 456 L 1589.5 455 L 1585.5 455 L 1584.5 454 L 1577.5 454 L 1576.5 453 L 1570.5 453 L 1569.5 452 L 1562.5 452 L 1561.5 451 L 1555.5 451 L 1554.5 450 L 1549.5 450 L 1548.5 449 L 1544.5 449 L 1543.5 448 Q 1540.3 448.8 1539.5 447 L 1535.5 447 Q 1534.8 445.3 1531.5 446 L 1530.5 445 Q 1528 445.5 1527.5 444 L 1522.5 444 L 1521.5 443 L 1516.5 443 L 1515.5 442 L 1510.5 442 L 1509.5 441 L 1506.5 441 L 1505.5 440 L 1502.5 440 Q 1501.7 438.3 1498.5 439 L 1497.5 438 Q 1495 438.5 1494.5 437 L 1491.5 437 L 1490.5 436 L 1487.5 436 L 1486.5 435 L 1483.5 435 L 1482.5 434 L 1479.5 434 L 1478.5 433 L 1475.5 433 Q 1474.8 431.3 1471.5 432 L 1470.5 431 L 1468.5 431 L 1467.5 430 L 1465.5 430 L 1464.5 429 L 1462.5 429 L 1461.5 428 Q 1459 428.5 1458.5 427 L 1455.5 427 L 1454.5 426 L 1451.5 426 L 1450.5 425 L 1447.5 425 L 1446.5 424 L 1443.5 424 Q 1442.8 422.3 1439.5 423 L 1438.5 422 L 1436.5 422 L 1433.5 420 L 1431.5 420 L 1430.5 419 L 1428.5 419 L 1427.5 418 Q 1425 418.5 1424.5 417 L 1420.5 417 L 1419.5 416 L 1415.5 416 Q 1414.8 414.2 1411.5 415 L 1410.5 414 L 1408.5 414 L 1407.5 413 L 1405.5 413 L 1404.5 412 L 1402.5 412 Q 1402 410.5 1399.5 411 L 1396.5 409 L 1393.5 409 L 1392.5 408 L 1388.5 408 Q 1387.8 406.3 1384.5 407 L 1383.5 406 L 1381.5 406 L 1378.5 404 L 1376.5 404 L 1375.5 403 Q 1373 403.5 1372.5 402 L 1369.5 402 L 1368.5 401 Q 1366 401.5 1365.5 400 L 1362.5 400 L 1361.5 399 L 1358.5 399 Q 1357.7 397.3 1354.5 398 L 1353.5 397 L 1351.5 397 L 1348.5 395 Q 1346 395.5 1345.5 394 L 1342.5 394 L 1341.5 393 Q 1339 393.5 1338.5 392 L 1335.5 392 Q 1334.8 390.3 1331.5 391 L 1330.5 390 Q 1328.7 390.2 1328.5 389 L 1326.5 389 L 1323.5 387 L 1320.5 387 L 1319.5 386 L 1316.5 386 Q 1315.8 384.3 1312.5 385 L 1311.5 384 Q 1309 384.5 1308.5 383 L 1305.5 383 L 1304.5 382 L 1302.5 382 L 1299.5 380 L 1297.5 380 L 1296.5 379 Q 1294 379.5 1293.5 378 L 1290.5 378 Q 1289.8 376.3 1286.5 377 L 1285.5 376 L 1283.5 376 L 1282.5 375 L 1280.5 375 Q 1280 373.5 1277.5 374 L 1274.5 372 L 1271.5 372 Q 1270.7 370.3 1267.5 371 L 1266.5 370 L 1264.5 370 L 1263.5 369 Q 1261 369.5 1260.5 368 L 1257.5 368 L 1256.5 367 L 1254.5 367 L 1253.5 366 L 1251.5 366 L 1250.5 365 Q 1248 365.5 1247.5 364 L 1244.5 364 L 1243.5 363 L 1241.5 363 Q 1241 361.5 1238.5 362 L 1237.5 361 Q 1235.7 361.2 1235.5 360 L 1233.5 360 L 1232.5 359 L 1229.5 359 L 1228.5 358 L 1225.5 358 L 1224.5 357 L 1222.5 357 Q 1222 355.5 1219.5 356 L 1218.5 355 Q 1216.7 355.2 1216.5 354 L 1214.5 354 L 1213.5 353 L 1210.5 353 L 1209.5 352 L 1206.5 352 Q 1205.8 350.3 1202.5 351 L 1201.5 350 L 1199.5 350 Q 1199 348.5 1196.5 349 L 1193.5 347 L 1190.5 347 L 1189.5 346 L 1186.5 346 Q 1185.8 344.3 1182.5 345 L 1181.5 344 L 1180.5 344 L 1177.5 342 L 1174.5 342 L 1173.5 341 L 1170.5 341 Q 1169.8 339.3 1166.5 340 L 1165.5 339 L 1163.5 339 L 1162.5 338 L 1160.5 338 L 1159.5 337 Q 1157 337.5 1156.5 336 L 1153.5 336 Q 1152.8 334.3 1149.5 335 L 1148.5 334 L 1146.5 334 L 1145.5 333 L 1144.5 333 L 1141.5 331 L 1137.5 331 L 1136.5 330 L 1133.5 330 Q 1132.8 328.3 1129.5 329 L 1128.5 328 L 1126.5 328 L 1125.5 327 L 1123.5 327 L 1122.5 326 Q 1120 326.5 1119.5 325 L 1116.5 325 L 1115.5 324 L 1112.5 324 L 1111.5 323 L 1109.5 323 Q 1109 321.5 1106.5 322 L 1103.5 320 L 1100.5 320 L 1099.5 319 L 1096.5 319 L 1095.5 318 L 1093.5 318 L 1092.5 317 Q 1090 317.5 1089.5 316 L 1086.5 316 L 1085.5 315 L 1082.5 315 Q 1081.8 313.3 1078.5 314 L 1077.5 313 L 1075.5 313 L 1072.5 311 L 1068.5 311 Q 1067.8 309.3 1064.5 310 L 1063.5 309 L 1061.5 309 Q 1061 307.5 1058.5 308 L 1055.5 306 L 1050.5 306 Q 1049.8 304.3 1046.5 305 L 1045.5 304 L 1043.5 304 L 1042.5 303 L 1040.5 303 L 1039.5 302 Q 1037 302.5 1036.5 301 L 1032.5 301 L 1031.5 300 Q 1029 300.5 1028.5 299 L 1025.5 299 Q 1025 297.5 1022.5 298 L 1021.5 297 L 1016.5 297 L 1015.5 296 L 1010.5 296 L 1009.5 295 Q 1006.3 295.8 1005.5 294 L 964.5 294 L 963.5 293 L 956.5 293 Q 955.8 291.3 952.5 292 L 951.5 291 Q 949.7 291.2 949.5 290 L 947.5 290 L 946.5 289 Q 943.3 289.8 942.5 288 L 938.5 288 L 937.5 287 Q 935 287.5 934.5 286 L 931.5 286 L 930.5 285 L 910.5 285 L 909.5 286 L 903.5 286 L 902.5 287 L 897.5 287 L 896.5 288 L 888.5 288 L 887.5 289 L 882.5 289 L 881.5 290 L 878.5 290 L 877.5 291 Q 874.3 290.3 873.5 292 L 868.5 292 L 867.5 293 L 862.5 293 L 861.5 294 L 856.5 294 L 851 299.5 L 851 301.5 Q 852.3 301.8 852 303.5 L 855 306.5 L 855 308 L 856.5 308 L 858.5 310 L 859.5 310 L 862.5 313 L 863.5 313 L 864.5 314 L 865.5 314 Q 865.7 315.3 867.5 315 L 869.5 317 L 870.5 317 L 873.5 319 L 875.5 319 L 878.5 321 L 880.5 321 L 881.5 322 L 886.5 322 L 887.5 323 L 895.5 323 L 896.5 324 L 907.5 324 L 908.5 325 L 913.5 325 L 914.5 326 Q 917.8 325.3 918.5 327 L 922.5 327 L 923.5 328 L 927.5 328 L 928.5 329 L 932.5 329 L 933.5 330 L 935.5 330 L 936.5 331 L 938.5 331 L 939.5 332 Q 942 331.5 942.5 333 L 946.5 333 L 947.5 334 L 952.5 334 L 953.5 335 L 956.5 335 L 957.5 336 L 960.5 336 L 961.5 337 Q 964 336.5 964.5 338 L 967.5 338 L 968.5 339 L 971.5 339 Q 972.2 340.8 975.5 340 L 976.5 341 L 978.5 341 L 979.5 342 L 981.5 342 L 982.5 343 L 984.5 343 L 985.5 344 Q 988 343.5 988.5 345 L 991.5 345 Q 992 346.5 994.5 346 L 995.5 347 L 996.5 347 L 999.5 349 L 1001.5 349 L 1002.5 350 L 1003.5 350 L 1004.5 351 L 1005.5 351 L 1006.5 352 L 1007.5 352 Q 1007.8 353.3 1009.5 353 L 1012.5 356 L 1013.5 356 L 1022 364.5 L 1022 365.5 L 1032 375.5 L 1032 376.5 L 1041.5 386 L 1042.5 386 L 1044.5 388 L 1045.5 388 L 1046.5 389 L 1047.5 389 L 1048.5 390 L 1049.5 390 L 1050.5 391 L 1051.5 391 L 1052.5 392 L 1053.5 392 L 1054.5 393 L 1055.5 393 L 1058.5 395 L 1060.5 395 L 1061.5 396 Q 1064 395.5 1064.5 397 L 1068.5 397 L 1069.5 398 L 1072.5 398 L 1073.5 399 L 1075.5 399 Q 1076 400.5 1078.5 400 L 1079.5 401 L 1080.5 401 L 1081.5 402 L 1082.5 402 L 1083.5 403 L 1084.5 403 L 1085.5 404 L 1086.5 404 L 1087.5 405 L 1088.5 405 Q 1088.8 406.3 1090.5 406 L 1092.5 408 L 1093.5 408 L 1098.5 413 L 1099.5 413 L 1103.5 417 L 1104.5 417 L 1109.5 421 L 1110.5 421 Q 1110.8 422.3 1112.5 422 L 1114.5 424 L 1115.5 424 L 1116.5 425 L 1117.5 425 L 1118.5 426 L 1119.5 426 L 1120.5 427 L 1121.5 427 L 1122.5 428 L 1123.5 428 L 1126.5 430 L 1128.5 430 L 1129.5 431 L 1131.5 431 L 1132.5 432 L 1134.5 432 L 1135.5 433 L 1137.5 433 L 1138.5 434 L 1140.5 434 L 1141.5 435 L 1143.5 435 L 1144.5 436 L 1146.5 436 L 1147.5 437 L 1149.5 437 L 1150.5 438 Q 1153 437.5 1153.5 439 Q 1156.8 438.3 1157.5 440 L 1161.5 440 L 1162.5 441 Q 1165.8 440.3 1166.5 442 L 1170.5 442 L 1171.5 443 Q 1174 442.5 1174.5 444 L 1177.5 444 L 1178.5 445 Q 1181 444.5 1181.5 446 L 1184.5 446 L 1185.5 447 Q 1188 446.5 1188.5 448 L 1191.5 448 L 1192.5 449 Q 1195 448.5 1195.5 450 L 1198.5 450 L 1199.5 451 L 1201.5 451 L 1202.5 452 L 1203.5 452 L 1204.5 453 L 1205.5 453 L 1206.5 454 L 1207.5 454 L 1208.5 455 L 1209.5 455 L 1210.5 456 L 1211.5 456 Q 1211.8 457.3 1213.5 457 L 1215.5 459 L 1216.5 459 L 1218.5 461 L 1219.5 461 Q 1219.7 462.3 1221.5 462 L 1224.5 465 L 1225.5 465 L 1235.5 475 L 1236.5 475 L 1243.5 482 L 1244.5 482 L 1248.5 486 L 1249.5 486 L 1254.5 491 L 1255.5 491 L 1263.5 499 L 1264.5 499 L 1266.5 501 L 1267.5 501 L 1270.5 504 L 1271.5 504 L 1273.5 506 L 1274.5 506 Q 1274.8 507.3 1276.5 507 L 1278.5 509 L 1279.5 509 Q 1279.8 510.2 1281.5 510 L 1283.5 512 Q 1285.2 511.7 1285.5 513 L 1287.5 513 L 1290.5 515 L 1292.5 515 L 1293.5 516 L 1294.5 516 L 1295.5 517 L 1296.5 517 L 1299.5 519 L 1301.5 519 L 1302.5 520 L 1303.5 520 L 1304.5 521 L 1305.5 521 L 1306.5 522 L 1307.5 522 L 1310.5 524 L 1312.5 524 Q 1313 525.5 1315.5 525 L 1318.5 527 L 1320.5 527 L 1321.5 528 Q 1324 527.5 1324.5 529 L 1327.5 529 L 1328.5 530 L 1331.5 530 L 1332.5 531 L 1334.5 531 L 1335.5 532 L 1337.5 532 L 1338.5 533 L 1340.5 533 Q 1341 534.5 1343.5 534 L 1344.5 535 L 1345.5 535 L 1348.5 537 L 1350.5 537 L 1351.5 538 L 1352.5 538 L 1353.5 539 L 1354.5 539 L 1355.5 540 L 1356.5 540 L 1357.5 541 L 1358.5 541 L 1359.5 542 L 1360.5 542 L 1361.5 543 L 1362.5 543 L 1363.5 544 L 1364.5 544 L 1365.5 545 L 1366.5 545 L 1367.5 546 L 1368.5 546 L 1369.5 547 L 1370.5 547 L 1371.5 548 L 1372.5 548 L 1373.5 549 L 1374.5 549 L 1375.5 550 L 1376.5 550 L 1377.5 551 L 1378.5 551 L 1379.5 552 L 1380.5 552 L 1381.5 553 L 1382.5 553 L 1383.5 554 L 1384.5 554 Q 1384.8 555.3 1386.5 555 L 1388.5 557 L 1389.5 557 L 1390.5 558 L 1391.5 558 Q 1391.8 559.2 1393.5 559 L 1395.5 561 L 1396.5 561 Q 1396.8 562.3 1398.5 562 L 1400.5 564 L 1401.5 564 Q 1401.8 565.3 1403.5 565 L 1408.5 569 L 1409.5 569 L 1410.5 570 L 1411.5 570 Q 1411.8 571.3 1413.5 571 L 1415.5 573 L 1416.5 573 Q 1416.7 574.3 1418.5 574 L 1420.5 576 L 1421.5 576 Q 1421.8 577.2 1423.5 577 L 1425.5 579 L 1426.5 579 L 1428.5 581 L 1429.5 581 L 1434.5 585 L 1435.5 585 L 1436.5 586 L 1437.5 586 Q 1437.8 587.3 1439.5 587 L 1441.5 589 L 1442.5 589 L 1443.5 590 L 1444.5 590 L 1445.5 591 L 1446.5 591 L 1447.5 592 L 1448.5 592 L 1451.5 594 L 1453.5 594 L 1454.5 595 L 1455.5 595 L 1456.5 596 L 1457.5 596 L 1458.5 597 L 1459.5 597 L 1460.5 598 L 1461.5 598 L 1462.5 599 L 1463.5 599 L 1464.5 600 L 1465.5 600 L 1466.5 601 L 1467.5 601 L 1470.5 603 L 1472.5 603 L 1473.5 604 L 1475.5 604 L 1476.5 605 Q 1479 604.5 1479.5 606 Q 1482.8 605.3 1483.5 607 L 1489.5 607 L 1490.5 608 L 1501.5 608 L 1502.5 609 L 1518.5 609 L 1519.5 608 L 1539.5 608 L 1540.5 607 L 1553.5 607 L 1554.5 606 L 1567.5 606 L 1568.5 605 L 1574.5 605 L 1575.5 604 L 1581.5 604 L 1582.5 603 L 1595.5 603 L 1596.5 604 L 1601.5 604 L 1602.5 605 Q 1605.8 604.3 1606.5 606 L 1610.5 606 L 1611.5 607 L 1613.5 607 L 1614.5 608 L 1616.5 608 Q 1617 609.5 1619.5 609 L 1622.5 611 L 1624.5 611 L 1625.5 612 L 1626.5 612 L 1629.5 614 L 1631.5 614 L 1632.5 615 L 1633.5 615 L 1634.5 616 L 1635.5 616 L 1636.5 617 L 1637.5 617 L 1638.5 618 L 1639.5 618 L 1640.5 619 L 1641.5 619 L 1642.5 620 L 1643.5 620 L 1644.5 621 L 1645.5 621 L 1646.5 622 L 1647.5 622 L 1648.5 623 L 1649.5 623 L 1650.5 624 L 1651.5 624 L 1652.5 625 L 1653.5 625 L 1654.5 626 L 1655.5 626 Q 1655.8 627.3 1657.5 627 L 1659.5 629 L 1660.5 629 L 1661.5 630 L 1662.5 630 L 1663.5 631 L 1664.5 631 Q 1664.8 632.3 1666.5 632 L 1668.5 634 L 1669.5 634 Q 1669.8 635.2 1671.5 635 L 1673.5 637 L 1674.5 637 Q 1674.7 638.3 1676.5 638 L 1678.5 640 L 1679.5 640 L 1680.5 641 L 1681.5 641 Q 1681.8 642.3 1683.5 642 L 1685.5 644 L 1686.5 644 L 1687.5 645 L 1688.5 645 L 1689.5 646 L 1690.5 646 L 1691.5 647 L 1692.5 647 L 1693.5 648 L 1694.5 648 Q 1694.7 649.3 1696.5 649 L 1698.5 651 L 1700 651 L 1700 651.5 L 1700 1299.5 L 1700 1300 L 1699.5 1300 L 0.5 1300 L 0 1300 L 0 1299.5 L 0 536.5 L 3.5 533 L 4.5 533 L 8.5 529 L 9.5 529 L 11.5 527 L 12.5 527 L 16.5 523 L 17.5 523 L 19.5 521 L 20.5 521 L 24.5 517 L 25.5 517 L 28.5 514 L 29.5 514 L 31 512.5 L 31 511.5 L 33 509.5 L 33 508.5 L 35.5 506 L 36.5 506 L 42.5 500 L 43.5 500 L 47.5 496 L 48.5 496 L 52.5 492 L 53.5 492 L 56.5 489 L 57.5 489 L 61.5 485 L 62.5 485 L 71.5 476 L 72.5 476 L 76.5 472 L 77.5 472 L 80.5 469 L 81.5 469 L 83.5 467 L 84.5 467 L 86.5 465 L 87.5 465 L 90.5 462 L 91.5 462 L 93.5 460 L 94.5 460 L 97.5 457 L 98.5 457 L 100.5 455 L 101.5 455 L 103.5 453 L 104.5 453 L 106.5 451 L 107.5 451 L 110.5 448 L 111.5 448 L 113.5 446 L 114.5 446 L 116.5 444 L 117.5 444 L 119.5 442 L 120.5 442 L 125.5 438 L 126.5 438 Q 126.7 436.8 128.5 437 L 133.5 433 L 134.5 433 Q 134.7 431.7 136.5 432 L 138.5 430 L 139.5 430 L 141.5 428 L 142.5 428 L 144.5 426 L 145.5 426 L 147.5 424 L 148.5 424 L 150.5 422 L 151.5 422 L 153.5 420 L 154.5 420 L 156.5 418 L 157.5 418 L 162.5 414 L 163.5 414 Q 163.7 412.8 165.5 413 L 167.5 411 L 168.5 411 L 170.5 409 L 171.5 409 L 174.5 406 L 175.5 406 L 177.5 404 L 178.5 404 L 180.5 402 L 181.5 402 L 183.5 400 L 184.5 400 L 186.5 398 L 187.5 398 L 189.5 396 L 190.5 396 L 192.5 394 L 193.5 394 L 195.5 392 L 196.5 392 L 198.5 390 L 199.5 390 L 201.5 388 L 202.5 388 L 204.5 386 L 205.5 386 L 211.5 380 L 213 380 L 213 378.5 L 215.5 376 L 216.5 376 L 221.5 371 L 222.5 371 L 225.5 368 L 226.5 368 L 230.5 364 L 232 364 L 232 362.5 Q 233.3 362.3 233 360.5 L 238.5 355 L 239.5 355 L 243 351.5 L 243 349.5 L 245 347.5 L 245 346.5 L 249 341.5 Q 248.5 339 250 338.5 L 250 333.5 L 252 331.5 Q 251.8 330.8 250.5 331 L 249 329.5 Q 249.8 325.8 247.5 325 Q 245.7 325.2 245.5 324 L 243.5 324 L 241 321.5 Q 241.8 319.3 239.5 320 L 238.5 319 L 237 319 Q 237 318.5 237 316.5 L 234 313.5 Q 235.2 313.3 235 311.5 L 233 309.5 L 234 308.5 L 234 306.5 Q 235.5 306 235 303.5 L 239.5 299 L 240.5 299 Q 240.7 297.8 242.5 298 L 244.5 296 L 245.5 296 L 246.5 295 L 247.5 295 L 248.5 294 L 249.5 294 L 250.5 293 L 251.5 293 L 252.5 292 L 253.5 292 L 254.5 291 L 255.5 291 L 256.5 290 L 257.5 290 Q 257.7 288.8 259.5 289 L 260.5 288 L 262.5 288 Q 263 286.5 265.5 287 L 268.5 285 Q 271 285.5 271.5 284 L 274.5 284 L 275.5 283 L 278.5 283 L 279.5 282 L 282.5 282 L 283.5 281 L 286.5 281 L 287.5 280 L 290.5 280 L 291.5 279 L 294.5 279 L 295.5 278 L 297.5 278 L 298.5 277 Q 301 277.5 301.5 276 L 304.5 276 L 305.5 275 L 309.5 275 L 310.5 274 L 311.5 274 L 312.5 273 L 313.5 273 L 314.5 272 L 315.5 272 L 316.5 271 Q 317.8 271.3 318 270.5 L 317.5 270 L 313.5 270 L 312.5 269 L 307.5 269 L 306.5 268 L 300.5 268 L 299.5 267 L 294.5 267 L 293.5 266 L 285.5 266 L 284.5 265 L 281.5 265 Q 280.8 263.3 277.5 264 L 276.5 263 L 274.5 263 L 273.5 262 L 272 262 L 272 260.5 L 270 258.5 L 271 257.5 L 270.5 257 Q 267.3 257.8 266.5 256 L 260.5 256 L 259.5 255 L 250.5 255 L 249.5 254 L 168.5 254 L 167.5 255 L 111.5 255 L 110.5 254 L 85.5 254 L 84.5 253 L 77.5 253 L 75 250.5 L 75 249.5 L 78.5 246 L 79.5 246 L 81.5 244 L 82.5 244 L 83.5 243 L 84.5 243 L 87.5 241 L 89.5 241 L 92.5 239 L 94.5 239 L 95.5 238 L 96.5 238 L 97.5 237 L 98.5 237 L 101.5 235 L 103.5 235 Q 104 233.5 106.5 234 L 108.5 232 L 109.5 232 L 112.5 230 L 114.5 230 L 115.5 229 L 116.5 229 L 117.5 228 L 118.5 228 Q 118.8 226.7 120.5 227 L 122.5 225 L 123.5 225 L 124.5 224 L 126.5 224 Q 126.7 222.7 128.5 223 L 130 221.5 L 129.5 221 L 124.5 221 L 123.5 222 Q 120.3 221.2 119.5 223 L 115.5 223 L 114.5 224 L 110.5 224 L 109.5 225 L 105.5 225 L 104.5 226 Q 101.2 225.3 100.5 227 L 96.5 227 L 95.5 228 L 91.5 228 L 90.5 229 Q 87.3 228.3 86.5 230 L 82.5 230 L 81.5 231 Q 78.3 230.3 77.5 232 L 73.5 232 L 72.5 233 L 68.5 233 L 67.5 234 L 63.5 234 L 62.5 235 L 59.5 235 L 58.5 236 Q 55.2 235.3 54.5 237 L 50.5 237 L 49.5 238 L 45.5 238 L 44.5 239 L 40.5 239 L 39.5 240 L 36.5 240 L 35.5 241 L 32.5 241 L 31.5 242 Q 28.3 241.3 27.5 243 L 23.5 243 L 22.5 244 L 18.5 244 L 17.5 245 L 13.5 245 L 12.5 246 L 9.5 246 L 8.5 247 Q 5.2 246.2 4.5 248 L 1.5 248 L 0.5 249 L 0 248.5 L 0 214.5 L 0 214 Q 0.5 214 2.5 214 L 3.5 213 L 7.5 213 L 8.5 212 Q 11.8 212.8 12.5 211 L 15.5 211 Q 16.3 209.3 19.5 210 L 20.5 209 Q 23 209.5 23.5 208 L 26.5 208 L 27.5 207 L 30.5 207 L 31.5 206 L 34.5 206 L 35.5 205 L 38.5 205 L 39.5 204 L 42.5 204 L 43.5 203 L 46.5 203 L 47.5 202 L 50.5 202 L 51.5 201 L 54.5 201 L 55.5 200 L 58.5 200 L 59.5 199 L 62.5 199 L 63.5 198 L 66.5 198 L 67.5 197 L 70.5 197 L 71.5 196 L 74.5 196 L 75.5 195 L 78.5 195 L 79.5 194 L 82.5 194 L 83.5 193 L 86.5 193 L 87.5 192 L 90.5 192 L 91.5 191 L 94.5 191 L 95.5 190 L 98.5 190 L 99.5 189 L 102.5 189 L 103.5 188 L 106.5 188 L 107.5 187 L 110.5 187 L 111.5 186 L 114.5 186 L 115.5 185 L 118.5 185 L 119.5 184 L 122.5 184 L 123.5 183 L 126.5 183 L 127.5 182 L 130.5 182 L 131.5 181 L 134.5 181 L 135.5 180 L 138.5 180 L 139.5 179 L 142.5 179 L 143.5 178 L 146.5 178 L 147.5 177 L 150.5 177 L 151.5 176 L 154.5 176 L 155.5 175 L 158.5 175 L 159.5 174 L 162.5 174 L 163.5 173 L 166.5 173 L 167.5 172 L 170.5 172 L 171.5 171 L 174.5 171 L 175.5 170 L 178.5 170 L 179.5 169 L 182.5 169 L 183.5 168 L 186.5 168 L 187.5 167 L 190.5 167 L 191.5 166 L 194.5 166 L 195.5 165 L 198.5 165 Q 199.3 163.3 202.5 164 L 203.5 163 Q 206 163.5 206.5 162 L 210.5 162 L 211.5 161 Q 214 161.5 214.5 160 L 217.5 160 L 218.5 159 L 221.5 159 L 222.5 158 L 225.5 158 L 226.5 157 L 229.5 157 Q 230 155.5 232.5 156 Q 233.2 157.8 236.5 157 Q 237.5 156.5 236.5 156 Q 234.5 156.5 234 155.5 Q 234.5 154.5 236.5 155 L 237.5 156 L 243.5 156 L 244.5 155 L 248.5 155 Q 249.5 155.5 248.5 156 Q 245.3 155.3 244.5 157 L 240.5 157 L 238 159.5 L 238 161 L 235 161 L 235 163 Q 234.3 163 231.5 163 L 230.5 164 L 226.5 164 Q 226 165.5 223.5 165 Q 222.5 164.5 223.5 164 Q 226 164.5 226.5 163 L 230.5 163 L 231 163 L 231 161 L 230.5 161 L 223.5 161 L 221.5 163 L 218.5 163 Q 218 161.5 215.5 162 Q 214.5 162.5 215.5 163 Q 216.8 162.8 217 163.5 L 216.5 164 L 211.5 164 L 210.5 165 L 205.5 165 L 205 165.5 L 207 166.5 L 206.5 167 L 201.5 167 L 200.5 168 L 196.5 168 L 196 168.5 L 196.5 169 L 199.5 169 L 200 169.5 Q 199.5 170.5 197.5 170 L 196.5 171 L 193.5 171 L 192.5 172 L 186.5 172 Q 185.8 173.8 182.5 173 L 180.5 175 Q 178.5 174.5 178 175.5 L 178.5 176 L 181.5 176 L 182.5 175 L 188.5 175 Q 189.5 175.5 188.5 176 Q 187.3 175.8 187 176.5 L 187.5 177 L 194.5 177 L 195.5 176 Q 198 176.5 198.5 175 Q 201.8 175.7 202.5 174 L 207.5 174 L 208.5 173 L 210.5 173 L 211.5 172 Q 214 172.5 214.5 171 L 217.5 171 L 218.5 170 L 223.5 170 Q 224.3 168.3 227.5 169 L 228 169.5 L 227 170.5 L 227.5 171 L 232.5 171 L 233.5 170 L 235.5 170 L 236.5 169 Q 238.2 169.2 238.5 168 L 240.5 168 L 241.5 167 L 247.5 167 L 248.5 166 Q 251.8 166.8 252.5 165 L 256.5 165 L 257.5 164 L 262.5 164 L 263.5 163 L 271.5 163 L 272.5 162 Q 275.8 162.8 276.5 161 L 281.5 161 L 282.5 160 L 288.5 160 Q 289.2 158.3 292.5 159 Q 292.8 157.8 294.5 158 L 296.5 156 L 301.5 156 L 302.5 155 L 306.5 155 L 307 154.5 L 306.5 154 Q 304.5 154.5 304 153.5 L 304.5 153 L 309.5 153 L 310.5 152 L 316.5 152 L 317.5 151 L 329.5 151 L 330.5 150 L 335.5 150 L 336.5 149 L 350.5 149 L 351.5 148 Z M 193 169 Q 192 170 193 170 Q 194 170 195 170 Q 195 168 193 169 Z M 174 176 Q 173 177 174 177 Q 175 177 176 177 Q 176 176 174 176 Z M 167 177 Q 166 178 167 178 L 170 178 L 170 178 L 170 177 L 167 177 Z M 168 179 Q 167 180 168 180 L 171 180 L 171 180 L 171 179 L 168 179 Z M 156 182 Q 155 183 156 183 L 159 183 L 159 183 L 159 182 L 156 182 Z M 130 190 Q 129 191 130 191 L 134 191 L 134 191 L 134 190 L 130 190 Z M 1615 197 Q 1614 198 1615 198 Q 1616 198 1617 198 Q 1617 197 1615 197 Z M 1631 197 Q 1630 198 1631 198 L 1634 198 L 1634 198 L 1634 197 L 1631 197 Z M 1619 198 Q 1618 199 1619 199 Q 1620 199 1621 199 Q 1620 198 1619 198 Z " /><path fill="rgb(0,0,0)" stroke="rgb(0,0,0)" stroke-width="0" opacity="1" d="M 258.5 149 Q 261.8 148.3 262.5 150 L 267.5 150 L 268.5 149 L 274.5 149 Q 275.5 149.5 274.5 150 L 269.5 150 L 268.5 151 L 260.5 151 L 259.5 150 L 259 150.5 L 259 152 L 258.5 152 L 254.5 152 L 253.5 153 L 247.5 153 L 246.5 154 L 242.5 154 Q 241.5 153.5 242.5 153 L 245.5 153 L 246.5 152 L 249.5 152 L 250.5 151 L 253.5 151 Q 254.3 149.3 257.5 150 L 258.5 149 Z " /><path fill="rgb(0,0,0)" stroke="rgb(0,0,0)" stroke-width="0" opacity="1" d="M 238.5 154 Q 240.5 153.5 241 154.5 Q 240.5 155.5 238.5 155 Q 237.5 154.5 238.5 154 Z " /><path fill="rgb(0,0,0)" stroke="rgb(0,0,0)" stroke-width="0" opacity="1" d="M 1664.5 198 L 1671.5 198 L 1672.5 199 L 1676.5 199 L 1677 199.5 L 1676.5 200 L 1668.5 200 Q 1667.8 198.3 1664.5 199 Q 1663.5 198.5 1664.5 198 Z " /></svg>