<svg width="18.00cm" height="15.00cm" viewBox="0 0 1800 1500" version="1.1" xmlns="http://www.w3.org/2000/svg" desc="Created with imagetracer.js version 1.2.6" ><path fill="rgb(0,0,0)" stroke="rgb(0,0,0)" stroke-width="0" opacity="1" d="M 1248.5 121 L 1452.5 121 L 1453.5 122 Q 1456.8 121.3 1457.5 123 L 1461.5 123 L 1462.5 124 Q 1465.8 123.3 1466.5 125 L 1470.5 125 L 1471.5 126 Q 1474.8 125.3 1475.5 127 L 1479.5 127 L 1480.5 128 Q 1483.8 127.3 1484.5 129 L 1488.5 129 L 1489.5 130 L 1493.5 130 L 1494.5 131 Q 1497.8 130.3 1498.5 132 L 1502.5 132 L 1503.5 133 Q 1506.8 132.3 1507.5 134 L 1511.5 134 L 1512.5 135 Q 1515.8 134.3 1516.5 136 L 1520.5 136 L 1521.5 137 L 1525.5 137 L 1526.5 138 Q 1529.8 137.3 1530.5 139 L 1534.5 139 L 1535.5 140 Q 1538.7 139.3 1539.5 141 L 1543.5 141 L 1544.5 142 Q 1547.8 141.3 1548.5 143 L 1552.5 143 L 1553.5 144 Q 1556.8 143.3 1557.5 145 L 1561.5 145 L 1562.5 146 L 1566.5 146 L 1567.5 147 Q 1570.8 146.2 1571.5 148 L 1575.5 148 L 1576.5 149 Q 1579.8 148.3 1580.5 150 L 1584.5 150 L 1585.5 151 Q 1588.7 150.3 1589.5 152 L 1593.5 152 L 1594.5 153 L 1598.5 153 L 1599.5 154 Q 1602.8 153.3 1603.5 155 L 1607.5 155 L 1608.5 156 Q 1611.7 155.3 1612.5 157 L 1616.5 157 L 1617.5 158 Q 1620.8 157.3 1621.5 159 L 1625.5 159 L 1626.5 160 Q 1629.8 159.3 1630.5 161 L 1634.5 161 L 1635.5 162 L 1639.5 162 L 1640.5 163 Q 1643.8 162.3 1644.5 164 L 1648.5 164 L 1649.5 165 Q 1652.8 164.3 1653.5 166 L 1657.5 166 L 1658.5 167 Q 1661.7 166.3 1662.5 168 L 1666.5 168 L 1667.5 169 L 1671.5 169 L 1672.5 170 Q 1675.7 169.3 1676.5 171 L 1680.5 171 L 1681.5 172 Q 1684.8 171.2 1685.5 173 L 1689.5 173 L 1690.5 174 Q 1693.8 173.3 1694.5 175 L 1698.5 175 L 1699.5 176 Q 1702.8 175.3 1703.5 177 L 1707.5 177 L 1708.5 178 L 1712.5 178 L 1713.5 179 Q 1716.8 178.3 1717.5 180 L 1721.5 180 L 1722.5 181 Q 1725.7 180.3 1726.5 182 L 1730.5 182 L 1731.5 183 Q 1734.8 182.3 1735.5 184 L 1739.5 184 L 1740.5 185 L 1744.5 185 L 1745.5 186 Q 1748.8 185.3 1749.5 187 L 1753.5 187 L 1754.5 188 Q 1757.8 187.3 1758.5 189 L 1762.5 189 L 1763.5 190 Q 1766.8 189.3 1767.5 191 L 1771.5 191 L 1772.5 192 Q 1775.7 191.2 1776.5 193 L 1780.5 193 L 1781.5 194 L 1785.5 194 L 1786.5 195 Q 1789.8 194.3 1790.5 196 L 1794.5 196 Q 1795.3 197.7 1798.5 197 L 1800 198.5 L 1800 220.5 Q 1800.3 221.3 1799.5 221 L 1795.5 221 L 1794.5 220 L 1790.5 220 L 1789.5 219 L 1785.5 219 L 1784.5 218 L 1779.5 218 L 1778.5 217 L 1774.5 217 L 1773.5 216 L 1769.5 216 L 1768.5 215 Q 1765.3 215.8 1764.5 214 L 1760.5 214 L 1759.5 213 L 1755.5 213 L 1754.5 212 L 1749.5 212 L 1748.5 211 L 1744.5 211 L 1743.5 210 Q 1740.3 210.8 1739.5 209 L 1735.5 209 L 1734.5 208 L 1730.5 208 L 1729.5 207 L 1725.5 207 L 1724.5 206 L 1719.5 206 L 1718.5 205 Q 1715.3 205.8 1714.5 204 L 1710.5 204 L 1709.5 203 L 1705.5 203 L 1704.5 202 L 1699.5 202 L 1698.5 201 L 1694.5 201 L 1693.5 200 L 1689.5 200 L 1688.5 199 L 1684.5 199 L 1683.5 198 L 1679.5 198 L 1678.5 197 L 1673.5 197 L 1672.5 196 L 1668.5 196 L 1667.5 195 Q 1664.3 195.8 1663.5 194 L 1658.5 194 L 1657.5 193 L 1652.5 193 L 1651.5 192 Q 1648.2 192.8 1647.5 191 L 1643.5 191 L 1642.5 190 L 1637.5 190 L 1636.5 189 L 1632.5 189 L 1631.5 188 L 1627.5 188 L 1626.5 187 L 1622.5 187 L 1621.5 186 L 1616.5 186 L 1615.5 185 L 1611.5 185 L 1610.5 184 L 1606.5 184 L 1605.5 183 L 1601.5 183 L 1600.5 182 L 1595.5 182 L 1594.5 181 L 1590.5 181 L 1589.5 180 Q 1586.3 180.8 1585.5 179 L 1580.5 179 L 1579.5 178 L 1575.5 178 L 1574.5 177 L 1569.5 177 L 1568.5 176 L 1563.5 176 L 1562.5 175 L 1558.5 175 L 1557.5 174 L 1553.5 174 L 1552.5 173 L 1547.5 173 Q 1546.8 171.2 1543.5 172 L 1543 172.5 L 1546.5 176 L 1548.5 176 L 1549.5 177 L 1550.5 177 L 1551.5 178 L 1552.5 178 L 1555.5 180 L 1557.5 180 L 1559.5 182 L 1561.5 182 Q 1562 183.5 1564.5 183 L 1566.5 185 L 1568.5 185 L 1571.5 187 L 1573.5 187 Q 1574 188.5 1576.5 188 L 1577.5 189 L 1578.5 189 L 1581.5 191 Q 1583.5 191 1584 191 L 1584 193 L 1585.5 193 L 1587 194.5 L 1587 195.5 L 1585.5 197 L 1575.5 197 L 1574.5 198 L 1564.5 198 L 1563.5 199 L 1516.5 199 L 1515.5 200 L 1505.5 200 L 1504.5 201 L 1496.5 201 L 1493.5 203 L 1486.5 203 L 1485.5 204 L 1478.5 204 L 1475.5 206 L 1471.5 206 L 1471 206 L 1471 207.5 L 1469.5 209 Q 1468.3 208.8 1468 209.5 L 1469 210.5 L 1468.5 211 Q 1466.5 211 1466 211 L 1466 212.5 L 1464.5 214 Q 1463.3 213.8 1463 214.5 Q 1464.5 215 1464 217.5 L 1467 220.5 L 1467 221.5 L 1469 223.5 L 1469 225.5 Q 1470.3 225.8 1470 227.5 L 1472 229.5 L 1472 231 L 1473.5 231 L 1475 232.5 L 1475 233.5 L 1476.5 235 L 1478 235 L 1478 238 L 1479.5 238 L 1480.5 239 L 1481.5 239 L 1484.5 241 L 1486.5 241 L 1489.5 243 L 1491.5 243 L 1492.5 244 L 1494.5 244 L 1495.5 245 L 1497.5 245 L 1498.5 246 Q 1501 245.5 1501.5 247 L 1504.5 247 L 1505.5 248 Q 1508 247.5 1508.5 249 L 1511.5 249 L 1512.5 250 L 1514.5 250 L 1515.5 251 L 1517.5 251 L 1518.5 252 L 1520.5 252 L 1521.5 253 Q 1524 252.5 1524.5 254 L 1527.5 254 L 1528.5 255 L 1531.5 255 Q 1532.2 256.8 1535.5 256 L 1536.5 257 L 1538.5 257 L 1539.5 258 L 1541.5 258 L 1542.5 259 Q 1545 258.5 1545.5 260 L 1548.5 260 L 1549.5 261 L 1552.5 261 Q 1553.3 262.8 1556.5 262 L 1557.5 263 L 1559.5 263 L 1560.5 264 L 1562.5 264 L 1563.5 265 L 1565.5 265 L 1566.5 266 Q 1569 265.5 1569.5 267 L 1572.5 267 L 1573.5 268 L 1576.5 268 Q 1577.3 269.8 1580.5 269 L 1581.5 270 Q 1584 269.5 1584.5 271 L 1587.5 271 L 1588.5 272 L 1590.5 272 L 1591.5 273 L 1593.5 273 L 1594.5 274 L 1596.5 274 L 1597.5 275 L 1599.5 275 L 1600.5 276 L 1602.5 276 L 1603.5 277 L 1605.5 277 L 1606.5 278 Q 1609 277.5 1609.5 279 L 1612.5 279 L 1613.5 280 L 1615.5 280 L 1616.5 281 L 1618.5 281 L 1619.5 282 L 1621.5 282 L 1622.5 283 L 1624.5 283 L 1625.5 284 L 1627.5 284 Q 1628 285.5 1630.5 285 L 1633.5 287 L 1635.5 287 L 1638.5 289 L 1640.5 289 L 1641.5 290 L 1642.5 290 L 1643.5 291 L 1644.5 291 Q 1644.7 292.3 1646.5 292 L 1650.5 296 L 1652 296 L 1652 298 L 1654 298 L 1654 299.5 L 1661 306.5 Q 1660.5 309.5 1662.5 310 L 1663.5 310 L 1666 312.5 L 1666 313.5 L 1668.5 316 L 1669.5 316 L 1671 317.5 L 1670 318.5 L 1670 320 L 1671.5 320 Q 1671.7 321.2 1673.5 321 L 1676 323.5 Q 1676 325.5 1676 326 L 1677.5 326 L 1679.5 328 L 1681 328 L 1681 332 L 1682.5 332 Q 1682.8 333.3 1684.5 333 L 1688 336.5 L 1688 337.5 L 1689.5 339 L 1690.5 339 Q 1690.8 340.3 1692.5 340 L 1695 342.5 L 1695 343.5 L 1696.5 345 L 1697.5 345 L 1699.5 347 L 1700.5 347 L 1703.5 350 L 1704.5 350 L 1708.5 354 L 1709.5 354 L 1712.5 357 L 1713.5 357 L 1715.5 359 L 1716.5 359 L 1717.5 360 L 1718.5 360 L 1719.5 361 L 1720.5 361 Q 1720.7 362.3 1722.5 362 L 1725.5 365 L 1726.5 365 L 1728.5 367 L 1729.5 367 L 1730.5 368 L 1731.5 368 L 1732.5 369 L 1733.5 369 L 1734.5 370 L 1735.5 370 L 1738.5 372 L 1740.5 372 L 1741.5 373 L 1742.5 373 L 1745.5 375 L 1747.5 375 L 1748.5 376 L 1750.5 376 L 1751.5 377 L 1753.5 377 L 1754.5 378 L 1756.5 378 L 1757.5 379 L 1759.5 379 L 1760.5 380 L 1762.5 380 Q 1763 381.5 1765.5 381 L 1768.5 383 L 1770.5 383 L 1771.5 384 L 1773.5 384 Q 1774 385.5 1776.5 385 L 1777.5 386 Q 1779.2 385.7 1779.5 387 L 1781.5 387 L 1784.5 389 L 1786.5 389 L 1787.5 390 L 1789.5 390 L 1790.5 391 L 1792.5 391 L 1793.5 392 Q 1796 391.5 1796.5 393 Q 1799.3 393 1800 393 L 1800 393.5 L 1800 1499.5 L 1800 1500 L 1799.5 1500 L 0.5 1500 L 0 1500 L 0 1499.5 L 0 816.5 Q -0.4 815.5 1.5 816 Q 1.8 814.7 3.5 815 L 5.5 813 L 6.5 813 L 8.5 811 L 9.5 811 L 11.5 809 L 12.5 809 L 14.5 807 L 15.5 807 L 17.5 805 L 18.5 805 Q 18.8 803.8 20.5 804 L 25.5 800 L 26.5 800 L 27.5 799 L 28.5 799 Q 28.8 797.7 30.5 798 L 32.5 796 L 33.5 796 Q 33.8 794.8 35.5 795 L 40.5 791 L 41.5 791 L 42.5 790 L 43.5 790 L 44.5 789 L 45.5 789 Q 45.7 787.7 47.5 788 L 49.5 786 L 50.5 786 L 53.5 784 L 55.5 784 L 56.5 783 L 57.5 783 L 60.5 781 L 62.5 781 L 65.5 779 L 67.5 779 L 68.5 778 L 70.5 778 L 71.5 777 Q 74 777.5 74.5 776 L 77.5 776 L 78.5 775 Q 81 775.5 81.5 774 L 84.5 774 Q 85.3 772.3 88.5 773 L 89.5 772 Q 92 772.5 92.5 771 L 95.5 771 L 96.5 770 L 99.5 770 L 100.5 769 L 103.5 769 L 104.5 768 L 106.5 768 Q 107 766.5 109.5 767 L 110.5 766 Q 112.2 766.2 112.5 765 L 114.5 765 L 115.5 764 L 118.5 764 L 119.5 763 L 122.5 763 Q 123.3 761.3 126.5 762 Q 127 760.5 129.5 761 L 130.5 760 L 134.5 760 L 135.5 759 L 139.5 759 L 140.5 758 L 142.5 758 L 143.5 757 L 145.5 757 L 146.5 756 Q 149 756.5 149.5 755 L 152.5 755 L 153.5 754 L 156.5 754 L 157.5 753 L 160.5 753 L 161.5 752 Q 164.8 752.7 165.5 751 L 169.5 751 L 170.5 750 L 175.5 750 L 176.5 749 L 181.5 749 L 182.5 748 L 187.5 748 L 188.5 747 L 201.5 747 L 202.5 746 L 243.5 746 L 244.5 747 L 252.5 747 L 253.5 746 L 265.5 746 L 266.5 745 L 271.5 745 L 272.5 744 Q 275.8 744.8 276.5 743 L 280.5 743 L 281.5 742 L 284.5 742 L 285.5 741 L 288.5 741 L 289.5 740 Q 292.8 740.8 293.5 739 L 297.5 739 L 298.5 738 L 300.5 738 L 301.5 737 L 303.5 737 L 304.5 736 Q 307 736.5 307.5 735 L 310.5 735 L 311.5 734 L 313.5 734 L 314.5 733 Q 317 733.5 317.5 732 L 320.5 732 Q 321.3 730.3 324.5 731 L 325.5 730 Q 328 730.5 328.5 729 L 331.5 729 L 332.5 728 L 334.5 728 L 335.5 727 Q 338 727.5 338.5 726 L 341.5 726 L 342.5 725 L 346.5 725 L 347.5 724 L 351.5 724 L 352.5 723 L 358.5 723 L 359.5 722 L 365.5 722 L 366.5 721 L 370.5 721 L 371.5 720 Q 374.8 720.8 375.5 719 L 380.5 719 L 381.5 718 L 386.5 718 L 387.5 717 L 391.5 717 L 392.5 716 L 397.5 716 L 398.5 715 L 402.5 715 L 403.5 714 L 408.5 714 L 409.5 713 L 413.5 713 L 414.5 712 L 417.5 712 L 418.5 711 Q 421.8 711.8 422.5 710 L 426.5 710 Q 427.3 708.3 430.5 709 L 431.5 708 Q 433.2 708.2 433.5 707 L 435.5 707 L 436.5 706 L 437.5 706 L 438.5 705 L 439.5 705 L 440.5 704 L 441.5 704 L 444.5 702 L 446.5 702 L 447.5 701 L 448.5 701 L 451.5 699 L 453.5 699 Q 453.8 697.7 455.5 698 L 457.5 696 L 458.5 696 L 461.5 693 L 462.5 693 L 467.5 689 L 468.5 689 L 469.5 688 L 470.5 688 L 471.5 687 L 472.5 687 L 473.5 686 L 474.5 686 L 475.5 685 L 476.5 685 L 477.5 684 L 478.5 684 L 479.5 683 L 480.5 683 L 481.5 682 L 482.5 682 L 483.5 681 L 484.5 681 Q 484.8 679.7 486.5 680 L 488.5 678 L 489.5 678 L 491.5 676 L 492.5 676 L 497 671.5 L 497 670.5 L 501 666.5 L 501 665.5 L 508 658.5 L 508 657.5 L 513 652.5 L 513 651.5 L 514 650.5 L 514 649.5 L 515 648.5 L 515 647.5 L 517 644.5 L 517 642.5 L 519 639.5 L 519 636.5 L 520 635.5 Q 519.5 633 521 632.5 L 521 629.5 L 522 628.5 Q 521.3 625.3 523 624.5 L 523 618.5 L 524 617.5 Q 523.3 614.3 525 613.5 L 525 609.5 L 526 608.5 L 526 607.5 L 527 606.5 L 527 605.5 L 528 604.5 L 528 603.5 Q 529.3 603.2 529 601.5 L 531 599.5 L 531 598.5 L 533 596.5 L 533 595.5 L 536 592.5 L 536 591.5 L 538 589.5 L 538 588.5 L 540 586.5 L 540 585.5 L 545.5 580 L 546.5 580 L 551 575.5 L 551 574.5 L 572.5 553 L 573.5 553 Q 573.8 551.8 575.5 552 L 577.5 550 L 578.5 550 L 593.5 535 L 594.5 535 L 602.5 527 L 603.5 527 L 606.5 524 L 607.5 524 L 611.5 520 L 612.5 520 L 622.5 510 L 623.5 510 L 625.5 508 L 626.5 508 L 628.5 506 L 629.5 506 L 631.5 504 L 632.5 504 L 644.5 492 L 645.5 492 L 648.5 489 L 649.5 489 L 662 476.5 L 662 475.5 L 665 472.5 L 665 471.5 L 667 468.5 L 667 466.5 L 669 463.5 L 669 457.5 L 668 456.5 L 668 452.5 L 667 451.5 L 667 441.5 Q 668.5 441 668 438.5 L 671 435.5 L 671 434.5 L 675 430.5 L 675 429.5 L 678.5 426 L 679.5 426 L 681.5 424 L 683.5 424 L 684.5 423 L 685.5 423 Q 685.7 421.8 687.5 422 L 689.5 420 L 690.5 420 L 695.5 416 L 696.5 416 L 697.5 415 L 698.5 415 L 699.5 414 L 700.5 414 L 703.5 412 L 706.5 412 L 707.5 411 Q 710.8 411.8 711.5 410 L 716.5 410 L 717.5 411 L 718.5 411 Q 718.8 412.2 720.5 412 L 723 414.5 L 723 415.5 L 726 418.5 Q 725.7 420.2 727 420.5 L 727 427.5 L 728.5 429 Q 730.2 428.7 730.5 430 L 732.5 430 L 735 432.5 L 735 435.5 Q 733.5 436 734 438.5 Q 734.5 439.5 735 438.5 L 735 437.5 L 737 435.5 L 737 433.5 L 738 432.5 L 738 430.5 Q 739.3 430.3 739 428.5 L 741 426.5 L 741 425.5 L 744 422.5 L 744 421.5 L 750.5 415 L 751.5 415 L 753.5 413 L 755.5 413 L 757.5 411 L 758.5 411 Q 758.7 409.8 760.5 410 L 763.5 407 L 764.5 407 L 765.5 406 L 766.5 406 L 769.5 404 L 771.5 404 L 774.5 402 L 776.5 402 L 777.5 401 Q 780 401.5 780.5 400 L 783.5 400 L 786.5 398 L 788.5 398 L 789.5 397 L 791.5 397 Q 791.8 395.7 793.5 396 L 794.5 397 L 795.5 397 L 796.5 398 L 797.5 398 L 800.5 400 L 802.5 400 Q 802.7 401.3 804.5 401 L 808 404.5 L 808 405.5 Q 809.2 405.7 809 407.5 L 812.5 411 L 814.5 411 Q 814.8 412.2 816.5 412 L 821.5 417 L 825.5 417 L 826.5 418 L 830.5 418 Q 830.7 416.8 832.5 417 L 835 414.5 L 835 413.5 L 837.5 411 L 838.5 411 L 841 408.5 Q 840.5 406 842 405.5 L 842 395.5 L 841 394.5 L 841 389.5 L 840 388.5 L 840 381.5 L 839 380.5 L 839 375.5 Q 837.5 375 838 372.5 L 840 369.5 L 840 367.5 Q 841.2 367.3 841 365.5 L 845.5 361 L 846.5 361 L 848.5 359 L 849.5 359 L 850.5 358 L 851.5 358 L 852.5 357 L 853.5 357 L 856.5 355 L 860.5 355 L 861.5 354 L 879.5 354 L 880.5 355 L 882.5 355 Q 882.8 356.3 884.5 356 L 886.5 358 L 887.5 358 L 888.5 359 L 889.5 359 Q 889.7 360.2 891.5 360 L 896.5 365 L 897.5 365 L 899.5 367 L 901.5 367 L 902.5 368 Q 905 367.5 905.5 369 L 911.5 369 Q 912.3 367.2 915.5 368 L 918 365.5 L 918 364.5 Q 919.3 364.2 919 362.5 L 924 357.5 Q 923.5 355 925 354.5 L 925 350.5 L 926 349.5 L 926 332.5 L 925 331.5 L 925 322.5 L 926 321.5 Q 925.7 319.7 927 319.5 L 927 317.5 L 928 316.5 L 928 312.5 L 926 310.5 Q 926.2 308.7 925 308.5 L 925 303.5 L 924 302.5 L 924 293.5 L 923 292.5 L 923 282.5 L 924 281.5 L 924 269.5 L 926 267.5 L 926 265.5 L 923.5 263 Q 921.7 263.2 921.5 262 L 911.5 262 L 908.5 264 L 904.5 264 L 903.5 265 L 899.5 265 L 898.5 266 L 895.5 266 L 894.5 267 Q 892.7 266.7 892.5 268 L 890.5 268 L 889.5 269 L 885.5 269 Q 884.8 270.7 881.5 270 L 878.5 272 L 876.5 272 L 875.5 273 L 873.5 273 L 872.5 274 L 870.5 274 Q 870 275.5 867.5 275 L 864.5 277 L 862.5 277 L 861.5 278 L 859.5 278 Q 859 279.5 856.5 279 L 855.5 280 L 854.5 280 L 851.5 282 L 848.5 282 Q 848 283.5 845.5 283 L 844.5 284 L 843.5 284 L 840.5 286 L 838.5 286 Q 838 287.5 835.5 287 L 834.5 288 L 833.5 288 L 832.5 289 L 831.5 289 L 828.5 291 L 826.5 291 Q 826 292.5 823.5 292 L 822.5 293 L 821.5 293 L 820.5 294 L 819.5 294 L 816.5 296 Q 814 295.5 813.5 297 L 810.5 297 L 808.5 299 L 807.5 299 L 804.5 301 L 802.5 301 Q 802 302.5 799.5 302 L 798.5 303 L 797.5 303 L 796.5 304 L 795.5 304 L 792.5 306 L 790.5 306 L 789.5 307 L 787.5 307 Q 787 308.5 784.5 308 L 782.5 310 L 781.5 310 L 778.5 312 L 776.5 312 Q 776 313.5 773.5 313 Q 773.3 314.3 771.5 314 L 769.5 316 L 767.5 316 L 766.5 317 L 764.5 317 Q 764 318.5 761.5 318 Q 761.2 319.2 759.5 319 L 757.5 321 Q 755.7 320.7 755.5 322 L 753.5 322 L 750.5 324 L 748.5 324 Q 748 325.5 745.5 325 L 739.5 329 L 736.5 329 L 735.5 330 L 733.5 330 Q 733 331.5 730.5 331 L 728.5 333 L 727.5 333 L 724.5 335 L 722.5 335 Q 722 336.5 719.5 336 L 718.5 337 L 717.5 337 Q 717.2 338.3 715.5 338 L 713.5 340 L 711.5 340 L 708.5 342 L 706.5 342 Q 706 343.5 703.5 343 L 702.5 344 L 701.5 344 L 700.5 345 L 699.5 345 L 698.5 346 L 697.5 346 L 696.5 347 L 695.5 347 L 692.5 349 Q 690 348.5 689.5 350 L 686.5 350 Q 686.3 351.2 684.5 351 L 682.5 353 L 681.5 353 L 678.5 355 L 676.5 355 L 675.5 356 L 673.5 356 Q 673 357.5 670.5 357 Q 670.3 358.3 668.5 358 L 666.5 360 L 665.5 360 L 662.5 362 L 660.5 362 L 659.5 363 L 657.5 363 L 654.5 365 L 652.5 365 L 649.5 367 L 647.5 367 L 641.5 371 L 639.5 371 L 638.5 372 L 635.5 372 Q 635 373.5 632.5 373 L 631.5 374 L 630.5 374 L 629.5 375 L 628.5 375 L 627.5 376 L 626.5 376 L 623.5 378 Q 621 377.5 620.5 379 L 617.5 379 L 616.5 380 L 615.5 380 L 612.5 382 L 610.5 382 L 609.5 383 L 608.5 383 L 607.5 384 L 606.5 384 L 603.5 386 L 601.5 386 L 600.5 387 Q 598 386.5 597.5 388 L 594.5 388 Q 594 389.5 591.5 389 L 590.5 390 L 589.5 390 L 588.5 391 L 587.5 391 L 586.5 392 L 585.5 392 L 582.5 394 L 580.5 394 L 579.5 395 L 577.5 395 L 576.5 396 L 574.5 396 L 573.5 397 L 571.5 397 L 570.5 398 L 568.5 398 Q 568 399.5 565.5 399 L 562.5 401 L 560.5 401 L 559.5 402 L 557.5 402 L 556.5 403 L 554.5 403 L 553.5 404 Q 551 403.5 550.5 405 L 546.5 405 L 545.5 406 L 541.5 406 Q 540.8 407.7 537.5 407 L 536.5 408 L 534.5 408 L 533.5 409 Q 531.7 408.7 531.5 410 L 529.5 410 L 528.5 411 L 524.5 411 L 523.5 412 L 519.5 412 L 518.5 413 L 514.5 413 L 513.5 414 L 508.5 414 L 507.5 415 L 502.5 415 L 501.5 416 L 497.5 416 L 496.5 417 L 492.5 417 L 491.5 418 L 488.5 418 L 487.5 419 L 485.5 419 L 484.5 420 L 482.5 420 L 481.5 421 Q 479 420.5 478.5 422 L 475.5 422 L 474.5 423 Q 471.3 422.3 470.5 424 L 465.5 424 L 464.5 425 L 460.5 425 L 459.5 426 L 456.5 426 Q 455.8 427.8 452.5 427 L 451.5 428 Q 449 427.5 448.5 429 L 445.5 429 L 444.5 430 L 442.5 430 L 441.5 431 L 439.5 431 L 438.5 432 Q 436 431.5 435.5 433 L 432.5 433 L 431.5 434 Q 429 433.5 428.5 435 L 425.5 435 L 424.5 436 L 421.5 436 L 420.5 437 L 417.5 437 L 416.5 438 L 413.5 438 Q 413 439.5 410.5 439 L 409.5 440 L 408.5 440 L 407.5 441 L 406.5 441 L 403.5 443 L 401.5 443 L 400.5 444 Q 398 443.5 397.5 445 L 394.5 445 L 393.5 446 Q 391 445.5 390.5 447 L 387.5 447 L 386.5 448 L 384.5 448 L 383.5 449 L 381.5 449 L 380.5 450 L 378.5 450 Q 378 451.5 375.5 451 L 374.5 452 L 373.5 452 L 372.5 453 L 371.5 453 L 368.5 455 L 366.5 455 L 365.5 456 Q 363 455.5 362.5 457 L 359.5 457 L 358.5 458 L 356.5 458 L 355.5 459 L 353.5 459 L 352.5 460 L 350.5 460 Q 350 461.5 347.5 461 L 346.5 462 L 345.5 462 L 344.5 463 L 343.5 463 L 340.5 465 L 338.5 465 L 335.5 467 L 333.5 467 L 332.5 468 L 330.5 468 L 329.5 469 L 327.5 469 L 326.5 470 L 324.5 470 L 323.5 471 Q 321 470.5 320.5 472 L 317.5 472 L 314.5 474 L 312.5 474 L 309.5 476 L 307.5 476 L 305.5 478 L 304.5 478 L 301.5 480 L 299.5 480 L 296.5 482 L 293.5 482 L 292.5 483 L 290.5 483 L 289.5 484 L 287.5 484 Q 287 485.5 284.5 485 L 281.5 487 L 279.5 487 L 278.5 488 L 277.5 488 L 276.5 489 L 275.5 489 L 272.5 491 L 270.5 491 L 269.5 492 L 268.5 492 L 265.5 494 L 263.5 494 L 260.5 496 L 258.5 496 L 257.5 497 L 255.5 497 L 254.5 498 L 252.5 498 L 251.5 499 L 249.5 499 Q 249 500.5 246.5 500 L 243.5 502 L 241.5 502 Q 241 503.5 238.5 503 L 237.5 504 L 236.5 504 L 235.5 505 L 234.5 505 L 233.5 506 L 232.5 506 L 229.5 508 L 227.5 508 L 226.5 509 L 224.5 509 L 223.5 510 L 221.5 510 L 220.5 511 L 218.5 511 Q 218 512.5 215.5 512 L 214.5 513 L 211.5 513 L 210.5 514 Q 208.7 513.7 208.5 515 L 206.5 515 L 205.5 516 L 203.5 516 L 202.5 517 L 201.5 517 L 200.5 518 L 199.5 518 L 196.5 520 L 194.5 520 L 193.5 521 Q 191.7 520.7 191.5 522 L 189.5 522 L 186.5 524 L 184.5 524 L 183.5 525 Q 181 524.5 180.5 526 L 177.5 526 L 176.5 527 L 174.5 527 L 173.5 528 L 171.5 528 L 170.5 529 L 168.5 529 L 167.5 530 L 165.5 530 L 164.5 531 L 162.5 531 L 161.5 532 L 159.5 532 Q 159 533.5 156.5 533 L 155.5 534 L 154.5 534 L 153.5 535 L 152.5 535 L 151.5 536 L 150.5 536 L 147.5 538 L 145.5 538 L 142.5 540 L 140.5 540 L 139.5 541 L 137.5 541 L 136.5 542 L 134.5 542 L 133.5 543 L 131.5 543 L 130.5 544 L 128.5 544 L 127.5 545 L 125.5 545 L 124.5 546 L 122.5 546 L 121.5 547 Q 119 546.5 118.5 548 L 116.5 548 L 115.5 549 L 114.5 549 L 111.5 551 L 109.5 551 L 108.5 552 L 107.5 552 L 104.5 554 L 102.5 554 L 101.5 555 L 99.5 555 L 98.5 556 L 96.5 556 L 95.5 557 L 93.5 557 L 92.5 558 L 90.5 558 L 89.5 559 L 87.5 559 L 86.5 560 Q 84 559.5 83.5 561 L 80.5 561 L 79.5 562 L 76.5 562 L 75.5 563 L 73.5 563 Q 73 564.5 70.5 564 L 67.5 566 L 65.5 566 L 62.5 568 L 61.5 568 Q 61.2 569.3 59.5 569 L 58.5 570 L 56.5 570 L 53.5 572 L 51.5 572 L 50.5 573 Q 48.7 572.7 48.5 574 L 46.5 574 L 43.5 576 L 41.5 576 L 40.5 577 L 38.5 577 L 37.5 578 Q 35 577.5 34.5 579 L 31.5 579 L 30.5 580 L 27.5 580 Q 26.8 581.8 23.5 581 L 22.5 582 Q 20 581.5 19.5 583 L 16.5 583 L 15.5 584 L 13.5 584 Q 13 585.5 10.5 585 L 7.5 587 L 5.5 587 L 4.5 588 L 3.5 588 L 0.5 590 L 0 589.5 L 0 447.5 L 1.5 446 L 5.5 446 L 6.5 445 L 10.5 445 L 11.5 444 L 17.5 444 L 18.5 443 L 22.5 443 L 23.5 442 L 27.5 442 L 28.5 441 L 31.5 441 Q 32.2 439.2 35.5 440 L 36.5 439 Q 39 439.5 39.5 438 L 42.5 438 Q 43.3 436.2 46.5 437 L 47.5 436 Q 50 436.5 50.5 435 L 53.5 435 L 54.5 434 L 57.5 434 L 58.5 433 L 63.5 433 L 64.5 432 L 68.5 432 L 69.5 431 L 74.5 431 L 75.5 430 L 79.5 430 L 80.5 429 L 83.5 429 L 84.5 428 L 87.5 428 L 88.5 427 L 91.5 427 L 92.5 426 Q 95.7 426.7 96.5 425 L 100.5 425 L 101.5 424 L 107.5 424 L 108.5 423 L 118.5 423 L 119.5 422 L 131.5 422 L 132.5 421 L 142.5 421 L 143.5 420 L 149.5 420 L 150.5 419 L 155.5 419 L 156.5 418 L 160.5 418 L 161.5 417 L 165.5 417 L 166.5 416 L 170.5 416 L 171.5 415 Q 174.8 415.8 175.5 414 L 179.5 414 L 180.5 413 L 184.5 413 L 185.5 412 L 190.5 412 L 191.5 411 L 194.5 411 L 195.5 410 L 198.5 410 Q 199.3 408.3 202.5 409 L 203.5 408 L 205.5 408 L 206.5 407 L 208.5 407 L 209.5 406 Q 212 406.5 212.5 405 L 215.5 405 L 216.5 404 L 219.5 404 L 220.5 403 Q 223.8 403.8 224.5 402 L 228.5 402 L 229.5 401 Q 232.8 401.7 233.5 400 L 237.5 400 L 238.5 399 Q 241 399.5 241.5 398 L 244.5 398 L 245.5 397 Q 248 397.5 248.5 396 L 251.5 396 L 252.5 395 L 256.5 395 L 257.5 394 L 262.5 394 L 263.5 393 L 268.5 393 L 269.5 392 L 273.5 392 L 274.5 391 L 277.5 391 L 278.5 390 L 281.5 390 L 282.5 389 L 285.5 389 L 286.5 388 Q 289.8 388.8 290.5 387 L 294.5 387 L 295.5 386 L 301.5 386 L 302.5 385 L 308.5 385 L 309.5 384 L 317.5 384 L 318.5 383 L 325.5 383 L 326.5 382 Q 329.8 382.8 330.5 381 L 334.5 381 L 335.5 380 L 339.5 380 L 340.5 379 L 347.5 379 L 348.5 378 L 356.5 378 L 357.5 377 L 365.5 377 L 366.5 376 L 373.5 376 L 374.5 375 L 380.5 375 L 381.5 374 L 386.5 374 L 387.5 373 L 391.5 373 L 392.5 372 Q 395.8 372.8 396.5 371 L 400.5 371 L 401.5 370 L 405.5 370 L 406.5 369 Q 409.8 369.8 410.5 368 L 415.5 368 L 416.5 367 L 419.5 367 L 420.5 366 L 422.5 366 L 423.5 365 L 425.5 365 L 426.5 364 Q 429 364.5 429.5 363 L 432.5 363 L 433.5 362 L 435.5 362 L 436.5 361 Q 439 361.5 439.5 360 L 442.5 360 L 443.5 359 L 445.5 359 Q 446 357.5 448.5 358 L 449.5 357 Q 451.2 357.2 451.5 356 L 453.5 356 L 454.5 355 L 457.5 355 L 458.5 354 L 461.5 354 Q 462.3 352.3 465.5 353 L 466.5 352 L 468.5 352 L 469.5 351 Q 471.2 351.2 471.5 350 L 473.5 350 L 474.5 349 L 477.5 349 Q 478.2 347.2 481.5 348 L 482.5 347 L 484.5 347 L 485.5 346 L 487.5 346 L 488.5 345 L 490.5 345 Q 491 343.5 493.5 344 L 496.5 342 L 498.5 342 L 499.5 341 L 501.5 341 L 502.5 340 L 504.5 340 L 505.5 339 L 507.5 339 L 508.5 338 L 510.5 338 Q 511 336.5 513.5 337 L 514.5 336 L 515.5 336 L 518.5 334 L 521.5 334 Q 522.3 332.3 525.5 333 L 526.5 332 Q 528.2 332.2 528.5 331 L 530.5 331 L 533.5 329 L 536.5 329 L 537.5 328 L 539.5 328 Q 540 326.5 542.5 327 L 545.5 325 L 547.5 325 Q 548 323.5 550.5 324 L 553.5 322 L 556.5 322 Q 557.2 320.3 560.5 321 L 561.5 320 L 563.5 320 L 566.5 318 L 568.5 318 L 571.5 316 L 574.5 316 Q 575.3 314.3 578.5 315 L 579.5 314 Q 581.2 314.2 581.5 313 L 583.5 313 L 586.5 311 L 589.5 311 Q 590.3 309.3 593.5 310 L 594.5 309 L 596.5 309 L 597.5 308 L 599.5 308 L 600.5 307 L 602.5 307 L 603.5 306 Q 606 306.5 606.5 305 Q 609.7 305.8 610.5 304 L 614.5 304 L 615.5 303 Q 617.2 303.2 617.5 302 L 619.5 302 L 620.5 301 L 623.5 301 L 624.5 300 Q 627.8 300.8 628.5 299 L 633.5 299 L 634.5 298 L 637.5 298 L 638.5 297 Q 641 297.5 641.5 296 L 644.5 296 L 645.5 295 L 649.5 295 L 650.5 294 L 655.5 294 L 656.5 293 L 658.5 293 L 659.5 292 Q 662 292.5 662.5 291 L 666.5 291 L 667.5 290 L 671.5 290 L 672.5 289 L 677.5 289 L 678.5 288 L 680.5 288 L 681.5 287 Q 684 287.5 684.5 286 L 688.5 286 L 689.5 285 L 693.5 285 L 694.5 284 L 698.5 284 L 699.5 283 Q 702 283.5 702.5 282 L 705.5 282 L 706.5 281 L 710.5 281 L 711.5 280 L 715.5 280 L 716.5 279 L 719.5 279 L 720.5 278 Q 723 278.5 723.5 277 L 726.5 277 L 727.5 276 L 732.5 276 L 733.5 275 L 736.5 275 L 737.5 274 L 739.5 274 L 740.5 273 Q 743 273.5 743.5 272 L 748.5 272 L 749.5 271 L 752.5 271 L 753.5 270 Q 756 270.5 756.5 269 L 759.5 269 L 760.5 268 Q 763.8 268.8 764.5 267 L 768.5 267 L 769.5 266 L 771.5 266 L 772.5 265 Q 775 265.5 775.5 264 L 779.5 264 L 780.5 263 L 783.5 263 L 784.5 262 Q 787 262.5 787.5 261 Q 790.7 261.8 791.5 260 L 795.5 260 L 796.5 259 L 798.5 259 L 799.5 258 Q 802 258.5 802.5 257 Q 805.8 257.8 806.5 256 L 810.5 256 L 811.5 255 L 813.5 255 L 816.5 253 L 819.5 253 Q 820.3 251.3 823.5 252 L 824.5 251 L 826.5 251 L 829.5 249 L 832.5 249 Q 833 247.5 835.5 248 L 837.5 246 L 839.5 246 L 840.5 245 L 841.5 245 Q 841.8 243.7 843.5 244 L 845.5 242 L 846.5 242 Q 846.8 240.7 848.5 241 L 850 239.5 L 850 238.5 L 852 236.5 Q 851.7 234.7 853 234.5 L 853 232.5 Q 854.2 232.3 854 230.5 Q 852.7 230.3 853 228.5 L 851.5 227 L 849.5 227 L 848.5 226 Q 846 226.5 845.5 225 L 842.5 225 L 841.5 224 L 836.5 224 L 835.5 223 L 831.5 223 L 830.5 222 L 825.5 222 L 824.5 221 L 818.5 221 L 817.5 220 L 813.5 220 L 812.5 219 L 804.5 219 L 803.5 218 L 798.5 218 L 797.5 217 L 791.5 217 L 790.5 216 L 783.5 216 L 782.5 215 L 778.5 215 L 777.5 214 L 770.5 214 L 769.5 213 L 762.5 213 L 761.5 212 L 757.5 212 L 756.5 211 L 748.5 211 L 747.5 210 L 741.5 210 L 740.5 209 L 734.5 209 L 733.5 208 L 726.5 208 L 725.5 207 L 720.5 207 L 719.5 206 L 711.5 206 L 710.5 205 L 705.5 205 L 704.5 204 L 697.5 204 L 696.5 203 L 688.5 203 L 687.5 202 L 680.5 202 L 679.5 201 L 670.5 201 L 669.5 200 L 663.5 200 L 662.5 199 L 651.5 199 L 650.5 198 L 643.5 198 L 642.5 197 L 633.5 197 L 632.5 196 L 623.5 196 L 622.5 195 L 611.5 195 L 610.5 194 L 602.5 194 L 601.5 193 L 592.5 193 L 591.5 192 L 581.5 192 L 580.5 191 L 570.5 191 L 569.5 190 L 560.5 190 L 559.5 189 L 550.5 189 L 549.5 188 L 537.5 188 L 536.5 187 L 527.5 187 L 526.5 186 L 512.5 186 L 511.5 185 L 500.5 185 L 499.5 184 L 484.5 184 L 483.5 183 L 470.5 183 L 469.5 182 L 449.5 182 L 448.5 181 L 431.5 181 L 430.5 180 L 409.5 180 L 408.5 179 L 399.5 179 L 398.5 180 L 393.5 180 L 392.5 181 L 387.5 181 L 386.5 182 L 384.5 182 L 381.5 184 L 379.5 184 L 378.5 185 L 376.5 185 Q 376 186.5 373.5 186 L 370.5 188 L 368.5 188 L 367.5 189 L 365.5 189 L 362.5 191 L 360.5 191 Q 360 192.5 357.5 192 L 354.5 194 L 352.5 194 Q 352 195.5 349.5 195 L 348.5 196 Q 346.7 195.7 346.5 197 L 344.5 197 L 341.5 199 L 339.5 199 L 338.5 200 L 336.5 200 L 333.5 202 L 331.5 202 Q 331 203.5 328.5 203 L 325.5 205 L 323.5 205 Q 323 206.5 320.5 206 L 319.5 207 Q 317.7 206.7 317.5 208 L 315.5 208 L 312.5 210 L 310.5 210 L 309.5 211 L 307.5 211 L 304.5 213 L 302.5 213 L 301.5 214 L 299.5 214 L 298.5 215 L 296.5 215 Q 296 216.5 293.5 216 L 290.5 218 L 288.5 218 Q 288 219.5 285.5 219 L 282.5 221 L 280.5 221 L 279.5 222 L 277.5 222 Q 277 223.5 274.5 223 L 271.5 225 L 269.5 225 Q 269 226.5 266.5 226 L 263.5 228 L 261.5 228 Q 261 229.5 258.5 229 L 255.5 231 L 253.5 231 L 252.5 232 Q 250.7 231.7 250.5 233 L 248.5 233 L 245.5 235 L 243.5 235 Q 243 236.5 240.5 236 L 237.5 238 L 235.5 238 Q 235 239.5 232.5 239 L 229.5 241 L 227.5 241 L 226.5 242 L 224.5 242 L 221.5 244 L 219.5 244 L 218.5 245 L 216.5 245 Q 216 246.5 213.5 246 L 210.5 248 L 208.5 248 L 205.5 250 L 203.5 250 L 202.5 251 L 200.5 251 L 197.5 253 L 195.5 253 Q 195 254.5 192.5 254 L 189.5 256 L 187.5 256 L 186.5 257 L 184.5 257 Q 184 258.5 181.5 258 L 178.5 260 L 176.5 260 Q 176 261.5 173.5 261 L 170.5 263 L 168.5 263 L 167.5 264 L 165.5 264 L 162.5 266 L 160.5 266 Q 160 267.5 157.5 267 L 154.5 269 L 152.5 269 L 151.5 270 L 149.5 270 Q 149 271.5 146.5 271 L 143.5 273 L 141.5 273 L 140.5 274 L 138.5 274 Q 138 275.5 135.5 275 L 132.5 277 L 130.5 277 Q 130 278.5 127.5 278 L 124.5 280 L 122.5 280 L 121.5 281 L 119.5 281 Q 119 282.5 116.5 282 L 113.5 284 L 111.5 284 Q 111 285.5 108.5 285 L 105.5 287 L 103.5 287 Q 103 288.5 100.5 288 L 97.5 290 L 95.5 290 L 92.5 292 L 90.5 292 L 87.5 294 L 85.5 294 L 84.5 295 Q 82.7 294.7 82.5 296 L 80.5 296 L 77.5 298 L 75.5 298 Q 75 299.5 72.5 299 L 69.5 301 L 67.5 301 Q 67 302.5 64.5 302 L 61.5 304 L 59.5 304 Q 59 305.5 56.5 305 L 55.5 306 Q 53.7 305.7 53.5 307 L 51.5 307 L 48.5 309 L 46.5 309 Q 46 310.5 43.5 310 L 42.5 311 Q 40.7 310.7 40.5 312 L 38.5 312 L 35.5 314 L 33.5 314 L 32.5 315 L 30.5 315 Q 30 316.5 27.5 316 L 24.5 318 L 22.5 318 L 21.5 319 L 19.5 319 Q 19.2 320.2 17.5 320 L 16.5 321 L 14.5 321 L 13.5 322 L 11.5 322 Q 11 323.5 8.5 323 L 5.5 325 L 3.5 325 L 2.5 326 Q 0.5 326 0 326 L 0 325.5 L 0 315.5 Q -0.3 314.8 2.5 315 Q 3 313.5 5.5 314 L 8.5 312 L 10.5 312 Q 11 310.5 13.5 311 L 16.5 309 L 18.5 309 Q 19 307.5 21.5 308 L 24.5 306 L 26.5 306 L 27.5 305 L 29.5 305 L 30.5 304 L 32.5 304 L 33.5 303 L 35.5 303 L 36.5 302 L 38.5 302 Q 39 300.5 41.5 301 L 44.5 299 L 46.5 299 L 47.5 298 L 49.5 298 L 50.5 297 L 52.5 297 Q 53 295.5 55.5 296 L 58.5 294 L 60.5 294 L 61.5 293 L 63.5 293 Q 64 291.5 66.5 292 L 69.5 290 L 71.5 290 L 72.5 289 L 74.5 289 L 75.5 288 L 77.5 288 Q 78 286.5 80.5 287 L 83.5 285 L 85.5 285 L 86.5 284 L 88.5 284 Q 89 282.5 91.5 283 L 94.5 281 L 96.5 281 Q 97 279.5 99.5 280 L 102.5 278 L 104.5 278 L 105.5 277 L 107.5 277 L 108.5 276 L 110.5 276 L 111.5 275 L 113.5 275 Q 114 273.5 116.5 274 L 119.5 272 L 121.5 272 L 122.5 271 L 124.5 271 L 125.5 270 Q 128 270.5 128.5 269 L 130.5 269 L 133.5 267 L 135.5 267 L 136.5 266 L 138.5 266 Q 139 264.5 141.5 265 L 144.5 263 L 146.5 263 Q 147 261.5 149.5 262 L 152.5 260 L 154.5 260 L 155.5 259 L 157.5 259 L 158.5 258 L 160.5 258 Q 161 256.5 163.5 257 L 166.5 255 L 168.5 255 Q 169 253.5 171.5 254 L 174.5 252 L 176.5 252 Q 177 250.5 179.5 251 L 180.5 250 Q 182.2 250.2 182.5 249 L 184.5 249 L 187.5 247 L 189.5 247 L 190.5 246 L 192.5 246 Q 193 244.5 195.5 245 L 198.5 243 L 200.5 243 L 201.5 242 L 203.5 242 Q 204 240.5 206.5 241 L 209.5 239 L 211.5 239 L 212.5 238 L 214.5 238 Q 215 236.5 217.5 237 L 220.5 235 L 222.5 235 L 223.5 234 L 225.5 234 L 226.5 233 L 228.5 233 Q 229 231.5 231.5 232 L 234.5 230 L 236.5 230 L 237.5 229 L 239.5 229 L 240.5 228 L 242.5 228 Q 243 226.5 245.5 227 L 248.5 225 L 250.5 225 L 251.5 224 L 253.5 224 L 254.5 223 Q 257 223.5 257.5 222 L 259.5 222 L 262.5 220 L 264.5 220 L 265.5 219 L 267.5 219 Q 268 217.5 270.5 218 L 271.5 217 Q 273.2 217.2 273.5 216 L 275.5 216 L 278.5 214 L 280.5 214 L 281.5 213 L 283.5 213 Q 284 211.5 286.5 212 L 289.5 210 L 291.5 210 Q 292 208.5 294.5 209 L 297.5 207 L 299.5 207 L 300.5 206 L 302.5 206 Q 303 204.5 305.5 205 L 308.5 203 L 310.5 203 L 311.5 202 L 313.5 202 Q 314 200.5 316.5 201 L 319.5 199 L 321.5 199 L 322.5 198 L 324.5 198 L 325.5 197 L 327.5 197 Q 328 195.5 330.5 196 L 333.5 194 L 335.5 194 L 336.5 193 L 338.5 193 Q 339 191.5 341.5 192 L 344.5 190 L 346.5 190 Q 347 188.5 349.5 189 L 352.5 187 L 354.5 187 L 355.5 186 L 357.5 186 L 360.5 184 L 362.5 184 L 365.5 182 L 367.5 182 L 368.5 181 L 369.5 181 Q 369.7 179.7 371.5 180 L 373 178.5 L 372.5 178 L 345.5 178 L 344.5 177 L 263.5 177 L 262.5 178 L 245.5 178 Q 244.5 177.5 245.5 177 Q 248.8 177.8 249.5 176 L 253.5 176 L 254.5 175 L 268.5 175 L 269.5 174 L 279.5 174 L 280.5 173 L 299.5 173 L 300.5 172 L 337.5 172 L 338.5 171 L 393.5 171 L 394.5 170 L 399.5 170 L 400.5 169 L 403.5 169 L 404.5 168 L 407.5 168 Q 408 166.5 410.5 167 L 413.5 165 L 415.5 165 L 416.5 164 L 418.5 164 Q 419 162.5 421.5 163 L 424.5 161 L 426.5 161 L 427.5 160 L 429.5 160 Q 430 158.5 432.5 159 L 433.5 158 Q 435.2 158.2 435.5 157 L 437.5 157 L 440.5 155 L 442.5 155 Q 443 153.5 445.5 154 L 448.5 152 L 450.5 152 L 451.5 151 L 453.5 151 Q 454 149.5 456.5 150 L 459.5 148 L 461.5 148 L 464.5 146 L 466.5 146 L 467.5 145 Q 469.2 145.2 469.5 144 L 471.5 144 L 474.5 142 L 476.5 142 Q 477 140.5 479.5 141 L 482.5 139 L 484.5 139 L 485.5 138 Q 487.2 138.2 487.5 137 L 489.5 137 L 492.5 135 L 494.5 135 Q 495 133.5 497.5 134 L 498.5 133 Q 500.2 133.2 500.5 132 L 502.5 132 L 503.5 131 L 504.5 131 L 507.5 129 L 509.5 129 Q 510 127.5 512.5 128 L 515.5 126 L 519.5 126 Q 520.5 126.5 519.5 127 L 518.5 127 L 516.5 129 L 515.5 129 Q 515.3 130.2 513.5 130 L 511.5 132 Q 509.7 131.7 509.5 133 L 507.5 133 L 505.5 135 L 503.5 135 L 500.5 137 L 498.5 137 L 497.5 138 L 496.5 138 L 495.5 139 L 494.5 139 L 491.5 141 L 489.5 141 L 486.5 143 L 484.5 143 L 481.5 145 L 479.5 145 L 476.5 147 L 474.5 147 L 473.5 148 L 472.5 148 L 469.5 150 L 467.5 150 L 464.5 152 L 462.5 152 L 459.5 154 L 457.5 154 L 454.5 156 L 452.5 156 L 451.5 157 Q 449.7 156.7 449.5 158 L 447.5 158 L 444.5 160 L 442.5 160 Q 442 161.5 439.5 161 L 436.5 163 L 434.5 163 Q 434 164.5 431.5 164 L 428.5 166 L 426.5 166 Q 426 167.5 423.5 167 L 422.5 168 L 421.5 168 L 418.5 170 Q 416.5 169.5 416 170.5 L 418.5 173 L 443.5 173 L 444.5 174 L 461.5 174 L 462.5 175 L 482.5 175 L 483.5 176 L 499.5 176 L 500.5 177 L 512.5 177 L 513.5 178 L 528.5 178 L 529.5 179 L 538.5 179 L 539.5 180 L 555.5 180 L 556.5 181 L 564.5 181 L 565.5 182 L 580.5 182 L 581.5 183 L 588.5 183 L 589.5 184 L 604.5 184 L 605.5 185 L 613.5 185 L 614.5 186 L 624.5 186 L 625.5 187 L 633.5 187 L 634.5 188 L 646.5 188 L 647.5 189 L 655.5 189 L 656.5 190 L 666.5 190 L 667.5 191 L 675.5 191 L 676.5 192 L 688.5 192 L 689.5 193 L 696.5 193 L 697.5 194 L 707.5 194 L 708.5 195 L 713.5 195 L 714.5 196 L 727.5 196 L 728.5 197 L 732.5 197 L 733.5 198 L 741.5 198 L 742.5 199 L 748.5 199 L 749.5 200 L 756.5 200 L 757.5 201 L 764.5 201 L 765.5 202 L 770.5 202 L 771.5 203 L 780.5 203 L 781.5 204 Q 784.8 203.3 785.5 205 L 793.5 205 L 794.5 206 L 799.5 206 L 800.5 207 L 806.5 207 L 807.5 208 L 813.5 208 L 814.5 209 L 818.5 209 L 819.5 210 L 828.5 210 L 829.5 211 L 833.5 211 L 834.5 212 L 841.5 212 L 842.5 213 L 850.5 213 L 851.5 214 L 863.5 214 L 864.5 213 L 867.5 213 L 868.5 212 L 870.5 212 L 873.5 210 L 875.5 210 Q 875.7 208.7 877.5 209 L 879.5 207 L 881.5 207 L 882.5 206 Q 885 206.5 885.5 205 Q 888.8 205.8 889.5 204 L 898.5 204 Q 898.8 205.3 900.5 205 L 910.5 215 L 916.5 215 L 917.5 216 L 926.5 216 L 927.5 217 L 931.5 217 L 932.5 218 L 948.5 218 Q 948.8 216.7 950.5 217 L 957.5 210 L 958.5 210 L 961.5 207 L 962.5 207 L 965.5 205 L 967.5 205 L 970.5 203 L 973.5 203 Q 974 204.5 976.5 204 L 978 205.5 L 978 206.5 L 980 209.5 L 980 213.5 Q 978.7 213.7 979 215.5 L 977 217.5 L 977 220.5 L 975 222.5 L 975 224.5 L 977.5 227 L 978.5 227 L 980.5 229 L 984.5 229 L 986.5 231 Q 988.2 230.7 988.5 232 L 992.5 232 L 993.5 233 L 995.5 233 L 996.5 234 Q 999 233.5 999.5 235 L 1008.5 235 L 1009.5 236 L 1015.5 236 L 1016.5 237 L 1022.5 237 L 1023.5 238 L 1032.5 238 L 1033.5 239 L 1045.5 239 L 1046.5 240 L 1058.5 240 L 1059.5 239 L 1076.5 239 Q 1077 240.5 1079.5 240 L 1080.5 239 L 1084.5 239 L 1087.5 236 L 1088.5 236 L 1090 234.5 Q 1089.3 232.3 1091.5 233 L 1094.5 229 Q 1096.8 229.8 1096 227.5 Q 1096.9 225.5 1099 226 L 1099 224.5 L 1103.5 220 Q 1105.8 220.8 1105 218.5 L 1126 197.5 L 1126 196 L 1128 196 L 1128 194.5 L 1141.5 181 L 1142.5 181 L 1145.5 178 L 1146.5 178 L 1151.5 174 Q 1153.2 174.2 1153.5 173 L 1155.5 173 L 1157.5 171 L 1158.5 171 L 1159.5 170 L 1160.5 170 L 1163.5 168 L 1165.5 168 L 1166.5 167 Q 1168.2 167.2 1168.5 166 L 1170.5 166 L 1171.5 165 L 1174.5 165 Q 1175.3 163.3 1178.5 164 L 1179.5 163 L 1205.5 163 L 1206.5 164 L 1215.5 164 L 1216.5 165 L 1226.5 165 L 1227.5 166 L 1235.5 166 L 1236.5 167 L 1245.5 167 L 1246.5 168 L 1254.5 168 L 1255.5 167 L 1261.5 167 L 1262.5 166 Q 1265.8 166.8 1266.5 165 L 1270.5 165 L 1271.5 164 Q 1274 164.5 1274.5 163 L 1277.5 163 L 1278.5 162 L 1293.5 162 L 1294.5 163 L 1297.5 163 L 1298.5 164 L 1301.5 164 Q 1302.3 165.8 1305.5 165 L 1306.5 166 L 1308.5 166 L 1309.5 167 L 1311.5 167 L 1312.5 168 L 1314.5 168 L 1315.5 169 Q 1318 168.5 1318.5 170 L 1321.5 170 L 1322.5 171 L 1324.5 171 L 1325.5 172 Q 1328 171.5 1328.5 173 Q 1331.8 172.3 1332.5 174 L 1336.5 174 L 1337.5 175 L 1343.5 175 L 1344.5 176 L 1351.5 176 L 1352.5 177 L 1361.5 177 L 1362.5 178 L 1386.5 178 L 1387.5 177 L 1396.5 177 L 1397.5 176 L 1405.5 176 L 1406.5 175 L 1410.5 175 L 1411 175 L 1411 173.5 L 1412 172.5 L 1411.5 172 L 1410 172 L 1410 171.5 L 1410 167.5 L 1411 166.5 L 1410 165.5 L 1410 162.5 L 1408 159.5 L 1408 157.5 L 1404 151.5 L 1405 150.5 L 1403 148.5 Q 1403 146.5 1403 146 L 1402.5 146 L 1398.5 146 L 1397.5 145 L 1392.5 145 L 1391.5 144 L 1386.5 144 L 1385.5 143 L 1381.5 143 L 1380.5 142 L 1375.5 142 L 1374.5 141 L 1369.5 141 L 1368.5 140 L 1363.5 140 L 1362.5 139 L 1357.5 139 L 1356.5 138 L 1350.5 138 L 1349.5 137 L 1344.5 137 L 1343.5 136 L 1338.5 136 L 1337.5 135 L 1332.5 135 L 1331.5 134 L 1326.5 134 L 1325.5 133 L 1320.5 133 L 1319.5 132 L 1314.5 132 L 1313.5 131 L 1308.5 131 L 1307.5 130 L 1301.5 130 L 1300.5 129 L 1295.5 129 L 1294.5 128 L 1288.5 128 L 1287.5 127 L 1282.5 127 L 1281.5 126 L 1275.5 126 L 1274.5 125 L 1269.5 125 L 1268.5 124 L 1262.5 124 L 1261.5 123 L 1255.5 123 L 1254.5 122 L 1248.5 122 Q 1247.5 121.5 1248.5 121 Z M 987 251 L 986 252 L 978 252 L 977 253 L 973 253 Q 972 255 969 254 L 967 256 Q 965 256 965 257 Q 962 257 962 258 L 959 258 L 957 260 Q 955 260 955 261 L 952 261 Q 951 263 949 262 L 946 264 L 945 264 L 944 265 L 943 265 L 942 266 L 940 266 L 938 268 L 938 269 L 936 271 Q 936 272 935 273 L 935 274 L 931 278 L 931 290 L 932 291 L 932 301 L 933 302 L 933 311 L 932 312 L 932 315 L 934 317 L 934 318 L 937 320 L 948 320 L 948 320 Q 948 320 948 318 L 950 315 L 950 314 L 952 312 L 953 312 L 956 309 L 956 307 L 959 304 L 960 304 L 960 303 L 963 300 L 963 299 L 965 297 L 966 297 L 970 293 L 970 291 L 972 291 L 974 289 Q 976 290 975 288 L 978 285 L 979 285 L 984 280 L 986 280 L 987 279 L 987 277 L 989 277 Q 989 276 991 276 L 995 272 L 997 272 L 1000 269 Q 1001 269 1002 268 L 1003 268 L 1005 266 L 1005 264 L 1008 264 L 1008 263 Q 1009 262 1009 261 L 1011 259 L 1012 259 Q 1012 259 1012 257 L 1010 254 Q 1006 255 1006 253 L 1002 253 L 1001 252 L 991 252 Q 990 250 987 251 Z M 1055 266 Q 1054 268 1052 267 L 1051 268 L 1049 268 L 1048 269 L 1043 269 L 1042 270 L 1037 270 L 1034 272 Q 1030 271 1030 273 L 1025 273 Q 1024 275 1022 274 L 1021 275 L 1019 275 L 1018 276 L 1015 276 L 1014 277 L 1011 277 Q 1010 279 1008 278 L 1002 282 L 1000 282 L 997 285 Q 995 285 995 286 L 994 286 L 990 290 Q 988 290 988 291 Q 985 290 986 293 L 983 296 L 982 296 L 980 298 Q 980 299 979 300 L 979 301 L 978 301 L 977 302 L 975 302 L 975 304 L 974 305 L 974 307 L 972 309 Q 973 311 971 310 L 969 312 Q 969 313 968 314 L 968 316 Q 967 316 967 318 L 964 321 Q 964 322 963 323 L 963 324 L 962 325 L 962 326 L 961 327 L 961 329 L 960 330 L 959 330 Q 957 331 957 334 L 955 336 Q 956 338 954 339 L 954 341 L 950 345 Q 950 346 949 347 L 949 348 L 948 349 L 948 350 L 947 351 L 947 354 L 945 357 L 945 358 L 943 360 L 943 364 L 942 365 L 942 371 L 941 372 L 941 375 L 942 376 L 942 379 Q 943 379 943 381 L 946 383 L 953 383 L 954 384 L 955 383 L 962 383 Q 962 382 964 382 L 966 380 L 967 380 L 970 377 Q 971 377 972 376 L 973 376 L 975 374 Q 977 375 976 373 L 981 368 Q 982 368 983 367 Q 985 368 984 366 L 988 362 Q 989 362 990 361 L 992 361 L 993 360 L 994 360 L 996 358 L 997 358 L 1000 355 Q 1001 355 1002 354 L 1003 354 L 1004 353 L 1006 353 L 1012 347 L 1013 347 L 1016 344 L 1016 343 L 1019 340 L 1020 340 L 1021 339 Q 1021 337 1022 337 L 1022 336 L 1025 333 L 1026 333 L 1027 332 Q 1027 330 1028 330 L 1028 328 Q 1029 327 1029 326 Q 1030 323 1032 324 L 1032 323 L 1034 320 L 1034 319 L 1035 318 L 1035 317 L 1038 314 L 1038 311 L 1042 305 L 1042 303 L 1046 298 L 1046 296 L 1048 294 Q 1048 292 1049 292 L 1049 291 L 1050 290 L 1050 288 Q 1051 287 1051 286 L 1054 283 L 1054 281 L 1056 279 Q 1056 276 1057 276 L 1057 274 L 1060 271 L 1060 270 L 1057 266 L 1055 266 Z " /><path fill="rgb(253,253,253)" stroke="rgb(253,253,253)" stroke-width="0" opacity="1" d="M 0 0 L 0.5 0 L 1799.5 0 Q 1800.3 -0.3 1800 0.5 L 1800 197.5 L 1799.5 198 L 1798.5 197 Q 1795.3 197.7 1794.5 196 L 1790.5 196 L 1789.5 195 Q 1786.3 195.8 1785.5 194 L 1781.5 194 L 1780.5 193 L 1776.5 193 L 1775.5 192 Q 1772.3 192.8 1771.5 191 L 1767.5 191 L 1766.5 190 Q 1763.2 190.8 1762.5 189 L 1758.5 189 L 1757.5 188 Q 1754.3 188.8 1753.5 187 L 1749.5 187 L 1748.5 186 Q 1745.3 186.8 1744.5 185 L 1740.5 185 L 1739.5 184 L 1735.5 184 L 1734.5 183 Q 1731.3 183.8 1730.5 182 L 1726.5 182 L 1725.5 181 Q 1722.3 181.8 1721.5 180 L 1717.5 180 L 1716.5 179 Q 1713.2 179.8 1712.5 178 L 1708.5 178 L 1707.5 177 L 1703.5 177 L 1702.5 176 Q 1699.3 176.8 1698.5 175 L 1694.5 175 L 1693.5 174 Q 1690.3 174.8 1689.5 173 L 1685.5 173 L 1684.5 172 Q 1681.3 172.8 1680.5 171 L 1676.5 171 L 1675.5 170 Q 1672.3 170.8 1671.5 169 L 1667.5 169 L 1666.5 168 L 1662.5 168 L 1661.5 167 Q 1658.3 167.8 1657.5 166 L 1653.5 166 L 1652.5 165 Q 1649.3 165.8 1648.5 164 L 1644.5 164 L 1643.5 163 Q 1640.3 163.8 1639.5 162 L 1635.5 162 L 1634.5 161 L 1630.5 161 L 1629.5 160 Q 1626.3 160.8 1625.5 159 L 1621.5 159 L 1620.5 158 Q 1617.3 158.8 1616.5 157 L 1612.5 157 L 1611.5 156 Q 1608.3 156.8 1607.5 155 L 1603.5 155 L 1602.5 154 Q 1599.3 154.8 1598.5 153 L 1594.5 153 L 1593.5 152 L 1589.5 152 L 1588.5 151 Q 1585.3 151.8 1584.5 150 L 1580.5 150 L 1579.5 149 Q 1576.3 149.8 1575.5 148 L 1571.5 148 L 1570.5 147 Q 1567.3 147.8 1566.5 146 L 1562.5 146 L 1561.5 145 L 1557.5 145 L 1556.5 144 Q 1553.3 144.7 1552.5 143 L 1548.5 143 L 1547.5 142 Q 1544.3 142.8 1543.5 141 L 1539.5 141 L 1538.5 140 Q 1535.3 140.8 1534.5 139 L 1530.5 139 L 1529.5 138 Q 1526.3 138.8 1525.5 137 L 1521.5 137 L 1520.5 136 L 1516.5 136 L 1515.5 135 Q 1512.3 135.8 1511.5 134 L 1507.5 134 L 1506.5 133 Q 1503.3 133.8 1502.5 132 L 1498.5 132 L 1497.5 131 Q 1494.3 131.8 1493.5 130 L 1489.5 130 L 1488.5 129 L 1484.5 129 L 1483.5 128 Q 1480.3 128.8 1479.5 127 L 1475.5 127 L 1474.5 126 Q 1471.3 126.8 1470.5 125 L 1466.5 125 L 1465.5 124 Q 1462.3 124.8 1461.5 123 L 1457.5 123 L 1456.5 122 Q 1453.3 122.8 1452.5 121 L 1248.5 121 Q 1247.5 121.5 1248.5 122 L 1254.5 122 L 1255.5 123 L 1261.5 123 L 1262.5 124 L 1268.5 124 L 1269.5 125 L 1274.5 125 L 1275.5 126 L 1281.5 126 L 1282.5 127 L 1287.5 127 L 1288.5 128 L 1294.5 128 L 1295.5 129 L 1300.5 129 L 1301.5 130 L 1307.5 130 L 1308.5 131 L 1313.5 131 L 1314.5 132 L 1319.5 132 L 1320.5 133 L 1325.5 133 L 1326.5 134 L 1331.5 134 L 1332.5 135 L 1337.5 135 L 1338.5 136 L 1343.5 136 L 1344.5 137 L 1349.5 137 L 1350.5 138 L 1356.5 138 L 1357.5 139 L 1362.5 139 L 1363.5 140 L 1368.5 140 L 1369.5 141 L 1374.5 141 L 1375.5 142 L 1380.5 142 L 1381.5 143 L 1385.5 143 L 1386.5 144 L 1391.5 144 L 1392.5 145 L 1397.5 145 L 1398.5 146 L 1402.5 146 L 1403 146 Q 1403 146.5 1403 148.5 L 1405 150.5 Q 1403 151.5 1405 152.5 L 1405 153.5 L 1407 155.5 Q 1406.7 157.2 1408 157.5 L 1408 159.5 L 1410 162.5 Q 1409.3 165.8 1411 166.5 L 1410 167.5 L 1410 171.5 L 1410 172 L 1411.5 172 L 1412 172.5 L 1411 173.5 L 1411 175 L 1410.5 175 L 1406.5 175 L 1405.5 176 L 1397.5 176 L 1396.5 177 L 1387.5 177 L 1386.5 178 L 1362.5 178 L 1361.5 177 L 1352.5 177 L 1351.5 176 L 1344.5 176 L 1343.5 175 L 1337.5 175 L 1336.5 174 L 1332.5 174 L 1331.5 173 L 1328.5 173 L 1327.5 172 L 1325.5 172 L 1324.5 171 Q 1322 171.5 1321.5 170 L 1318.5 170 L 1317.5 169 L 1315.5 169 L 1314.5 168 L 1312.5 168 L 1311.5 167 L 1309.5 167 L 1308.5 166 Q 1306 166.5 1305.5 165 L 1302.5 165 L 1301.5 164 L 1298.5 164 L 1297.5 163 Q 1294.3 163.8 1293.5 162 L 1278.5 162 L 1277.5 163 L 1274.5 163 L 1273.5 164 Q 1271 163.5 1270.5 165 L 1266.5 165 L 1265.5 166 Q 1262.3 165.3 1261.5 167 L 1255.5 167 L 1254.5 168 L 1246.5 168 L 1245.5 167 L 1236.5 167 L 1235.5 166 L 1227.5 166 L 1226.5 165 L 1216.5 165 L 1215.5 164 L 1206.5 164 L 1205.5 163 L 1179.5 163 L 1178.5 164 L 1175.5 164 L 1174.5 165 L 1171.5 165 Q 1171 166.5 1168.5 166 L 1165.5 168 L 1163.5 168 L 1162.5 169 L 1161.5 169 L 1160.5 170 L 1159.5 170 Q 1159.2 171.3 1157.5 171 L 1155.5 173 L 1153.5 173 Q 1153.3 174.2 1151.5 174 L 1149.5 176 L 1148.5 176 L 1146.5 178 L 1145.5 178 L 1142.5 181 L 1141.5 181 L 1128 194.5 L 1128 196 L 1126 196 L 1126 197.5 L 1105 218.5 L 1105 220 L 1103.5 220 L 1099 224.5 Q 1099.8 226.8 1097.5 226 Q 1095.5 226.9 1096 229 Q 1093.9 228.5 1093 230.5 L 1093 231.5 L 1091.5 233 Q 1089.3 232.3 1090 234.5 L 1088.5 236 L 1087.5 236 L 1084.5 239 L 1080.5 239 Q 1080 240.5 1077.5 240 L 1076.5 239 L 1059.5 239 L 1058.5 240 L 1046.5 240 L 1045.5 239 L 1033.5 239 L 1032.5 238 L 1023.5 238 L 1022.5 237 L 1016.5 237 L 1015.5 236 L 1009.5 236 L 1008.5 235 L 999.5 235 L 998.5 234 L 996.5 234 L 995.5 233 Q 993 233.5 992.5 232 L 988.5 232 Q 988.3 230.8 986.5 231 L 984.5 229 L 980.5 229 L 978.5 227 L 977.5 227 L 975 224.5 L 975 222.5 L 977 220.5 L 977 217.5 L 979 215.5 Q 978.7 213.7 980 213.5 L 980 209.5 L 979 208.5 L 979 207.5 Q 977.7 207.3 978 205.5 L 976.5 204 Q 974 204.5 973.5 203 L 970.5 203 L 967.5 205 L 965.5 205 L 964.5 206 L 963.5 206 Q 963.2 207.3 961.5 207 L 958.5 210 L 957.5 210 L 950.5 217 Q 948.7 216.7 948.5 218 L 932.5 218 L 931.5 217 L 927.5 217 L 926.5 216 L 917.5 216 L 916.5 215 L 910.5 215 L 900.5 205 Q 898.7 205.2 898.5 204 L 889.5 204 L 888.5 205 L 885.5 205 L 884.5 206 L 882.5 206 Q 882 207.5 879.5 207 L 877.5 209 Q 875.7 208.7 875.5 210 L 873.5 210 L 872.5 211 Q 870.7 210.7 870.5 212 L 868.5 212 L 867.5 213 Q 864.2 212.3 863.5 214 L 851.5 214 L 850.5 213 L 842.5 213 L 841.5 212 L 834.5 212 L 833.5 211 L 829.5 211 L 828.5 210 L 819.5 210 L 818.5 209 L 814.5 209 L 813.5 208 L 807.5 208 L 806.5 207 L 800.5 207 L 799.5 206 L 794.5 206 L 793.5 205 L 785.5 205 L 784.5 204 Q 781.3 204.8 780.5 203 L 771.5 203 L 770.5 202 L 765.5 202 L 764.5 201 L 757.5 201 L 756.5 200 L 749.5 200 L 748.5 199 L 742.5 199 L 741.5 198 L 733.5 198 L 732.5 197 L 728.5 197 L 727.5 196 L 714.5 196 L 713.5 195 L 708.5 195 L 707.5 194 L 697.5 194 L 696.5 193 L 689.5 193 L 688.5 192 L 676.5 192 L 675.5 191 L 667.5 191 L 666.5 190 L 656.5 190 L 655.5 189 L 647.5 189 L 646.5 188 L 634.5 188 L 633.5 187 L 625.5 187 L 624.5 186 L 614.5 186 L 613.5 185 L 605.5 185 L 604.5 184 L 589.5 184 L 588.5 183 L 581.5 183 L 580.5 182 L 565.5 182 L 564.5 181 L 556.5 181 L 555.5 180 L 539.5 180 L 538.5 179 L 529.5 179 L 528.5 178 L 513.5 178 L 512.5 177 L 500.5 177 L 499.5 176 L 483.5 176 L 482.5 175 L 462.5 175 L 461.5 174 L 444.5 174 L 443.5 173 L 418.5 173 L 416 170.5 Q 416.5 169.5 418.5 170 L 419.5 169 L 420.5 169 L 423.5 167 L 425.5 167 Q 426 165.5 428.5 166 L 431.5 164 L 433.5 164 Q 434 162.5 436.5 163 L 439.5 161 L 441.5 161 Q 442 159.5 444.5 160 L 447.5 158 L 449.5 158 L 452.5 156 L 454.5 156 L 457.5 154 L 459.5 154 L 460.5 153 Q 462.2 153.2 462.5 152 L 464.5 152 L 467.5 150 L 469.5 150 L 470.5 149 L 471.5 149 L 474.5 147 L 476.5 147 L 479.5 145 L 481.5 145 L 482.5 144 Q 484.2 144.2 484.5 143 L 486.5 143 L 489.5 141 L 491.5 141 L 492.5 140 L 493.5 140 L 494.5 139 L 495.5 139 L 498.5 137 L 500.5 137 L 503.5 135 L 505.5 135 L 507.5 133 L 509.5 133 Q 509.7 131.8 511.5 132 L 513.5 130 L 514.5 130 Q 514.8 128.8 516.5 129 L 518.5 127 Q 519.8 127.3 520 126.5 L 519.5 126 L 515.5 126 L 512.5 128 L 510.5 128 Q 510 129.5 507.5 129 L 506.5 130 L 505.5 130 L 502.5 132 L 500.5 132 L 497.5 134 L 495.5 134 Q 495 135.5 492.5 135 L 489.5 137 L 487.5 137 L 486.5 138 Q 484.7 137.7 484.5 139 L 482.5 139 L 479.5 141 L 477.5 141 Q 477 142.5 474.5 142 L 471.5 144 L 469.5 144 L 466.5 146 L 464.5 146 L 463.5 147 Q 461.7 146.7 461.5 148 L 459.5 148 L 456.5 150 L 454.5 150 L 453.5 151 L 451.5 151 Q 451 152.5 448.5 152 L 445.5 154 L 443.5 154 Q 443 155.5 440.5 155 L 437.5 157 L 435.5 157 L 432.5 159 L 430.5 159 L 429.5 160 L 427.5 160 Q 427 161.5 424.5 161 L 421.5 163 L 419.5 163 L 418.5 164 L 416.5 164 Q 416 165.5 413.5 165 L 410.5 167 Q 408 166.5 407.5 168 L 404.5 168 L 403.5 169 L 400.5 169 L 399.5 170 L 394.5 170 L 393.5 171 L 338.5 171 L 337.5 172 L 300.5 172 L 299.5 173 L 280.5 173 L 279.5 174 L 269.5 174 L 268.5 175 L 254.5 175 L 253.5 176 L 249.5 176 L 248.5 177 L 245.5 177 L 245 177.5 L 245.5 178 L 262.5 178 L 263.5 177 L 344.5 177 L 345.5 178 L 372.5 178 L 373 178.5 L 371.5 180 L 370.5 180 L 367.5 182 L 365.5 182 L 364.5 183 Q 362.7 182.7 362.5 184 L 360.5 184 L 357.5 186 L 355.5 186 Q 355 187.5 352.5 187 L 349.5 189 L 347.5 189 Q 347 190.5 344.5 190 L 341.5 192 L 339.5 192 L 338.5 193 L 336.5 193 Q 336 194.5 333.5 194 L 330.5 196 L 328.5 196 L 327.5 197 L 325.5 197 L 324.5 198 L 322.5 198 Q 322 199.5 319.5 199 L 316.5 201 L 314.5 201 L 313.5 202 L 311.5 202 Q 311 203.5 308.5 203 L 305.5 205 L 303.5 205 L 302.5 206 L 300.5 206 Q 300 207.5 297.5 207 L 294.5 209 L 292.5 209 Q 292 210.5 289.5 210 L 286.5 212 L 284.5 212 L 283.5 213 L 281.5 213 Q 281 214.5 278.5 214 L 277.5 215 Q 275.7 214.7 275.5 216 L 273.5 216 L 270.5 218 L 268.5 218 L 267.5 219 L 265.5 219 Q 265 220.5 262.5 220 L 259.5 222 L 257.5 222 L 256.5 223 L 254.5 223 L 253.5 224 L 251.5 224 Q 251 225.5 248.5 225 L 245.5 227 L 243.5 227 L 242.5 228 L 240.5 228 L 239.5 229 L 237.5 229 Q 237 230.5 234.5 230 L 231.5 232 L 229.5 232 L 228.5 233 L 226.5 233 L 225.5 234 L 223.5 234 Q 223 235.5 220.5 235 L 217.5 237 L 215.5 237 L 214.5 238 L 212.5 238 Q 212 239.5 209.5 239 L 206.5 241 L 204.5 241 L 203.5 242 L 201.5 242 Q 201 243.5 198.5 243 L 195.5 245 L 193.5 245 L 192.5 246 L 190.5 246 Q 190 247.5 187.5 247 L 186.5 248 Q 184.7 247.7 184.5 249 L 182.5 249 L 179.5 251 L 177.5 251 L 176.5 252 L 174.5 252 L 171.5 254 L 169.5 254 Q 169 255.5 166.5 255 L 163.5 257 L 161.5 257 L 160.5 258 L 158.5 258 L 157.5 259 L 155.5 259 Q 155 260.5 152.5 260 L 149.5 262 L 147.5 262 L 146.5 263 L 144.5 263 L 141.5 265 L 139.5 265 L 138.5 266 L 136.5 266 Q 136 267.5 133.5 267 L 130.5 269 L 128.5 269 L 127.5 270 L 125.5 270 L 124.5 271 L 122.5 271 Q 122 272.5 119.5 272 L 116.5 274 L 114.5 274 L 113.5 275 L 111.5 275 L 110.5 276 L 108.5 276 L 107.5 277 L 105.5 277 Q 105 278.5 102.5 278 L 99.5 280 L 97.5 280 L 96.5 281 L 94.5 281 L 91.5 283 L 89.5 283 L 88.5 284 L 86.5 284 Q 86 285.5 83.5 285 L 80.5 287 L 78.5 287 L 77.5 288 L 75.5 288 L 74.5 289 L 72.5 289 Q 72 290.5 69.5 290 L 66.5 292 L 64.5 292 L 63.5 293 L 61.5 293 Q 61 294.5 58.5 294 L 55.5 296 L 53.5 296 L 52.5 297 L 50.5 297 L 49.5 298 L 47.5 298 Q 47 299.5 44.5 299 L 41.5 301 L 39.5 301 L 38.5 302 L 36.5 302 L 35.5 303 L 33.5 303 L 32.5 304 L 30.5 304 L 29.5 305 L 27.5 305 Q 27 306.5 24.5 306 L 21.5 308 L 19.5 308 Q 19 309.5 16.5 309 L 13.5 311 L 11.5 311 Q 11 312.5 8.5 312 L 5.5 314 L 3.5 314 L 2.5 315 Q 0.5 315 0 315 L 0 314.5 L 0 0.5 L 0 0 Z " /><path fill="rgb(253,253,253)" stroke="rgb(253,253,253)" stroke-width="0" opacity="1" d="M 1543.5 172 Q 1546.8 171.2 1547.5 173 L 1552.5 173 L 1553.5 174 L 1557.5 174 L 1558.5 175 L 1562.5 175 L 1563.5 176 L 1568.5 176 L 1569.5 177 L 1574.5 177 L 1575.5 178 L 1579.5 178 L 1580.5 179 L 1585.5 179 L 1586.5 180 Q 1589.8 179.3 1590.5 181 L 1594.5 181 L 1595.5 182 L 1600.5 182 L 1601.5 183 L 1605.5 183 L 1606.5 184 L 1610.5 184 L 1611.5 185 L 1615.5 185 L 1616.5 186 L 1621.5 186 L 1622.5 187 L 1626.5 187 L 1627.5 188 L 1631.5 188 L 1632.5 189 L 1636.5 189 L 1637.5 190 L 1642.5 190 L 1643.5 191 L 1647.5 191 L 1648.5 192 Q 1651.8 191.2 1652.5 193 L 1657.5 193 L 1658.5 194 L 1663.5 194 L 1664.5 195 Q 1667.8 194.3 1668.5 196 L 1672.5 196 L 1673.5 197 L 1678.5 197 L 1679.5 198 L 1683.5 198 L 1684.5 199 L 1688.5 199 L 1689.5 200 L 1693.5 200 L 1694.5 201 L 1698.5 201 L 1699.5 202 L 1704.5 202 L 1705.5 203 L 1709.5 203 L 1710.5 204 L 1714.5 204 L 1715.5 205 Q 1718.8 204.3 1719.5 206 L 1724.5 206 L 1725.5 207 L 1729.5 207 L 1730.5 208 L 1734.5 208 L 1735.5 209 L 1739.5 209 L 1740.5 210 Q 1743.8 209.3 1744.5 211 L 1748.5 211 L 1749.5 212 L 1754.5 212 L 1755.5 213 L 1759.5 213 L 1760.5 214 L 1764.5 214 L 1765.5 215 Q 1768.8 214.3 1769.5 216 L 1773.5 216 L 1774.5 217 L 1778.5 217 L 1779.5 218 L 1784.5 218 L 1785.5 219 L 1789.5 219 L 1790.5 220 L 1794.5 220 L 1795.5 221 L 1799.5 221 L 1800 221 L 1800 221.5 L 1800 392.5 Q 1800.3 393.3 1799.5 393 L 1796.5 393 L 1795.5 392 L 1793.5 392 L 1792.5 391 L 1790.5 391 L 1789.5 390 L 1787.5 390 Q 1787 388.5 1784.5 389 L 1783.5 388 Q 1781.7 388.2 1781.5 387 L 1779.5 387 L 1776.5 385 L 1774.5 385 L 1773.5 384 L 1771.5 384 Q 1771 382.5 1768.5 383 L 1765.5 381 L 1763.5 381 L 1762.5 380 L 1760.5 380 L 1759.5 379 L 1757.5 379 L 1756.5 378 L 1754.5 378 L 1753.5 377 L 1751.5 377 L 1750.5 376 L 1748.5 376 Q 1748 374.5 1745.5 375 L 1744.5 374 L 1743.5 374 L 1740.5 372 L 1738.5 372 L 1737.5 371 L 1736.5 371 L 1735.5 370 L 1734.5 370 L 1733.5 369 L 1732.5 369 L 1731.5 368 L 1730.5 368 Q 1730.2 366.8 1728.5 367 L 1726.5 365 L 1725.5 365 L 1722.5 362 L 1721.5 362 L 1720.5 361 L 1719.5 361 L 1718.5 360 L 1717.5 360 Q 1717.2 358.8 1715.5 359 L 1713.5 357 L 1712.5 357 L 1709.5 354 L 1708.5 354 L 1704.5 350 L 1703.5 350 L 1700.5 347 L 1699.5 347 L 1697.5 345 L 1696.5 345 L 1695 343.5 L 1695 342.5 L 1692.5 340 L 1691.5 340 Q 1691.3 338.7 1689.5 339 L 1688 337.5 L 1688 336.5 L 1684.5 333 Q 1682.7 333.2 1682.5 332 L 1681 332 L 1681 328 L 1679.5 328 L 1677.5 326 L 1676 326 Q 1676 325.5 1676 323.5 L 1673.5 321 Q 1671.7 321.2 1671.5 320 L 1670 320 L 1670 318.5 L 1671 317.5 L 1669.5 316 L 1668.5 316 L 1666 313.5 L 1666 312.5 L 1663.5 310 L 1662.5 310 L 1661 308.5 L 1661 306.5 L 1654 299.5 L 1654 298 L 1652 298 L 1652 296 L 1650.5 296 L 1646.5 292 L 1645.5 292 L 1644.5 291 L 1643.5 291 L 1640.5 289 L 1638.5 289 L 1635.5 287 L 1633.5 287 L 1630.5 285 L 1628.5 285 L 1627.5 284 L 1625.5 284 L 1624.5 283 L 1622.5 283 L 1621.5 282 L 1619.5 282 L 1618.5 281 L 1616.5 281 L 1615.5 280 Q 1613 280.5 1612.5 279 L 1609.5 279 L 1608.5 278 L 1606.5 278 L 1605.5 277 L 1603.5 277 L 1602.5 276 L 1600.5 276 L 1599.5 275 L 1597.5 275 L 1596.5 274 L 1594.5 274 L 1593.5 273 L 1591.5 273 L 1590.5 272 Q 1588 272.5 1587.5 271 L 1584.5 271 L 1583.5 270 Q 1581 270.5 1580.5 269 L 1577.5 269 L 1576.5 268 L 1573.5 268 Q 1572.8 266.3 1569.5 267 L 1568.5 266 L 1566.5 266 L 1565.5 265 L 1563.5 265 L 1562.5 264 L 1560.5 264 L 1559.5 263 Q 1557 263.5 1556.5 262 L 1553.5 262 L 1552.5 261 L 1549.5 261 Q 1548.8 259.3 1545.5 260 L 1544.5 259 L 1542.5 259 L 1541.5 258 L 1539.5 258 L 1538.5 257 Q 1536 257.5 1535.5 256 L 1532.5 256 L 1531.5 255 L 1528.5 255 Q 1527.8 253.3 1524.5 254 L 1523.5 253 L 1521.5 253 L 1520.5 252 L 1518.5 252 L 1517.5 251 L 1515.5 251 L 1514.5 250 Q 1512 250.5 1511.5 249 L 1508.5 249 L 1507.5 248 Q 1505 248.5 1504.5 247 L 1501.5 247 L 1500.5 246 L 1498.5 246 L 1497.5 245 L 1495.5 245 L 1494.5 244 L 1492.5 244 Q 1492 242.5 1489.5 243 L 1486.5 241 L 1484.5 241 L 1483.5 240 L 1482.5 240 L 1479.5 238 L 1478 238 L 1478 235 L 1476.5 235 L 1473.5 231 Q 1471.3 231.8 1472 229.5 L 1470 227.5 Q 1470.2 225.7 1469 225.5 L 1469 223.5 L 1467 221.5 L 1467 220.5 L 1464 217.5 Q 1464.5 215 1463 214.5 Q 1463.3 213.8 1464.5 214 L 1466 212.5 L 1466 211 Q 1466.5 211 1468.5 211 L 1469 210.5 L 1468 209.5 L 1468.5 209 L 1469.5 209 L 1471 207.5 L 1471 206 L 1471.5 206 L 1475.5 206 L 1478.5 204 L 1485.5 204 L 1486.5 203 L 1493.5 203 L 1496.5 201 L 1504.5 201 L 1505.5 200 L 1515.5 200 L 1516.5 199 L 1563.5 199 L 1564.5 198 L 1574.5 198 L 1575.5 197 L 1585.5 197 L 1587 195.5 L 1587 194.5 L 1585.5 193 L 1584 193 L 1584 191 Q 1583.5 191 1581.5 191 L 1580.5 190 L 1579.5 190 L 1576.5 188 L 1574.5 188 Q 1574 186.5 1571.5 187 L 1568.5 185 L 1566.5 185 L 1564.5 183 L 1562.5 183 Q 1562 181.5 1559.5 182 L 1557.5 180 L 1555.5 180 L 1554.5 179 L 1553.5 179 L 1552.5 178 L 1551.5 178 L 1548.5 176 L 1546.5 176 L 1543 172.5 L 1543.5 172 Z " /><path fill="rgb(253,253,253)" stroke="rgb(253,253,253)" stroke-width="0" opacity="1" d="M 399.5 179 L 408.5 179 L 409.5 180 L 430.5 180 L 431.5 181 L 448.5 181 L 449.5 182 L 469.5 182 L 470.5 183 L 483.5 183 L 484.5 184 L 499.5 184 L 500.5 185 L 511.5 185 L 512.5 186 L 526.5 186 L 527.5 187 L 536.5 187 L 537.5 188 L 549.5 188 L 550.5 189 L 559.5 189 L 560.5 190 L 569.5 190 L 570.5 191 L 580.5 191 L 581.5 192 L 591.5 192 L 592.5 193 L 601.5 193 L 602.5 194 L 610.5 194 L 611.5 195 L 622.5 195 L 623.5 196 L 632.5 196 L 633.5 197 L 642.5 197 L 643.5 198 L 650.5 198 L 651.5 199 L 662.5 199 L 663.5 200 L 669.5 200 L 670.5 201 L 679.5 201 L 680.5 202 L 687.5 202 L 688.5 203 L 696.5 203 L 697.5 204 L 704.5 204 L 705.5 205 L 710.5 205 L 711.5 206 L 719.5 206 L 720.5 207 L 725.5 207 L 726.5 208 L 733.5 208 L 734.5 209 L 740.5 209 L 741.5 210 L 747.5 210 L 748.5 211 L 756.5 211 L 757.5 212 L 761.5 212 L 762.5 213 L 769.5 213 L 770.5 214 L 777.5 214 L 778.5 215 L 782.5 215 L 783.5 216 L 790.5 216 L 791.5 217 L 797.5 217 L 798.5 218 L 803.5 218 L 804.5 219 L 812.5 219 L 813.5 220 L 817.5 220 L 818.5 221 L 824.5 221 L 825.5 222 L 830.5 222 L 831.5 223 L 835.5 223 L 836.5 224 L 841.5 224 L 842.5 225 L 845.5 225 L 846.5 226 L 848.5 226 Q 849 227.5 851.5 227 L 853 228.5 L 853 229.5 Q 854.2 229.8 854 231.5 L 853 232.5 L 853 234.5 Q 851.7 234.8 852 236.5 L 850 238.5 L 850 239.5 L 848.5 241 L 847.5 241 Q 847.2 242.3 845.5 242 L 843.5 244 L 842.5 244 L 839.5 246 L 837.5 246 L 835.5 248 Q 833 247.5 832.5 249 L 829.5 249 L 828.5 250 Q 826.7 249.7 826.5 251 L 824.5 251 L 823.5 252 L 820.5 252 Q 819.8 253.7 816.5 253 L 815.5 254 Q 813.7 253.7 813.5 255 L 811.5 255 L 810.5 256 L 806.5 256 Q 805.8 257.8 802.5 257 L 801.5 258 L 799.5 258 L 798.5 259 Q 796 258.5 795.5 260 L 791.5 260 L 790.5 261 L 787.5 261 L 786.5 262 Q 784 261.5 783.5 263 Q 780.3 262.3 779.5 264 L 775.5 264 L 774.5 265 L 772.5 265 L 771.5 266 Q 769 265.5 768.5 267 L 764.5 267 L 763.5 268 L 760.5 268 Q 759.8 269.8 756.5 269 L 755.5 270 Q 753 269.5 752.5 271 L 749.5 271 L 748.5 272 L 743.5 272 L 742.5 273 L 740.5 273 L 739.5 274 Q 737 273.5 736.5 275 L 733.5 275 L 732.5 276 L 727.5 276 L 726.5 277 L 723.5 277 L 722.5 278 Q 720 277.5 719.5 279 L 716.5 279 L 715.5 280 L 711.5 280 L 710.5 281 L 706.5 281 Q 705.8 282.8 702.5 282 L 701.5 283 Q 699 282.5 698.5 284 L 694.5 284 L 693.5 285 L 689.5 285 L 688.5 286 L 684.5 286 L 683.5 287 L 681.5 287 L 680.5 288 Q 678 287.5 677.5 289 L 672.5 289 L 671.5 290 L 667.5 290 L 666.5 291 L 662.5 291 L 661.5 292 L 659.5 292 L 658.5 293 Q 656 292.5 655.5 294 L 650.5 294 L 649.5 295 L 645.5 295 L 644.5 296 L 641.5 296 L 640.5 297 Q 638 296.5 637.5 298 L 634.5 298 L 633.5 299 L 628.5 299 L 627.5 300 L 624.5 300 Q 623.8 301.7 620.5 301 L 619.5 302 L 617.5 302 L 614.5 304 L 610.5 304 Q 609.7 305.8 606.5 305 L 605.5 306 L 603.5 306 L 602.5 307 L 600.5 307 L 599.5 308 L 597.5 308 L 596.5 309 Q 594 308.5 593.5 310 L 590.5 310 Q 589.8 311.8 586.5 311 L 585.5 312 Q 583.7 311.7 583.5 313 L 581.5 313 L 578.5 315 L 575.5 315 Q 574.8 316.8 571.5 316 L 568.5 318 L 566.5 318 L 565.5 319 Q 563.7 318.7 563.5 320 L 561.5 320 L 560.5 321 L 557.5 321 Q 556.8 322.8 553.5 322 L 550.5 324 L 548.5 324 Q 548 325.5 545.5 325 L 542.5 327 L 540.5 327 L 539.5 328 Q 537 327.5 536.5 329 L 533.5 329 L 532.5 330 Q 530.7 329.7 530.5 331 L 528.5 331 L 525.5 333 L 522.5 333 Q 521.8 334.8 518.5 334 L 517.5 335 L 516.5 335 L 513.5 337 L 511.5 337 L 510.5 338 L 508.5 338 L 507.5 339 L 505.5 339 L 504.5 340 L 502.5 340 L 501.5 341 L 499.5 341 Q 499 342.5 496.5 342 L 493.5 344 L 491.5 344 L 490.5 345 L 488.5 345 L 487.5 346 L 485.5 346 L 484.5 347 Q 482 346.5 481.5 348 L 478.5 348 Q 477.8 349.8 474.5 349 L 473.5 350 L 471.5 350 L 470.5 351 Q 468.7 350.7 468.5 352 L 466.5 352 L 465.5 353 L 462.5 353 L 461.5 354 L 458.5 354 Q 457.7 355.8 454.5 355 L 453.5 356 L 451.5 356 L 448.5 358 L 446.5 358 L 445.5 359 Q 443 358.5 442.5 360 L 439.5 360 L 438.5 361 L 436.5 361 L 435.5 362 Q 433 361.5 432.5 363 L 429.5 363 L 428.5 364 L 426.5 364 L 425.5 365 L 423.5 365 L 422.5 366 Q 420 365.5 419.5 367 L 416.5 367 L 415.5 368 L 410.5 368 L 409.5 369 Q 406.3 368.3 405.5 370 L 401.5 370 L 400.5 371 L 396.5 371 L 395.5 372 Q 392.2 371.3 391.5 373 L 387.5 373 L 386.5 374 L 381.5 374 L 380.5 375 L 374.5 375 L 373.5 376 L 366.5 376 L 365.5 377 L 357.5 377 L 356.5 378 L 348.5 378 L 347.5 379 L 340.5 379 L 339.5 380 L 335.5 380 L 334.5 381 L 330.5 381 L 329.5 382 Q 326.3 381.3 325.5 383 L 318.5 383 L 317.5 384 L 309.5 384 L 308.5 385 L 302.5 385 L 301.5 386 L 295.5 386 L 294.5 387 L 290.5 387 L 289.5 388 L 286.5 388 L 285.5 389 L 282.5 389 L 281.5 390 L 278.5 390 L 277.5 391 Q 274.3 390.3 273.5 392 L 269.5 392 L 268.5 393 L 263.5 393 L 262.5 394 L 257.5 394 L 256.5 395 L 252.5 395 L 251.5 396 L 248.5 396 L 247.5 397 Q 245 396.5 244.5 398 L 241.5 398 L 240.5 399 Q 238 398.5 237.5 400 L 233.5 400 L 232.5 401 Q 229.3 400.3 228.5 402 L 224.5 402 L 223.5 403 L 220.5 403 L 219.5 404 L 216.5 404 Q 215.8 405.8 212.5 405 L 211.5 406 L 209.5 406 L 208.5 407 L 206.5 407 L 205.5 408 Q 203 407.5 202.5 409 L 199.5 409 L 198.5 410 L 195.5 410 L 194.5 411 Q 191.3 410.3 190.5 412 L 185.5 412 L 184.5 413 L 180.5 413 L 179.5 414 L 175.5 414 L 174.5 415 Q 171.3 414.2 170.5 416 L 166.5 416 L 165.5 417 L 161.5 417 L 160.5 418 L 156.5 418 L 155.5 419 L 150.5 419 L 149.5 420 L 143.5 420 L 142.5 421 L 132.5 421 L 131.5 422 L 119.5 422 L 118.5 423 L 108.5 423 L 107.5 424 L 101.5 424 L 100.5 425 L 96.5 425 L 95.5 426 L 92.5 426 L 91.5 427 L 88.5 427 L 87.5 428 L 84.5 428 L 83.5 429 Q 80.3 428.3 79.5 430 L 75.5 430 L 74.5 431 L 69.5 431 L 68.5 432 L 64.5 432 L 63.5 433 L 58.5 433 L 57.5 434 L 54.5 434 Q 53.7 435.8 50.5 435 L 49.5 436 Q 47 435.5 46.5 437 L 43.5 437 Q 42.8 438.8 39.5 438 L 38.5 439 Q 36 438.5 35.5 440 L 32.5 440 Q 31.8 441.7 28.5 441 L 27.5 442 L 23.5 442 L 22.5 443 L 18.5 443 L 17.5 444 L 11.5 444 L 10.5 445 L 6.5 445 L 5.5 446 L 1.5 446 L 0.5 447 L 0 446.5 L 0 326.5 L 0 326 Q 0.5 326 2.5 326 L 3.5 325 L 5.5 325 L 8.5 323 L 10.5 323 L 11.5 322 L 13.5 322 Q 14 320.5 16.5 321 L 19.5 319 L 21.5 319 Q 22 317.5 24.5 318 L 27.5 316 L 29.5 316 L 30.5 315 L 32.5 315 Q 33 313.5 35.5 314 L 38.5 312 L 40.5 312 L 43.5 310 L 45.5 310 Q 46 308.5 48.5 309 L 51.5 307 L 53.5 307 L 56.5 305 L 58.5 305 Q 59 303.5 61.5 304 L 64.5 302 L 66.5 302 Q 67 300.5 69.5 301 L 72.5 299 L 74.5 299 Q 75 297.5 77.5 298 L 80.5 296 L 82.5 296 L 85.5 294 L 87.5 294 L 90.5 292 L 92.5 292 L 93.5 291 Q 95.2 291.2 95.5 290 L 97.5 290 L 100.5 288 L 102.5 288 L 103.5 287 L 105.5 287 L 108.5 285 L 110.5 285 Q 111 283.5 113.5 284 L 116.5 282 L 118.5 282 L 119.5 281 L 121.5 281 Q 122 279.5 124.5 280 L 127.5 278 L 129.5 278 Q 130 276.5 132.5 277 L 135.5 275 L 137.5 275 L 138.5 274 L 140.5 274 Q 141 272.5 143.5 273 L 146.5 271 L 148.5 271 L 149.5 270 L 151.5 270 Q 152 268.5 154.5 269 L 157.5 267 L 159.5 267 Q 160 265.5 162.5 266 L 165.5 264 L 167.5 264 L 168.5 263 L 170.5 263 L 173.5 261 L 175.5 261 Q 176 259.5 178.5 260 L 181.5 258 L 183.5 258 L 184.5 257 L 186.5 257 Q 187 255.5 189.5 256 L 192.5 254 L 194.5 254 L 195.5 253 L 197.5 253 L 200.5 251 L 202.5 251 Q 203 249.5 205.5 250 L 206.5 249 Q 208.2 249.2 208.5 248 L 210.5 248 L 213.5 246 L 215.5 246 L 216.5 245 L 218.5 245 Q 219 243.5 221.5 244 L 224.5 242 L 226.5 242 L 227.5 241 L 229.5 241 L 232.5 239 L 234.5 239 Q 235 237.5 237.5 238 L 240.5 236 L 242.5 236 Q 243 234.5 245.5 235 L 248.5 233 L 250.5 233 L 251.5 232 Q 253.2 232.2 253.5 231 L 255.5 231 L 258.5 229 L 260.5 229 Q 261 227.5 263.5 228 L 266.5 226 L 268.5 226 Q 269 224.5 271.5 225 L 274.5 223 L 276.5 223 L 277.5 222 L 279.5 222 Q 280 220.5 282.5 221 L 285.5 219 L 287.5 219 Q 288 217.5 290.5 218 L 293.5 216 L 295.5 216 L 296.5 215 L 298.5 215 L 299.5 214 L 301.5 214 Q 302 212.5 304.5 213 L 307.5 211 L 309.5 211 Q 310 209.5 312.5 210 L 313.5 209 Q 315.2 209.2 315.5 208 L 317.5 208 L 320.5 206 L 322.5 206 L 323.5 205 L 325.5 205 L 328.5 203 L 330.5 203 Q 331 201.5 333.5 202 L 336.5 200 L 338.5 200 Q 339 198.5 341.5 199 L 344.5 197 L 346.5 197 L 349.5 195 L 351.5 195 L 352.5 194 L 354.5 194 L 357.5 192 L 359.5 192 Q 360 190.5 362.5 191 L 365.5 189 L 367.5 189 Q 368 187.5 370.5 188 L 373.5 186 L 375.5 186 L 376.5 185 L 378.5 185 Q 379 183.5 381.5 184 L 382.5 183 Q 384.2 183.2 384.5 182 L 386.5 182 L 387.5 181 L 392.5 181 L 393.5 180 L 398.5 180 L 399.5 179 Z " /><path fill="rgb(253,253,253)" stroke="rgb(253,253,253)" stroke-width="0" opacity="1" d="M 986.5 251 Q 989.7 250.3 990.5 252 L 1000.5 252 L 1001.5 253 L 1005.5 253 Q 1006.3 254.8 1009.5 254 L 1012 256.5 Q 1012 258.5 1012 259 L 1010.5 259 L 1009 260.5 Q 1009.2 262.2 1008 262.5 L 1008 264 L 1005 264 L 1005 265.5 L 1002.5 268 L 1001.5 268 Q 1001.2 269.3 999.5 269 L 996.5 272 L 994.5 272 L 990.5 276 Q 988.7 275.7 988.5 277 L 987 277 L 987 278.5 L 985.5 280 L 983.5 280 L 978.5 285 L 977.5 285 L 975 287.5 Q 975.8 289.8 973.5 289 L 971.5 291 L 970 291 L 970 292.5 L 965.5 297 L 964.5 297 L 963 298.5 L 963 299.5 L 960 302.5 L 960 304 L 958.5 304 L 956 306.5 L 956 308.5 L 952.5 312 L 951.5 312 L 950 313.5 L 950 314.5 L 948 317.5 Q 948 319.5 948 320 L 947.5 320 L 936.5 320 L 934 317.5 L 934 316.5 L 932 314.5 L 932 311.5 L 933 310.5 L 933 301.5 L 932 300.5 L 932 290.5 L 931 289.5 L 931 277.5 L 935 273.5 L 935 272.5 Q 936.2 272.3 936 270.5 L 938 268.5 L 938 267.5 L 939.5 266 L 941.5 266 L 942.5 265 L 943.5 265 L 944.5 264 L 945.5 264 L 948.5 262 Q 951 262.5 951.5 261 L 954.5 261 Q 954.8 259.8 956.5 260 L 958.5 258 L 961.5 258 Q 962 256.5 964.5 257 Q 964.8 255.7 966.5 256 L 968.5 254 Q 971.8 254.8 972.5 253 L 976.5 253 L 977.5 252 L 985.5 252 L 986.5 251 Z " /><path fill="rgb(253,253,253)" stroke="rgb(253,253,253)" stroke-width="0" opacity="1" d="M 911.5 262 L 921.5 262 Q 921.8 263.3 923.5 263 L 926 265.5 L 926 267.5 L 924 269.5 L 924 281.5 L 923 282.5 L 923 292.5 L 924 293.5 L 924 302.5 L 925 303.5 L 925 308.5 Q 926.2 308.8 926 310.5 L 928 312.5 L 928 316.5 L 927 317.5 L 927 319.5 L 925 322.5 L 925 331.5 L 926 332.5 L 926 349.5 L 925 350.5 L 925 354.5 Q 923.5 355 924 357.5 L 919 362.5 L 919 363.5 Q 917.7 363.8 918 365.5 L 915.5 368 Q 912.3 367.2 911.5 369 L 905.5 369 L 904.5 368 L 902.5 368 Q 902 366.5 899.5 367 L 897.5 365 L 896.5 365 L 891.5 360 L 890.5 360 L 889.5 359 L 888.5 359 Q 888.2 357.8 886.5 358 L 884.5 356 Q 882.7 356.2 882.5 355 Q 880 355.5 879.5 354 L 861.5 354 L 860.5 355 L 856.5 355 L 855.5 356 L 854.5 356 L 853.5 357 L 852.5 357 L 851.5 358 L 850.5 358 Q 850.3 359.3 848.5 359 L 846.5 361 L 845.5 361 L 841 365.5 Q 841.2 367.2 840 367.5 L 840 369.5 L 838 372.5 L 838 374.5 L 839 375.5 L 839 380.5 L 840 381.5 L 840 388.5 L 841 389.5 L 841 394.5 L 842 395.5 L 842 405.5 Q 840.5 406 841 408.5 L 838.5 411 L 837.5 411 L 835 413.5 L 835 414.5 L 832.5 417 Q 830.7 416.7 830.5 418 L 826.5 418 L 825.5 417 L 821.5 417 L 816.5 412 Q 814.7 412.2 814.5 411 L 812.5 411 L 809 407.5 L 809 406.5 Q 807.8 406.2 808 404.5 L 804.5 401 Q 802.7 401.2 802.5 400 L 800.5 400 L 799.5 399 L 798.5 399 L 797.5 398 L 796.5 398 L 795.5 397 L 794.5 397 Q 794.3 395.7 792.5 396 L 791.5 397 L 789.5 397 Q 789 398.5 786.5 398 L 783.5 400 L 780.5 400 L 779.5 401 L 777.5 401 Q 777 402.5 774.5 402 L 771.5 404 L 769.5 404 L 768.5 405 L 767.5 405 L 766.5 406 L 765.5 406 Q 765.2 407.3 763.5 407 L 760.5 410 L 759.5 410 Q 759.3 411.2 757.5 411 L 755.5 413 L 753.5 413 L 751.5 415 L 750.5 415 L 744 421.5 L 744 422.5 L 741 425.5 L 741 426.5 L 739 428.5 Q 739.2 430.2 738 430.5 L 738 432.5 L 737 433.5 L 737 435.5 L 735 437.5 Q 735.3 438.8 734.5 439 Q 733.5 438.5 734 436.5 Q 735.8 435.8 735 432.5 L 732.5 430 L 730.5 430 Q 730.2 428.7 728.5 429 L 727 427.5 L 727 420.5 Q 725.7 420.2 726 418.5 L 723 415.5 L 723 414.5 L 720.5 412 L 719.5 412 L 716.5 410 L 711.5 410 L 710.5 411 L 707.5 411 Q 706.8 412.7 703.5 412 L 702.5 413 L 701.5 413 L 700.5 414 L 699.5 414 L 698.5 415 L 697.5 415 Q 697.3 416.2 695.5 416 L 693.5 418 L 692.5 418 L 687.5 422 L 686.5 422 L 683.5 424 L 681.5 424 L 679.5 426 L 678.5 426 L 675 429.5 L 675 430.5 L 671 434.5 L 671 435.5 L 668 438.5 Q 668.5 441 667 441.5 L 667 451.5 L 668 452.5 L 668 456.5 L 669 457.5 L 669 463.5 L 667 466.5 L 667 468.5 L 666 469.5 L 666 470.5 Q 664.8 470.8 665 472.5 L 662 475.5 L 662 476.5 L 649.5 489 L 648.5 489 L 645.5 492 L 644.5 492 L 632.5 504 L 631.5 504 L 629.5 506 L 628.5 506 L 626.5 508 L 625.5 508 L 623.5 510 L 622.5 510 L 612.5 520 L 611.5 520 L 607.5 524 L 606.5 524 L 603.5 527 L 602.5 527 L 594.5 535 L 593.5 535 L 578.5 550 L 577.5 550 L 575.5 552 L 574.5 552 Q 574.3 553.3 572.5 553 L 551 574.5 L 551 575.5 L 546.5 580 L 545.5 580 L 540 585.5 L 540 586.5 L 538 588.5 L 538 589.5 L 536 591.5 L 536 592.5 L 533 595.5 L 533 596.5 L 529 601.5 L 529 602.5 L 528 603.5 L 528 604.5 L 527 605.5 L 527 606.5 L 525 609.5 L 525 613.5 L 524 614.5 Q 524.8 617.8 523 618.5 L 523 624.5 L 522 625.5 L 522 628.5 Q 520.3 629.3 521 632.5 L 520 633.5 Q 520.5 636 519 636.5 L 519 639.5 L 517 642.5 L 517 644.5 L 516 645.5 L 516 646.5 L 515 647.5 L 515 648.5 L 514 649.5 L 514 650.5 Q 512.7 650.8 513 652.5 L 508 657.5 L 508 658.5 L 501 665.5 L 501 666.5 L 497 670.5 L 497 671.5 L 492.5 676 L 491.5 676 L 486.5 680 L 485.5 680 L 484.5 681 L 483.5 681 L 482.5 682 L 481.5 682 L 480.5 683 L 479.5 683 L 478.5 684 L 477.5 684 L 476.5 685 L 475.5 685 L 474.5 686 L 473.5 686 L 472.5 687 L 471.5 687 L 470.5 688 L 469.5 688 Q 469.2 689.2 467.5 689 L 465.5 691 L 464.5 691 L 462.5 693 L 461.5 693 L 458.5 696 L 457.5 696 L 455.5 698 Q 453.7 697.7 453.5 699 L 451.5 699 L 450.5 700 L 449.5 700 L 446.5 702 L 444.5 702 L 443.5 703 L 442.5 703 L 441.5 704 L 440.5 704 L 439.5 705 L 438.5 705 L 435.5 707 L 433.5 707 L 430.5 709 Q 427.3 708.3 426.5 710 L 422.5 710 L 421.5 711 L 418.5 711 L 417.5 712 Q 414.3 711.3 413.5 713 L 409.5 713 L 408.5 714 L 403.5 714 L 402.5 715 L 398.5 715 L 397.5 716 L 392.5 716 L 391.5 717 L 387.5 717 L 386.5 718 L 381.5 718 L 380.5 719 L 375.5 719 L 374.5 720 Q 371.3 719.3 370.5 721 L 366.5 721 L 365.5 722 L 359.5 722 L 358.5 723 L 352.5 723 L 351.5 724 L 347.5 724 L 346.5 725 L 342.5 725 L 341.5 726 L 338.5 726 L 337.5 727 L 335.5 727 L 334.5 728 Q 332 727.5 331.5 729 L 328.5 729 L 327.5 730 Q 325 729.5 324.5 731 L 321.5 731 L 320.5 732 L 317.5 732 L 316.5 733 L 314.5 733 L 313.5 734 Q 311 733.5 310.5 735 L 307.5 735 L 306.5 736 L 304.5 736 L 303.5 737 L 301.5 737 L 300.5 738 Q 298 737.5 297.5 739 L 293.5 739 L 292.5 740 L 289.5 740 L 288.5 741 L 285.5 741 L 284.5 742 Q 281.3 741.2 280.5 743 L 276.5 743 L 275.5 744 Q 272.3 743.3 271.5 745 L 266.5 745 L 265.5 746 L 253.5 746 L 252.5 747 L 244.5 747 L 243.5 746 L 202.5 746 L 201.5 747 L 188.5 747 L 187.5 748 L 182.5 748 L 181.5 749 L 176.5 749 L 175.5 750 L 170.5 750 L 169.5 751 L 165.5 751 L 164.5 752 L 161.5 752 L 160.5 753 L 157.5 753 L 156.5 754 L 153.5 754 Q 152.8 755.8 149.5 755 L 148.5 756 L 146.5 756 L 145.5 757 L 143.5 757 L 142.5 758 Q 140 757.5 139.5 759 L 135.5 759 L 134.5 760 L 130.5 760 L 129.5 761 Q 127 760.5 126.5 762 L 123.5 762 L 122.5 763 L 119.5 763 Q 118.8 764.8 115.5 764 L 114.5 765 L 112.5 765 L 109.5 767 L 107.5 767 L 106.5 768 Q 104 767.5 103.5 769 L 100.5 769 L 99.5 770 L 96.5 770 Q 95.7 771.8 92.5 771 L 91.5 772 Q 89 771.5 88.5 773 L 85.5 773 Q 84.8 774.8 81.5 774 L 80.5 775 Q 78 774.5 77.5 776 L 74.5 776 L 73.5 777 L 71.5 777 L 70.5 778 L 68.5 778 Q 68 779.5 65.5 779 L 62.5 781 L 60.5 781 L 59.5 782 L 58.5 782 L 55.5 784 L 53.5 784 L 52.5 785 L 51.5 785 Q 51.3 786.3 49.5 786 L 47.5 788 L 46.5 788 L 45.5 789 L 44.5 789 L 43.5 790 L 42.5 790 Q 42.3 791.2 40.5 791 L 35.5 795 L 34.5 795 Q 34.2 796.2 32.5 796 L 30.5 798 L 29.5 798 L 28.5 799 L 27.5 799 Q 27.2 800.2 25.5 800 L 20.5 804 L 19.5 804 Q 19.2 805.2 17.5 805 L 15.5 807 L 14.5 807 L 12.5 809 L 11.5 809 L 9.5 811 L 8.5 811 L 6.5 813 L 5.5 813 L 3.5 815 Q 1.7 814.7 1.5 816 L 0 816 L 0 815.5 L 0 590.5 L 1.5 589 L 2.5 589 Q 2.8 587.8 4.5 588 L 5.5 587 L 7.5 587 L 10.5 585 L 12.5 585 Q 13 583.5 15.5 584 L 16.5 583 L 19.5 583 L 20.5 582 Q 23 582.5 23.5 581 L 26.5 581 L 27.5 580 L 30.5 580 L 31.5 579 L 34.5 579 L 35.5 578 L 37.5 578 L 38.5 577 L 40.5 577 Q 41 575.5 43.5 576 L 46.5 574 L 48.5 574 L 51.5 572 L 53.5 572 L 56.5 570 L 58.5 570 L 59.5 569 L 60.5 569 L 61.5 568 L 62.5 568 L 65.5 566 L 67.5 566 L 70.5 564 L 72.5 564 L 73.5 563 Q 76 563.5 76.5 562 L 79.5 562 L 80.5 561 L 83.5 561 L 84.5 560 L 86.5 560 L 87.5 559 L 89.5 559 L 90.5 558 L 92.5 558 L 93.5 557 L 95.5 557 L 96.5 556 L 98.5 556 L 99.5 555 L 101.5 555 Q 102 553.5 104.5 554 L 105.5 553 L 106.5 553 L 109.5 551 L 111.5 551 L 112.5 550 L 113.5 550 L 116.5 548 L 118.5 548 L 119.5 547 L 121.5 547 L 122.5 546 L 124.5 546 L 125.5 545 L 127.5 545 L 128.5 544 L 130.5 544 L 131.5 543 L 133.5 543 L 134.5 542 L 136.5 542 L 137.5 541 L 139.5 541 Q 140 539.5 142.5 540 L 145.5 538 L 147.5 538 L 148.5 537 L 149.5 537 L 150.5 536 L 151.5 536 L 152.5 535 L 153.5 535 L 156.5 533 L 158.5 533 L 159.5 532 L 161.5 532 L 162.5 531 L 164.5 531 L 165.5 530 L 167.5 530 L 168.5 529 L 170.5 529 L 171.5 528 L 173.5 528 L 174.5 527 Q 177 527.5 177.5 526 L 180.5 526 L 181.5 525 L 183.5 525 Q 184 523.5 186.5 524 L 189.5 522 L 191.5 522 L 194.5 520 L 196.5 520 L 197.5 519 L 198.5 519 L 199.5 518 L 200.5 518 L 203.5 516 L 205.5 516 L 206.5 515 L 208.5 515 L 211.5 513 L 214.5 513 L 215.5 512 L 217.5 512 L 218.5 511 L 220.5 511 L 221.5 510 L 223.5 510 L 224.5 509 L 226.5 509 Q 227 507.5 229.5 508 L 230.5 507 L 231.5 507 L 232.5 506 L 233.5 506 L 234.5 505 L 235.5 505 L 238.5 503 L 240.5 503 L 241.5 502 L 243.5 502 L 246.5 500 L 248.5 500 L 249.5 499 L 251.5 499 L 252.5 498 L 254.5 498 L 255.5 497 Q 258 497.5 258.5 496 L 260.5 496 L 263.5 494 L 265.5 494 L 266.5 493 L 267.5 493 L 270.5 491 L 272.5 491 L 273.5 490 L 274.5 490 L 275.5 489 L 276.5 489 L 279.5 487 L 281.5 487 L 284.5 485 L 286.5 485 L 287.5 484 L 289.5 484 L 290.5 483 Q 293 483.5 293.5 482 L 296.5 482 L 299.5 480 L 301.5 480 L 302.5 479 L 303.5 479 Q 303.8 477.7 305.5 478 L 307.5 476 L 309.5 476 L 310.5 475 Q 312.2 475.2 312.5 474 L 314.5 474 L 317.5 472 L 320.5 472 L 321.5 471 L 323.5 471 L 324.5 470 L 326.5 470 L 327.5 469 L 329.5 469 L 330.5 468 L 332.5 468 Q 333 466.5 335.5 467 L 336.5 466 Q 338.2 466.2 338.5 465 L 340.5 465 L 341.5 464 L 342.5 464 L 343.5 463 L 344.5 463 L 347.5 461 L 349.5 461 L 350.5 460 L 352.5 460 L 353.5 459 L 355.5 459 L 356.5 458 Q 359 458.5 359.5 457 L 362.5 457 L 363.5 456 L 365.5 456 Q 366 454.5 368.5 455 L 369.5 454 L 370.5 454 L 371.5 453 L 372.5 453 L 375.5 451 L 377.5 451 L 378.5 450 L 380.5 450 L 381.5 449 L 383.5 449 L 384.5 448 Q 387 448.5 387.5 447 L 390.5 447 L 391.5 446 Q 394 446.5 394.5 445 L 397.5 445 L 398.5 444 L 400.5 444 Q 401 442.5 403.5 443 L 404.5 442 L 405.5 442 L 406.5 441 L 407.5 441 L 410.5 439 Q 413 439.5 413.5 438 L 416.5 438 L 417.5 437 L 420.5 437 L 421.5 436 L 424.5 436 L 425.5 435 L 428.5 435 L 429.5 434 Q 432 434.5 432.5 433 L 435.5 433 L 436.5 432 L 438.5 432 L 439.5 431 L 441.5 431 L 442.5 430 Q 445 430.5 445.5 429 L 448.5 429 Q 449 427.5 451.5 428 L 452.5 427 L 455.5 427 L 456.5 426 Q 459.8 426.7 460.5 425 L 464.5 425 L 465.5 424 L 470.5 424 L 471.5 423 L 474.5 423 Q 475.3 421.3 478.5 422 L 479.5 421 L 481.5 421 L 482.5 420 L 484.5 420 L 485.5 419 Q 488 419.5 488.5 418 L 491.5 418 L 492.5 417 L 496.5 417 L 497.5 416 L 501.5 416 L 502.5 415 L 507.5 415 L 508.5 414 L 513.5 414 L 514.5 413 L 518.5 413 L 519.5 412 L 523.5 412 L 524.5 411 L 528.5 411 L 529.5 410 L 531.5 410 L 532.5 409 Q 534.2 409.2 534.5 408 L 536.5 408 L 537.5 407 Q 540.8 407.7 541.5 406 L 545.5 406 L 546.5 405 L 550.5 405 L 551.5 404 L 553.5 404 L 554.5 403 L 556.5 403 L 557.5 402 L 559.5 402 Q 560 400.5 562.5 401 L 565.5 399 L 567.5 399 L 568.5 398 L 570.5 398 L 571.5 397 L 573.5 397 L 574.5 396 L 576.5 396 L 577.5 395 L 579.5 395 Q 580 393.5 582.5 394 L 583.5 393 L 584.5 393 L 585.5 392 L 586.5 392 L 587.5 391 L 588.5 391 L 591.5 389 L 593.5 389 L 594.5 388 L 597.5 388 L 598.5 387 L 600.5 387 Q 601 385.5 603.5 386 L 604.5 385 L 605.5 385 L 606.5 384 L 607.5 384 L 610.5 382 L 612.5 382 L 613.5 381 L 614.5 381 L 617.5 379 L 620.5 379 Q 621 377.5 623.5 378 L 624.5 377 L 625.5 377 L 626.5 376 L 627.5 376 L 628.5 375 L 629.5 375 L 632.5 373 L 634.5 373 L 635.5 372 L 638.5 372 Q 639 370.5 641.5 371 L 647.5 367 L 649.5 367 L 650.5 366 Q 652.2 366.2 652.5 365 L 654.5 365 L 657.5 363 L 659.5 363 Q 660 361.5 662.5 362 L 663.5 361 L 664.5 361 Q 664.8 359.7 666.5 360 L 668.5 358 Q 670.2 358.2 670.5 357 L 672.5 357 L 673.5 356 L 675.5 356 L 676.5 355 L 678.5 355 L 679.5 354 L 680.5 354 Q 680.7 352.7 682.5 353 L 684.5 351 Q 686.2 351.2 686.5 350 L 689.5 350 Q 690 348.5 692.5 349 L 693.5 348 L 694.5 348 L 695.5 347 L 696.5 347 L 697.5 346 L 698.5 346 L 699.5 345 L 700.5 345 L 703.5 343 L 705.5 343 L 706.5 342 L 708.5 342 L 711.5 340 L 713.5 340 L 715.5 338 L 716.5 338 L 719.5 336 L 721.5 336 Q 722 334.5 724.5 335 L 725.5 334 L 726.5 334 Q 726.8 332.7 728.5 333 L 730.5 331 L 732.5 331 L 733.5 330 Q 736 330.5 736.5 329 L 739.5 329 L 745.5 325 L 747.5 325 L 748.5 324 L 750.5 324 L 753.5 322 L 755.5 322 L 761.5 318 L 763.5 318 L 764.5 317 L 766.5 317 Q 767 315.5 769.5 316 L 771.5 314 Q 773.2 314.2 773.5 313 L 775.5 313 L 776.5 312 L 778.5 312 L 779.5 311 L 780.5 311 Q 780.8 309.7 782.5 310 L 784.5 308 L 786.5 308 L 787.5 307 L 789.5 307 Q 790 305.5 792.5 306 L 793.5 305 L 794.5 305 L 795.5 304 L 796.5 304 L 799.5 302 L 801.5 302 Q 802 300.5 804.5 301 L 805.5 300 L 806.5 300 Q 806.7 298.7 808.5 299 L 810.5 297 L 813.5 297 Q 814 295.5 816.5 296 L 817.5 295 L 818.5 295 L 819.5 294 L 820.5 294 L 823.5 292 L 825.5 292 Q 826 290.5 828.5 291 L 829.5 290 L 830.5 290 L 831.5 289 L 832.5 289 L 835.5 287 L 837.5 287 Q 838 285.5 840.5 286 L 841.5 285 L 842.5 285 L 845.5 283 L 847.5 283 L 848.5 282 L 851.5 282 L 852.5 281 L 853.5 281 L 856.5 279 L 858.5 279 L 859.5 278 L 861.5 278 Q 862 276.5 864.5 277 L 867.5 275 L 869.5 275 L 870.5 274 L 872.5 274 L 873.5 273 L 875.5 273 Q 876 271.5 878.5 272 L 881.5 270 Q 884.8 270.7 885.5 269 L 889.5 269 L 890.5 268 L 892.5 268 L 895.5 266 Q 898.8 266.8 899.5 265 L 903.5 265 L 904.5 264 L 908.5 264 L 911.5 262 Z " /><path fill="rgb(253,253,253)" stroke="rgb(253,253,253)" stroke-width="0" opacity="1" d="M 1054.5 266 L 1056.5 266 L 1060 269.5 L 1060 270.5 L 1057 273.5 L 1057 275.5 Q 1055.5 276 1056 278.5 L 1054 280.5 L 1054 282.5 L 1051 285.5 Q 1051.2 287.2 1050 287.5 L 1050 289.5 L 1049 290.5 L 1049 291.5 Q 1047.7 291.8 1048 293.5 L 1046 295.5 L 1046 297.5 L 1042 302.5 L 1042 304.5 L 1038 310.5 L 1038 313.5 L 1035 316.5 L 1035 317.5 L 1034 318.5 L 1034 319.5 L 1032 322.5 L 1032 324 Q 1029.9 323.5 1029 325.5 Q 1029.2 327.2 1028 327.5 L 1028 329.5 Q 1026.8 329.8 1027 331.5 L 1025.5 333 L 1024.5 333 L 1022 335.5 L 1022 336.5 Q 1020.7 336.8 1021 338.5 L 1019.5 340 L 1018.5 340 L 1016 342.5 L 1016 343.5 L 1012.5 347 L 1011.5 347 L 1005.5 353 L 1003.5 353 L 1002.5 354 L 1001.5 354 Q 1001.2 355.2 999.5 355 L 996.5 358 L 995.5 358 L 993.5 360 L 992.5 360 L 991.5 361 L 989.5 361 Q 989.2 362.3 987.5 362 L 984 365.5 Q 984.8 367.8 982.5 367 Q 982.2 368.3 980.5 368 L 976 372.5 Q 976.8 374.8 974.5 374 L 972.5 376 L 971.5 376 Q 971.2 377.3 969.5 377 L 966.5 380 L 965.5 380 L 963.5 382 Q 961.7 381.7 961.5 383 L 954.5 383 L 953.5 384 L 952.5 383 L 945.5 383 L 943 380.5 Q 943.2 378.7 942 378.5 L 942 375.5 L 941 374.5 L 941 371.5 L 942 370.5 L 942 364.5 L 943 363.5 L 943 359.5 L 945 357.5 L 945 356.5 L 947 353.5 L 947 350.5 L 948 349.5 L 948 348.5 L 949 347.5 L 949 346.5 Q 950.3 346.2 950 344.5 L 954 340.5 L 954 338.5 Q 955.5 338 955 335.5 L 957 333.5 Q 956.5 330.5 958.5 330 L 959.5 330 L 961 328.5 L 961 326.5 L 962 325.5 L 962 324.5 L 963 323.5 L 963 322.5 Q 964.2 322.3 964 320.5 L 967 317.5 Q 966.7 315.7 968 315.5 L 968 313.5 Q 969.3 313.3 969 311.5 L 970.5 310 Q 972.8 310.8 972 308.5 L 974 306.5 L 974 304.5 L 975 303.5 L 975 302 L 976.5 302 L 977.5 301 L 979 301 L 979 299.5 Q 980.2 299.3 980 297.5 L 981.5 296 L 982.5 296 L 986 292.5 Q 985.3 290.3 987.5 291 Q 987.7 289.7 989.5 290 L 993.5 286 L 994.5 286 Q 994.7 284.7 996.5 285 L 999.5 282 L 1001.5 282 L 1007.5 278 Q 1010 278.5 1010.5 277 L 1013.5 277 L 1014.5 276 L 1017.5 276 L 1018.5 275 L 1020.5 275 L 1021.5 274 Q 1024 274.5 1024.5 273 L 1029.5 273 Q 1030.3 271.3 1033.5 272 L 1036.5 270 L 1041.5 270 L 1042.5 269 L 1047.5 269 L 1048.5 268 L 1050.5 268 L 1051.5 267 Q 1054 267.5 1054.5 266 Z " /></svg>