<svg width="11.00cm" height="15.00cm" viewBox="0 0 1100 1500" version="1.1" xmlns="http://www.w3.org/2000/svg" desc="Created with imagetracer.js version 1.2.6" ><path fill="rgb(0,0,0)" stroke="rgb(0,0,0)" stroke-width="0" opacity="1" d="M 525.5 249 L 532.5 249 L 533.5 250 L 555.5 250 L 556.5 251 L 566.5 251 L 567.5 252 L 574.5 252 L 575.5 253 L 579.5 253 L 580.5 254 L 586.5 254 L 587.5 255 L 591.5 255 Q 592.3 256.8 595.5 256 L 596.5 257 L 598.5 257 L 599.5 258 L 601.5 258 L 602.5 259 L 604.5 259 L 605.5 260 L 607.5 260 Q 608 261.5 610.5 261 L 612.5 263 L 613.5 263 L 615.5 265 L 616.5 265 Q 616.8 266.3 618.5 266 L 620 267.5 L 620 268.5 L 622 270.5 L 622 271.5 L 623 272.5 L 623 273.5 L 624 274.5 L 624 275.5 L 625 276.5 L 625 277.5 L 627 280.5 Q 626.5 283 628 283.5 L 628 286.5 L 629 287.5 L 629 290.5 L 630 291.5 L 630 294.5 L 629 295.5 L 629 297.5 Q 627.8 297.7 628 299.5 L 625 302.5 Q 625.2 304.3 624 304.5 L 624 306.5 L 625 307.5 L 625 310.5 Q 626.5 311 626 313.5 L 628.5 316 L 630.5 316 L 631.5 317 L 633.5 317 L 634.5 318 Q 637 317.5 637.5 319 L 641.5 319 L 642.5 320 L 840.5 320 L 841.5 319 L 902.5 319 L 903.5 318 L 977.5 318 L 978.5 317 L 1068.5 317 L 1069.5 316 L 1098.5 316 L 1099.5 315 L 1100 315.5 L 1100 325.5 L 1100 326 L 1099.5 326 L 1089.5 326 L 1088.5 327 L 1008.5 327 L 1007.5 328 L 960.5 328 L 959.5 329 L 887.5 329 L 886.5 330 L 781.5 330 L 780.5 331 L 722.5 331 L 721.5 332 L 697.5 332 Q 697.3 330.8 695.5 331 L 694.5 332 L 664.5 332 L 663.5 333 L 652.5 333 L 651.5 334 L 646.5 334 Q 646 335.5 643.5 335 Q 643.3 336.3 641.5 336 L 640 337.5 Q 640.3 338.3 641.5 338 L 644.5 341 Q 646.2 340.7 646.5 342 L 649.5 342 L 650.5 343 L 651.5 343 L 654.5 345 L 658.5 345 L 659.5 346 L 662.5 346 L 663.5 347 L 665.5 347 L 666.5 348 Q 669 347.5 669.5 349 L 674.5 349 L 675.5 350 L 678.5 350 L 679.5 351 Q 682.8 350.3 683.5 352 L 689.5 352 L 690.5 353 L 695.5 353 L 696.5 354 L 700.5 354 L 701.5 355 L 706.5 355 L 707.5 356 L 714.5 356 L 715.5 357 L 722.5 357 L 723.5 358 L 728.5 358 L 729.5 359 L 738.5 359 L 739.5 360 L 748.5 360 L 749.5 361 L 756.5 361 L 757.5 362 L 766.5 362 L 767.5 363 L 777.5 363 L 778.5 364 L 792.5 364 L 793.5 365 L 802.5 365 L 803.5 366 L 810.5 366 L 811.5 367 L 819.5 367 L 820.5 368 L 826.5 368 L 827.5 369 L 832.5 369 L 833.5 370 L 837.5 370 L 838.5 371 L 845.5 371 L 846.5 372 L 851.5 372 L 852.5 373 Q 855.8 372.3 856.5 374 L 861.5 374 L 862.5 375 L 870.5 375 L 871.5 376 L 876.5 376 L 877.5 377 L 883.5 377 L 884.5 378 L 890.5 378 L 891.5 379 L 898.5 379 L 899.5 380 L 907.5 380 L 908.5 381 L 913.5 381 L 914.5 382 L 919.5 382 L 920.5 383 L 926.5 383 L 927.5 384 L 934.5 384 L 935.5 385 L 939.5 385 L 940.5 386 Q 943.8 385.3 944.5 387 L 949.5 387 L 950.5 388 L 955.5 388 L 956.5 389 L 959.5 389 Q 960.3 390.8 963.5 390 L 964.5 391 Q 967 390.5 967.5 392 L 972.5 392 L 973.5 393 L 976.5 393 L 977.5 394 Q 980 393.5 980.5 395 L 983.5 395 L 984.5 396 L 987.5 396 Q 988.2 397.8 991.5 397 L 994.5 399 L 996.5 399 L 997.5 400 L 999.5 400 L 1000.5 401 Q 1003 400.5 1003.5 402 L 1007.5 402 L 1008.5 403 L 1010.5 403 L 1011.5 404 L 1012.5 404 L 1015.5 406 L 1017.5 406 L 1020.5 408 L 1022.5 408 L 1025.5 410 L 1027.5 410 L 1028.5 411 L 1030.5 411 Q 1031 412.5 1033.5 412 L 1034.5 413 L 1035.5 413 L 1036.5 414 L 1037.5 414 L 1038.5 415 L 1039.5 415 Q 1039.7 416.2 1041.5 416 L 1043.5 418 L 1044.5 418 L 1045.5 419 L 1046.5 419 L 1047.5 420 L 1048.5 420 L 1049.5 421 L 1050.5 421 L 1053.5 423 L 1055.5 423 L 1058.5 425 L 1060.5 425 L 1062.5 427 L 1063.5 427 Q 1063.8 428.3 1065.5 428 L 1067.5 430 L 1068.5 430 Q 1068.8 431.3 1070.5 431 L 1075.5 435 L 1076.5 435 L 1077.5 436 L 1078.5 436 L 1079.5 437 L 1080.5 437 L 1081.5 438 L 1082.5 438 L 1083.5 439 L 1084.5 439 L 1085.5 440 L 1086.5 440 L 1087.5 441 L 1088.5 441 L 1089.5 442 L 1090.5 442 L 1091.5 443 L 1092.5 443 L 1095.5 445 L 1097.5 445 L 1098.5 446 L 1100 446 L 1100 446.5 L 1100 588.5 Q 1100.4 589.5 1098.5 589 L 1095.5 587 L 1093.5 587 Q 1093.3 585.7 1091.5 586 L 1089.5 584 L 1088.5 584 Q 1088.2 582.8 1086.5 583 L 1084.5 581 L 1083.5 581 L 1082.5 580 L 1081.5 580 L 1080.5 579 L 1079.5 579 Q 1079.2 577.8 1077.5 578 L 1075.5 576 L 1074.5 576 L 1073.5 575 L 1072.5 575 L 1069.5 573 L 1067.5 573 L 1066.5 572 L 1065.5 572 L 1064.5 571 L 1063.5 571 L 1062.5 570 L 1061.5 570 L 1060.5 569 L 1059.5 569 L 1058.5 568 L 1057.5 568 Q 1057.3 566.7 1055.5 567 L 1053.5 565 L 1052.5 565 L 1050.5 563 L 1049.5 563 Q 1049.3 561.8 1047.5 562 L 1045.5 560 L 1044.5 560 Q 1044.2 558.7 1042.5 559 L 1040.5 557 L 1038.5 557 L 1037.5 556 L 1034.5 556 Q 1034 554.5 1031.5 555 L 1030.5 554 L 1029.5 554 L 1028.5 553 L 1027.5 553 L 1026.5 552 L 1025.5 552 Q 1025.2 550.8 1023.5 551 L 1022.5 550 L 1021.5 550 L 1020.5 549 L 1019.5 549 L 1018.5 548 L 1017.5 548 L 1016.5 547 L 1015.5 547 L 1014.5 546 L 1013.5 546 L 1012.5 545 L 1011.5 545 L 1008.5 543 L 1005.5 543 L 1004.5 542 L 1001.5 542 L 1000.5 541 L 997.5 541 L 996.5 540 L 992.5 540 Q 992 538.5 989.5 539 L 988 540.5 L 988 547.5 Q 989.2 547.8 989 549.5 L 987 551.5 Q 987.2 553.2 986 553.5 L 986 562.5 L 987 563.5 L 987 565.5 L 988 566.5 L 988 568.5 L 989 569.5 L 989 571.5 L 990 572.5 Q 989.5 575 991 575.5 L 991 579.5 L 989 581.5 L 989 589.5 L 990 590.5 L 990 592.5 L 991 593.5 Q 990.5 596 992 596.5 L 992 599.5 L 993 600.5 L 993 607.5 L 992 608.5 L 992 609.5 L 990 612.5 L 990 615.5 L 991 616.5 L 991 619.5 L 992 620.5 L 992 622.5 L 993 623.5 Q 992.5 626 994 626.5 L 994 631.5 Q 995.5 632 995 634.5 L 994 635.5 L 994 636.5 L 992 639.5 L 992 648.5 L 993 649.5 L 993 655.5 L 994 656.5 L 994 668.5 L 992 671.5 L 992 678.5 L 993 679.5 L 993 682.5 L 994 683.5 L 994 685.5 L 995 686.5 Q 994.5 689 996 689.5 L 996 694.5 L 997 695.5 L 997 699.5 L 998 700.5 L 998 704.5 L 999 705.5 L 999 714.5 L 1000 715.5 L 1000 721.5 L 1001 722.5 L 1001 725.5 L 1002 726.5 L 1002 728.5 Q 1003.5 729 1003 731.5 L 1004 732.5 L 1004 733.5 L 1005 734.5 L 1005 735.5 L 1006 736.5 L 1006 737.5 L 1007 738.5 L 1007 739.5 L 1008 740.5 L 1008 741.5 L 1009 742.5 L 1009 743.5 L 1010 744.5 L 1010 745.5 L 1011 746.5 L 1011 747.5 L 1012 748.5 L 1012 749.5 L 1013 750.5 L 1013 751.5 L 1014 752.5 L 1014 753.5 Q 1015.2 753.8 1015 755.5 L 1017 757.5 L 1017 758.5 L 1019 760.5 L 1019 761.5 L 1021 763.5 L 1021 764.5 L 1024 767.5 L 1024 768.5 L 1027 771.5 L 1027 772.5 L 1035.5 781 L 1036.5 781 Q 1036.8 782.2 1038.5 782 L 1043.5 786 L 1044.5 786 Q 1044.8 787.2 1046.5 787 L 1048.5 789 L 1049.5 789 L 1052.5 792 L 1053.5 792 L 1055.5 794 L 1056.5 794 Q 1056.8 795.3 1058.5 795 L 1060.5 797 L 1061.5 797 L 1062.5 798 L 1063.5 798 L 1064.5 799 L 1065.5 799 L 1066.5 800 L 1067.5 800 Q 1067.8 801.2 1069.5 801 L 1071.5 803 L 1072.5 803 L 1073.5 804 L 1074.5 804 L 1075.5 805 L 1076.5 805 L 1079.5 807 L 1081.5 807 L 1082.5 808 L 1084.5 808 L 1087.5 810 L 1089.5 810 Q 1089.8 811.3 1091.5 811 L 1093.5 813 L 1094.5 813 L 1095.5 814 L 1096.5 814 Q 1096.8 815.2 1098.5 815 L 1100 816.5 L 1100 1499.5 L 1100 1500 L 1099.5 1500 L 0.5 1500 L 0 1500 L 0 1499.5 L 0 402.5 Q -0.3 401.8 0.5 402 L 3.5 402 L 4.5 401 L 7.5 401 L 8.5 400 Q 11.8 400.8 12.5 399 L 16.5 399 L 17.5 398 L 20.5 398 L 21.5 397 Q 24.8 397.8 25.5 396 L 29.5 396 L 30.5 395 L 33.5 395 Q 34.3 393.3 37.5 394 L 38.5 393 L 42.5 393 L 43.5 392 L 47.5 392 L 48.5 391 L 52.5 391 L 53.5 390 L 58.5 390 L 59.5 389 L 63.5 389 L 64.5 388 L 70.5 388 L 71.5 387 L 76.5 387 L 77.5 386 L 83.5 386 L 84.5 385 L 93.5 385 L 94.5 384 L 103.5 384 L 104.5 383 L 112.5 383 L 113.5 382 L 120.5 382 L 121.5 381 L 127.5 381 L 128.5 380 L 137.5 380 L 138.5 379 L 146.5 379 L 147.5 378 L 154.5 378 L 155.5 377 L 164.5 377 L 165.5 376 L 176.5 376 L 177.5 375 L 187.5 375 L 188.5 374 L 198.5 374 L 199.5 373 L 211.5 373 L 212.5 372 L 221.5 372 L 222.5 371 L 233.5 371 L 234.5 370 L 241.5 370 L 242.5 369 L 250.5 369 L 251.5 368 L 259.5 368 L 260.5 367 L 267.5 367 L 268.5 366 L 275.5 366 L 276.5 365 L 281.5 365 L 282.5 364 L 290.5 364 L 291.5 363 L 297.5 363 L 298.5 362 L 302.5 362 L 303.5 361 L 307.5 361 L 308.5 360 L 313.5 360 L 314.5 359 L 318.5 359 L 319.5 358 Q 322.8 358.8 323.5 357 L 327.5 357 L 328.5 356 L 331.5 356 Q 332.3 354.3 335.5 355 L 336.5 354 Q 339 354.5 339.5 353 L 342.5 353 Q 343.3 351.3 346.5 352 L 347.5 351 Q 350 351.5 350.5 350 L 353.5 350 Q 354.3 348.3 357.5 349 L 358.5 348 Q 361 348.5 361.5 347 L 364.5 347 L 365.5 346 L 367.5 346 Q 368 344.5 370.5 345 L 371.5 344 L 372.5 344 L 373.5 343 L 374.5 343 L 377.5 341 L 379.5 341 Q 379.7 339.8 381.5 340 L 383.5 338 L 385 338 L 385 336 L 383.5 336 L 382.5 335 L 380.5 335 L 379.5 334 Q 377 334.5 376.5 333 L 372.5 333 L 371.5 332 L 348.5 332 L 347.5 331 L 207.5 331 L 206.5 330 L 196.5 330 Q 195.8 328.3 192.5 329 L 191 327.5 L 191 326.5 L 194.5 323 L 195.5 323 L 198.5 321 L 202.5 321 L 203.5 320 L 207.5 320 L 208.5 319 L 225.5 319 L 226.5 320 L 230.5 320 L 231.5 319 L 264.5 319 L 265.5 320 L 363.5 320 L 364.5 319 L 376.5 319 L 377.5 318 L 381.5 318 L 382.5 317 L 386.5 317 L 387.5 316 L 388.5 316 Q 388.7 314.7 390.5 315 L 393 312.5 Q 392.7 310.7 394 310.5 L 394 308.5 L 395 307.5 L 395 302.5 L 396 301.5 L 396 294.5 L 397 293.5 Q 396.7 291.7 398 291.5 L 398 289.5 L 399 288.5 L 399 287.5 L 401 284.5 L 401 281.5 L 402 280.5 L 402 279.5 L 403 278.5 L 403 277.5 L 404 276.5 L 404 275.5 Q 405.2 275.3 405 273.5 L 410.5 268 L 411.5 268 L 412.5 267 L 413.5 267 L 416.5 265 L 418.5 265 L 421.5 263 L 423.5 263 L 424.5 262 Q 427 262.5 427.5 261 L 430.5 261 L 431.5 260 Q 434 260.5 434.5 259 L 438.5 259 L 439.5 258 L 443.5 258 L 444.5 257 L 448.5 257 L 449.5 256 L 453.5 256 L 454.5 255 L 459.5 255 L 460.5 254 L 466.5 254 L 467.5 253 L 475.5 253 L 476.5 252 L 485.5 252 L 486.5 251 L 498.5 251 L 499.5 250 L 524.5 250 L 525.5 249 Z M 291 390 Q 290 391 289 391 L 286 394 L 286 396 L 288 397 L 290 397 L 293 399 L 294 399 L 299 403 L 301 403 Q 301 404 303 404 L 305 406 Q 306 406 307 407 L 308 407 L 309 408 L 310 408 L 311 409 L 312 409 L 313 410 L 315 410 L 319 414 L 321 414 Q 321 415 323 415 L 328 420 L 330 420 L 333 422 L 334 422 L 334 424 Q 335 424 335 426 L 338 428 L 339 428 L 340 430 Q 340 431 341 432 L 341 433 L 342 434 L 342 436 L 344 438 L 344 439 L 346 440 L 348 440 Q 348 441 350 441 L 355 445 L 356 445 L 358 447 L 359 447 L 360 449 Q 360 450 361 451 L 361 452 L 364 455 L 364 456 L 369 461 Q 369 462 370 463 L 370 466 Q 371 466 371 468 L 376 472 Q 377 472 378 473 L 379 473 L 379 475 L 380 476 L 380 478 L 381 479 L 381 481 L 383 483 L 383 484 L 386 487 Q 386 488 387 489 L 387 490 L 388 491 L 388 493 L 389 494 L 389 512 L 392 515 L 392 516 L 395 519 L 395 520 L 397 522 L 397 523 L 403 528 L 406 528 L 409 530 L 410 530 L 412 533 Q 412 534 413 535 L 413 536 L 415 537 L 417 537 L 418 538 L 420 538 Q 420 539 422 539 L 425 543 L 425 544 L 428 546 Q 430 546 431 547 L 434 547 Q 434 548 436 548 L 438 550 L 439 550 L 440 552 L 440 553 L 444 556 L 446 556 L 447 557 L 449 557 Q 449 558 451 558 L 454 561 L 455 561 L 457 563 Q 458 563 459 564 L 460 564 L 461 565 L 462 565 L 463 566 L 466 566 L 467 567 L 469 567 Q 469 568 471 568 L 475 572 Q 476 572 477 573 L 481 573 L 482 574 L 485 574 Q 485 576 488 575 L 493 580 L 494 580 L 497 583 Q 499 583 500 584 L 502 584 L 507 590 L 507 591 L 510 593 L 511 593 L 514 595 L 515 595 L 516 596 L 517 596 L 518 597 L 519 597 L 526 604 Q 527 604 528 605 L 529 605 L 530 606 L 531 606 L 532 607 Q 534 607 535 608 L 537 608 L 539 610 Q 540 610 541 611 L 542 611 L 543 612 L 544 612 L 545 613 L 546 613 L 547 614 Q 549 614 550 615 L 552 615 L 553 616 L 555 616 L 558 618 L 559 618 L 560 619 L 561 619 L 562 621 L 562 622 L 565 624 L 566 624 L 568 626 Q 569 626 570 627 L 571 627 L 572 628 L 574 628 Q 574 629 576 629 L 584 637 L 585 637 L 591 643 L 592 643 L 595 646 Q 596 646 597 647 L 598 647 L 599 648 L 600 648 L 604 653 L 604 654 L 606 656 L 606 658 L 609 660 L 610 660 L 613 663 L 614 663 L 616 665 L 617 665 L 627 676 Q 627 677 628 678 L 628 679 L 630 681 Q 630 682 631 683 L 631 684 L 632 685 L 632 686 L 636 689 L 637 689 L 640 692 L 641 692 L 643 694 L 644 694 L 646 697 L 646 698 L 651 703 L 651 704 L 653 706 Q 653 707 654 708 L 654 709 L 655 710 L 655 711 L 657 713 L 657 714 L 660 717 L 660 718 L 664 721 L 665 721 L 672 728 L 673 728 L 675 730 Q 676 730 677 731 L 678 731 L 680 733 Q 681 733 682 734 L 683 734 L 685 736 Q 686 736 687 737 L 693 737 L 694 736 L 694 735 L 696 733 Q 696 731 697 731 L 697 725 L 696 724 L 696 722 Q 695 721 695 720 L 694 719 Q 695 716 693 716 L 693 714 L 692 713 L 692 711 L 691 710 L 691 707 L 690 706 L 690 703 Q 689 702 689 700 L 685 696 L 685 695 L 684 693 Q 682 693 682 692 L 681 692 L 680 691 L 679 691 L 678 690 L 677 690 L 674 687 L 673 687 L 664 679 L 664 678 L 661 675 Q 661 673 660 673 L 660 672 L 656 667 Q 656 665 655 665 L 655 664 L 654 663 L 654 661 L 653 661 Q 652 660 651 660 L 649 658 L 648 658 L 645 655 L 644 655 L 635 647 L 635 645 L 634 645 L 633 644 L 631 644 L 630 643 L 628 643 L 625 641 L 624 641 L 620 637 L 619 637 L 610 628 L 607 628 L 606 627 L 604 627 Q 603 626 602 626 L 597 621 L 596 621 L 592 618 L 592 617 L 586 610 L 584 610 L 581 608 L 580 608 L 579 607 L 578 607 L 576 605 L 575 605 L 569 599 L 565 599 L 562 597 L 561 597 L 553 589 Q 551 589 551 588 L 549 588 L 548 587 L 543 587 Q 542 586 540 586 L 539 585 L 537 585 L 535 583 Q 533 583 533 582 L 532 582 L 531 581 L 530 581 L 529 580 L 528 580 L 527 579 L 526 579 L 525 578 L 524 578 L 523 577 L 522 577 L 521 576 L 520 576 L 519 575 L 518 575 L 513 571 L 510 571 L 509 570 L 507 570 Q 506 569 505 569 L 504 568 L 502 568 L 499 566 L 498 566 L 497 565 L 496 565 L 494 563 Q 492 563 492 562 L 491 562 L 490 561 L 488 561 L 486 559 Q 484 559 484 558 L 483 558 L 482 557 L 481 557 L 480 556 L 479 556 L 478 555 L 477 555 L 476 554 L 475 554 L 474 553 L 473 553 L 471 551 L 470 551 L 467 548 L 466 548 L 464 546 L 463 546 L 459 543 L 459 542 L 457 540 L 457 538 Q 456 537 456 536 L 454 533 L 453 533 L 451 531 Q 449 531 449 530 L 447 530 L 445 528 Q 443 528 443 527 L 442 527 L 440 525 L 439 525 L 437 523 L 435 523 L 432 521 L 431 521 L 426 517 L 426 515 Q 425 514 425 513 L 422 509 Q 420 509 420 508 L 419 508 L 415 505 Q 415 503 414 503 L 414 497 L 413 496 L 413 492 L 413 491 L 412 491 L 409 489 L 408 489 L 404 486 Q 404 484 403 484 L 403 477 Q 402 476 402 475 L 399 471 L 397 471 L 397 470 L 396 469 L 396 467 L 395 466 L 395 459 L 394 457 L 392 457 L 389 455 L 388 455 L 385 453 Q 385 451 384 451 L 384 444 L 382 441 Q 380 441 380 440 L 379 440 L 378 439 L 376 439 L 373 437 L 372 437 L 371 436 L 370 436 L 368 434 L 366 434 L 366 433 Q 365 432 365 431 L 363 428 L 360 428 Q 359 427 358 427 L 354 424 L 354 422 L 351 418 L 349 418 L 348 417 L 346 417 L 346 416 L 344 414 L 344 412 L 343 412 L 340 410 L 339 410 L 338 409 L 337 409 L 336 408 L 335 408 L 334 407 Q 331 408 331 406 L 328 406 L 326 405 L 326 404 L 323 400 Q 320 401 320 399 L 318 399 L 315 397 L 312 397 L 309 395 L 308 395 L 307 394 L 306 394 L 305 393 Q 302 394 302 392 L 299 392 L 296 390 L 291 390 Z " /><path fill="rgb(253,253,253)" stroke="rgb(253,253,253)" stroke-width="0" opacity="1" d="M 0 0 L 0.5 0 L 1099.5 0 Q 1100.3 -0.3 1100 0.5 L 1100 314.5 L 1098.5 316 L 1069.5 316 L 1068.5 317 L 978.5 317 L 977.5 318 L 903.5 318 L 902.5 319 L 841.5 319 L 840.5 320 L 642.5 320 L 641.5 319 L 637.5 319 L 636.5 318 L 634.5 318 L 633.5 317 L 631.5 317 Q 631 315.5 628.5 316 L 626 313.5 L 626 311.5 L 625 310.5 L 625 307.5 Q 623.5 307 624 304.5 Q 625.3 304.3 625 302.5 L 628 299.5 Q 627.8 297.7 629 297.5 Q 628.5 295 630 294.5 L 630 291.5 L 629 290.5 L 629 287.5 L 628 286.5 L 628 283.5 Q 626.5 283 627 280.5 L 626 279.5 L 626 278.5 L 625 277.5 L 625 276.5 L 624 275.5 L 624 274.5 L 623 273.5 L 623 272.5 Q 621.7 272.3 622 270.5 L 620 268.5 L 620 267.5 L 618.5 266 L 617.5 266 Q 617.2 264.7 615.5 265 L 610.5 261 L 608.5 261 L 607.5 260 L 605.5 260 L 604.5 259 L 602.5 259 L 601.5 258 L 599.5 258 L 598.5 257 Q 596 257.5 595.5 256 Q 592.3 256.8 591.5 255 L 587.5 255 L 586.5 254 L 580.5 254 L 579.5 253 L 575.5 253 L 574.5 252 L 567.5 252 L 566.5 251 L 556.5 251 L 555.5 250 L 533.5 250 L 532.5 249 L 525.5 249 L 524.5 250 L 499.5 250 L 498.5 251 L 486.5 251 L 485.5 252 L 476.5 252 L 475.5 253 L 467.5 253 L 466.5 254 L 460.5 254 L 459.5 255 L 454.5 255 L 453.5 256 L 449.5 256 L 448.5 257 L 444.5 257 L 443.5 258 L 439.5 258 L 438.5 259 L 434.5 259 L 433.5 260 Q 431 259.5 430.5 261 L 427.5 261 L 426.5 262 L 424.5 262 Q 424 263.5 421.5 263 L 418.5 265 L 416.5 265 L 415.5 266 L 414.5 266 L 413.5 267 L 412.5 267 Q 412.3 268.3 410.5 268 L 405 273.5 L 405 274.5 L 404 275.5 L 404 276.5 L 403 277.5 L 403 278.5 L 401 281.5 L 401 284.5 L 400 285.5 L 400 286.5 L 398 289.5 L 398 291.5 L 396 294.5 L 396 301.5 L 395 302.5 L 395 307.5 Q 393.5 308 394 310.5 Q 392.7 310.8 393 312.5 L 390.5 315 L 389.5 315 L 386.5 317 L 382.5 317 L 381.5 318 L 377.5 318 L 376.5 319 L 364.5 319 L 363.5 320 L 265.5 320 L 264.5 319 L 231.5 319 L 230.5 320 L 226.5 320 L 225.5 319 L 208.5 319 L 207.5 320 L 203.5 320 L 202.5 321 L 198.5 321 L 197.5 322 L 196.5 322 Q 196.2 323.3 194.5 323 L 191 326.5 L 191 327.5 L 192.5 329 Q 195.8 328.3 196.5 330 L 206.5 330 L 207.5 331 L 347.5 331 L 348.5 332 L 371.5 332 L 372.5 333 L 376.5 333 L 377.5 334 L 379.5 334 L 380.5 335 L 382.5 335 L 383.5 336 L 385 336 L 385 338 L 383.5 338 L 381.5 340 Q 379.7 339.7 379.5 341 L 377.5 341 L 376.5 342 L 375.5 342 L 374.5 343 L 373.5 343 L 370.5 345 L 368.5 345 L 367.5 346 Q 365 345.5 364.5 347 L 361.5 347 L 360.5 348 Q 358 347.5 357.5 349 L 354.5 349 Q 353.8 350.8 350.5 350 L 349.5 351 Q 347 350.5 346.5 352 L 343.5 352 Q 342.8 353.8 339.5 353 L 338.5 354 Q 336 353.5 335.5 355 L 332.5 355 L 331.5 356 L 328.5 356 L 327.5 357 L 323.5 357 L 322.5 358 Q 319.3 357.3 318.5 359 L 314.5 359 L 313.5 360 L 308.5 360 L 307.5 361 L 303.5 361 L 302.5 362 L 298.5 362 L 297.5 363 L 291.5 363 L 290.5 364 L 282.5 364 L 281.5 365 L 276.5 365 L 275.5 366 L 268.5 366 L 267.5 367 L 260.5 367 L 259.5 368 L 251.5 368 L 250.5 369 L 242.5 369 L 241.5 370 L 234.5 370 L 233.5 371 L 222.5 371 L 221.5 372 L 212.5 372 L 211.5 373 L 199.5 373 L 198.5 374 L 188.5 374 L 187.5 375 L 177.5 375 L 176.5 376 L 165.5 376 L 164.5 377 L 155.5 377 L 154.5 378 L 147.5 378 L 146.5 379 L 138.5 379 L 137.5 380 L 128.5 380 L 127.5 381 L 121.5 381 L 120.5 382 L 113.5 382 L 112.5 383 L 104.5 383 L 103.5 384 L 94.5 384 L 93.5 385 L 84.5 385 L 83.5 386 L 77.5 386 L 76.5 387 L 71.5 387 L 70.5 388 L 64.5 388 L 63.5 389 L 59.5 389 L 58.5 390 L 53.5 390 L 52.5 391 L 48.5 391 L 47.5 392 L 43.5 392 L 42.5 393 L 38.5 393 L 37.5 394 L 34.5 394 L 33.5 395 Q 30.3 394.3 29.5 396 L 25.5 396 L 24.5 397 L 21.5 397 L 20.5 398 Q 17.3 397.3 16.5 399 L 12.5 399 L 11.5 400 L 8.5 400 L 7.5 401 L 4.5 401 L 3.5 402 Q 0.8 402 0 402 L 0 401.5 L 0 0.5 L 0 0 Z " /><path fill="rgb(253,253,253)" stroke="rgb(253,253,253)" stroke-width="0" opacity="1" d="M 1089.5 326 L 1099.5 326 Q 1100.3 325.8 1100 326.5 L 1100 445.5 L 1100 446 L 1098.5 446 L 1097.5 445 L 1095.5 445 L 1094.5 444 L 1093.5 444 L 1092.5 443 L 1091.5 443 L 1090.5 442 L 1089.5 442 L 1088.5 441 L 1087.5 441 L 1086.5 440 L 1085.5 440 L 1084.5 439 L 1083.5 439 L 1082.5 438 L 1081.5 438 L 1080.5 437 L 1079.5 437 L 1078.5 436 L 1077.5 436 Q 1077.2 434.8 1075.5 435 L 1073.5 433 L 1072.5 433 L 1070.5 431 L 1069.5 431 Q 1069.3 429.7 1067.5 430 L 1065.5 428 L 1064.5 428 Q 1064.3 426.7 1062.5 427 L 1060.5 425 L 1058.5 425 L 1055.5 423 L 1053.5 423 L 1052.5 422 L 1051.5 422 L 1050.5 421 L 1049.5 421 L 1048.5 420 L 1047.5 420 L 1046.5 419 L 1045.5 419 Q 1045.3 417.7 1043.5 418 L 1041.5 416 L 1040.5 416 L 1039.5 415 L 1038.5 415 L 1037.5 414 L 1036.5 414 L 1033.5 412 L 1031.5 412 L 1030.5 411 L 1028.5 411 Q 1028 409.5 1025.5 410 L 1022.5 408 L 1020.5 408 L 1017.5 406 L 1015.5 406 L 1014.5 405 L 1013.5 405 L 1010.5 403 L 1008.5 403 L 1007.5 402 L 1003.5 402 L 1002.5 401 L 1000.5 401 L 999.5 400 L 997.5 400 Q 997 398.5 994.5 399 L 991.5 397 L 988.5 397 L 987.5 396 L 984.5 396 Q 983.8 394.3 980.5 395 L 979.5 394 Q 977 394.5 976.5 393 L 973.5 393 L 972.5 392 L 967.5 392 L 966.5 391 Q 964 391.5 963.5 390 L 960.5 390 L 959.5 389 L 956.5 389 L 955.5 388 L 950.5 388 L 949.5 387 L 944.5 387 L 943.5 386 Q 940.3 386.8 939.5 385 L 935.5 385 L 934.5 384 L 927.5 384 L 926.5 383 L 920.5 383 L 919.5 382 L 914.5 382 L 913.5 381 L 908.5 381 L 907.5 380 L 899.5 380 L 898.5 379 L 891.5 379 L 890.5 378 L 884.5 378 L 883.5 377 L 877.5 377 L 876.5 376 L 871.5 376 L 870.5 375 L 862.5 375 L 861.5 374 L 856.5 374 L 855.5 373 Q 852.3 373.8 851.5 372 L 846.5 372 L 845.5 371 L 838.5 371 L 837.5 370 L 833.5 370 L 832.5 369 L 827.5 369 L 826.5 368 L 820.5 368 L 819.5 367 L 811.5 367 L 810.5 366 L 803.5 366 L 802.5 365 L 793.5 365 L 792.5 364 L 778.5 364 L 777.5 363 L 767.5 363 L 766.5 362 L 757.5 362 L 756.5 361 L 749.5 361 L 748.5 360 L 739.5 360 L 738.5 359 L 729.5 359 L 728.5 358 L 723.5 358 L 722.5 357 L 715.5 357 L 714.5 356 L 707.5 356 L 706.5 355 L 701.5 355 L 700.5 354 L 696.5 354 L 695.5 353 L 690.5 353 L 689.5 352 L 683.5 352 L 682.5 351 L 679.5 351 L 678.5 350 Q 675.3 350.8 674.5 349 L 669.5 349 L 668.5 348 L 666.5 348 L 665.5 347 Q 663 347.5 662.5 346 L 659.5 346 L 658.5 345 L 654.5 345 L 653.5 344 L 652.5 344 L 649.5 342 L 646.5 342 Q 646.3 340.8 644.5 341 L 641.5 338 Q 640.3 338.3 640 337.5 L 641.5 336 Q 643.2 336.2 643.5 335 Q 646 335.5 646.5 334 L 651.5 334 L 652.5 333 L 663.5 333 L 664.5 332 L 694.5 332 Q 694.7 330.8 696.5 331 L 697.5 332 L 721.5 332 L 722.5 331 L 780.5 331 L 781.5 330 L 886.5 330 L 887.5 329 L 959.5 329 L 960.5 328 L 1007.5 328 L 1008.5 327 L 1088.5 327 L 1089.5 326 Z " /><path fill="rgb(253,253,253)" stroke="rgb(253,253,253)" stroke-width="0" opacity="1" d="M 290.5 390 L 295.5 390 L 298.5 392 L 301.5 392 Q 302 393.5 304.5 393 L 305.5 394 L 306.5 394 L 307.5 395 L 308.5 395 L 311.5 397 L 314.5 397 L 317.5 399 L 319.5 399 Q 320 400.5 322.5 400 L 326 403.5 L 326 404.5 L 327.5 406 L 330.5 406 Q 331 407.5 333.5 407 L 334.5 408 L 335.5 408 L 336.5 409 L 337.5 409 L 338.5 410 L 339.5 410 L 342.5 412 L 344 412 L 344 413.5 L 346 415.5 L 346 417 L 347.5 417 L 348.5 418 L 350.5 418 L 354 421.5 L 354 423.5 L 357.5 427 Q 359.2 426.7 359.5 428 L 362.5 428 L 365 430.5 Q 364.7 432.2 366 432.5 L 366 434 L 367.5 434 L 369.5 436 L 370.5 436 L 371.5 437 L 372.5 437 L 375.5 439 L 377.5 439 L 378.5 440 L 379.5 440 Q 379.7 441.2 381.5 441 L 384 443.5 L 384 450.5 Q 385.3 450.8 385 452.5 L 387.5 455 L 388.5 455 L 391.5 457 L 393.5 457 L 395 458.5 L 395 465.5 L 396 466.5 L 396 468.5 L 397 469.5 L 397 471 L 398.5 471 L 402 474.5 Q 401.7 476.2 403 476.5 L 403 483.5 Q 404.3 483.7 404 485.5 L 407.5 489 L 408.5 489 L 411.5 491 L 413 491 L 413 491.5 L 413 495.5 L 414 496.5 L 414 502.5 Q 415.3 502.8 415 504.5 L 418.5 508 L 419.5 508 Q 419.8 509.3 421.5 509 L 425 512.5 Q 424.7 514.2 426 514.5 L 426 516.5 L 430.5 521 L 431.5 521 L 434.5 523 L 436.5 523 L 438.5 525 L 439.5 525 L 441.5 527 L 442.5 527 Q 442.7 528.3 444.5 528 L 446.5 530 L 448.5 530 Q 448.8 531.2 450.5 531 L 452.5 533 L 453.5 533 L 456 535.5 Q 455.7 537.2 457 537.5 L 457 539.5 L 459 541.5 L 459 542.5 L 462.5 546 L 463.5 546 L 465.5 548 L 466.5 548 L 469.5 551 L 470.5 551 L 472.5 553 L 473.5 553 L 474.5 554 L 475.5 554 L 476.5 555 L 477.5 555 L 478.5 556 L 479.5 556 L 480.5 557 L 481.5 557 L 482.5 558 L 483.5 558 Q 483.7 559.2 485.5 559 L 487.5 561 L 489.5 561 L 490.5 562 L 491.5 562 Q 491.7 563.3 493.5 563 L 495.5 565 L 496.5 565 L 497.5 566 L 498.5 566 L 501.5 568 L 503.5 568 L 504.5 569 Q 506.2 568.7 506.5 570 L 508.5 570 L 509.5 571 L 512.5 571 L 517.5 575 L 518.5 575 L 519.5 576 L 520.5 576 L 521.5 577 L 522.5 577 L 523.5 578 L 524.5 578 L 525.5 579 L 526.5 579 L 527.5 580 L 528.5 580 L 529.5 581 L 530.5 581 L 531.5 582 L 532.5 582 Q 532.8 583.3 534.5 583 L 536.5 585 L 538.5 585 L 539.5 586 Q 542 585.5 542.5 587 L 547.5 587 L 548.5 588 L 550.5 588 Q 550.8 589.3 552.5 589 L 560.5 597 L 561.5 597 L 564.5 599 L 568.5 599 L 574.5 605 L 575.5 605 L 577.5 607 L 578.5 607 L 579.5 608 L 580.5 608 L 583.5 610 L 585.5 610 L 592 616.5 L 592 617.5 L 595.5 621 L 596.5 621 L 601.5 626 Q 603.2 625.7 603.5 627 L 605.5 627 L 606.5 628 L 609.5 628 L 618.5 637 L 619.5 637 L 623.5 641 L 624.5 641 L 627.5 643 L 629.5 643 L 630.5 644 L 632.5 644 L 633.5 645 L 635 645 L 635 646.5 L 643.5 655 L 644.5 655 L 647.5 658 L 648.5 658 L 650.5 660 Q 652.2 659.7 652.5 661 L 654 661 L 654 662.5 L 655 663.5 L 655 664.5 Q 656.3 664.8 656 666.5 L 660 671.5 L 660 672.5 Q 661.3 672.8 661 674.5 L 664 677.5 L 664 678.5 L 672.5 687 L 673.5 687 L 676.5 690 L 677.5 690 L 678.5 691 L 679.5 691 L 680.5 692 L 681.5 692 Q 681.8 693.2 683.5 693 L 685 694.5 L 685 695.5 L 689 699.5 Q 688.5 702 690 702.5 L 690 705.5 L 691 706.5 L 691 709.5 L 692 710.5 L 692 712.5 L 693 713.5 L 693 715.5 Q 694.5 716 694 718.5 L 695 719.5 Q 694.7 721.2 696 721.5 L 696 723.5 L 697 724.5 L 697 730.5 Q 695.8 730.7 696 732.5 L 694 734.5 L 694 735.5 L 692.5 737 L 686.5 737 Q 686.3 735.8 684.5 736 L 682.5 734 L 681.5 734 Q 681.2 732.7 679.5 733 L 677.5 731 L 676.5 731 Q 676.2 729.8 674.5 730 L 672.5 728 L 671.5 728 L 664.5 721 L 663.5 721 L 660 717.5 L 660 716.5 L 657 713.5 L 657 712.5 L 655 710.5 L 655 709.5 L 654 708.5 L 654 707.5 Q 652.7 707.2 653 705.5 L 651 703.5 L 651 702.5 L 646 697.5 L 646 696.5 L 643.5 694 L 642.5 694 L 640.5 692 L 639.5 692 L 636.5 689 L 635.5 689 L 632 685.5 L 632 684.5 L 631 683.5 L 631 682.5 Q 629.7 682.3 630 680.5 L 628 678.5 L 628 677.5 Q 626.8 677.3 627 675.5 L 616.5 665 L 615.5 665 L 613.5 663 L 612.5 663 L 609.5 660 L 608.5 660 L 606 657.5 L 606 655.5 L 604 653.5 L 604 652.5 L 599.5 648 L 598.5 648 L 597.5 647 L 596.5 647 Q 596.3 645.8 594.5 646 L 591.5 643 L 590.5 643 L 584.5 637 L 583.5 637 L 575.5 629 Q 573.7 629.2 573.5 628 L 571.5 628 L 570.5 627 L 569.5 627 Q 569.3 625.7 567.5 626 L 565.5 624 L 564.5 624 L 562 621.5 L 562 620.5 L 560.5 619 L 559.5 619 L 558.5 618 L 557.5 618 L 554.5 616 L 552.5 616 L 551.5 615 L 549.5 615 Q 549 613.5 546.5 614 L 545.5 613 L 544.5 613 L 543.5 612 L 542.5 612 L 541.5 611 L 540.5 611 Q 540.3 609.8 538.5 610 L 536.5 608 L 534.5 608 Q 534 606.5 531.5 607 L 530.5 606 L 529.5 606 L 528.5 605 L 527.5 605 Q 527.2 603.7 525.5 604 L 518.5 597 L 517.5 597 L 516.5 596 L 515.5 596 L 514.5 595 L 513.5 595 L 510.5 593 L 509.5 593 L 507 590.5 L 507 589.5 L 501.5 584 L 499.5 584 Q 499 582.5 496.5 583 L 493.5 580 L 492.5 580 L 487.5 575 Q 485 575.5 484.5 574 L 481.5 574 L 480.5 573 L 476.5 573 Q 476.2 571.8 474.5 572 L 470.5 568 Q 468.7 568.2 468.5 567 L 466.5 567 L 465.5 566 L 462.5 566 L 461.5 565 L 460.5 565 L 459.5 564 L 458.5 564 Q 458.2 562.8 456.5 563 L 454.5 561 L 453.5 561 L 450.5 558 Q 448.7 558.2 448.5 557 L 446.5 557 L 445.5 556 L 443.5 556 L 440 552.5 L 440 551.5 L 438.5 550 L 437.5 550 L 435.5 548 Q 433.7 548.2 433.5 547 L 430.5 547 Q 430 545.5 427.5 546 L 425 543.5 L 425 542.5 L 421.5 539 Q 419.7 539.2 419.5 538 L 417.5 538 L 416.5 537 L 414.5 537 L 413 535.5 L 413 534.5 Q 411.7 534.3 412 532.5 L 409.5 530 L 408.5 530 L 405.5 528 L 402.5 528 L 397 522.5 L 397 521.5 L 395 519.5 L 395 518.5 L 392 515.5 L 392 514.5 L 389 511.5 L 389 493.5 L 388 492.5 L 388 490.5 L 387 489.5 L 387 488.5 Q 385.8 488.2 386 486.5 L 383 483.5 L 383 482.5 L 381 480.5 L 381 478.5 L 380 477.5 L 380 475.5 L 379 474.5 L 379 473 L 377.5 473 Q 377.2 471.8 375.5 472 L 371 467.5 Q 371.2 465.7 370 465.5 L 370 462.5 Q 368.7 462.3 369 460.5 L 364 455.5 L 364 454.5 L 361 451.5 L 361 450.5 Q 359.7 450.3 360 448.5 L 358.5 447 L 357.5 447 L 355.5 445 L 354.5 445 L 349.5 441 Q 347.7 441.2 347.5 440 L 345.5 440 L 344 438.5 L 344 437.5 L 342 435.5 L 342 433.5 L 341 432.5 L 341 431.5 Q 339.8 431.2 340 429.5 L 338.5 428 L 337.5 428 L 335 425.5 Q 335.2 423.7 334 423.5 L 334 422 L 332.5 422 L 329.5 420 L 327.5 420 L 322.5 415 Q 320.7 415.2 320.5 414 L 318.5 414 L 314.5 410 L 312.5 410 L 311.5 409 L 310.5 409 L 309.5 408 L 308.5 408 L 307.5 407 L 306.5 407 Q 306.3 405.8 304.5 406 L 302.5 404 Q 300.7 404.2 300.5 403 L 298.5 403 L 293.5 399 L 292.5 399 L 289.5 397 L 287.5 397 L 286 395.5 L 286 393.5 L 288.5 391 Q 290.2 391.2 290.5 390 Z " /><path fill="rgb(253,253,253)" stroke="rgb(253,253,253)" stroke-width="0" opacity="1" d="M 989.5 539 Q 992 538.5 992.5 540 L 996.5 540 L 997.5 541 L 1000.5 541 L 1001.5 542 Q 1004.8 541.3 1005.5 543 L 1008.5 543 L 1009.5 544 L 1010.5 544 L 1011.5 545 L 1012.5 545 L 1013.5 546 L 1014.5 546 L 1015.5 547 L 1016.5 547 L 1017.5 548 L 1018.5 548 L 1019.5 549 L 1020.5 549 L 1021.5 550 L 1022.5 550 L 1023.5 551 L 1024.5 551 L 1025.5 552 L 1026.5 552 L 1029.5 554 L 1030.5 554 L 1031.5 555 L 1033.5 555 L 1034.5 556 L 1037.5 556 Q 1038 557.5 1040.5 557 L 1042.5 559 L 1043.5 559 Q 1043.8 560.3 1045.5 560 L 1047.5 562 L 1048.5 562 Q 1048.7 563.3 1050.5 563 L 1055.5 567 L 1056.5 567 L 1057.5 568 L 1058.5 568 L 1059.5 569 L 1060.5 569 L 1061.5 570 L 1062.5 570 L 1063.5 571 L 1064.5 571 L 1067.5 573 L 1069.5 573 L 1070.5 574 L 1071.5 574 L 1072.5 575 L 1073.5 575 Q 1073.7 576.2 1075.5 576 L 1077.5 578 L 1078.5 578 L 1079.5 579 L 1080.5 579 L 1081.5 580 L 1082.5 580 Q 1082.7 581.2 1084.5 581 L 1086.5 583 L 1087.5 583 Q 1087.8 584.3 1089.5 584 L 1091.5 586 Q 1093.2 585.7 1093.5 587 L 1095.5 587 L 1098.5 589 L 1100 589 L 1100 589.5 L 1100 815.5 L 1099.5 816 L 1098.5 815 L 1097.5 815 L 1096.5 814 L 1095.5 814 Q 1095.2 812.8 1093.5 813 L 1091.5 811 Q 1089.7 811.2 1089.5 810 L 1087.5 810 L 1084.5 808 L 1082.5 808 Q 1082 806.5 1079.5 807 L 1078.5 806 L 1077.5 806 L 1076.5 805 L 1075.5 805 L 1074.5 804 L 1073.5 804 Q 1073.3 802.7 1071.5 803 L 1069.5 801 L 1068.5 801 L 1067.5 800 L 1066.5 800 L 1065.5 799 L 1064.5 799 L 1063.5 798 L 1062.5 798 Q 1062.2 796.7 1060.5 797 L 1058.5 795 L 1057.5 795 Q 1057.3 793.7 1055.5 794 L 1053.5 792 L 1052.5 792 L 1049.5 789 L 1048.5 789 L 1046.5 787 L 1045.5 787 Q 1045.3 785.8 1043.5 786 L 1038.5 782 L 1037.5 782 Q 1037.3 780.8 1035.5 781 L 1027 772.5 L 1027 771.5 L 1024 768.5 L 1024 767.5 L 1021 764.5 L 1021 763.5 L 1019 761.5 L 1019 760.5 L 1015 755.5 L 1015 754.5 L 1014 753.5 L 1014 752.5 L 1013 751.5 L 1013 750.5 L 1012 749.5 L 1012 748.5 L 1011 747.5 L 1011 746.5 L 1010 745.5 L 1010 744.5 L 1009 743.5 L 1009 742.5 L 1008 741.5 L 1008 740.5 L 1007 739.5 L 1007 738.5 L 1006 737.5 L 1006 736.5 L 1005 735.5 L 1005 734.5 L 1003 731.5 L 1003 729.5 L 1002 728.5 Q 1002.5 726 1001 725.5 L 1001 722.5 L 1000 721.5 L 1000 715.5 L 999 714.5 L 999 705.5 L 998 704.5 L 998 700.5 L 997 699.5 L 997 695.5 L 996 694.5 L 996 689.5 L 995 688.5 L 995 686.5 L 994 685.5 Q 994.5 683 993 682.5 L 993 679.5 L 992 678.5 L 992 671.5 L 994 668.5 L 994 656.5 L 993 655.5 L 993 649.5 L 992 648.5 L 992 639.5 L 993 638.5 L 993 637.5 L 995 634.5 L 995 632.5 L 994 631.5 L 994 626.5 L 993 625.5 L 993 623.5 L 992 622.5 Q 992.5 620 991 619.5 L 991 616.5 Q 989.2 615.8 990 612.5 L 991 611.5 L 991 610.5 L 993 607.5 L 993 600.5 L 992 599.5 L 992 596.5 L 991 595.5 L 991 593.5 L 990 592.5 Q 990.5 590 989 589.5 L 989 581.5 L 991 579.5 L 991 575.5 L 990 574.5 L 990 572.5 L 989 571.5 L 989 569.5 L 988 568.5 L 988 566.5 L 987 565.5 Q 987.5 563 986 562.5 L 986 553.5 Q 987.3 553.3 987 551.5 L 989 549.5 L 989 548.5 L 988 547.5 L 988 540.5 L 989.5 539 Z " /></svg>