<svg width="11.00cm" height="13.00cm" viewBox="0 0 1100 1300" version="1.1" xmlns="http://www.w3.org/2000/svg" desc="Created with imagetracer.js version 1.2.6" ><path fill="rgb(0,0,0)" stroke="rgb(0,0,0)" stroke-width="0" opacity="1" d="M 1083.5 191 L 1084.5 192 L 1091.5 192 Q 1092.3 193.7 1095.5 193 Q 1096 194.5 1098.5 194 L 1100 195.5 L 1100 197 Q 1099.5 197 1097.5 197 L 1096.5 196 L 1094.5 196 L 1093.5 195 L 1091.5 195 L 1090.5 194 Q 1088 194.5 1087.5 193 L 1084.5 193 L 1083 191.5 L 1083.5 191 Z " /><path fill="rgb(0,0,0)" stroke="rgb(0,0,0)" stroke-width="0" opacity="1" d="M 557.5 195 L 571.5 195 L 572.5 196 L 589.5 196 L 590.5 197 L 596.5 197 L 597.5 198 L 603.5 198 L 604.5 199 L 607.5 199 L 608.5 200 L 611.5 200 L 612.5 201 L 615.5 201 L 618.5 203 L 620.5 203 Q 620.8 204.3 622.5 204 L 624.5 206 L 625.5 206 L 629 209.5 L 629 210.5 Q 630.2 210.7 630 212.5 L 632 214.5 L 632 215.5 L 634 218.5 Q 633.5 221 635 221.5 L 635 226.5 L 633 229.5 L 633 233.5 Q 634.3 233.7 634 235.5 L 636.5 238 L 639.5 238 L 640.5 239 Q 643 238.5 643.5 240 L 799.5 240 L 800.5 239 L 869.5 239 L 870.5 238 L 929.5 238 L 930.5 237 L 977.5 237 L 978.5 236 L 1024.5 236 L 1025.5 235 L 1077.5 235 L 1078.5 234 L 1099.5 234 L 1100 234 L 1100 234.5 L 1100 239.5 L 1100 240 L 1099.5 240 L 1089.5 240 L 1088.5 241 L 1045.5 241 L 1044.5 242 L 986.5 242 L 985.5 243 L 951.5 243 L 950.5 244 L 874.5 244 L 873.5 245 L 797.5 245 L 796.5 246 L 704.5 246 L 703.5 247 L 656.5 247 L 655.5 248 L 648.5 248 Q 648 249.5 645.5 249 L 644 250.5 Q 644.3 251.3 645.5 251 L 646.5 252 L 647.5 252 L 648.5 253 L 650.5 253 L 651.5 254 L 653.5 254 L 654.5 255 Q 657 254.5 657.5 256 Q 660.8 255.2 661.5 257 L 665.5 257 L 666.5 258 Q 669.8 257.3 670.5 259 L 676.5 259 L 677.5 260 L 682.5 260 L 683.5 261 L 689.5 261 L 690.5 262 L 697.5 262 L 698.5 263 L 706.5 263 L 707.5 264 L 716.5 264 L 717.5 265 L 727.5 265 L 728.5 266 L 742.5 266 L 743.5 267 L 751.5 267 L 752.5 268 L 760.5 268 L 761.5 269 L 766.5 269 L 767.5 270 L 773.5 270 L 774.5 271 L 779.5 271 L 780.5 272 L 786.5 272 L 787.5 273 L 794.5 273 L 795.5 274 L 801.5 274 L 802.5 275 L 810.5 275 L 811.5 276 L 817.5 276 L 818.5 277 L 824.5 277 L 825.5 278 L 830.5 278 L 831.5 279 L 836.5 279 L 837.5 280 L 841.5 280 L 842.5 281 Q 845.7 280.3 846.5 282 L 850.5 282 L 851.5 283 L 854.5 283 L 855.5 284 L 858.5 284 Q 859.2 285.8 862.5 285 L 863.5 286 Q 866 285.5 866.5 287 L 869.5 287 L 870.5 288 L 872.5 288 L 875.5 290 L 877.5 290 L 880.5 292 L 883.5 292 L 884.5 293 L 885.5 293 L 886.5 294 L 887.5 294 L 888.5 295 L 889.5 295 L 890.5 296 L 891.5 296 L 892.5 297 L 893.5 297 L 896.5 299 L 898.5 299 L 899.5 300 L 900.5 300 Q 900.8 301.3 902.5 301 L 904.5 303 L 905.5 303 L 906.5 304 L 907.5 304 Q 907.8 305.3 909.5 305 L 911.5 307 Q 913.2 306.7 913.5 308 L 915.5 308 L 916.5 309 L 917.5 309 L 918.5 310 L 919.5 310 L 920.5 311 L 921.5 311 L 922.5 312 L 923.5 312 L 924.5 313 L 925.5 313 L 926.5 314 L 927.5 314 L 930.5 316 L 932.5 316 L 935.5 318 L 937.5 318 L 938.5 319 L 940.5 319 L 941.5 320 L 942.5 320 L 945.5 322 L 947.5 322 L 948.5 323 L 949.5 323 L 952.5 325 L 954.5 325 L 955.5 326 L 956.5 326 L 957.5 327 L 958.5 327 L 959.5 328 L 960.5 328 Q 960.7 329.3 962.5 329 L 964.5 331 L 965.5 331 Q 965.7 332.3 967.5 332 L 969.5 334 L 970.5 334 L 975.5 338 L 976.5 338 Q 976.7 339.2 978.5 339 L 980.5 341 L 981.5 341 L 982.5 342 L 983.5 342 L 986.5 344 L 988.5 344 L 989.5 345 L 990.5 345 L 991.5 346 L 992.5 346 L 993.5 347 L 994.5 347 L 997.5 349 L 999.5 349 L 1002.5 351 L 1004.5 351 Q 1005 352.5 1007.5 352 L 1010.5 354 L 1012.5 354 L 1015.5 356 L 1017.5 356 L 1018.5 357 Q 1020.2 356.7 1020.5 358 L 1022.5 358 L 1025.5 360 L 1027.5 360 L 1030.5 362 L 1032.5 362 L 1033.5 363 L 1034.5 363 L 1035.5 364 L 1036.5 364 L 1037.5 365 L 1038.5 365 L 1039.5 366 L 1040.5 366 L 1041.5 367 L 1042.5 367 L 1045.5 369 L 1047.5 369 L 1048.5 370 L 1049.5 370 L 1052.5 372 L 1054.5 372 L 1055.5 373 L 1056.5 373 L 1057.5 374 L 1058.5 374 L 1059.5 375 L 1060.5 375 Q 1060.8 376.3 1062.5 376 L 1064.5 378 L 1065.5 378 L 1066.5 379 L 1067.5 379 L 1068.5 380 L 1069.5 380 Q 1069.8 381.3 1071.5 381 L 1073.5 383 L 1074.5 383 L 1075.5 384 L 1076.5 384 L 1077.5 385 L 1078.5 385 L 1079.5 386 L 1080.5 386 L 1081.5 387 L 1082.5 387 L 1083.5 388 L 1084.5 388 L 1085.5 389 L 1086.5 389 L 1087.5 390 L 1088.5 390 L 1089.5 391 L 1090.5 391 L 1091.5 392 L 1092.5 392 L 1093.5 393 L 1094.5 393 Q 1094.8 394.2 1096.5 394 L 1098.5 396 L 1100 396 L 1100 396.5 L 1100 459.5 Q 1100.4 460.5 1098.5 460 L 1095.5 458 L 1093.5 458 L 1090.5 456 L 1088.5 456 L 1087.5 455 L 1086.5 455 L 1083.5 453 L 1081.5 453 L 1080.5 452 L 1079.5 452 L 1078.5 451 L 1077.5 451 L 1076.5 450 L 1075.5 450 L 1072.5 448 L 1070.5 448 L 1069.5 447 L 1067.5 447 L 1064.5 445 L 1062.5 445 L 1059.5 443 L 1057.5 443 L 1056.5 442 L 1055.5 442 L 1054.5 441 L 1053.5 441 L 1052.5 440 L 1051.5 440 L 1050.5 439 L 1049.5 439 L 1046.5 437 L 1043.5 437 Q 1042.8 435.3 1039.5 436 L 1036.5 434 L 1034.5 434 L 1031.5 432 L 1029.5 432 L 1026.5 430 L 1024.5 430 Q 1024.3 428.7 1022.5 429 L 1021.5 428 L 1019.5 428 L 1018.5 427 L 1016.5 427 L 1013.5 425 L 1011.5 425 L 1008.5 423 L 1006.5 423 L 1005.5 422 L 1004.5 422 L 1001.5 420 L 999.5 420 Q 999 418.5 996.5 419 L 995.5 418 L 994.5 418 L 993.5 417 L 992.5 417 L 989.5 415 L 987.5 415 L 986.5 414 L 984.5 414 L 981.5 412 L 979.5 412 L 978.5 411 L 977.5 411 L 976.5 410 L 975.5 410 L 974.5 409 L 973.5 409 L 972.5 408 L 971.5 408 L 968.5 406 L 966.5 406 L 965.5 405 L 963.5 405 L 960.5 403 L 958.5 403 L 957.5 402 L 956.5 402 L 955.5 401 L 954.5 401 L 951.5 399 L 949.5 399 L 948.5 398 L 946.5 398 L 943.5 396 L 941.5 396 L 940.5 395 L 939.5 395 L 938.5 394 L 937.5 394 L 936.5 393 L 935.5 393 L 934.5 392 L 933.5 392 L 930.5 390 L 928.5 390 L 925.5 388 L 923.5 388 L 922.5 387 L 921.5 387 L 920.5 386 L 919.5 386 L 918.5 385 L 917.5 385 L 916.5 384 L 915.5 384 L 914.5 383 L 913.5 383 L 910.5 381 L 908.5 381 L 905.5 379 L 903.5 379 L 901.5 377 L 900.5 377 L 899.5 376 L 898.5 376 L 895.5 374 L 893.5 374 L 892.5 373 L 891.5 373 L 890.5 372 L 889.5 372 L 888.5 371 L 887.5 371 L 886.5 370 L 885.5 370 L 884.5 369 L 883.5 369 L 882.5 368 L 881.5 368 L 880.5 367 L 879.5 367 L 876.5 365 L 874.5 365 Q 874 363.5 871.5 364 L 870.5 363 Q 868.7 363.2 868.5 362 L 866.5 362 L 865.5 361 L 864.5 361 L 861.5 359 Q 858.3 359.8 857.5 358 L 851.5 358 L 850.5 359 Q 849.3 358.8 849 359.5 Q 850.2 359.7 850 361.5 L 848 363.5 L 848 370.5 L 849 371.5 L 849 375.5 L 847 378.5 L 848 379.5 Q 847.2 382.7 849 383.5 L 849 388.5 L 847 391.5 L 847 394.5 L 848 395.5 L 848 400.5 L 847 401.5 Q 847.5 404 846 404.5 L 846 409.5 Q 847.3 409.8 847 411.5 L 846 412.5 Q 846.5 415 845 415.5 L 845 423.5 L 846 424.5 L 846 429.5 Q 847.3 429.7 847 431.5 Q 845.3 432.3 846 435.5 L 847 436.5 L 847 438.5 Q 848.5 439 848 441.5 L 849 442.5 L 849 443.5 L 850 444.5 L 850 445.5 Q 851.2 445.8 851 447.5 L 853 449.5 L 853 450.5 L 862.5 460 L 863.5 460 L 865.5 462 Q 867.2 461.7 867.5 463 L 869.5 463 L 870.5 464 L 871.5 464 L 872.5 465 L 873.5 465 L 874.5 466 L 875.5 466 L 878.5 468 L 880.5 468 L 881.5 469 L 883.5 469 L 886.5 471 L 888.5 471 Q 889 472.5 891.5 472 L 894.5 474 L 896.5 474 Q 897 475.5 899.5 475 L 900.5 476 L 901.5 476 L 902.5 477 L 903.5 477 L 904.5 478 L 905.5 478 Q 905.7 479.2 907.5 479 L 909.5 481 L 910.5 481 L 912.5 483 L 913.5 483 L 918.5 488 L 919.5 488 L 924.5 493 L 925.5 493 L 934.5 502 L 935.5 502 L 946.5 513 L 948 513 L 948 514.5 L 955 521.5 L 955 522.5 L 959 526.5 L 959 527.5 L 963 531.5 L 963 532.5 L 967 536.5 L 967 537.5 L 969 539.5 L 969 540.5 L 972 543.5 L 972 544.5 L 977 549.5 L 977 550.5 L 989.5 563 L 990.5 563 L 998.5 571 L 999.5 571 L 1006.5 578 L 1007.5 578 L 1049.5 620 L 1050.5 620 L 1060.5 630 L 1061.5 630 L 1065.5 634 L 1066.5 634 L 1070.5 638 L 1071.5 638 L 1073.5 640 L 1074.5 640 L 1075.5 641 L 1076.5 641 Q 1076.8 642.3 1078.5 642 L 1080.5 644 L 1081.5 644 Q 1081.8 645.3 1083.5 645 L 1085.5 647 L 1086.5 647 L 1088.5 649 L 1089.5 649 L 1094.5 653 L 1095.5 653 L 1098.5 655 L 1100 655 L 1100 655.5 L 1100 1299.5 L 1100 1300 L 1099.5 1300 L 0.5 1300 L 0 1300 L 0 1299.5 L 0 652.5 L 1.5 651 L 3.5 651 Q 4 649.5 6.5 650 L 7.5 649 L 10.5 649 L 11.5 648 L 13.5 648 L 14.5 647 Q 17 647.5 17.5 646 L 20.5 646 L 21.5 645 Q 24 645.5 24.5 644 L 27.5 644 Q 28.3 642.3 31.5 643 L 32.5 642 L 34.5 642 L 35.5 641 L 37.5 641 Q 38 639.5 40.5 640 L 43.5 638 L 45.5 638 L 46.5 637 L 48.5 637 L 49.5 636 L 51.5 636 L 52.5 635 L 54.5 635 L 55.5 634 Q 58 634.5 58.5 633 L 61.5 633 L 62.5 632 L 64.5 632 L 65.5 631 L 67.5 631 L 68.5 630 Q 71 630.5 71.5 629 L 73.5 629 L 76.5 627 L 78.5 627 L 79.5 626 L 80.5 626 L 83.5 624 L 85.5 624 L 88.5 622 L 90.5 622 L 93.5 620 L 95.5 620 L 96.5 619 L 97.5 619 L 98.5 618 L 99.5 618 L 100.5 617 L 101.5 617 Q 101.7 615.7 103.5 616 L 105.5 614 L 106.5 614 L 108.5 612 L 109.5 612 L 112.5 609 L 113.5 609 L 119.5 603 L 120.5 603 L 134.5 589 L 135.5 589 L 146.5 578 L 147.5 578 L 161.5 564 L 163 564 L 163 562.5 L 173 552.5 L 173 551.5 Q 174.2 551.3 174 549.5 L 176 547.5 L 176 546.5 L 180 541.5 L 180 539.5 Q 181.3 539.2 181 537.5 L 183 535.5 L 183 534.5 L 184 533.5 L 184 532.5 Q 185.3 532.2 185 530.5 L 187 528.5 L 187 527.5 L 190 524.5 L 190 523.5 L 197.5 516 L 198.5 516 L 201.5 513 L 202.5 513 L 204.5 511 L 205.5 511 L 207.5 509 L 208.5 509 L 211.5 506 L 212.5 506 L 222.5 496 L 223.5 496 L 227.5 492 L 228.5 492 L 230.5 490 L 231.5 490 L 233.5 488 L 234.5 488 L 236.5 486 L 237.5 486 L 239.5 484 L 240.5 484 L 245.5 480 L 246.5 480 L 247.5 479 L 248.5 479 Q 248.7 477.7 250.5 478 L 252.5 476 L 253.5 476 Q 253.7 474.7 255.5 475 L 257.5 473 L 258.5 473 L 268 463.5 L 268 462.5 L 270 460.5 L 270 459.5 L 271 458.5 L 271 457.5 L 272 456.5 L 272 455.5 L 273 454.5 L 273 453.5 L 274 452.5 L 274 451.5 L 275 450.5 L 275 449.5 L 276 448.5 L 276 447.5 L 277 446.5 L 277 445.5 L 278 444.5 L 278 443.5 L 279 442.5 L 279 441.5 L 280 440.5 L 280 439.5 L 282 436.5 L 282 434.5 L 284 431.5 Q 283.2 428.2 285 427.5 L 284 426.5 L 284 419.5 L 285 418.5 L 285 409.5 L 283 406.5 L 283 401.5 Q 284.3 401.3 284 399.5 L 283 398.5 Q 283.2 396.7 282 396.5 L 282 394.5 L 280 391.5 L 280 386.5 L 278 384.5 Q 278.5 382 277 381.5 L 277 376.5 L 277 376 L 275 376 L 275 374.5 L 274 373.5 L 274 371.5 Q 272.8 371.3 273 369.5 L 271.5 368 L 270.5 368 L 268.5 366 L 263.5 366 L 262.5 365 L 261.5 366 L 258.5 366 Q 258 367.5 255.5 367 L 254.5 368 L 253.5 368 L 252.5 369 L 251.5 369 L 250.5 370 L 249.5 370 Q 249.2 371.3 247.5 371 L 242.5 375 Q 240.7 374.7 240.5 376 L 238.5 376 L 237.5 377 L 236.5 377 L 235.5 378 L 234.5 378 Q 234.3 379.3 232.5 379 L 227.5 383 L 226.5 383 L 225.5 384 L 224.5 384 L 223.5 385 L 222.5 385 L 221.5 386 L 220.5 386 L 217.5 388 L 215.5 388 Q 215.2 389.3 213.5 389 L 208.5 393 L 207.5 393 L 206.5 394 L 205.5 394 L 204.5 395 L 203.5 395 L 202.5 396 L 201.5 396 L 198.5 398 L 196.5 398 Q 196 399.5 193.5 399 L 191.5 401 L 190.5 401 L 189.5 402 L 188.5 402 L 185.5 404 L 183.5 404 L 180.5 406 L 178.5 406 L 175.5 408 L 173.5 408 L 172.5 409 L 171.5 409 L 168.5 411 L 166.5 411 L 165.5 412 L 163.5 412 L 160.5 414 L 158.5 414 L 157.5 415 L 156.5 415 L 155.5 416 L 154.5 416 L 151.5 418 L 149.5 418 L 148.5 419 L 145.5 419 Q 145 420.5 142.5 420 L 141.5 421 L 140.5 421 L 139.5 422 L 138.5 422 L 135.5 424 L 133.5 424 L 132.5 425 Q 130 424.5 129.5 426 L 126.5 426 Q 126 427.5 123.5 427 L 122.5 428 L 121.5 428 L 120.5 429 L 119.5 429 L 116.5 431 L 114.5 431 L 113.5 432 L 111.5 432 L 110.5 433 L 108.5 433 L 107.5 434 L 105.5 434 Q 105 435.5 102.5 435 L 99.5 437 L 97.5 437 L 96.5 438 L 94.5 438 L 93.5 439 L 91.5 439 Q 91 440.5 88.5 440 L 85.5 442 L 83.5 442 L 82.5 443 L 80.5 443 L 79.5 444 L 77.5 444 L 76.5 445 L 74.5 445 L 73.5 446 L 71.5 446 Q 71 447.5 68.5 447 L 65.5 449 L 63.5 449 L 60.5 451 L 58.5 451 L 57.5 452 L 55.5 452 L 54.5 453 L 52.5 453 L 51.5 454 L 49.5 454 Q 49 455.5 46.5 455 L 43.5 457 L 41.5 457 Q 41 458.5 38.5 458 L 35.5 460 L 33.5 460 Q 33 461.5 30.5 461 L 27.5 463 L 25.5 463 L 24.5 464 L 23.5 464 L 22.5 465 L 21.5 465 Q 21.3 466.3 19.5 466 L 18.5 467 L 17.5 467 Q 17.2 468.2 15.5 468 L 12.5 470 L 10.5 470 L 9.5 471 L 8.5 471 L 7.5 472 L 6.5 472 Q 6.2 473.3 4.5 473 L 1.5 475 L 0 475 L 0 474.5 L 0 407.5 L 1.5 406 Q 3.2 406.2 3.5 405 L 5.5 405 L 8.5 403 L 10.5 403 L 13.5 401 L 15.5 401 L 16.5 400 L 17.5 400 L 18.5 399 L 19.5 399 Q 19.8 397.7 21.5 398 L 22.5 397 L 23.5 397 L 24.5 396 L 25.5 396 Q 25.8 394.8 27.5 395 L 28.5 394 L 29.5 394 L 32.5 392 L 34.5 392 L 37.5 390 L 39.5 390 L 40.5 389 L 41.5 389 L 42.5 388 L 43.5 388 L 44.5 387 L 45.5 387 L 46.5 386 L 47.5 386 L 48.5 385 L 49.5 385 L 50.5 384 L 51.5 384 L 54.5 382 L 56.5 382 L 57.5 381 L 58.5 381 L 61.5 379 L 63.5 379 L 64.5 378 L 65.5 378 L 66.5 377 L 67.5 377 L 68.5 376 L 69.5 376 L 72.5 374 L 74.5 374 L 75.5 373 L 76.5 373 L 77.5 372 L 78.5 372 L 81.5 370 L 83.5 370 L 86.5 368 L 88.5 368 L 89.5 367 L 90.5 367 L 93.5 365 L 95.5 365 L 96.5 364 L 97.5 364 L 98.5 363 L 99.5 363 L 102.5 361 L 104.5 361 L 105.5 360 L 106.5 360 L 107.5 359 L 108.5 359 L 111.5 357 L 113.5 357 L 114.5 356 L 115.5 356 L 116.5 355 L 117.5 355 L 120.5 353 L 122.5 353 L 123.5 352 L 124.5 352 L 127.5 350 L 129.5 350 L 130.5 349 L 131.5 349 Q 131.8 347.7 133.5 348 L 135.5 346 L 136.5 346 L 139.5 344 L 141.5 344 L 142.5 343 L 143.5 343 L 146.5 341 L 148.5 341 L 149.5 340 L 150.5 340 L 151.5 339 L 152.5 339 L 153.5 338 L 154.5 338 Q 154.7 336.7 156.5 337 L 158.5 335 L 159.5 335 L 160.5 334 L 161.5 334 L 164.5 332 L 166.5 332 L 167.5 331 L 168.5 331 L 169.5 330 L 170.5 330 L 173.5 328 L 175.5 328 L 176.5 327 L 177.5 327 L 178.5 326 L 179.5 326 L 180.5 325 L 181.5 325 L 182.5 324 L 183.5 324 L 184.5 323 L 185.5 323 L 186.5 322 L 187.5 322 L 188.5 321 L 189.5 321 Q 189.8 319.7 191.5 320 L 193.5 318 L 194.5 318 Q 194.8 316.7 196.5 317 L 198.5 315 L 199.5 315 Q 199.7 313.8 201.5 314 L 203.5 312 L 204.5 312 Q 204.8 310.7 206.5 311 L 208.5 309 L 209.5 309 L 210.5 308 L 211.5 308 Q 211.8 306.8 213.5 307 L 215.5 305 L 216.5 305 Q 216.8 303.8 218.5 304 L 220.5 302 L 221.5 302 L 222.5 301 L 223.5 301 L 224.5 300 L 225.5 300 L 228.5 298 L 230.5 298 L 233.5 296 L 235.5 296 L 238.5 294 L 240.5 294 L 243.5 292 L 246.5 292 L 247.5 291 L 249.5 291 L 250.5 290 Q 253 290.5 253.5 289 L 257.5 289 L 258.5 288 Q 261 288.5 261.5 287 Q 264.8 287.8 265.5 286 L 269.5 286 L 270.5 285 L 273.5 285 L 274.5 284 L 277.5 284 L 278.5 283 Q 281.7 283.8 282.5 282 L 287.5 282 L 288.5 281 L 292.5 281 L 293.5 280 L 299.5 280 L 300.5 279 L 305.5 279 L 306.5 278 L 314.5 278 L 315.5 277 L 324.5 277 L 325.5 276 L 332.5 276 L 333.5 275 L 342.5 275 L 343.5 274 L 351.5 274 L 352.5 273 L 364.5 273 L 365.5 272 L 375.5 272 L 376.5 271 L 386.5 271 L 387.5 270 L 397.5 270 L 398.5 269 L 406.5 269 L 407.5 268 L 415.5 268 L 416.5 267 L 422.5 267 L 423.5 266 L 430.5 266 L 431.5 265 L 436.5 265 L 437.5 264 L 442.5 264 L 443.5 263 L 447.5 263 L 448.5 262 L 451.5 262 L 452.5 261 L 455.5 261 Q 456.3 259.3 459.5 260 L 460.5 259 Q 463 259.5 463.5 258 L 466.5 258 L 467.5 257 Q 470 257.5 470.5 256 L 473.5 256 L 476.5 254 L 478.5 254 L 479.5 253 L 480.5 253 Q 480.8 251.7 482.5 252 L 484 250.5 L 482.5 249 Q 480.7 249.2 480.5 248 L 476.5 248 L 475.5 247 L 457.5 247 L 456.5 246 L 364.5 246 L 363.5 245 Q 361.5 245 361 245 L 361 242 L 362.5 242 L 363.5 241 Q 366 241.5 366.5 240 L 472.5 240 L 473.5 239 L 479.5 239 L 480.5 238 L 482.5 238 Q 482.7 236.8 484.5 237 L 486 235.5 L 486 228.5 L 485 227.5 L 485 223.5 L 486 222.5 L 486 214.5 L 487 213.5 L 487 211.5 Q 488.2 211.3 488 209.5 L 490.5 207 L 491.5 207 L 494.5 205 L 496.5 205 L 499.5 203 L 501.5 203 L 502.5 202 Q 505.8 202.8 506.5 201 L 510.5 201 L 511.5 200 L 515.5 200 L 516.5 199 L 521.5 199 L 522.5 198 L 528.5 198 L 529.5 197 L 538.5 197 L 539.5 196 L 556.5 196 L 557.5 195 Z M 433 281 L 431 283 L 434 285 Q 435 285 436 286 L 438 286 L 441 288 L 442 288 L 443 289 L 445 289 L 446 290 L 448 290 L 451 292 L 453 292 L 456 294 L 457 294 L 459 296 Q 460 296 461 297 L 463 297 Q 463 298 465 298 L 468 301 L 469 301 L 472 305 L 472 306 L 474 307 Q 475 307 476 308 L 477 308 L 478 309 L 479 309 L 480 310 L 481 310 L 482 311 L 483 311 L 484 312 L 485 312 L 486 314 Q 485 316 488 315 L 493 321 L 493 322 L 495 323 Q 496 323 497 324 L 498 324 L 501 328 L 501 329 L 503 331 Q 502 333 505 332 L 508 336 Q 508 337 509 338 L 509 339 L 510 340 L 510 344 L 511 345 L 511 346 L 513 346 L 518 351 Q 519 351 520 352 L 522 352 L 523 353 L 524 353 L 527 356 Q 528 356 529 357 L 531 357 L 534 360 Q 535 360 536 361 Q 538 361 539 362 L 541 362 Q 541 363 543 363 L 545 365 Q 546 365 547 366 L 549 366 L 552 368 L 553 368 L 554 369 Q 556 369 557 370 L 559 370 L 560 371 L 562 371 L 565 373 L 568 373 Q 568 375 571 374 L 577 378 L 579 378 L 582 380 L 583 380 L 586 383 Q 587 383 588 384 L 590 384 L 593 386 L 594 386 L 595 387 L 596 387 L 597 388 L 599 388 Q 599 389 601 389 L 602 390 Q 604 390 605 391 L 607 391 L 608 392 L 610 392 L 611 393 L 613 393 L 616 395 L 617 395 L 619 397 L 621 397 L 624 399 L 625 399 L 630 403 L 631 403 L 633 405 Q 634 405 635 406 L 637 406 L 639 408 L 640 408 L 643 411 L 644 411 L 647 414 Q 648 414 649 415 L 650 415 L 657 422 L 658 422 L 661 425 L 662 425 L 665 428 L 666 428 L 673 435 L 674 435 L 677 438 Q 678 438 679 439 L 680 439 L 681 440 L 682 440 L 683 441 L 684 441 L 685 442 L 686 442 L 687 443 L 689 443 L 692 440 L 692 438 Q 691 437 691 436 L 689 434 L 689 432 L 687 429 L 687 427 L 686 427 L 681 423 L 679 423 L 676 420 L 675 420 L 666 411 L 665 411 L 663 409 Q 661 409 661 408 L 660 408 L 658 406 Q 656 406 656 405 L 654 405 L 651 403 L 650 403 L 648 401 L 647 401 L 645 399 Q 643 399 643 398 L 641 398 L 638 396 L 637 396 L 636 395 L 635 395 L 630 390 L 628 390 L 625 388 L 623 388 L 620 386 L 619 386 L 618 385 L 616 385 Q 615 384 614 384 L 611 381 Q 608 382 608 380 L 605 380 L 604 379 L 601 379 L 598 377 L 597 377 L 596 376 Q 593 377 593 375 L 591 375 L 588 373 Q 585 374 585 372 L 583 372 L 582 371 L 579 371 L 576 369 L 575 369 L 574 368 L 572 368 L 569 366 L 567 366 L 564 364 L 562 364 L 559 362 L 558 362 L 557 361 L 556 361 L 551 357 L 551 355 L 550 355 L 547 353 L 545 353 L 542 351 L 541 351 L 540 350 L 539 350 L 538 349 L 536 349 Q 535 348 534 348 L 529 343 Q 527 343 527 342 L 526 342 L 523 340 L 523 338 L 519 333 L 518 333 L 515 331 L 515 328 L 512 324 L 510 324 L 510 323 L 508 321 L 508 319 L 507 317 Q 505 317 505 316 L 503 316 L 500 314 Q 500 312 499 312 L 499 311 L 497 308 Q 494 309 494 307 L 492 307 Q 491 306 490 306 L 488 304 L 487 304 L 485 302 Q 483 302 483 301 L 481 301 L 477 297 Q 475 297 475 296 L 474 296 L 471 293 Q 469 293 469 292 L 468 292 L 467 291 Q 464 292 464 290 L 461 290 Q 460 289 459 289 L 457 287 Q 455 287 455 286 L 454 286 L 453 285 L 450 285 Q 449 284 447 284 L 446 283 L 444 283 L 443 282 L 441 282 L 440 281 L 433 281 Z " /><path fill="rgb(0,0,0)" stroke="rgb(0,0,0)" stroke-width="0" opacity="1" d="M 1.5 199 L 5.5 199 L 6 199.5 L 5.5 200 L 1.5 200 L 0.5 201 L 0 200.5 L 1.5 199 Z " /></svg>